<svg id="Layer_1" data-name="Layer 1" xmlns="http://www.w3.org/2000/svg" xmlns:xlink="http://www.w3.org/1999/xlink" viewBox="0 0 39.92 39.92"><defs><style>.cls-1{fill:none;}.cls-2{clip-path:url(#clip-path);}.cls-3{fill:#00559f;}</style><clipPath id="clip-path"><rect class="cls-1" width="39.92" height="39.92"/></clipPath></defs><title>FB_icon</title><g class="cls-2"><path class="cls-3" d="M22.06,21.15s0,.06,0,.09q0,.91,0,1.82,0,5.14,0,10.28c0,.13,0,.12-.11.12H17.21c-.11,0-.11,0-.11-.11q0-6,0-12.1s0-.08,0-.11H13c-.06,0-.08,0-.08-.08q0-1.58,0-3.16c0-.49,0-1,0-1.47,0-.08,0-.09.1-.09H17c.08,0,.1,0,.1-.1q0-1.7,0-3.4a8.51,8.51,0,0,1,.23-2A5.58,5.58,0,0,1,18.92,8a5.48,5.48,0,0,1,2.35-1.27,7.72,7.72,0,0,1,2-.25c.77,0,1.55,0,2.32.07.43,0,.85.06,1.28.11.07,0,.08,0,.08.1q0,1.75,0,3.49c0,.21,0,.43,0,.64,0,.06,0,.08-.08.08H24.33a3.61,3.61,0,0,0-1,.14,1.6,1.6,0,0,0-1.17,1.32,4.53,4.53,0,0,0-.07.89c0,1,0,2,0,3,0,.08,0,.09.1.09h4.56c.08,0,.1,0,.09.09-.1.76-.2,1.53-.3,2.29L26.21,21c0,.18,0,.18-.2.18H22.06"/></g></svg>