<svg id="Layer_1" data-name="Layer 1" xmlns="http://www.w3.org/2000/svg" xmlns:xlink="http://www.w3.org/1999/xlink" viewBox="0 0 39.92 39.92"><defs><style>.cls-1{fill:none;}.cls-2{clip-path:url(#clip-path);}.cls-3{fill:#00559f;}</style><clipPath id="clip-path"><rect class="cls-1" width="39.92" height="39.92"/></clipPath></defs><title>Instagram_icon-01</title><g class="cls-2"><path class="cls-3" d="M29.34,12.14a1.67,1.67,0,0,1-1.57-1.64A1.57,1.57,0,0,1,29.34,9a1.5,1.5,0,0,1,1.57,1.56,1.58,1.58,0,0,1-1.58,1.58M20,27.82A7.86,7.86,0,1,1,27.8,20,7.88,7.88,0,0,1,20,27.82M34.07,13.76a7.81,7.81,0,0,0-7.73-7.92q-6.4-.07-12.8,0A7.58,7.58,0,0,0,6,12.53,54.68,54.68,0,0,0,5.83,19s0,1,0,1c0,2.09,0,4.18,0,6.27a7.83,7.83,0,0,0,7.81,7.84q6.31.07,12.63,0a7.82,7.82,0,0,0,7.8-7.76q.07-6.27,0-12.55"/><path class="cls-3" d="M20,15.28a4.68,4.68,0,1,0,4.65,4.77A4.64,4.64,0,0,0,20,15.28"/></g></svg>