<svg id="Layer_1" data-name="Layer 1" xmlns="http://www.w3.org/2000/svg" xmlns:xlink="http://www.w3.org/1999/xlink" viewBox="0 0 618 222"><defs><style>.cls-1{fill:none;}.cls-2{font-size:89px;font-family:AmerTypewriterITCbyBT-Bold, AmerType Md BT;font-weight:700;}.cls-2,.cls-4{fill:#231f20;}.cls-3{clip-path:url(#clip-path);}</style><clipPath id="clip-path"><rect class="cls-1" x="3" y="2.99" width="612.1" height="215.01"/></clipPath></defs><title>Title</title><text class="cls-2" transform="translate(525.53 147.98)"> </text><g class="cls-3"><path class="cls-4" d="M601.88,213.56a13.22,13.22,0,1,0-13.22-13.22,13.22,13.22,0,0,0,13.22,13.22"/><path class="cls-4" d="M532.59,216.76a24.3,24.3,0,0,0,8.32,1.24q9.26,0,14.43-4.06t5.17-11.36q0-5.74-2.91-8.71t-10.47-4.54l-4.87-.91q-8.47-1.48-8.47-4.52a3.15,3.15,0,0,1,1.51-2.69,6.8,6.8,0,0,1,3.95-1,9,9,0,0,1,3.95.74,10.59,10.59,0,0,1,3.12,2.56q.44.52,1.18,1.48a6.57,6.57,0,0,0,5.32,3,4,4,0,0,0,4.4-4.39,26.45,26.45,0,0,0-.22-2.65,27,27,0,0,1-.22-3,12.12,12.12,0,0,1,.22-2.09,12,12,0,0,0,.22-1.57,3.57,3.57,0,0,0-.9-2.74,4.65,4.65,0,0,0-3.14-.83,6,6,0,0,0-3.66.87,3.3,3.3,0,0,0-1.12,2.78v.26a10,10,0,0,0-4.67-2.93,22.57,22.57,0,0,0-7.24-1.06q-8.08,0-12.86,3.78a12.16,12.16,0,0,0-4.78,10,11.45,11.45,0,0,0,3.37,8.69q3.37,3.22,10.89,4.82,2.09.65,5.52,1.48,7,1.61,7,4.56a3.09,3.09,0,0,1-1.87,2.82,11.3,11.3,0,0,1-5.26,1,12.09,12.09,0,0,1-5.37-1.19,8.32,8.32,0,0,1-3.63-3.15,7.14,7.14,0,0,1-.66-1.57,5.05,5.05,0,0,0-5.12-3.78,6.51,6.51,0,0,0-4.15,1.11,4,4,0,0,0-1.37,3.32q0,.87.22,3t.22,3.41a17.48,17.48,0,0,1-.22,2.54,17.89,17.89,0,0,0-.22,1.8,4.4,4.4,0,0,0,1.06,3.26,4.65,4.65,0,0,0,3.36,1,5.28,5.28,0,0,0,3.58-1.09,5.44,5.44,0,0,0,1.59-3.39,9.22,9.22,0,0,0,4.84,3.58m-56.3-22.34q0-5.88,1.74-8.51a7.17,7.17,0,0,1,10.34-.8,7.47,7.47,0,0,1,1.69,5.25v14a3.59,3.59,0,0,1-.28,1.76,2,2,0,0,1-1.24.64q-2.3.45-2.87,1.45a7,7,0,0,0-.57,3.27,6.33,6.33,0,0,0,1.22,4.27,4.73,4.73,0,0,0,3.74,1.38q.74,0,4.5-.35t6.8-.35a37.92,37.92,0,0,1,4.91.35q2.65.35,3.13.35a4.31,4.31,0,0,0,3.54-1.52,6.7,6.7,0,0,0,1.24-4.33,6.14,6.14,0,0,0-1-3.71,3.2,3.2,0,0,0-2.69-1.43,7.91,7.91,0,0,0-2.06.35,7.74,7.74,0,0,1-1.67.35,2.92,2.92,0,0,1-2.09-.52,4.06,4.06,0,0,1-.48-2.47V189.37a41.75,41.75,0,0,0-.63-8.52,11.11,11.11,0,0,0-2.15-4.62,13.07,13.07,0,0,0-5.26-4,18.82,18.82,0,0,0-7.39-1.35,18.09,18.09,0,0,0-9.21,2.24,16,16,0,0,0-6.17,6.67v-4.26a8.35,8.35,0,0,0-.5-3.46,1.85,1.85,0,0,0-1.8-1,19.46,19.46,0,0,0-2.69.35,20.13,20.13,0,0,1-3.35.35,39.77,39.77,0,0,1-5.08-.35q-2.69-.35-3-.35a4.21,4.21,0,0,0-3.52,1.62,7.38,7.38,0,0,0-1.26,4.62,5.92,5.92,0,0,0,1.06,3.74,3.51,3.51,0,0,0,2.93,1.37,8.49,8.49,0,0,0,2-.35,8.37,8.37,0,0,1,1.87-.35,2.53,2.53,0,0,1,1.72.41,3.16,3.16,0,0,1,.41,2v19.7a4.37,4.37,0,0,1-.41,2.38,2,2,0,0,1-1.63.52,8.46,8.46,0,0,1-1.78-.35,8.64,8.64,0,0,0-2.13-.35,3.57,3.57,0,0,0-3,1.45,6.13,6.13,0,0,0-1.13,3.87,6.34,6.34,0,0,0,1.22,4.34,5.11,5.11,0,0,0,4,1.34q.87,0,3.63-.35a38.08,38.08,0,0,1,4.63-.35q1.56,0,5.15.35t5.63.35a6.75,6.75,0,0,0,4.63-1.35,5.39,5.39,0,0,0,1.5-4.2,4.32,4.32,0,0,0-4-4.71l-.57-.09a1.84,1.84,0,0,1-1.3-.78,5.08,5.08,0,0,1-.3-2.16Zm-68.75,17.12q6.3,6.45,16.95,6.45,11,0,17.27-6.37t6.32-17.32q0-10.86-6.35-17.27t-17.17-6.41q-10.73,0-17,6.43t-6.3,17.25q0,10.78,6.3,17.23m10.13-26.83a8.16,8.16,0,0,1,7-3.3,8,8,0,0,1,6.87,3.41q2.48,3.41,2.48,9.49t-2.41,9.56a8,8,0,0,1-6.93,3.35,8.13,8.13,0,0,1-7-3.35q-2.46-3.35-2.46-9.56t2.43-9.6M371.91,204a3.65,3.65,0,0,1-.48,2.22,2.32,2.32,0,0,1-1.83.57,11.33,11.33,0,0,1-2.09-.35,11.64,11.64,0,0,0-2.48-.35,4.48,4.48,0,0,0-3.5,1.42,5.54,5.54,0,0,0-1.28,3.86,5.8,5.8,0,0,0,1.43,4.32,6.15,6.15,0,0,0,4.43,1.4q.35,0,4.3-.35t7.6-.35q6.48,0,12.82.6c.78.06,1.26.1,1.43.1a6.15,6.15,0,0,0,4.43-1.4,5.8,5.8,0,0,0,1.43-4.32,5.5,5.5,0,0,0-1.3-3.83,4.46,4.46,0,0,0-3.48-1.44,11.16,11.16,0,0,0-2.48.35,10.8,10.8,0,0,1-2,.35,2.76,2.76,0,0,1-1.91-.48,3.06,3.06,0,0,1-.48-2.05V175.72a6.41,6.41,0,0,0-.65-3.33,2.33,2.33,0,0,0-2.13-1,10.17,10.17,0,0,0-1.85.35,10.11,10.11,0,0,1-2.32.35q-4.08,0-8.58-.35t-4.85-.35a5.79,5.79,0,0,0-4.24,1.6,5.73,5.73,0,0,0-1.63,4.29,5.08,5.08,0,0,0,1.3,3.65,4.47,4.47,0,0,0,3.39,1.37,11.07,11.07,0,0,0,2.06-.35,11.23,11.23,0,0,1,2.41-.35,2.64,2.64,0,0,1,2,.56,3.67,3.67,0,0,1,.52,2.36Zm.78-36.49a8.58,8.58,0,0,0,12,0,7.81,7.81,0,0,0,2.48-5.8,7.89,7.89,0,0,0-2.46-5.85,8.21,8.21,0,0,0-6-2.41,8.36,8.36,0,0,0-6,2.35,7.76,7.76,0,0,0-2.43,5.82,7.93,7.93,0,0,0,2.48,5.87m-46.46,31.33a50.19,50.19,0,0,0,.65,9.8,11.77,11.77,0,0,0,2.22,4.8,11.19,11.19,0,0,0,4.52,3.43A16.33,16.33,0,0,0,340,218q7.86,0,11.93-3.91T356,202.57a13.3,13.3,0,0,0-1.35-6.69,4.37,4.37,0,0,0-4-2.26,4.7,4.7,0,0,0-3.54,1.13q-1.06,1.13-1.07,3.91,0,.74,0,1.87t0,1.52a6.11,6.11,0,0,1-.8,3.54,3,3,0,0,1-2.58,1.11,2.66,2.66,0,0,1-2.39-1,7.91,7.91,0,0,1-.65-3.93V184.06a1.82,1.82,0,0,1,.57-1.5,3.18,3.18,0,0,1,2-.46h5.52q5,0,6.17-1.13t1.22-4.3a4.94,4.94,0,0,0-1-3.56q-1-1-4-1h-8.56a1.94,1.94,0,0,1-1.45-.61,2.1,2.1,0,0,1-.59-1.52v-6.35q0-3.39-1.11-4.22t-4.32-.83a10.17,10.17,0,0,0-5.67,1.28,4.34,4.34,0,0,0-1.89,3.85v6.43a4.79,4.79,0,0,1-.22,1.67c-.14.36-.36.54-.65.54l-4.91.26q-3.13.22-3.91,1.41a7.9,7.9,0,0,0-.78,4.11,5.21,5.21,0,0,0,.83,3.3,3.48,3.48,0,0,0,2.82,1h4.78a1.48,1.48,0,0,1,1.37.67,4.5,4.5,0,0,1,.41,2.24v13.51Zm-26,17.82A11.23,11.23,0,0,0,306,218a10,10,0,0,0,6.26-1.76,5.8,5.8,0,0,0,2.26-4.84,4.86,4.86,0,0,0-.89-3.09,3.33,3.33,0,0,0-2.45-1.26,7.91,7.91,0,0,0-.91,0q-3.39-.17-3.39-2.35V186.58a25.69,25.69,0,0,0-.87-8,9.3,9.3,0,0,0-3-4.08,16.54,16.54,0,0,0-6.41-3,40.2,40.2,0,0,0-9.45-1q-9.3,0-14.17,2.65T268.13,181a6.25,6.25,0,0,0,2.15,4.93A8.28,8.28,0,0,0,276,187.8a10.52,10.52,0,0,0,5.45-1.3q2.19-1.3,2.19-3,0-.26-.09-1.11t-.09-1.37a1.87,1.87,0,0,1,1-1.76,6.56,6.56,0,0,1,3.09-.54,5.61,5.61,0,0,1,4,1.43A4.82,4.82,0,0,1,293,183.8q0,4.21-10.91,5.91l-1.78.26q-9.13,1.39-12.56,4.56t-3.43,9.56a12.78,12.78,0,0,0,4.35,10.08Q273,218,280.26,218a30.45,30.45,0,0,0,9.43-1.26,20.16,20.16,0,0,0,7-4.09,8.62,8.62,0,0,0,3.54,4m-7.58-16.91q0,4.22-2,6.32t-6.13,2.11a5.6,5.6,0,0,1-3.93-1.37,4.63,4.63,0,0,1-1.5-3.58q0-3.65,5.48-4.59a30.08,30.08,0,0,0,8.13-2.28Zm-38.42-14.89a6.48,6.48,0,0,1,1.32-2.68,2.72,2.72,0,0,1,2-.77,3.14,3.14,0,0,1,1.11.35,3.16,3.16,0,0,0,1.24.35,4.06,4.06,0,0,0,3.19-1.4,5.34,5.34,0,0,0,1.24-3.67,6.29,6.29,0,0,0-1.3-4.23,4.5,4.5,0,0,0-3.61-1.52l-4,.35q-3.89.35-7.67.35a33.15,33.15,0,0,1-4.54-.35q-2.5-.35-3-.35a4,4,0,0,0-3.09,1.41,5.12,5.12,0,0,0-1.26,3.54,6.47,6.47,0,0,0,.78,3.43,4.07,4.07,0,0,0,2.43,1.75,2.73,2.73,0,0,1,1.67.69,1.91,1.91,0,0,1,.63,1.44,3.61,3.61,0,0,1,0,.47,2.16,2.16,0,0,1-.06.28L237,197.15q-.26.77-1,3.72T234.58,206q-.65-2.23-1.37-5.16t-.93-3.61l-4.39-12.9a.79.79,0,0,1-.07-.22,3.56,3.56,0,0,1,0-.49,1.85,1.85,0,0,1,.57-1.37,2.45,2.45,0,0,1,1.57-.65,3.84,3.84,0,0,0,2.52-1.7,6.45,6.45,0,0,0,.87-3.55,5.21,5.21,0,0,0-1.26-3.63,4.2,4.2,0,0,0-3.26-1.39q-.44,0-2.93.35a33.16,33.16,0,0,1-4.54.35q-3.78,0-7.63-.35l-3.93-.35a4.5,4.5,0,0,0-3.61,1.52,6.29,6.29,0,0,0-1.3,4.23,5.4,5.4,0,0,0,1.22,3.67,4,4,0,0,0,3.22,1.4,3.17,3.17,0,0,0,1.24-.35,3.14,3.14,0,0,1,1.11-.35,2.7,2.7,0,0,1,1.93.72,6.74,6.74,0,0,1,1.41,2.72l10.08,28.67A7.19,7.19,0,0,0,227.3,217a6.44,6.44,0,0,0,3.8,1h7.13a6.25,6.25,0,0,0,3.74-1,7.3,7.3,0,0,0,2.22-3.52ZM180.22,204a3.65,3.65,0,0,1-.48,2.22,2.32,2.32,0,0,1-1.82.57,11.33,11.33,0,0,1-2.09-.35,11.63,11.63,0,0,0-2.48-.35,4.48,4.48,0,0,0-3.5,1.42,5.54,5.54,0,0,0-1.28,3.86,5.8,5.8,0,0,0,1.43,4.32,6.15,6.15,0,0,0,4.43,1.4q.35,0,4.3-.35t7.6-.35q6.48,0,12.82.6c.78.06,1.26.1,1.43.1a6.15,6.15,0,0,0,4.43-1.4,5.8,5.8,0,0,0,1.43-4.32,5.5,5.5,0,0,0-1.3-3.83,4.46,4.46,0,0,0-3.48-1.44,11.15,11.15,0,0,0-2.48.35,10.82,10.82,0,0,1-2,.35,2.76,2.76,0,0,1-1.91-.48,3.06,3.06,0,0,1-.48-2.05V175.72a6.42,6.42,0,0,0-.65-3.33,2.34,2.34,0,0,0-2.13-1,10.17,10.17,0,0,0-1.85.35,10.11,10.11,0,0,1-2.32.35q-4.08,0-8.58-.35t-4.85-.35a5.79,5.79,0,0,0-4.24,1.6,5.73,5.73,0,0,0-1.63,4.29,5.08,5.08,0,0,0,1.3,3.65,4.47,4.47,0,0,0,3.39,1.37,11.07,11.07,0,0,0,2.06-.35,11.23,11.23,0,0,1,2.41-.35,2.64,2.64,0,0,1,2,.56,3.67,3.67,0,0,1,.52,2.36ZM181,167.5a8.58,8.58,0,0,0,12,0,7.81,7.81,0,0,0,2.48-5.8,7.89,7.89,0,0,0-2.46-5.85,8.21,8.21,0,0,0-6-2.41,8.36,8.36,0,0,0-6,2.35,7.76,7.76,0,0,0-2.43,5.82A7.93,7.93,0,0,0,181,167.5m-46.46,31.33a50.21,50.21,0,0,0,.65,9.8,11.77,11.77,0,0,0,2.22,4.8,11.21,11.21,0,0,0,4.52,3.43,16.33,16.33,0,0,0,6.35,1.13q7.86,0,11.93-3.91t4.06-11.52a13.3,13.3,0,0,0-1.35-6.69,4.37,4.37,0,0,0-4-2.26,4.7,4.7,0,0,0-3.54,1.13q-1.07,1.13-1.07,3.91,0,.74,0,1.87t0,1.52a6.11,6.11,0,0,1-.8,3.54A3,3,0,0,1,151,206.7a2.66,2.66,0,0,1-2.39-1,7.91,7.91,0,0,1-.65-3.93V184.06a1.82,1.82,0,0,1,.57-1.5,3.18,3.18,0,0,1,2-.46H156q5,0,6.17-1.13t1.22-4.3a4.94,4.94,0,0,0-1-3.56q-1-1-4-1h-8.56a1.94,1.94,0,0,1-1.46-.61,2.1,2.1,0,0,1-.59-1.52v-6.35q0-3.39-1.11-4.22t-4.32-.83a10.17,10.17,0,0,0-5.67,1.28,4.34,4.34,0,0,0-1.89,3.85v6.43a4.79,4.79,0,0,1-.22,1.67c-.14.36-.36.54-.65.54l-4.91.26q-3.13.22-3.91,1.41a7.9,7.9,0,0,0-.78,4.11,5.21,5.21,0,0,0,.83,3.3,3.48,3.48,0,0,0,2.83,1h4.78a1.48,1.48,0,0,1,1.37.67,4.5,4.5,0,0,1,.41,2.24v13.51ZM87.18,211.46Q93.39,218,103.43,218q8.43,0,13.86-3.91t5.43-9.82a6.54,6.54,0,0,0-1.82-4.8,6.42,6.42,0,0,0-4.78-1.85,5.49,5.49,0,0,0-3.54,1.07,9.34,9.34,0,0,0-2.41,4.19,6.22,6.22,0,0,1-6.21,4.43,7.6,7.6,0,0,1-6.56-3.5q-2.43-3.5-2.43-9.5,0-6.3,2.43-9.6a8.16,8.16,0,0,1,7-3.3,7.75,7.75,0,0,1,2.76.41q1.06.41,1.07,1a6,6,0,0,1-.35,1.61,6,6,0,0,0-.35,1.69,4.34,4.34,0,0,0,2,3.72,9.19,9.19,0,0,0,5.37,1.41,7.23,7.23,0,0,0,5.37-2.13,7.4,7.4,0,0,0,2.11-5.43,11.28,11.28,0,0,0-4.93-9.56q-4.93-3.61-13.23-3.61-10.6,0-16.93,6.48T81,194.32q0,10.6,6.21,17.14M16.73,200a16.73,16.73,0,0,1-1.93,4.4,2.35,2.35,0,0,1-1.89.92,13.13,13.13,0,0,1-2.69-.35,12.92,12.92,0,0,0-2.13-.35,4.67,4.67,0,0,0-3.65,1.61A6,6,0,0,0,3,210.43a6.66,6.66,0,0,0,1.74,4.91,6.7,6.7,0,0,0,5,1.74q.82,0,4.69-.35t7-.35q3.17,0,6.82.24t4.13.24q4.21,0,6.3-1.68a6.15,6.15,0,0,0,2.09-5.09,5.91,5.91,0,0,0-1.26-4A4.22,4.22,0,0,0,36,204.66a1.75,1.75,0,0,0-1.26.64l-.09.06a2.81,2.81,0,0,1-1.87-.58,2,2,0,0,1-.7-1.62,3.91,3.91,0,0,1,0-.65c0-.16.07-.35.13-.56L34,197.18q1.26-.12,3.26-.23,3.56-.29,4.65-.29,2.39,0,8,.41.69.06,1.09.12l1.17,4.8a5.05,5.05,0,0,1,.13.61,4.44,4.44,0,0,1,0,.65,1.9,1.9,0,0,1-.69,1.53,2.88,2.88,0,0,1-1.91.58l-.09-.12a1.69,1.69,0,0,0-1.22-.58A4.33,4.33,0,0,0,45,206.14a5.84,5.84,0,0,0-1.28,4,6.11,6.11,0,0,0,2.13,5.07q2.13,1.71,6.34,1.7.48,0,4.09-.24t6.78-.24q3.09,0,7,.35t4.67.35a6.71,6.71,0,0,0,4.93-1.74,6.61,6.61,0,0,0,1.76-4.91,6,6,0,0,0-1.46-4.16,4.69,4.69,0,0,0-3.63-1.61,12.64,12.64,0,0,0-2.22.35,12.9,12.9,0,0,1-2.61.35,2.44,2.44,0,0,1-2-.95A15.34,15.34,0,0,1,67.62,200L55,162.11q-1.39-4.13-3.24-5.28t-9.58-1.15q-7.65,0-9.56,1.24t-3.26,5.19ZM37,186.41l5.13-17.73,5.17,17.73Z"/><path class="cls-4" d="M472.25,127.84a7.81,7.81,0,0,1-6.21,2.54,7.57,7.57,0,0,1-6.61-3.3q-2.3-3.3-2.3-9.43,0-6.52,2.24-9.76a7.67,7.67,0,0,1,6.76-3.24q4.13,0,6.24,2.37t2.11,7v6.72q0,4.59-2.22,7.13m-3.64-32.69a17.62,17.62,0,0,0-19.83,5q-5.08,6.24-5.08,16.58,0,11.34,5,17.77T462.56,141a16.75,16.75,0,0,0,7-1.41,19.82,19.82,0,0,0,6-4.54v3.09a1.78,1.78,0,0,0,.59,1.5,3.11,3.11,0,0,0,1.89.46,23.64,23.64,0,0,0,2.93-.35,24.18,24.18,0,0,1,3.67-.35,38.9,38.9,0,0,1,5,.35q2.69.35,3.13.35a4.84,4.84,0,0,0,3.87-1.61,6.68,6.68,0,0,0,1.39-4.51,5.6,5.6,0,0,0-1.13-3.68,3.84,3.84,0,0,0-3.13-1.36,9.87,9.87,0,0,0-2.19.35,9.74,9.74,0,0,1-2,.35,2.55,2.55,0,0,1-1.83-.49,3.45,3.45,0,0,1-.48-2.23V83.49a6.34,6.34,0,0,0-.54-3.18,2.25,2.25,0,0,0-2-.82,21,21,0,0,0-2.87.35,21.51,21.51,0,0,1-3.39.35q-2,0-5.5-.35t-4.8-.35q-3.52,0-5.06,1.34t-1.54,4.41a5.22,5.22,0,0,0,1.31,3.85,5.12,5.12,0,0,0,3.79,1.31,14,14,0,0,0,2.64-.35,13.91,13.91,0,0,1,2.46-.35,2.46,2.46,0,0,1,1.84.5,4.17,4.17,0,0,1,.43,2.39v6.29a17.07,17.07,0,0,0-5.42-3.72M402,117.41q0-5.88,1.74-8.51a7.17,7.17,0,0,1,10.34-.8,7.46,7.46,0,0,1,1.7,5.25v14a3.58,3.58,0,0,1-.28,1.76,2,2,0,0,1-1.24.65q-2.3.45-2.87,1.45a7,7,0,0,0-.57,3.27,6.32,6.32,0,0,0,1.22,4.27,4.73,4.73,0,0,0,3.74,1.38q.74,0,4.5-.35t6.8-.35a37.91,37.91,0,0,1,4.91.35q2.65.35,3.13.35a4.31,4.31,0,0,0,3.54-1.52,6.71,6.71,0,0,0,1.24-4.34,6.14,6.14,0,0,0-1-3.71,3.2,3.2,0,0,0-2.69-1.43,7.94,7.94,0,0,0-2.06.35,7.7,7.7,0,0,1-1.67.35,2.92,2.92,0,0,1-2.09-.52,4.07,4.07,0,0,1-.48-2.47V112.35a41.74,41.74,0,0,0-.63-8.52,11.11,11.11,0,0,0-2.15-4.62,13.07,13.07,0,0,0-5.26-4,18.81,18.81,0,0,0-7.39-1.35,18.09,18.09,0,0,0-9.21,2.24,16,16,0,0,0-6.17,6.67V98.52a8.33,8.33,0,0,0-.5-3.46,1.85,1.85,0,0,0-1.8-1,19.59,19.59,0,0,0-2.69.35,20,20,0,0,1-3.35.35,39.6,39.6,0,0,1-5.08-.35q-2.69-.35-3-.35a4.21,4.21,0,0,0-3.52,1.62,7.39,7.39,0,0,0-1.26,4.62,5.93,5.93,0,0,0,1.07,3.74,3.51,3.51,0,0,0,2.93,1.37,8.45,8.45,0,0,0,2-.35,8.42,8.42,0,0,1,1.87-.35,2.53,2.53,0,0,1,1.72.41,3.15,3.15,0,0,1,.41,2v19.7a4.37,4.37,0,0,1-.41,2.38,2,2,0,0,1-1.63.52,8.43,8.43,0,0,1-1.78-.35,8.68,8.68,0,0,0-2.13-.35,3.57,3.57,0,0,0-3,1.45,6.12,6.12,0,0,0-1.13,3.87,6.35,6.35,0,0,0,1.22,4.34,5.11,5.11,0,0,0,4,1.34q.87,0,3.63-.35a38.1,38.1,0,0,1,4.63-.35q1.56,0,5.15.35t5.63.35a6.75,6.75,0,0,0,4.63-1.35,5.39,5.39,0,0,0,1.5-4.2,4.32,4.32,0,0,0-4-4.71l-.56-.09a1.84,1.84,0,0,1-1.3-.78,5.08,5.08,0,0,1-.3-2.16Zm-41.83,22.23a11.25,11.25,0,0,0,5.71,1.35,10,10,0,0,0,6.26-1.76,5.8,5.8,0,0,0,2.26-4.85,4.86,4.86,0,0,0-.89-3.08,3.33,3.33,0,0,0-2.46-1.26,7.64,7.64,0,0,0-.91,0q-3.39-.17-3.39-2.35V109.56a25.69,25.69,0,0,0-.87-8,9.31,9.31,0,0,0-3-4.08,16.54,16.54,0,0,0-6.41-3,40.2,40.2,0,0,0-9.45-1q-9.3,0-14.17,2.65T328.06,104a6.25,6.25,0,0,0,2.15,4.93,8.28,8.28,0,0,0,5.67,1.89,10.52,10.52,0,0,0,5.45-1.3q2.19-1.3,2.2-3c0-.17,0-.54-.09-1.11a13.69,13.69,0,0,1-.09-1.37,1.87,1.87,0,0,1,1-1.76,6.55,6.55,0,0,1,3.08-.54,5.61,5.61,0,0,1,4,1.43,4.82,4.82,0,0,1,1.54,3.69q0,4.22-10.91,5.91l-1.78.26q-9.13,1.39-12.56,4.56t-3.43,9.56a12.78,12.78,0,0,0,4.35,10.08q4.35,3.82,11.6,3.82a30.45,30.45,0,0,0,9.43-1.26,20.18,20.18,0,0,0,7-4.08,8.62,8.62,0,0,0,3.54,4m-7.58-16.91q0,4.22-2,6.32t-6.13,2.11a5.61,5.61,0,0,1-3.93-1.37,4.63,4.63,0,0,1-1.5-3.58q0-3.65,5.48-4.58a30.07,30.07,0,0,0,8.13-2.28Zm-68,6.47a1.67,1.67,0,0,1-1.48.57,10,10,0,0,1-2-.35,10.2,10.2,0,0,0-2.22-.35,3.69,3.69,0,0,0-3,1.42,6,6,0,0,0-1.13,3.86,6.28,6.28,0,0,0,1.26,4.37,5.24,5.24,0,0,0,4,1.35q.44,0,4-.35t6.61-.35q5.87,0,12.43.56,1.65.13,2.09.13a6,6,0,0,0,4.39-1.37,5.89,5.89,0,0,0,1.39-4.34,5.5,5.5,0,0,0-1.3-3.83,4.46,4.46,0,0,0-3.48-1.44,11.39,11.39,0,0,0-2.46.35,11.07,11.07,0,0,1-2,.35,2.74,2.74,0,0,1-1.91-.49,3.1,3.1,0,0,1-.48-2.07v-9.66q0-5.77,2.13-9a7.86,7.86,0,0,1,6.13-3.65,13.23,13.23,0,0,0-.5,1.43,4.85,4.85,0,0,0-.19,1.3,6.29,6.29,0,0,0,1.93,4.87,7.36,7.36,0,0,0,5.19,1.78,7.53,7.53,0,0,0,5.67-2.13,8.07,8.07,0,0,0,2.06-5.87q0-5.69-3.35-9T309.07,94a13.48,13.48,0,0,0-8,2.3,16.47,16.47,0,0,0-5.32,7.17V98.7a8.33,8.33,0,0,0-.48-3.44,1.71,1.71,0,0,0-1.65-.9,5.84,5.84,0,0,0-1.46.35,5.93,5.93,0,0,1-1.76.35,61.58,61.58,0,0,1-6.26-.35q-3.39-.35-3.87-.35a5.38,5.38,0,0,0-4,1.51,6.62,6.62,0,0,0-.37,7.84,3.23,3.23,0,0,0,2.63,1.47,10.49,10.49,0,0,0,2-.35,10.67,10.67,0,0,1,2.37-.35,2.34,2.34,0,0,1,1.72.51,3.44,3.44,0,0,1,.5,2.25V127a4.38,4.38,0,0,1-.39,2.25m-49.76-13q0-1.74.91-2.11a15.59,15.59,0,0,1,4.43-.37q5.65,0,8.47,1.78a5.9,5.9,0,0,1,2.83,5.35q0,3.74-2.37,5.48t-7.45,1.74q-4.56,0-5.69-.48a1.87,1.87,0,0,1-1.13-1.91Zm-15.25,9.26v.47a3.81,3.81,0,0,1-.46,2.36,2.65,2.65,0,0,1-1.85.46,10.2,10.2,0,0,1-2-.35,10.3,10.3,0,0,0-2.3-.35,4.37,4.37,0,0,0-3.5,1.55,6.23,6.23,0,0,0-1.32,4.18,6.61,6.61,0,0,0,1.48,4.71,6,6,0,0,0,4.52,1.55q.61,0,4.39-.35t7-.35q3,0,9.34.27t9.69.27q11.52,0,17.47-4.56t6-13.41q0-6.32-3.61-10t-10.73-4.6q6.21-.61,9.28-3.68T266.09,95q0-7.19-4.67-11.09T248.14,80q-3.3,0-8.54.35t-7.15.35q-8.65,0-16.9-.62L213.94,80a5.22,5.22,0,0,0-4.17,1.65,7.17,7.17,0,0,0-1.43,4.83,6.26,6.26,0,0,0,1.19,4,3.88,3.88,0,0,0,3.19,1.5,9.44,9.44,0,0,0,2.28-.43,9.5,9.5,0,0,1,2.32-.43,2.31,2.31,0,0,1,1.8.58,5.25,5.25,0,0,1,.5,2.93ZM235.8,91.75a10.84,10.84,0,0,1,3.87-.43q5,0,7.21,1.46a5.18,5.18,0,0,1,2.22,4.67,4.84,4.84,0,0,1-2.63,4.54q-2.63,1.46-8.32,1.46a7.34,7.34,0,0,1-2.67-.3q-.59-.3-.59-1.74V93.58a1.82,1.82,0,0,1,.91-1.83m-83.53,36.1a7.81,7.81,0,0,1-6.21,2.54,7.57,7.57,0,0,1-6.61-3.3q-2.3-3.3-2.3-9.43,0-6.52,2.24-9.76a7.67,7.67,0,0,1,6.76-3.24q4.13,0,6.24,2.37t2.11,7v6.72q0,4.59-2.22,7.13m-3.64-32.69a17.62,17.62,0,0,0-19.83,5q-5.08,6.24-5.08,16.58,0,11.34,5,17.77T142.58,141a16.75,16.75,0,0,0,7-1.41,19.82,19.82,0,0,0,6-4.54v3.09a1.78,1.78,0,0,0,.59,1.5,3.11,3.11,0,0,0,1.89.46,23.64,23.64,0,0,0,2.93-.35,24.18,24.18,0,0,1,3.67-.35,38.9,38.9,0,0,1,5,.35q2.69.35,3.13.35a4.84,4.84,0,0,0,3.87-1.61,6.68,6.68,0,0,0,1.39-4.51,5.6,5.6,0,0,0-1.13-3.68,3.84,3.84,0,0,0-3.13-1.36,9.87,9.87,0,0,0-2.2.35,9.75,9.75,0,0,1-2,.35,2.55,2.55,0,0,1-1.83-.49,3.45,3.45,0,0,1-.48-2.23V83.49a6.34,6.34,0,0,0-.54-3.18,2.25,2.25,0,0,0-2-.82,21,21,0,0,0-2.87.35,21.51,21.51,0,0,1-3.39.35q-2,0-5.5-.35t-4.8-.35q-3.52,0-5.06,1.34t-1.54,4.41a5.22,5.22,0,0,0,1.31,3.85,5.12,5.12,0,0,0,3.79,1.31,14,14,0,0,0,2.64-.35,13.91,13.91,0,0,1,2.46-.35,2.46,2.46,0,0,1,1.84.5,4.17,4.17,0,0,1,.43,2.39v6.29a17.07,17.07,0,0,0-5.42-3.72M82,117.41q0-5.88,1.74-8.51a7.17,7.17,0,0,1,10.34-.8,7.46,7.46,0,0,1,1.69,5.25v14a3.58,3.58,0,0,1-.28,1.76,2,2,0,0,1-1.24.65q-2.3.45-2.87,1.45a7,7,0,0,0-.57,3.27,6.32,6.32,0,0,0,1.22,4.27,4.73,4.73,0,0,0,3.74,1.38q.74,0,4.5-.35t6.8-.35a37.92,37.92,0,0,1,4.91.35q2.65.35,3.13.35a4.31,4.31,0,0,0,3.54-1.52,6.71,6.71,0,0,0,1.24-4.34,6.15,6.15,0,0,0-1-3.71,3.2,3.2,0,0,0-2.69-1.43,7.94,7.94,0,0,0-2.06.35,7.7,7.7,0,0,1-1.67.35,2.92,2.92,0,0,1-2.09-.52,4.07,4.07,0,0,1-.48-2.47V112.35a41.75,41.75,0,0,0-.63-8.52,11.11,11.11,0,0,0-2.15-4.62,13.07,13.07,0,0,0-5.26-4,18.81,18.81,0,0,0-7.39-1.35,18.09,18.09,0,0,0-9.21,2.24,16,16,0,0,0-6.17,6.67V98.52a8.33,8.33,0,0,0-.5-3.46,1.85,1.85,0,0,0-1.8-1,19.59,19.59,0,0,0-2.69.35,20,20,0,0,1-3.35.35,39.6,39.6,0,0,1-5.08-.35q-2.69-.35-3-.35a4.21,4.21,0,0,0-3.52,1.62,7.39,7.39,0,0,0-1.26,4.62,5.93,5.93,0,0,0,1.07,3.74,3.51,3.51,0,0,0,2.93,1.37,8.45,8.45,0,0,0,2-.35,8.42,8.42,0,0,1,1.87-.35,2.53,2.53,0,0,1,1.72.41,3.15,3.15,0,0,1,.41,2v19.7a4.37,4.37,0,0,1-.41,2.38,2,2,0,0,1-1.63.52,8.43,8.43,0,0,1-1.78-.35,8.68,8.68,0,0,0-2.13-.35,3.57,3.57,0,0,0-3,1.45,6.12,6.12,0,0,0-1.13,3.87,6.35,6.35,0,0,0,1.22,4.34,5.11,5.11,0,0,0,4,1.34q.87,0,3.63-.35a38.1,38.1,0,0,1,4.63-.35q1.56,0,5.15.35t5.63.35a6.75,6.75,0,0,0,4.63-1.35,5.39,5.39,0,0,0,1.5-4.2,4.32,4.32,0,0,0-4-4.71l-.56-.09a1.84,1.84,0,0,1-1.3-.78,5.08,5.08,0,0,1-.3-2.16ZM40.22,139.64A11.25,11.25,0,0,0,45.94,141a10,10,0,0,0,6.26-1.76,5.8,5.8,0,0,0,2.26-4.85,4.86,4.86,0,0,0-.89-3.08A3.33,3.33,0,0,0,51.11,130a7.64,7.64,0,0,0-.91,0q-3.39-.17-3.39-2.35V109.56a25.69,25.69,0,0,0-.87-8,9.31,9.31,0,0,0-3-4.08,16.54,16.54,0,0,0-6.41-3,40.2,40.2,0,0,0-9.45-1q-9.3,0-14.17,2.65T8.08,104a6.25,6.25,0,0,0,2.15,4.93,8.28,8.28,0,0,0,5.67,1.89,10.52,10.52,0,0,0,5.45-1.3q2.19-1.3,2.19-3,0-.26-.09-1.11a13.69,13.69,0,0,1-.09-1.37,1.87,1.87,0,0,1,1-1.76,6.55,6.55,0,0,1,3.09-.54,5.61,5.61,0,0,1,4,1.43,4.82,4.82,0,0,1,1.54,3.69q0,4.22-10.91,5.91l-1.78.26q-9.13,1.39-12.56,4.56t-3.43,9.56a12.78,12.78,0,0,0,4.35,10.08Q13,141,20.21,141a30.45,30.45,0,0,0,9.43-1.26,20.19,20.19,0,0,0,7-4.08,8.62,8.62,0,0,0,3.54,4m-7.58-16.91q0,4.22-2,6.32t-6.13,2.11a5.61,5.61,0,0,1-3.93-1.37,4.63,4.63,0,0,1-1.5-3.58q0-3.65,5.48-4.58a30.07,30.07,0,0,0,8.13-2.28Z"/><path class="cls-4" d="M301,62.73A24.27,24.27,0,0,0,309.29,64q9.25,0,14.43-4.06t5.17-11.36q0-5.74-2.91-8.71T315.5,35.28l-4.87-.91q-8.47-1.48-8.47-4.52a3.16,3.16,0,0,1,1.5-2.69,6.8,6.8,0,0,1,3.95-1,9,9,0,0,1,3.95.74,10.58,10.58,0,0,1,3.12,2.56q.44.52,1.18,1.48a6.57,6.57,0,0,0,5.32,3,4.44,4.44,0,0,0,3.27-1.13,4.4,4.4,0,0,0,1.13-3.26q0-.78-.22-2.65a26.81,26.81,0,0,1-.22-3,12,12,0,0,1,.22-2.09,12.14,12.14,0,0,0,.22-1.56,3.57,3.57,0,0,0-.9-2.74,4.65,4.65,0,0,0-3.14-.83,6,6,0,0,0-3.67.87,3.3,3.3,0,0,0-1.12,2.78v.26a10,10,0,0,0-4.67-2.93,22.57,22.57,0,0,0-7.24-1.06q-8.08,0-12.86,3.78a12.16,12.16,0,0,0-4.78,10,11.45,11.45,0,0,0,3.37,8.69q3.37,3.22,10.89,4.82,2.09.65,5.52,1.48,7,1.61,7,4.56a3.09,3.09,0,0,1-1.87,2.82,11.3,11.3,0,0,1-5.26,1,12.08,12.08,0,0,1-5.37-1.19,8.31,8.31,0,0,1-3.63-3.15,7.09,7.09,0,0,1-.66-1.56A5.05,5.05,0,0,0,292,44.11a6.51,6.51,0,0,0-4.15,1.11,4,4,0,0,0-1.37,3.32q0,.87.22,3t.22,3.41a17.5,17.5,0,0,1-.22,2.54,17.9,17.9,0,0,0-.22,1.8,4.4,4.4,0,0,0,1.06,3.26,4.66,4.66,0,0,0,3.36,1,5.28,5.28,0,0,0,3.58-1.09,5.43,5.43,0,0,0,1.59-3.39A9.22,9.22,0,0,0,301,62.73M250.62,44.8a50.21,50.21,0,0,0,.65,9.8,11.77,11.77,0,0,0,2.22,4.8A11.21,11.21,0,0,0,258,62.83,16.32,16.32,0,0,0,264.35,64q7.86,0,11.93-3.91t4.06-11.52A13.3,13.3,0,0,0,279,41.85a4.37,4.37,0,0,0-4-2.26,4.7,4.7,0,0,0-3.54,1.13q-1.06,1.13-1.06,3.91,0,.74,0,1.87t0,1.52a6.11,6.11,0,0,1-.8,3.54,3,3,0,0,1-2.59,1.11,2.66,2.66,0,0,1-2.39-1,7.91,7.91,0,0,1-.65-3.93V30a1.82,1.82,0,0,1,.57-1.5,3.18,3.18,0,0,1,2-.46h5.52q5,0,6.17-1.13t1.22-4.3a5,5,0,0,0-1-3.56q-1-1-4-1h-8.56a1.94,1.94,0,0,1-1.46-.61,2.1,2.1,0,0,1-.59-1.52V9.56q0-3.39-1.11-4.21t-4.32-.83a10.17,10.17,0,0,0-5.67,1.28,4.34,4.34,0,0,0-1.89,3.85v6.43a4.79,4.79,0,0,1-.22,1.67c-.15.36-.36.54-.65.54l-4.91.26q-3.13.22-3.91,1.41a7.9,7.9,0,0,0-.78,4.11,5.21,5.21,0,0,0,.83,3.3,3.48,3.48,0,0,0,2.82,1h4.78a1.48,1.48,0,0,1,1.37.67,4.5,4.5,0,0,1,.41,2.24V44.8Zm-48.24-4.41q0-5.88,1.74-8.51a7.16,7.16,0,0,1,10.34-.8,7.46,7.46,0,0,1,1.7,5.25v14a3.59,3.59,0,0,1-.28,1.76,2,2,0,0,1-1.24.64q-2.3.45-2.87,1.45a7,7,0,0,0-.56,3.27,6.32,6.32,0,0,0,1.22,4.27,4.73,4.73,0,0,0,3.74,1.38q.74,0,4.5-.35t6.8-.35a38.1,38.1,0,0,1,4.91.35q2.65.35,3.13.35A4.31,4.31,0,0,0,239,61.53a6.7,6.7,0,0,0,1.24-4.33,6.14,6.14,0,0,0-1-3.71,3.2,3.2,0,0,0-2.7-1.43,7.92,7.92,0,0,0-2.06.35,7.73,7.73,0,0,1-1.67.35,2.93,2.93,0,0,1-2.09-.52,4.07,4.07,0,0,1-.48-2.47V35.34a41.76,41.76,0,0,0-.63-8.52,11.11,11.11,0,0,0-2.15-4.62,13.09,13.09,0,0,0-5.26-4,18.82,18.82,0,0,0-7.39-1.35,18.08,18.08,0,0,0-9.21,2.24,16,16,0,0,0-6.17,6.67V21.51a8.33,8.33,0,0,0-.5-3.46,1.85,1.85,0,0,0-1.8-1,19.46,19.46,0,0,0-2.69.35,20.14,20.14,0,0,1-3.35.35,39.78,39.78,0,0,1-5.08-.35q-2.7-.35-3-.35a4.21,4.21,0,0,0-3.52,1.62,7.38,7.38,0,0,0-1.26,4.62,5.93,5.93,0,0,0,1.06,3.74,3.51,3.51,0,0,0,2.93,1.37,8.49,8.49,0,0,0,2-.35,8.38,8.38,0,0,1,1.87-.35,2.52,2.52,0,0,1,1.72.41,3.16,3.16,0,0,1,.41,2V49.85a4.37,4.37,0,0,1-.41,2.38,2,2,0,0,1-1.63.52,8.46,8.46,0,0,1-1.78-.35,8.64,8.64,0,0,0-2.13-.35,3.57,3.57,0,0,0-3,1.45,6.12,6.12,0,0,0-1.13,3.87,6.34,6.34,0,0,0,1.22,4.33,5.11,5.11,0,0,0,4,1.34q.87,0,3.63-.35a38.29,38.29,0,0,1,4.63-.35q1.56,0,5.15.35t5.63.35A6.74,6.74,0,0,0,207,61.7a5.39,5.39,0,0,0,1.5-4.2,4.32,4.32,0,0,0-4-4.71L204,52.7a1.84,1.84,0,0,1-1.3-.78,5.08,5.08,0,0,1-.3-2.15Zm-31.07,1.93a2.85,2.85,0,0,0,2.52-1.13,6.56,6.56,0,0,0,.78-3.65q0-9.82-5.91-15.38T152.36,16.6q-10.78,0-17.06,6.41T129,40.28q0,11,6.41,17.36T153.06,64q9.25,0,15.1-3.67T174,51.15a5.44,5.44,0,0,0-1.93-4.46,8.23,8.23,0,0,0-5.37-1.59,7.59,7.59,0,0,0-4,1A5.62,5.62,0,0,0,160.27,49a6.7,6.7,0,0,1-2.39,3.5,7.23,7.23,0,0,1-4.09,1q-4.87,0-7.24-2.78t-2.37-8.43Zm-26.6-8a8.16,8.16,0,0,1,2.22-5.67,7.42,7.42,0,0,1,5.52-2.11,7.31,7.31,0,0,1,5.54,2,8.07,8.07,0,0,1,1.93,5.8Zm-26.42-3.46a6.48,6.48,0,0,1,1.32-2.68,2.72,2.72,0,0,1,2-.77,3.13,3.13,0,0,1,1.11.35,3.17,3.17,0,0,0,1.24.35,4.06,4.06,0,0,0,3.19-1.4A5.33,5.33,0,0,0,128.42,23a6.29,6.29,0,0,0-1.3-4.23,4.5,4.5,0,0,0-3.61-1.52l-4,.35q-3.89.35-7.67.35a33.16,33.16,0,0,1-4.54-.35q-2.5-.35-3-.35a4,4,0,0,0-3.09,1.41A5.12,5.12,0,0,0,100,22.2a6.47,6.47,0,0,0,.78,3.43,4.08,4.08,0,0,0,2.43,1.75,2.72,2.72,0,0,1,1.67.69,1.91,1.91,0,0,1,.63,1.44,3.47,3.47,0,0,1,0,.47,2,2,0,0,1-.07.28L101,43.11q-.26.78-1,3.72t-1.37,5.09q-.65-2.24-1.37-5.16t-.93-3.61l-4.39-12.9a.78.78,0,0,1-.07-.22,3.61,3.61,0,0,1,0-.49,1.85,1.85,0,0,1,.57-1.37A2.45,2.45,0,0,1,94,27.52a3.84,3.84,0,0,0,2.52-1.71,6.45,6.45,0,0,0,.87-3.54,5.21,5.21,0,0,0-1.26-3.63,4.2,4.2,0,0,0-3.26-1.39q-.44,0-2.93.35a33.18,33.18,0,0,1-4.54.35q-3.78,0-7.63-.35l-3.93-.35a4.5,4.5,0,0,0-3.61,1.52A6.29,6.29,0,0,0,68.88,23a5.4,5.4,0,0,0,1.22,3.67,4,4,0,0,0,3.22,1.4,3.17,3.17,0,0,0,1.24-.35,3.13,3.13,0,0,1,1.11-.35,2.7,2.7,0,0,1,1.93.72A6.75,6.75,0,0,1,79,30.82L89.09,59.49A7.2,7.2,0,0,0,91.33,63a6.44,6.44,0,0,0,3.8,1h7.13A6.25,6.25,0,0,0,106,63a7.29,7.29,0,0,0,2.22-3.52ZM15.6,51a2.81,2.81,0,0,1-1.91.47,14.21,14.21,0,0,1-2.54-.35,14.35,14.35,0,0,0-2.63-.35,5.18,5.18,0,0,0-4,1.65A6.22,6.22,0,0,0,3,56.84a6.17,6.17,0,0,0,1.63,4.65,6.66,6.66,0,0,0,4.8,1.57l1.3-.08q9.46-.62,20.92-.62,12.67,0,25.21.58,2.21.12,2.69.12a6.76,6.76,0,0,0,4.75-1.44,5.84,5.84,0,0,0,1.54-4.46A30.1,30.1,0,0,0,65.62,54q-.22-2-.22-2.75,0-2.1.22-5.33t.22-4.33a7.47,7.47,0,0,0-1.92-5.49,7.29,7.29,0,0,0-5.42-1.95,7,7,0,0,0-4.59,1.5,4.54,4.54,0,0,0-1.84,3.63,21.67,21.67,0,0,0,.22,2.52,22.16,22.16,0,0,1,.22,2.56q0,4.22-1.85,5.67T40.29,51.49q-5,0-7-1.11a4.14,4.14,0,0,1-1.91-3.91v-10q1.48-.3,1.93-.37a5.29,5.29,0,0,1,.72-.07,5.42,5.42,0,0,1,3,.72,2.2,2.2,0,0,1,1.11,1.93,10.6,10.6,0,0,1-.22,1.74,10.59,10.59,0,0,0-.22,1.74,3.25,3.25,0,0,0,1.21,2.67,5.18,5.18,0,0,0,3.34,1,6.15,6.15,0,0,0,4.06-1.19,4.25,4.25,0,0,0,1.42-3.46q0-.39-.22-3.37t-.22-5.5q0-2.78.22-6.17T47.76,22a4.61,4.61,0,0,0-1.38-3.65,6.05,6.05,0,0,0-4.1-1.22,5.1,5.1,0,0,0-3.34,1,3.36,3.36,0,0,0-1.21,2.74,10.21,10.21,0,0,0,.22,1.72,10.22,10.22,0,0,1,.22,1.72,2.16,2.16,0,0,1-1.09,1.91,5.54,5.54,0,0,1-3,.69,9.71,9.71,0,0,1-1.24-.09,14,14,0,0,1-1.41-.26v-8.3q0-2.82,1.63-3.72t6.54-.89h1.35q7.61,0,9.32,1.35T52,20.25a18.32,18.32,0,0,1-.22,2.37,18.13,18.13,0,0,0-.22,2.28,4.43,4.43,0,0,0,1.71,3.52,6.6,6.6,0,0,0,4.39,1.43A6.92,6.92,0,0,0,62.76,28,6.85,6.85,0,0,0,64.58,23q0-1.3-.22-4.11t-.22-4.33a32.55,32.55,0,0,1,.22-3.27q.22-2.06.22-2.92a5.06,5.06,0,0,0-1.5-4A6.62,6.62,0,0,0,58.59,3q-18.72.7-28,.69-11.16,0-20.11-.62L9.34,3A6.61,6.61,0,0,0,4.63,4.53,5.76,5.76,0,0,0,3,8.94a5.31,5.31,0,0,0,1.5,4,5.37,5.37,0,0,0,3.93,1.48A14.84,14.84,0,0,0,11.17,14a14.65,14.65,0,0,1,2.52-.35,2.33,2.33,0,0,1,1.85.63q.54.63.54,3.11V48.36q0,2.19-.48,2.66"/></g></svg>