<svg id="Layer_1" data-name="Layer 1" xmlns="http://www.w3.org/2000/svg" xmlns:xlink="http://www.w3.org/1999/xlink" viewBox="0 0 18.86 291"><defs><style>.cls-1,.cls-3{fill:none;}.cls-2{clip-path:url(#clip-path);}.cls-3{stroke:#fff;stroke-width:2.53px;}</style><clipPath id="clip-path"><rect class="cls-1" y="0.5" width="18.86" height="290"/></clipPath></defs><title>Vertical_line</title><g class="cls-2"><path class="cls-3" d="M15.29,277.89,3.57,289.61M15.29,271.1,3.57,282.82m11.72-18.51L3.57,276m11.72-18.51L3.57,269.23m11.72-18.51L3.57,262.44m11.72-18.51L3.57,255.65m11.72-18.51L3.57,248.85m11.72-18.51L3.57,242.06m11.72-18.51L3.57,235.27m11.72-18.51L3.57,228.48M15.29,210,3.57,221.68m11.72-18.51L3.57,214.89m11.72-18.51L3.57,208.1m11.72-18.51L3.57,201.31M15.29,182.8,3.57,194.52M15.29,176,3.57,187.72m11.72-18.51L3.57,180.93m11.72-18.51L3.57,174.14m11.72-18.51L3.57,167.35m11.72-18.51L3.57,160.55M15.29,142,3.57,153.76m11.72-18.51L3.57,147m11.72-18.51L3.57,140.18m11.72-18.51L3.57,133.39m11.72-18.51L3.57,126.59m11.72-18.51L3.57,119.8m11.72-18.51L3.57,113M15.29,94.5,3.57,106.22M15.29,87.71,3.57,99.42M15.29,80.92,3.57,92.63M15.29,74.13,3.57,85.84M15.29,67.33,3.57,79M15.29,60.54,3.57,72.26M15.29,53.75,3.57,65.46M15.29,47,3.57,58.67M15.29,40.16,3.57,51.88M15.29,33.37,3.57,45.09M15.29,26.58,3.57,38.29M15.29,19.79,3.57,31.5M15.29,13,3.57,24.71M15.29,6.2,3.57,17.92M15.29-.59,3.57,11.13M15.29-7.38,3.57,4.33M15.29-14.17,3.57-2.46M15.29-21,3.57-9.25M15.29-27.76,3.57-16M15.29-34.55,3.57-22.84M15.29-41.34,3.57-29.63M15.29-48.14,3.57-36.42M15.29-54.93,3.57-43.21M15.29-61.72,3.57-50M15.29-68.51,3.57-56.8"/></g></svg>