<svg id="Layer_1" data-name="Layer 1" xmlns="http://www.w3.org/2000/svg" xmlns:xlink="http://www.w3.org/1999/xlink" viewBox="0 0 754.43 453.08"><defs><style>.cls-1{fill:none;}.cls-2{clip-path:url(#clip-path);}.cls-3{opacity:0.7;}.cls-4{clip-path:url(#clip-path-3);}.cls-5{fill:#231f20;}.cls-6{clip-path:url(#clip-path-4);}.cls-7{clip-path:url(#clip-path-5);}.cls-8{fill:#fff;}</style><clipPath id="clip-path"><rect class="cls-1" x="2.2" y="1.82" width="750.04" height="449.43"/></clipPath><clipPath id="clip-path-3"><rect class="cls-1" x="-6.8" y="-5.18" width="488.96" height="94.94"/></clipPath><clipPath id="clip-path-4"><rect class="cls-1" x="-6.8" y="117.16" width="768.04" height="94.94"/></clipPath><clipPath id="clip-path-5"><rect class="cls-1" x="-6.8" y="239.5" width="648" height="94.94"/></clipPath></defs><title>Menu_text</title><g class="cls-2"><g class="cls-2"><g class="cls-3"><g class="cls-4"><path class="cls-5" d="M413.17,66.58c.6,17.29,15.62,22.18,30.29,22.18,14,0,29.7-5.49,29.7-22.06,0-5.13-3.22-14.19-15.74-16.7-9.3-2-22.9-3.1-22.9-8.95,0-4.29,5.37-4.65,8.71-4.65A12,12,0,0,1,449.67,38a5.83,5.83,0,0,1,2.62,5.37H471c-.72-16.1-14.91-20-28.5-20-12.17,0-28.27,4.05-28.27,19,0,16.7,16,17.05,28.74,20.27,3.58.83,9.9,1.79,9.9,6.56s-5.6,6.56-9.54,6.56a12.69,12.69,0,0,1-7.51-2.15,8.32,8.32,0,0,1-3.34-6.92Zm-4.05-41.5H388.84V58.23c0,11-6.68,13.83-11.09,13.83-6.44,0-10-2.86-10-11.09V25.08H347.46V62.29c0,16.22,5.13,26.48,22.9,26.48,7.16,0,15-3.93,18.84-10.26h.24V87h19.68Zm-96.24,0H300.35V6.35H280.08V25.08H269.82V38.2h10.26V65.75c0,16.82,4.41,21.83,21.71,21.83,3.7,0,7.39-.48,11.09-.6V72.07c-1.79,0-3.58.24-5.25.24-4.41,0-7.27-1.07-7.27-6V38.2h12.52Zm-45,0H247.64V58.23c0,11-6.68,13.83-11.09,13.83-6.44,0-10-2.86-10-11.09V25.08H206.25V62.29c0,16.22,5.13,26.48,22.9,26.48,7.16,0,15-3.93,18.84-10.26h.24V87h19.68Zm-131.43,31c0,18.61,13.36,32.68,32.56,32.68s32.68-14.07,32.68-32.68S188.25,23.29,169,23.29s-32.56,14.19-32.56,32.8m20.27,0c0-7.87,2.86-17.29,12.28-17.29s12.4,9.42,12.4,17.29-3,17.17-12.4,17.17S156.76,64,156.76,56.09m-54.5-17.29c8.94,0,12,8.71,12,16.58,0,8.47-3.1,17.89-12.16,17.89s-12.28-7-12.28-17.89c0-12.76,6.92-16.58,12.4-16.58M70.3,87H89.62V79.82h.24a19.78,19.78,0,0,0,17.05,8.95c19.44,0,27.67-16.7,27.67-34.11,0-16.1-8.59-31.37-26.12-31.37-7.63,0-13.48,2.86-17.65,8.59h-.24V1.82H70.3ZM23.67,44.16c1-5.25,4.53-7.75,10.14-7.75,4.17,0,9.78,1.79,9.78,6.44,0,3.82-1.91,5-5.37,5.72C24.14,51.44,2.2,49.89,2.2,70c0,12.76,9.3,18.72,21.11,18.72,7.39,0,15.15-2.15,20.39-7.63A24.18,24.18,0,0,0,44.89,87H65.29C62.9,82.09,62.9,76.36,62.9,71.11V44C62.9,26.51,48.71,23.29,34,23.29c-7,0-14.19,1.19-19.68,4.29S5.06,36.05,4.7,44.16Zm-1.19,25c0-4.89,3.82-6.8,8.35-7.87S40.48,59.78,43.34,58c.48,12.76-2.74,18.25-12.4,18.25-4.53,0-8.47-2-8.47-7"/></g></g><g class="cls-3"><g class="cls-6"><path class="cls-5" d="M708.94,209.32h20.27V178.67c0-7.75,5.25-14.67,15.27-14.67a28.43,28.43,0,0,1,7.75,1.19V146.7a21.64,21.64,0,0,0-4.77-.48c-8.71,0-15.62,4.18-18.6,12h-.24V147.42H708.94Zm-4.89-26c1-21-10.14-37.69-32.32-37.69-18.25,0-33.39,13.6-33.39,32.56,0,20.75,13.72,32.92,33.87,32.92,13.83,0,27.07-6.2,30.77-20.51H684c-1.91,4.53-6.68,6.8-11.57,6.8-8.59,0-13.48-5.6-13.83-14.07ZM658.61,172c1.19-7.51,6-12.64,13.12-12.64,6.8,0,11.69,5.72,12,12.64Zm-51,37.33h20.28V160.54H640V147.42H627.84v-2.74c0-5.61,2.86-6.2,7.51-6.2a43.69,43.69,0,0,1,5.49.36V124.52c-3.22-.12-6.56-.36-9.78-.36-17.29,0-23.5,5.49-23.5,23.26h-9.78v13.12h9.78Zm-36,0h20.28V160.54H604V147.42H591.83v-2.74c0-5.61,2.86-6.2,7.51-6.2a43.69,43.69,0,0,1,5.49.36V124.52c-3.22-.12-6.56-.36-9.78-.36-17.29,0-23.5,5.49-23.5,23.26h-9.78v13.12h9.78Zm-74.3-30.89c0,18.6,13.36,32.68,32.56,32.68s32.68-14.07,32.68-32.68-13.48-32.8-32.68-32.8-32.56,14.19-32.56,32.8m20.27,0c0-7.87,2.86-17.29,12.28-17.29s12.4,9.42,12.4,17.29-3,17.17-12.4,17.17-12.28-9.3-12.28-17.17m-53.07,4.89c1-21-10.14-37.69-32.32-37.69-18.25,0-33.39,13.6-33.39,32.56,0,20.75,13.71,32.92,33.87,32.92,13.83,0,27.07-6.2,30.77-20.51h-19c-1.91,4.53-6.68,6.8-11.57,6.8-8.59,0-13.48-5.6-13.83-14.07ZM419,172c1.19-7.51,6-12.64,13.12-12.64,6.8,0,11.69,5.72,12,12.64Zm-18.13-24.57H380.26l-10.14,40h-.24l-9.06-40H341.5l-8.83,40.07h-.24l-10.38-40.07H301.54l19.32,61.9h20.51L351,168.17h.24l9.78,41.15h20.51Zm-127.25,0H261.11V128.7H240.84v18.72H230.58v13.12h10.26v27.55c0,16.82,4.41,21.82,21.71,21.82,3.7,0,7.39-.48,11.09-.6V194.41c-1.79,0-3.58.24-5.25.24-4.41,0-7.27-1.07-7.27-6V160.54h12.52Zm-84,19.08c1-5.25,4.53-7.75,10.14-7.75,4.17,0,9.78,1.79,9.78,6.44,0,3.82-1.91,5-5.37,5.73-14.07,2.86-36,1.31-36,21.47,0,12.76,9.3,18.73,21.11,18.73,7.39,0,15.15-2.15,20.39-7.63a24.19,24.19,0,0,0,1.19,5.84H231.3c-2.39-4.89-2.39-10.62-2.39-15.86V166.38c0-17.53-14.19-20.75-28.86-20.75-7,0-14.19,1.19-19.68,4.29s-9.3,8.47-9.66,16.58Zm-1.19,25c0-4.89,3.82-6.8,8.35-7.87s9.66-1.55,12.52-3.34c.48,12.76-2.74,18.25-12.4,18.25-4.53,0-8.47-2-8.47-7m-86.11,17.77h20.27V175.57c0-6.8,3.34-13.24,11-13.24,11.09,0,10.14,8.59,10.14,17.05v29.93H164V169.6c0-8.95-1.67-24-22.3-24-7.39,0-15.74,3.94-18.84,10.26h-.24V124.16H102.38Zm-.83-61.9H80.91l-10.14,40h-.24l-9.06-40H42.15l-8.83,40.07h-.24L22.71,147.42H2.2l19.32,61.9H42l9.66-41.15h.24l9.78,41.15H82.22Z"/></g></g><g class="cls-3"><g class="cls-7"><path class="cls-5" d="M632.14,305.66c1-21-10.14-37.69-32.32-37.69-18.25,0-33.39,13.6-33.39,32.56,0,20.75,13.72,32.92,33.87,32.92,13.84,0,27.07-6.2,30.77-20.51h-19c-1.91,4.53-6.68,6.8-11.57,6.8-8.59,0-13.48-5.6-13.84-14.07ZM586.7,294.33c1.19-7.51,6-12.64,13.12-12.64,6.8,0,11.69,5.72,12,12.64Zm-59.27,37.33H547.7V301c0-7.75,5.25-14.67,15.27-14.67a28.43,28.43,0,0,1,7.75,1.19V269a21.63,21.63,0,0,0-4.77-.48c-8.71,0-15.62,4.18-18.61,12h-.24V269.76H527.42Zm-47.35-42.82c1-5.25,4.53-7.75,10.14-7.75,4.17,0,9.78,1.79,9.78,6.44,0,3.82-1.91,5-5.37,5.73-14.07,2.86-36,1.31-36,21.47,0,12.76,9.3,18.72,21.11,18.72,7.39,0,15.15-2.15,20.39-7.63a24.19,24.19,0,0,0,1.19,5.84H521.7c-2.39-4.89-2.39-10.61-2.39-15.86V288.72c0-17.53-14.19-20.75-28.86-20.75-7,0-14.19,1.19-19.68,4.29s-9.3,8.47-9.66,16.58Zm-1.19,25c0-4.89,3.82-6.8,8.35-7.87s9.66-1.55,12.52-3.34c.48,12.76-2.74,18.25-12.4,18.25-4.53,0-8.47-2-8.47-7m-52.71-8.23c1-21-10.14-37.69-32.32-37.69-18.25,0-33.39,13.6-33.39,32.56,0,20.75,13.72,32.92,33.87,32.92,13.83,0,27.07-6.2,30.77-20.51h-19c-1.91,4.53-6.68,6.8-11.57,6.8-8.59,0-13.48-5.6-13.83-14.07Zm-45.44-11.33c1.19-7.51,6-12.64,13.12-12.64,6.8,0,11.69,5.72,12,12.64Zm-18.13-24.57H342l-10.14,40h-.24l-9.06-40H303.21l-8.82,40.07h-.24l-10.38-40.07H263.26l19.32,61.9h20.51l9.66-41.15H313l9.78,41.15h20.51Zm-194,31c0,18.6,13.36,32.68,32.56,32.68s32.68-14.07,32.68-32.68S220.33,268,201.13,268s-32.56,14.19-32.56,32.8m20.27,0c0-7.87,2.86-17.29,12.28-17.29s12.4,9.42,12.4,17.29-3,17.17-12.4,17.17-12.28-9.3-12.28-17.17m-86.46,30.89h20.27V297.91c0-6.8,3.34-13.24,11-13.24,11.09,0,10.14,8.59,10.14,17.06v29.93H164V291.94c0-8.95-1.67-24-22.3-24-7.39,0-15.74,3.94-18.84,10.26h-.24V246.51H102.38Zm-.83-61.9H80.91l-10.14,40h-.24l-9.06-40H42.15l-8.83,40.07h-.24L22.71,269.76H2.2l19.32,61.9H42l9.66-41.15h.24l9.78,41.15H82.22Z"/></g></g><path class="cls-8" d="M413.29,387.57H400.77V368.85H380.49v18.72H370.24v13.12h10.26v27.55c0,16.82,4.41,21.82,21.71,21.82,3.7,0,7.39-.48,11.09-.6V434.56c-1.79,0-3.58.24-5.25.24-4.41,0-7.27-1.07-7.27-6V400.69h12.52Zm-42.1,22.66c-1.43-16.34-15.15-24.45-30.53-24.45-19.92,0-32.44,14.07-32.44,33.75,0,19,13.84,31.72,32.44,31.72,16.46,0,29.34-9.54,31.13-26.12H352.11c-1,6.56-4.53,10.61-11.57,10.61-8.59,0-12-8.23-12-16.22,0-8.59,1.79-18.25,13.12-18.25,5.13,0,9.78,3.7,9.9,8.94Zm-106.62-3.58c1-5.25,4.53-7.75,10.14-7.75,4.18,0,9.78,1.79,9.78,6.44,0,3.82-1.91,5-5.37,5.73-14.07,2.86-36,1.31-36,21.47,0,12.76,9.3,18.73,21.11,18.73,7.39,0,15.15-2.15,20.39-7.63a24.24,24.24,0,0,0,1.19,5.84H306.2c-2.38-4.89-2.38-10.61-2.38-15.86V406.53c0-17.53-14.19-20.75-28.86-20.75-7,0-14.19,1.19-19.68,4.29s-9.3,8.47-9.66,16.58Zm-1.19,25c0-4.89,3.82-6.8,8.35-7.87s9.66-1.55,12.52-3.34c.48,12.76-2.74,18.25-12.4,18.25-4.53,0-8.47-2-8.47-7m-20-44.13H230.82V368.85H210.55v18.72H200.29v13.12h10.26v27.55c0,16.82,4.41,21.82,21.71,21.82,3.7,0,7.39-.48,11.09-.6V434.56c-1.79,0-3.58.24-5.25.24-4.41,0-7.27-1.07-7.27-6V400.69h12.52Zm-106.5,61.9h20.27V415.72c0-6.8,3.34-13.24,11-13.24,11.09,0,10.14,8.59,10.14,17.06v29.93H198.5V409.75c0-8.94-1.67-24-22.3-24-7.39,0-15.74,3.94-19.44,10.26h-.24v-8.47H136.84ZM67,418.58c0,18.61,13.36,32.68,32.56,32.68s32.68-14.07,32.68-32.68-13.48-32.8-32.68-32.8S67,400,67,418.58m20.28,0c0-7.87,2.86-17.29,12.28-17.29s12.4,9.42,12.4,17.29-3,17.17-12.4,17.17-12.28-9.3-12.28-17.17m-22.06-8.35C63.74,393.89,50,385.78,34.64,385.78c-19.92,0-32.44,14.07-32.44,33.75,0,19,13.83,31.72,32.44,31.72,16.46,0,29.34-9.54,31.13-26.12H46.09c-1,6.56-4.53,10.61-11.57,10.61-8.59,0-12-8.23-12-16.22,0-8.59,1.79-18.25,13.12-18.25,5.13,0,9.78,3.7,9.9,8.94Z"/></g></g></svg>