<svg id="Layer_1" data-name="Layer 1" xmlns="http://www.w3.org/2000/svg" xmlns:xlink="http://www.w3.org/1999/xlink" viewBox="0 0 19 800"><defs><style>.cls-1,.cls-5{fill:none;}.cls-2{clip-path:url(#clip-path);}.cls-3{opacity:0.75;}.cls-4{clip-path:url(#clip-path-3);}.cls-5{stroke:#fff;stroke-width:2.14px;}</style><clipPath id="clip-path"><rect class="cls-1" x="4" y="-22" width="11.43" height="852"/></clipPath><clipPath id="clip-path-3"><rect class="cls-1" x="-49.56" y="-79.27" width="118.55" height="960.55"/></clipPath></defs><title>vertical_line</title><g class="cls-2"><g class="cls-2"><g class="cls-3"><g class="cls-4"><path class="cls-5" d="M4.76,819.33l9.91,9.92M4.76,813.61l9.91,9.92M4.76,807.89l9.91,9.92M4.76,802.17l9.91,9.91M4.76,796.46l9.91,9.92M4.76,790.74l9.91,9.92M4.76,785l9.91,9.91M4.76,779.3l9.91,9.91M4.76,773.58l9.91,9.91M4.76,767.87l9.91,9.92M4.76,762.15l9.91,9.91M4.76,756.43l9.91,9.91M4.76,750.71l9.91,9.91M4.76,745l9.91,9.91M4.76,739.27l9.91,9.92M4.76,733.56l9.91,9.91M4.76,727.84l9.91,9.91M4.76,722.12,14.67,732M4.76,716.4l9.91,9.92M4.76,710.68l9.91,9.92M4.76,705l9.91,9.91M4.76,699.25l9.91,9.91M4.76,693.53l9.91,9.92M4.76,687.81l9.91,9.92M4.76,682.09,14.67,692M4.76,676.37l9.91,9.91M4.76,670.66l9.91,9.91M4.76,664.94l9.91,9.92M4.76,659.22l9.91,9.92M4.76,653.5l9.91,9.92M4.76,647.78l9.91,9.91M4.76,642.07,14.67,652M4.76,636.35l9.91,9.92M4.76,630.63l9.91,9.91M4.76,624.91l9.91,9.91M4.76,619.19l9.91,9.91M4.76,613.47l9.91,9.91M4.76,607.76l9.91,9.92M4.76,602,14.67,612M4.76,596.32l9.91,9.91M4.76,590.6l9.91,9.91M4.76,584.88l9.91,9.92M4.76,579.17l9.91,9.92M4.76,573.45l9.91,9.92M4.76,567.73l9.91,9.92M4.76,562l9.91,9.91M4.76,556.29l9.91,9.92M4.76,550.57l9.91,9.92M4.76,544.86l9.91,9.91M4.76,539.14l9.91,9.91M4.76,533.42l9.91,9.92M4.76,527.7l9.91,9.92M4.76,522l9.91,9.91M4.76,516.27l9.91,9.91M4.76,510.55l9.91,9.91M4.76,504.83l9.91,9.91M4.76,499.11,14.67,509M4.76,493.39l9.91,9.91M4.76,487.67l9.91,9.92M4.76,482l9.91,9.92M4.76,476.24l9.91,9.92M4.76,470.52l9.91,9.91M4.76,464.8l9.91,9.92M4.76,459.08,14.67,469M4.76,453.36l9.91,9.92M4.76,447.65l9.91,9.92M4.76,441.93l9.91,9.92M4.76,436.21l9.91,9.92M4.76,430.49l9.91,9.92M4.76,424.77l9.91,9.91M4.76,419.06,14.67,429M4.76,413.34l9.91,9.92M4.76,407.62l9.91,9.91M4.76,401.9l9.91,9.92M4.76,396.18l9.91,9.91M4.76,390.46l9.91,9.92M4.76,384.75l9.91,9.92M4.76,379l9.91,9.91M4.76,373.31l9.91,9.92M4.76,367.59l9.91,9.92M4.76,361.87l9.91,9.92M4.76,356.16l9.91,9.92M4.76,350.44l9.91,9.91M4.76,344.72l9.91,9.92M4.76,339l9.91,9.92M4.76,333.28l9.91,9.92M4.76,327.57l9.91,9.92M4.76,321.85l9.91,9.92M4.76,316.13,14.67,326M4.76,310.41l9.91,9.91M4.76,304.69l9.91,9.91M4.76,299l9.91,9.92M4.76,293.26l9.91,9.92M4.76,287.54l9.91,9.91M4.76,281.82l9.91,9.91M4.76,276.1,14.67,286M4.76,270.38l9.91,9.91M4.76,264.66l9.91,9.92M4.76,258.95l9.91,9.91M4.76,253.23l9.91,9.91M4.76,247.51l9.91,9.92M4.76,241.79l9.91,9.92M4.76,236.07,14.67,246M4.76,230.36l9.91,9.91M4.76,224.64l9.91,9.91M4.76,218.92l9.91,9.92M4.76,213.2l9.91,9.91M4.76,207.48l9.91,9.91M4.76,201.76l9.91,9.91M4.76,196,14.67,206M4.76,190.33l9.91,9.92M4.76,184.61l9.91,9.92M4.76,178.89l9.91,9.92M4.76,173.17l9.91,9.91M4.76,167.46l9.91,9.92M4.76,161.74l9.91,9.92M4.76,156l9.91,9.91M4.76,150.3l9.91,9.91M4.76,144.58l9.91,9.92M4.76,138.86l9.91,9.92M4.76,133.15l9.91,9.91M4.76,127.43l9.91,9.91M4.76,121.71l9.91,9.91M4.76,116l9.91,9.91M4.76,110.27l9.91,9.92M4.76,104.56l9.91,9.91M4.76,98.84l9.91,9.91M4.76,93.12,14.67,103M4.76,87.4l9.91,9.91M4.76,81.68l9.91,9.92M4.76,76l9.91,9.91M4.76,70.25l9.91,9.91M4.76,64.53l9.91,9.92M4.76,58.81l9.91,9.92M4.76,53.09,14.67,63M4.76,47.37l9.91,9.91M4.76,41.66l9.91,9.91M4.76,35.94l9.91,9.92M4.76,30.22l9.91,9.92M4.76,24.5l9.91,9.92M4.76,18.78l9.91,9.91M4.76,13.06,14.67,23M4.76,7.35l9.91,9.92M4.76,1.63l9.91,9.91M4.76-4.09l9.91,9.91M4.76-9.81,14.67.11M4.76-15.53l9.91,9.92M4.76-21.24l9.91,9.92"/></g></g></g></g></svg>