<svg id="Layer_1" data-name="Layer 1" xmlns="http://www.w3.org/2000/svg" xmlns:xlink="http://www.w3.org/1999/xlink" viewBox="0 0 43 43"><defs><style>.cls-1,.cls-4{fill:none;}.cls-2{clip-path:url(#clip-path);}.cls-3{fill:#fff;}.cls-4{stroke:#fff;stroke-width:0.75px;}</style><clipPath id="clip-path"><rect class="cls-1" x="0.76" y="0.76" width="41.48" height="41.48"/></clipPath></defs><title>FB_Icon</title><g class="cls-2"><path class="cls-3" d="M22.5,22.45s0,0,0,.07q0,.73,0,1.46V32.2c0,.1,0,.09-.09.09H18.62c-.09,0-.09,0-.09-.09q0-4.84,0-9.68s0-.06,0-.09H15.27c-.05,0-.06,0-.06-.06q0-1.27,0-2.53c0-.39,0-.78,0-1.17,0-.06,0-.07.08-.07h3.16c.06,0,.08,0,.08-.08q0-1.36,0-2.72a6.79,6.79,0,0,1,.18-1.62A4.47,4.47,0,0,1,20,11.92a4.39,4.39,0,0,1,1.88-1,6.15,6.15,0,0,1,1.61-.2c.62,0,1.24,0,1.86.06l1,.09c.06,0,.07,0,.07.08q0,1.4,0,2.79c0,.17,0,.34,0,.51s0,.06-.06.06H24.31a2.85,2.85,0,0,0-.83.11,1.28,1.28,0,0,0-.93,1.05,3.72,3.72,0,0,0-.06.71c0,.79,0,1.58,0,2.37,0,.06,0,.08.08.08h3.65c.06,0,.08,0,.07.08-.08.61-.16,1.22-.24,1.83l-.23,1.79c0,.14,0,.14-.16.14H22.5"/><circle class="cls-4" cx="21.5" cy="21.5" r="20.36"/></g></svg>