<svg id="Layer_1" data-name="Layer 1" xmlns="http://www.w3.org/2000/svg" xmlns:xlink="http://www.w3.org/1999/xlink" viewBox="0 0 756 454"><defs><style>.cls-1{fill:none;}.cls-2{clip-path:url(#clip-path);}.cls-3{opacity:0.7;}.cls-4{clip-path:url(#clip-path-3);}.cls-5{fill:#231f20;}.cls-6{clip-path:url(#clip-path-4);}.cls-7{fill:#fff;}.cls-8{clip-path:url(#clip-path-5);}</style><clipPath id="clip-path"><rect class="cls-1" x="2.98" y="2.28" width="750.04" height="449.43"/></clipPath><clipPath id="clip-path-3"><rect class="cls-1" x="-6.02" y="-4.72" width="488.96" height="94.94"/></clipPath><clipPath id="clip-path-4"><rect class="cls-1" x="-6.02" y="117.62" width="768.04" height="94.94"/></clipPath><clipPath id="clip-path-5"><rect class="cls-1" x="-6.02" y="362.31" width="429.09" height="90.41"/></clipPath></defs><title>Menu_text</title><g class="cls-2"><g class="cls-2"><g class="cls-3"><g class="cls-4"><path class="cls-5" d="M414,67c.6,17.29,15.62,22.18,30.29,22.18,14,0,29.7-5.49,29.7-22.06,0-5.13-3.22-14.19-15.74-16.7-9.3-2-22.9-3.1-22.9-8.95,0-4.29,5.37-4.65,8.71-4.65a12,12,0,0,1,6.44,1.55,5.83,5.83,0,0,1,2.62,5.37H471.8c-.72-16.1-14.91-20-28.5-20-12.17,0-28.27,4.05-28.27,19,0,16.7,16,17.05,28.74,20.27,3.58.83,9.9,1.79,9.9,6.56s-5.6,6.56-9.54,6.56A12.69,12.69,0,0,1,436.62,74,8.32,8.32,0,0,1,433.28,67Zm-4.05-41.5H389.63V58.69c0,11-6.68,13.83-11.09,13.83-6.44,0-10-2.86-10-11.09V25.54H348.24V62.75c0,16.22,5.13,26.48,22.9,26.48,7.16,0,15-3.93,18.84-10.26h.24v8.47H409.9Zm-96.24,0H301.14V6.81H280.86V25.54H270.6V38.66h10.26V66.21C280.86,83,285.27,88,302.57,88c3.7,0,7.39-.48,11.09-.6V72.53c-1.79,0-3.58.24-5.25.24-4.41,0-7.27-1.07-7.27-6V38.66h12.52Zm-45,0H248.42V58.69c0,11-6.68,13.83-11.09,13.83-6.44,0-10-2.86-10-11.09V25.54H207V62.75c0,16.22,5.13,26.48,22.9,26.48,7.16,0,15-3.93,18.84-10.26H249v8.47H268.7Zm-131.43,31c0,18.61,13.36,32.68,32.56,32.68s32.68-14.07,32.68-32.68S189,23.75,169.83,23.75s-32.56,14.19-32.56,32.8m20.27,0c0-7.87,2.86-17.29,12.28-17.29s12.4,9.42,12.4,17.29-3,17.17-12.4,17.17-12.28-9.3-12.28-17.17M103,39.25c8.94,0,12,8.71,12,16.58,0,8.47-3.1,17.89-12.16,17.89s-12.28-7-12.28-17.89c0-12.76,6.92-16.58,12.4-16.58m-32,48.18H90.4V80.28h.24a19.78,19.78,0,0,0,17.05,8.95c19.44,0,27.67-16.7,27.67-34.11,0-16.1-8.59-31.37-26.12-31.37-7.63,0-13.48,2.86-17.65,8.59h-.24V2.28H71.08ZM24.45,44.62c1-5.25,4.53-7.75,10.14-7.75,4.17,0,9.78,1.79,9.78,6.44,0,3.82-1.91,5-5.37,5.72C24.93,51.9,3,50.35,3,70.5c0,12.76,9.3,18.72,21.11,18.72,7.39,0,15.15-2.15,20.39-7.63a24.18,24.18,0,0,0,1.19,5.84H66.07c-2.39-4.89-2.39-10.61-2.39-15.86V44.5c0-17.53-14.19-20.75-28.86-20.75-7,0-14.19,1.19-19.68,4.29s-9.3,8.47-9.66,16.58Zm-1.19,25c0-4.89,3.82-6.8,8.35-7.87s9.66-1.55,12.52-3.34c.48,12.76-2.74,18.25-12.4,18.25-4.53,0-8.47-2-8.47-7"/></g></g><g class="cls-3"><g class="cls-6"><path class="cls-5" d="M709.73,209.78H730V179.13c0-7.75,5.25-14.67,15.27-14.67a28.43,28.43,0,0,1,7.75,1.19V147.16a21.64,21.64,0,0,0-4.77-.48c-8.71,0-15.62,4.18-18.6,12h-.24V147.88H709.73Zm-4.89-26c1-21-10.14-37.69-32.32-37.69-18.25,0-33.39,13.6-33.39,32.56,0,20.75,13.72,32.92,33.87,32.92,13.83,0,27.07-6.2,30.77-20.51h-19c-1.91,4.53-6.68,6.8-11.57,6.8-8.59,0-13.48-5.6-13.83-14.07ZM659.4,172.45c1.19-7.51,6-12.64,13.12-12.64,6.8,0,11.69,5.72,12,12.64Zm-51,37.33h20.28V161h12.17V147.88H628.63v-2.74c0-5.61,2.86-6.2,7.51-6.2a43.69,43.69,0,0,1,5.49.36V125c-3.22-.12-6.56-.36-9.78-.36-17.29,0-23.5,5.49-23.5,23.26h-9.78V161h9.78Zm-36,0h20.28V161h12.16V147.88H592.61v-2.74c0-5.61,2.86-6.2,7.51-6.2a43.69,43.69,0,0,1,5.49.36V125c-3.22-.12-6.56-.36-9.78-.36-17.29,0-23.5,5.49-23.5,23.26h-9.78V161h9.78ZM498,178.89c0,18.6,13.36,32.68,32.56,32.68s32.68-14.07,32.68-32.68-13.48-32.8-32.68-32.8S498,160.28,498,178.89m20.27,0c0-7.87,2.86-17.29,12.28-17.29S543,171,543,178.89s-3,17.17-12.4,17.17-12.28-9.3-12.28-17.17m-53.07,4.89c1-21-10.14-37.69-32.32-37.69-18.25,0-33.39,13.6-33.39,32.56,0,20.75,13.71,32.92,33.87,32.92,13.83,0,27.07-6.2,30.77-20.51h-19c-1.91,4.53-6.68,6.8-11.57,6.8-8.59,0-13.48-5.6-13.83-14.07ZM419.8,172.45c1.19-7.51,6-12.64,13.12-12.64,6.8,0,11.69,5.72,12,12.64Zm-18.13-24.57H381l-10.14,40h-.24l-9.06-40H342.28L333.45,188h-.24l-10.38-40.07H302.33l19.32,61.9h20.51l9.66-41.15h.24l9.78,41.15h20.51Zm-127.25,0H261.9V129.16H241.62v18.72H231.37V161h10.26v27.55c0,16.82,4.41,21.82,21.71,21.82,3.7,0,7.39-.48,11.09-.6V194.87c-1.79,0-3.58.24-5.25.24-4.41,0-7.27-1.07-7.27-6V161h12.52Zm-84,19.08c1-5.25,4.53-7.75,10.14-7.75,4.17,0,9.78,1.79,9.78,6.44,0,3.82-1.91,5-5.37,5.73-14.07,2.86-36,1.31-36,21.47,0,12.76,9.3,18.73,21.11,18.73,7.39,0,15.15-2.15,20.39-7.63a24.19,24.19,0,0,0,1.19,5.84h20.39c-2.39-4.89-2.39-10.62-2.39-15.86V166.84c0-17.53-14.19-20.75-28.86-20.75-7,0-14.19,1.19-19.68,4.29s-9.3,8.47-9.66,16.58Zm-1.19,25c0-4.89,3.82-6.8,8.35-7.87s9.66-1.55,12.52-3.34c.48,12.76-2.74,18.25-12.4,18.25-4.53,0-8.47-2-8.47-7m-86.11,17.77h20.27V176c0-6.8,3.34-13.24,11-13.24,11.09,0,10.14,8.59,10.14,17.05v29.93h20.28V170.06c0-8.95-1.67-24-22.3-24-7.39,0-15.74,3.94-18.84,10.26h-.24V124.62H103.16Zm-.83-61.9H81.69l-10.14,40h-.24l-9.06-40H42.94L34.11,188h-.24L23.5,147.88H3l19.32,61.9H42.82l9.66-41.15h.24l9.78,41.15H83Z"/></g></g><path class="cls-7" d="M632.92,306.12c1-21-10.14-37.69-32.32-37.69-18.25,0-33.39,13.6-33.39,32.56,0,20.75,13.72,32.92,33.87,32.92,13.84,0,27.07-6.2,30.77-20.51h-19c-1.91,4.53-6.68,6.8-11.57,6.8-8.59,0-13.48-5.6-13.84-14.07Zm-45.44-11.33c1.19-7.51,6-12.64,13.12-12.64,6.8,0,11.69,5.72,12,12.64Zm-59.27,37.33h20.27V301.47c0-7.75,5.25-14.67,15.27-14.67A28.43,28.43,0,0,1,571.5,288V269.51a21.63,21.63,0,0,0-4.77-.48c-8.71,0-15.62,4.18-18.61,12h-.24V270.22H528.21ZM480.86,289.3c1-5.25,4.53-7.75,10.14-7.75,4.17,0,9.78,1.79,9.78,6.44,0,3.82-1.91,5-5.37,5.73-14.07,2.86-36,1.31-36,21.47,0,12.76,9.3,18.72,21.11,18.72,7.39,0,15.15-2.15,20.39-7.63a24.19,24.19,0,0,0,1.19,5.84h20.39c-2.39-4.89-2.39-10.61-2.39-15.86V289.18c0-17.53-14.19-20.75-28.86-20.75-7,0-14.19,1.19-19.68,4.29s-9.3,8.47-9.66,16.58Zm-1.19,25c0-4.89,3.82-6.8,8.35-7.87s9.66-1.55,12.52-3.34c.48,12.76-2.74,18.25-12.4,18.25-4.53,0-8.47-2-8.47-7M427,306.12c1-21-10.14-37.69-32.32-37.69-18.25,0-33.39,13.6-33.39,32.56,0,20.75,13.72,32.92,33.87,32.92,13.83,0,27.07-6.2,30.77-20.51h-19c-1.91,4.53-6.68,6.8-11.57,6.8-8.59,0-13.48-5.6-13.83-14.07Zm-45.44-11.33c1.19-7.51,6-12.64,13.12-12.64,6.8,0,11.69,5.72,12,12.64Zm-18.13-24.57H342.76l-10.14,40h-.24l-9.06-40H304l-8.82,40.07h-.24l-10.38-40.07H264l19.32,61.9h20.51L313.54,291h.24l9.78,41.15h20.51Zm-194,31c0,18.6,13.36,32.68,32.56,32.68s32.68-14.07,32.68-32.68-13.48-32.8-32.68-32.8-32.56,14.19-32.56,32.8m20.27,0c0-7.87,2.86-17.29,12.28-17.29s12.4,9.42,12.4,17.29-3,17.17-12.4,17.17-12.28-9.3-12.28-17.17m-86.46,30.89h20.27V298.37c0-6.8,3.34-13.24,11-13.24,11.09,0,10.14,8.59,10.14,17.06v29.93h20.28V292.4c0-8.95-1.67-24-22.3-24-7.39,0-15.74,3.94-18.84,10.26h-.24V247H103.16Zm-.83-61.9H81.69l-10.14,40h-.24l-9.06-40H42.94l-8.83,40.07h-.24L23.5,270.22H3l19.32,61.9H42.82L52.48,291h.24l9.78,41.15H83Z"/><g class="cls-3"><g class="cls-8"><path class="cls-5" d="M414.08,388H401.55V369.31H381.28V388H371v13.12h10.26V428.7c0,16.82,4.41,21.82,21.71,21.82,3.7,0,7.39-.48,11.09-.6V435c-1.79,0-3.58.24-5.25.24-4.41,0-7.27-1.07-7.27-6V401.15h12.52ZM372,410.69c-1.43-16.34-15.15-24.45-30.53-24.45C321.53,386.24,309,400.31,309,420c0,19,13.84,31.72,32.44,31.72,16.46,0,29.34-9.54,31.13-26.12H352.89c-1,6.56-4.53,10.61-11.57,10.61-8.59,0-12-8.23-12-16.22,0-8.59,1.79-18.25,13.12-18.25,5.13,0,9.78,3.7,9.9,8.94Zm-106.62-3.58c1-5.25,4.53-7.75,10.14-7.75,4.18,0,9.78,1.79,9.78,6.44,0,3.82-1.91,5-5.37,5.73-14.07,2.86-36,1.31-36,21.47,0,12.76,9.3,18.73,21.11,18.73,7.39,0,15.15-2.15,20.39-7.63a24.24,24.24,0,0,0,1.19,5.84H307c-2.38-4.89-2.38-10.61-2.38-15.86V407c0-17.53-14.19-20.75-28.86-20.75-7,0-14.19,1.19-19.68,4.29s-9.3,8.47-9.66,16.58Zm-1.19,25c0-4.89,3.82-6.8,8.35-7.87s9.66-1.55,12.52-3.34c.48,12.76-2.74,18.25-12.4,18.25-4.53,0-8.47-2-8.47-7m-20-44.13H231.61V369.31H211.33V388H201.07v13.12h10.26V428.7c0,16.82,4.41,21.82,21.71,21.82,3.7,0,7.39-.48,11.09-.6V435c-1.79,0-3.58.24-5.25.24-4.41,0-7.27-1.07-7.27-6V401.15h12.52Zm-106.5,61.9H157.9V416.18c0-6.8,3.34-13.24,11-13.24C180,402.94,179,411.53,179,420v29.93h20.28V410.21c0-8.94-1.67-24-22.3-24-7.39,0-15.74,3.94-19.44,10.26h-.24V388H137.63ZM67.74,419c0,18.61,13.36,32.68,32.56,32.68S133,437.64,133,419s-13.48-32.8-32.68-32.8S67.74,400.43,67.74,419M88,419c0-7.87,2.86-17.29,12.28-17.29s12.4,9.42,12.4,17.29-3,17.17-12.4,17.17S88,426.91,88,419M66,410.69c-1.43-16.34-15.15-24.45-30.53-24.45C15.5,386.24,3,400.31,3,420c0,19,13.83,31.72,32.44,31.72,16.46,0,29.34-9.54,31.13-26.12H46.87c-1,6.56-4.53,10.61-11.57,10.61-8.59,0-12-8.23-12-16.22,0-8.59,1.79-18.25,13.12-18.25,5.13,0,9.78,3.7,9.9,8.94Z"/></g></g></g></g></svg>