<svg id="Layer_1" data-name="Layer 1" xmlns="http://www.w3.org/2000/svg" xmlns:xlink="http://www.w3.org/1999/xlink" viewBox="0 0 19 800"><defs><style>.cls-1,.cls-10,.cls-12{fill:none;}.cls-2{clip-path:url(#clip-path);}.cls-3{font-size:15.23px;fill:#fff;font-family:HelveticaNeueLTStd-Lt, Helvetica Neue LT Std;}.cls-4{letter-spacing:1em;}.cls-5{letter-spacing:1em;}.cls-6{letter-spacing:1em;}.cls-7{letter-spacing:1em;}.cls-8{opacity:0.75;}.cls-9{clip-path:url(#clip-path-3);}.cls-10,.cls-12{stroke:#fff;}.cls-10{stroke-width:2.14px;}.cls-11{clip-path:url(#clip-path-4);}.cls-12{stroke-width:1.9px;}</style><clipPath id="clip-path"><rect class="cls-1" width="18.86" height="800"/></clipPath><clipPath id="clip-path-3"><rect class="cls-1" x="-49.84" y="-241.27" width="118.55" height="542.54"/></clipPath><clipPath id="clip-path-4"><rect class="cls-1" x="-44.26" y="620.93" width="107.38" height="451.4"/></clipPath></defs><title>one stop solution</title><g class="cls-2"><g class="cls-2"><text class="cls-3" transform="translate(14.87 657.17) rotate(-90)"><tspan class="cls-4">O</tspan><tspan class="cls-5" x="26.52" y="0">N</tspan><tspan class="cls-4" x="52.47" y="0">E</tspan><tspan class="cls-6" x="76.74" y="0"> </tspan><tspan class="cls-7" x="96.19" y="0">ST</tspan><tspan class="cls-6" x="144.73" y="0">O</tspan><tspan class="cls-7" x="171.24" y="0">P</tspan><tspan class="cls-6" x="196.07" y="0"> </tspan><tspan class="cls-7" x="215.52" y="0">SOL</tspan><tspan class="cls-5" x="290.3" y="0">U</tspan><tspan class="cls-4" x="315.95" y="0">TI</tspan><tspan class="cls-6" x="358.27" y="0">O</tspan><tspan x="384.78" y="0">N</tspan></text><g class="cls-8"><g class="cls-9"><path class="cls-10" d="M4.47,239.32l9.91,9.92m-9.91-15.7,9.91,9.92m-9.91-15.7,9.91,9.92M4.47,222l9.91,9.91m-9.91-15.7,9.91,9.92m-9.91-15.7,9.91,9.91m-9.91-15.7,9.91,9.92M4.47,198.8l9.91,9.91M4.47,193l9.91,9.91m-9.91-15.7,9.91,9.91m-9.91-15.7,9.91,9.91m-9.91-15.7,9.91,9.92m-9.91-15.7,9.91,9.92m-9.91-15.7L14.39,174m-9.91-15.7,9.91,9.91m-9.91-15.7,9.91,9.91M4.47,146.7l9.91,9.92m-9.91-15.7,9.91,9.92m-9.91-15.7L14.39,145m-9.91-15.7,9.91,9.91m-9.91-15.7,9.91,9.92m-9.91-15.7,9.91,9.92M4.47,112l9.91,9.92m-9.91-15.7,9.91,9.91m-9.91-15.7,9.91,9.92M4.47,94.61l9.91,9.91M4.47,88.82l9.91,9.92M4.47,83l9.91,9.92M4.47,77.24l9.91,9.92M4.47,71.45l9.91,9.91M4.47,65.66l9.91,9.91M4.47,59.88l9.91,9.92M4.47,54.09,14.39,64M4.47,48.3l9.91,9.92M4.47,42.51l9.91,9.91M4.47,36.72l9.91,9.91M4.47,30.93l9.91,9.92M4.47,25.14l9.91,9.92M4.47,19.36l9.91,9.91M4.47,13.57l9.91,9.91M4.47,7.78l9.91,9.91M4.47,2l9.91,9.92M4.47-3.8l9.91,9.92M4.47-9.59,14.39.33M4.47-15.38l9.91,9.92M4.47-21.16l9.91,9.91M4.47-27,14.39-17M4.47-32.74l9.91,9.92M4.47-38.53l9.91,9.91M4.47-44.32l9.91,9.92M4.47-50.11l9.91,9.91M4.47-55.9,14.39-46M4.47-61.68l9.91,9.92M4.47-67.47l9.91,9.92M4.47-73.26l9.91,9.91M4.47-79.05l9.91,9.91M4.47-84.84l9.91,9.92M4.47-90.63l9.91,9.92M4.47-96.42l9.91,9.91M4.47-102.2l9.91,9.91M4.47-108l9.91,9.92m-9.91-15.7,9.91,9.92m-9.91-15.7,9.91,9.92m-9.91-15.7,9.91,9.91m-9.91-15.7,9.91,9.91m-9.91-15.7L14.39-127m-9.91-15.7,9.91,9.92M4.47-148.51l9.91,9.92M4.47-154.3l9.91,9.91m-9.91-15.7,9.91,9.92m-9.91-15.7L14.39-156m-9.91-15.7,9.91,9.92m-9.91-15.7,9.91,9.92m-9.91-15.7,9.91,9.92"/></g></g><g class="cls-8"><g class="cls-11"><path class="cls-12" d="M5,676.1l8.81-8.81M5,681.23l8.81-8.81M5,686.36l8.81-8.81M5,691.5l8.81-8.81M5,696.63l8.81-8.81M5,701.76l8.81-8.81M5,706.89l8.81-8.81M5,712l8.81-8.81M5,717.16l8.81-8.81M5,722.29l8.81-8.81M5,727.42l8.81-8.81M5,732.55l8.81-8.81M5,737.69l8.81-8.81M5,742.82,13.84,734M5,748l8.81-8.81M5,753.08l8.81-8.81M5,758.22l8.81-8.81M5,763.35l8.81-8.81M5,768.48l8.81-8.81M5,773.61l8.81-8.81M5,778.75l8.81-8.81M5,783.88l8.81-8.81M5,789l8.81-8.81M5,794.14l8.81-8.81M5,799.28l8.81-8.81M5,804.41l8.81-8.81M5,809.54l8.81-8.81M5,814.67l8.81-8.81M5,819.8,13.84,811M5,824.94l8.81-8.81M5,830.07l8.81-8.81M5,835.2l8.81-8.81M5,840.33l8.81-8.81M5,845.47l8.81-8.81M5,850.6l8.81-8.81M5,855.73l8.81-8.81M5,860.86,13.84,852M5,866l8.81-8.81M5,871.13l8.81-8.81M5,876.26l8.81-8.81M5,881.39l8.81-8.81M5,886.53l8.81-8.81M5,891.66l8.81-8.81M5,896.79,13.84,888M5,901.92l8.81-8.81M5,907.05l8.81-8.81M5,912.19l8.81-8.81M5,917.32l8.81-8.81M5,922.45l8.81-8.81M5,927.58l8.81-8.81M5,932.72l8.81-8.81M5,937.85,13.84,929M5,943l8.81-8.81M5,948.11l8.81-8.81M5,953.25l8.81-8.81M5,958.38l8.81-8.81M5,963.51l8.81-8.81M5,968.64l8.81-8.81M5,973.78,13.84,965M5,978.91l8.81-8.81M5,984l8.81-8.81M5,989.17l8.81-8.81M5,994.3l8.81-8.81M5,999.44l8.81-8.81M5,1004.57l8.81-8.81M5,1009.7l8.81-8.81M5,1014.83l8.81-8.81M5,1020l8.81-8.81"/></g></g></g></g></svg>