<svg id="Layer_1" data-name="Layer 1" xmlns="http://www.w3.org/2000/svg" xmlns:xlink="http://www.w3.org/1999/xlink" viewBox="0 0 45 45"><defs><style>.cls-1{fill:none;}.cls-2{clip-path:url(#clip-path);}.cls-3{fill:#fff;}</style><clipPath id="clip-path"><rect class="cls-1" x="1.09" y="1.09" width="42.82" height="42.82"/></clipPath></defs><title>Email_Icon</title><g class="cls-2"><path class="cls-3" d="M33.66,21.56a1,1,0,0,0-.32.81q0,7.9,0,15.8v.5l-.41,0H6.47c-.3,0-.4-.07-.4-.4q0-13.18,0-26.36v-.38H22.89a.66.66,0,0,0,.54-.21C24.66,10,25.9,8.72,27.13,7.42L28,6.5H1.09V43.91H38.46v-27l-.1,0c-1.56,1.54-3.12,3.09-4.69,4.62"/><path class="cls-3" d="M42,1.63a9.67,9.67,0,0,0-1.46-.54h-.82a5.44,5.44,0,0,0-1.07.32,6.05,6.05,0,0,0-1.28.88c-.91.84-1.77,1.74-2.63,2.59L40,10.16c1-1,2.06-1.85,3-2.88a3.68,3.68,0,0,0-1-5.64"/><path class="cls-3" d="M17.12,22.53c-.27.27-.57.51-.89.8l5.38,5.25L38.14,12.11a.14.14,0,0,0,0-.05c-1.67-1.66-3.34-3.32-5-5-.22-.23-.32-.24-.55,0q-3.64,3.68-7.3,7.33l-8.14,8.14"/><path class="cls-3" d="M10.86,34.14,20,30.3l-5.31-5.19-3.81,9"/></g></svg>