<svg id="Layer_1" data-name="Layer 1" xmlns="http://www.w3.org/2000/svg" xmlns:xlink="http://www.w3.org/1999/xlink" viewBox="0 0 39.92 39.92"><defs><style>.cls-1{fill:none;}.cls-2{clip-path:url(#clip-path);}.cls-3{fill:#00559f;}</style><clipPath id="clip-path"><rect class="cls-1" width="39.92" height="39.92"/></clipPath></defs><title>Linkdin_icon-01</title><g class="cls-2"><path class="cls-3" d="M34.15,24.75c0-1,0-2.06-.08-3.09a11.32,11.32,0,0,0-.7-3.29,5.24,5.24,0,0,0-3.24-3.16,9.18,9.18,0,0,0-3.23-.45,6.58,6.58,0,0,0-3.14.83,5.63,5.63,0,0,0-2.17,2.09c0,.05,0,.14-.13.11s0-.11,0-.17c0-.73,0-1.47,0-2.2,0-.18-.05-.21-.22-.21H16c-.2,0-.25,0-.25.25q0,4.6,0,9.21t0,9.23c0,.17,0,.23.22.23h5.41c.17,0,.23,0,.23-.22q0-4.63,0-9.26a8.48,8.48,0,0,1,.27-2.35,3,3,0,0,1,1.43-2,3.86,3.86,0,0,1,1.92-.41A2.63,2.63,0,0,1,28,22a9.53,9.53,0,0,1,.25,2.39q0,4.75,0,9.5c0,.16,0,.21.2.21h5.49c.17,0,.21,0,.21-.21q0-4.57,0-9.15"/><path class="cls-3" d="M11.85,15.21H6.44c-.17,0-.21,0-.21.21q0,9.25,0,18.49c0,.16,0,.2.2.2h5.39c.3,0,.26,0,.26-.25q0-4.59,0-9.19t0-9.22c0-.19-.05-.23-.24-.23"/><path class="cls-3" d="M9.18,5.81a3.41,3.41,0,1,0,3.41,3.43A3.41,3.41,0,0,0,9.18,5.81"/></g></svg>