<svg id="Layer_1" data-name="Layer 1" xmlns="http://www.w3.org/2000/svg" xmlns:xlink="http://www.w3.org/1999/xlink" viewBox="0 0 216.15 85.16"><defs><style>.cls-1{fill:none;}.cls-2{fill:#fff;}.cls-3{clip-path:url(#clip-path);}.cls-4{fill:#00bcf1;}</style><clipPath id="clip-path"><rect class="cls-1" x="1" y="0.75" width="214.15" height="83.65"/></clipPath></defs><title>logo for Map</title><polygon class="cls-2" points="88.28 6.23 105.28 12.23 113.28 25.23 123.28 30.4 192.28 30.4 200.28 30.4 206.28 32.4 208.28 37.23 204.28 52.45 198.28 62.23 190.28 66.23 114.28 66.23 104.28 71.23 79.28 78.4 65.41 70.4 57.28 52.45 57.28 34.4 65.41 17.23 75.28 6.23 88.28 6.23"/><g class="cls-3"><path class="cls-4" d="M42.94,73.67A2.65,2.65,0,1,0,45.59,71a2.65,2.65,0,0,0-2.65,2.65m-24.14-6a6,6,0,1,0,6-6,6,6,0,0,0-6,6M1,61.87a2.65,2.65,0,1,0,2.65-2.65A2.65,2.65,0,0,0,1,61.87m4.7-37a2.16,2.16,0,1,0-2.16,2.16A2.16,2.16,0,0,0,5.7,24.91m22.91-7.18a6,6,0,1,0-6,6,6,6,0,0,0,6-6M54,8.89a4,4,0,1,0-4,4,4,4,0,0,0,4-4M104.83,45.7h6.26l-2.39-6.48q-.18-.43-.37-1t-.38-1.28q-.18.69-.37,1.29t-.37,1ZM157.5,59.54h2.28a1.11,1.11,0,0,0-1.08-1.27,1.29,1.29,0,0,0-1.2,1.27m-8.78.44c0,.87.43,1.59,1.27,1.59a1.17,1.17,0,0,0,1.14-.93,1.33,1.33,0,0,0,0-.34v-.74a1.36,1.36,0,0,0,0-.33,1.15,1.15,0,0,0-1.12-.9c-.81,0-1.28.71-1.28,1.66m-3.88-2.09-.59,1.73H146l-.59-1.72c-.13-.39-.22-.75-.31-1.09h0c-.09.35-.19.72-.3,1.08m36.87,2.8a1.36,1.36,0,0,0,.06-.42V59.5a1.14,1.14,0,0,0-1.13-1.18c-.74,0-1.28.63-1.28,1.62,0,.84.43,1.54,1.27,1.54a1.14,1.14,0,0,0,1.08-.8M205.3,33.3a22.75,22.75,0,0,0-2.14,2.44,39.77,39.77,0,0,0-2.62,3.89,47.3,47.3,0,0,0-2.21,4.18,42.28,42.28,0,0,0-1.65,4q-.4,1.23-.83,2.73t-.78,3.06q-.35,1.56-.57,3.08a19,19,0,0,0-.22,2.74q0,.53,0,1c0,.06,0,.12,0,.18a.2.2,0,0,1-.19.22H189a.19.19,0,0,1-.19-.23v0q.26-1.53.64-3a40.16,40.16,0,0,1,1.85-5.43A50.09,50.09,0,0,1,193.83,47a51.48,51.48,0,0,1,3.16-4.9q1.59-2.19,3.32-4.16a.19.19,0,0,0-.15-.32h-3.29v0H185.29a.19.19,0,0,1-.15-.31l3.17-4.18v0a.2.2,0,0,1,.17-.1h16.67a.19.19,0,0,1,.14.33M182.57,57.81c0,.31,0,.66,0,1.18v2.49a2.47,2.47,0,0,1-.61,2,2.28,2.28,0,0,1-1.56.51,2.76,2.76,0,0,1-1.43-.36l.19-.59a2.42,2.42,0,0,0,1.26.34c.8,0,1.38-.42,1.38-1.5v-.48h0a1.53,1.53,0,0,1-1.37.72A1.92,1.92,0,0,1,178.56,60a2.06,2.06,0,0,1,1.93-2.28,1.43,1.43,0,0,1,1.34.74h0l0-.65Zm0-4.68H171V33.65h3.66V50.14h7.86Zm-12.36,4.58a2.15,2.15,0,0,1,1.05.26l-.2.57a1.66,1.66,0,0,0-.88-.25c-.46,0-.72.27-.72.59s.26.51.82.73c.74.28,1.13.66,1.13,1.29s-.59,1.28-1.6,1.28a2.45,2.45,0,0,1-1.21-.29l.2-.59a2,2,0,0,0,1,.31c.57,0,.83-.28.83-.64s-.22-.58-.8-.79c-.77-.27-1.13-.7-1.13-1.21a1.32,1.32,0,0,1,1.48-1.26M169.07,53H156.66V33.54h12.41v2.88h-8.74v5.4h6.89v2.79h-6.89v5.51h8.74Zm-12.48,4.8L154.9,62.1h-.74l-1.63-4.29h.83l.84,2.41a10.76,10.76,0,0,1,.35,1.1h0c.1-.35.22-.71.36-1.1l.83-2.41Zm-1.9-4.8h-1.88a1.67,1.67,0,0,1-.73-.14,1.69,1.69,0,0,1-.57-.48l-10.27-13q.08.89.08,1.64V53H138.1V33.54H140l.4,0a.9.9,0,0,1,.55.26,2.74,2.74,0,0,1,.27.3l10.31,13c0-.31-.05-.62-.07-.93s0-.59,0-.85V33.54h3.22Zm-18.56,0h-1.88a1.47,1.47,0,0,1-1.29-.62l-10.27-13q.08.89.08,1.64V53h-3.22V33.54h1.92l.4,0a1,1,0,0,1,.3.08,1,1,0,0,1,.25.17,2.85,2.85,0,0,1,.27.3l10.31,13c0-.31-.05-.62-.07-.93s0-.59,0-.85V33.54h3.23Zm6.55,9.08,2-6h.93l2,6h-.82l-.64-1.88h-2.12l-.62,1.88ZM147.93,60a2.05,2.05,0,0,1,1.92-2.3,1.43,1.43,0,0,1,1.29.66h0V55.81h.78V61c0,.38,0,.82,0,1.11h-.7l0-.74h0a1.59,1.59,0,0,1-1.46.84A2,2,0,0,1,147.93,60m8.82,0a2.08,2.08,0,0,1,2-2.31,1.82,1.82,0,0,1,1.77,2,3,3,0,0,1,0,.36h-3A1.37,1.37,0,0,0,159,61.58a2.82,2.82,0,0,0,1.19-.22l.13.56a3.47,3.47,0,0,1-1.43.27A2,2,0,0,1,156.74,60m4.54-2.22H162l0,.84h0a1.29,1.29,0,0,1,1.19-.94.88.88,0,0,1,.22,0v.74a1.15,1.15,0,0,0-.27,0,1.09,1.09,0,0,0-1,1,2.15,2.15,0,0,0,0,.36V62.1h-.77v-3c0-.5,0-.94,0-1.34m2.48,0h.67v-1l.76-.2v1.23h1.12v.59h-1.12v2.31c0,.53.15.83.59.83a1.77,1.77,0,0,0,.45-.05l0,.58a1.91,1.91,0,0,1-.69.11,1.08,1.08,0,0,1-.84-.33,1.58,1.58,0,0,1-.3-1.12V58.4h-.67Zm3.15-1.2a.48.48,0,0,1,.49-.49.48.48,0,1,1-.49.49m.1,1.2h.78V62.1H167Zm5.13-1.2a.47.47,0,0,1,.49-.49.48.48,0,1,1-.49.49m.1,1.2H173V62.1h-.78Zm1.86,0h.69l0,.71h0a1.58,1.58,0,0,1,1.42-.81c.59,0,1.52.35,1.52,1.83V62.1H177V59.63c0-.69-.26-1.27-1-1.27a1.14,1.14,0,0,0-1.1,1.16V62.1h-.78V59c0-.44,0-.81,0-1.16m-56.55-4.76h-2.83a1.22,1.22,0,0,1-.78-.24,1.45,1.45,0,0,1-.45-.59l-1.47-4h-8.15l-1.47,4a1.3,1.3,0,0,1-.42.57,1.19,1.19,0,0,1-.78.26H98.35l7.74-19.48h3.73ZM92.86,42V33.57h3.67V53.05H92.86V44.54H83.62v8.51H79.94V33.57h3.67V42Zm12-19.13-3.38,4.65a3,3,0,0,1-.77.78,2.21,2.21,0,0,1-1.3.33,2.49,2.49,0,0,1-1.16-.32c-.4-.21-.84-.47-1.31-.78s-1-.65-1.65-1a13.67,13.67,0,0,0-2.18-1,17.87,17.87,0,0,0-2.87-.78,20.08,20.08,0,0,0-3.77-.32,16.89,16.89,0,0,0-6.66,1.28,14.46,14.46,0,0,0-5.2,3.72,17.09,17.09,0,0,0-3.38,5.95,24.68,24.68,0,0,0-1.2,8,23.33,23.33,0,0,0,1.29,8.06,17.67,17.67,0,0,0,3.51,5.95A15,15,0,0,0,80,61a16.27,16.27,0,0,0,6.46,1.28,28.35,28.35,0,0,0,3.74-.22,15.89,15.89,0,0,0,3.08-.71A13.75,13.75,0,0,0,96,60.11a16.55,16.55,0,0,0,2.5-1.88,3.53,3.53,0,0,1,.79-.54,1.92,1.92,0,0,1,.86-.2,2,2,0,0,1,1.46.63l4,4.27a21.83,21.83,0,0,1-8.13,6.21,28.25,28.25,0,0,1-11.58,2.16,27.57,27.57,0,0,1-10.87-2A23.92,23.92,0,0,1,66.74,63a24.85,24.85,0,0,1-5.24-8.7,32.34,32.34,0,0,1-1.82-11,30.47,30.47,0,0,1,2-11.09,25.48,25.48,0,0,1,5.5-8.68,24.91,24.91,0,0,1,8.46-5.67,28.31,28.31,0,0,1,10.89-2A27,27,0,0,1,97,17.77a25.13,25.13,0,0,1,7.83,5.06m110.3,23.27v-.17S215.15,25,194.24,25H121.93A41.74,41.74,0,0,0,51,16.91a12.13,12.13,0,1,0,2.82,10.75h0a10.56,10.56,0,0,1-.54,3.42,11.14,11.14,0,0,1-1,2.14l-.14.24a12.68,12.68,0,0,1-2.45,2.88l-.23.19a10.24,10.24,0,0,1-1,.74,15.54,15.54,0,0,1-1.5.8l-.45.19c-.35.15-.7.29-1,.4l-.46.15q-.54.16-1.06.26l-.33.07a11.54,11.54,0,0,1-9.81-2.85c-2.6-2.79-4.48-4.7-5-5.21h-.08a15.87,15.87,0,1,0,2,20.65l0,0a31.26,31.26,0,0,1,2-2.66,10,10,0,0,1,5.25-3.27c.92-.19,3.53-.47,2.68,1a10.5,10.5,0,0,0,1.36,20.91,10.37,10.37,0,0,0,6.39-2.25,12.25,12.25,0,0,0,4.05-8.73,9.46,9.46,0,0,1-3,9.64A41.76,41.76,0,0,0,118,67h76.28s20.91,0,20.91-20.91"/></g></svg>