<svg id="Layer_1" data-name="Layer 1" xmlns="http://www.w3.org/2000/svg" xmlns:xlink="http://www.w3.org/1999/xlink" viewBox="0 0 39.15 39.16"><defs><style>.cls-1{fill:none;}.cls-2{clip-path:url(#clip-path);}.cls-3{fill:#fff;}</style><clipPath id="clip-path"><rect class="cls-1" x="0.07" y="0.08" width="39" height="39"/></clipPath></defs><title>Phone_icon</title><g class="cls-2"><path class="cls-3" d="M14.16,3.41A1.42,1.42,0,0,0,12,2.35L6.42,5.15s-1.5.76-1.86,3.67C4.44,10.06,4,14.15,6.5,20.65c.28.73,4.92,12.51,12.83,15.83a3.77,3.77,0,0,0,3.27.31c1.52-.73,5.57-2.81,5.57-2.81a1.5,1.5,0,0,0,.31-2.49c-1.39-1.53-4.78-5.34-4.78-5.34a2,2,0,0,0-2.4-.4c-1.4.74-2.3,1.17-2.3,1.17s-.44.29-1.36-.65-5-5.67-5.64-11.75a.81.81,0,0,1,.5-.83l1.94-1s1.22-.36.89-2.39-1.19-6.93-1.19-6.93"/></g></svg>