<svg id="Layer_1" data-name="Layer 1" xmlns="http://www.w3.org/2000/svg" xmlns:xlink="http://www.w3.org/1999/xlink" viewBox="0 0 39.92 39.92"><defs><style>.cls-1{fill:none;}.cls-2{clip-path:url(#clip-path);}.cls-3{fill:#00559f;}</style><clipPath id="clip-path"><rect class="cls-1" width="39.92" height="39.92"/></clipPath></defs><title>Twitter_icon-01</title><g class="cls-2"><path class="cls-3" d="M36.55,9.68a13.69,13.69,0,0,1-3.62.93,7,7,0,0,0,2-2.09,4.79,4.79,0,0,0,.78-1.6l-1.07.54a18.15,18.15,0,0,1-2.61,1c-.25,0-.48.14-.73.07a1.68,1.68,0,0,0-.12-.14,6.71,6.71,0,0,0-6.4-1.77,6.33,6.33,0,0,0-3.34,1.93h0c-.1.11-.21.21-.31.33A6.62,6.62,0,0,0,19.54,13a4.83,4.83,0,0,0,.11,1.49c.06.26,0,.36-.28.31a3.84,3.84,0,0,0-.82-.06.89.89,0,0,0-.18-.06,18.88,18.88,0,0,1-6-1.71A20.77,20.77,0,0,1,7.92,10a27.87,27.87,0,0,1-2.3-2.39,6.32,6.32,0,0,0-.86,2.53h0a5.91,5.91,0,0,0,0,1.87,6.31,6.31,0,0,0,1.11,2.84,6.66,6.66,0,0,0,1.82,1.89,7.39,7.39,0,0,1-3-.84A5.37,5.37,0,0,0,5,18.3,6,6,0,0,0,6.78,21,6.78,6.78,0,0,0,10,22.73a6.86,6.86,0,0,1-2.65.14c-.09,0-.22-.08-.28,0s0,.19.08.27h0A4.65,4.65,0,0,0,8,24.74a5.6,5.6,0,0,0,1.74,1.68,4.08,4.08,0,0,0,1,.58,7.56,7.56,0,0,0,2.32.6c.08,0,.28-.06.15.16a20,20,0,0,1-2.87,1.66h0a14.77,14.77,0,0,1-6.42,1.07,1.12,1.12,0,0,0-.56-.07c0,.11.11.12.17.15h0a15.52,15.52,0,0,0,3.18,1.58,18.53,18.53,0,0,0,6.55,1.35,19.59,19.59,0,0,0,4.44-.36,13.75,13.75,0,0,0,3.49-1.06.45.45,0,0,0,.15,0,16.76,16.76,0,0,0,4.18-2.41A9.67,9.67,0,0,0,27.41,28a8.72,8.72,0,0,0,1.44-1.59,10.33,10.33,0,0,0,1.23-1.73A8.6,8.6,0,0,0,31,23.08a12.92,12.92,0,0,0,1-2.2,11.91,11.91,0,0,0,.76-2.5,1.1,1.1,0,0,0,.07-.17,20.82,20.82,0,0,0,.46-5.07,12.24,12.24,0,0,0,3.3-3.46"/></g></svg>