<svg id="Layer_1" data-name="Layer 1" xmlns="http://www.w3.org/2000/svg" xmlns:xlink="http://www.w3.org/1999/xlink" viewBox="0 0 39.15 39.16"><defs><style>.cls-1{fill:none;}.cls-2{clip-path:url(#clip-path);}.cls-3{fill:#fff;}</style><clipPath id="clip-path"><rect class="cls-1" x="0.07" y="0.08" width="39" height="39"/></clipPath></defs><title>web</title><g class="cls-2"><path class="cls-3" d="M5.14,15.67A14.59,14.59,0,0,1,8,10.1.67.67,0,0,1,9,9.84c.81.35,1.65.61,2.54.94a23.08,23.08,0,0,0-1.76,8.13H4.56c.2-1.11.31-2.2.59-3.24M14.53,5.58C13.75,6.81,13.06,7.91,12.34,9a.61.61,0,0,1-.49.24c-.74-.17-1.48-.39-2.36-.63a14,14,0,0,1,5-3M17.16,5a4.17,4.17,0,0,1,1.45-.42v5.64l-5-.59A14.79,14.79,0,0,1,17.16,5m1.47,13.87H11.34c.18-1.42.29-2.79.54-4.13a28.56,28.56,0,0,1,.9-3.24c.06-.18.35-.43.51-.42,1.76.18,3.52.41,5.34.63ZM20.21,4.74a1.94,1.94,0,0,1,1.62.47,15,15,0,0,1,3.45,4.49l-5.07.55Zm9.45,3.87c-1,.25-1.77.48-2.6.67-.12,0-.34-.12-.43-.25-.8-1.17-1.59-2.35-2.43-3.6a14.57,14.57,0,0,1,5.46,3.18M4.06,25.53c.73.55,1.5,1,2.26,1.55-.32-1.2-.8-2.22-1.11-3.29s-.45-2.17-.68-3.34H9.7l.46,3.46a8.25,8.25,0,0,1,.89-.41c.58-.18.71-.52.58-1.11a16.17,16.17,0,0,1-.2-2c1.18,0,2.28-.08,3.36,0a7.34,7.34,0,0,0,4.81-1.14l.07,0c.4-.12.5-.39.49-.8,0-2,0-4.08,0-6.12,0-.2,0-.4,0-.6l3.49-.26c.81-.06,1.87-.42,2.36,0s.65,1.5.86,2.31c.28,1.13.47,2.28.73,3.59a10.94,10.94,0,0,1,.79-.89,1.35,1.35,0,0,0,.41-1.57c-.36-1.09-.68-2.19-1-3.29-.08-.25-.19-.5-.29-.77.87-.29,1.66-.53,2.42-.82.46-.18.89-.41,1.3.25,0-.25,0-.37,0-.48a6.72,6.72,0,0,0-3.43-5.65A15.5,15.5,0,0,0,19.72,2,17.64,17.64,0,0,0,2.32,23.33a2.53,2.53,0,0,0,.54,1,7.38,7.38,0,0,0,1.2,1.19"/><path class="cls-3" d="M34.1,23.15a14.62,14.62,0,0,1-3.44,6.51.72.72,0,0,1-.56.25c-.91-.29-1.8-.64-2.55-.91.53-2,1.07-3.87,1.54-5.79.18-.74.16-1.53.28-2.3,0-.18.27-.47.41-.47,1.54,0,3.08,0,4.79,0-.16,1-.26,1.87-.46,2.74M24.82,33.77l-.14-.2c.62-1,1.23-2,1.86-3a.47.47,0,0,1,.41-.15c.69.18,1.37.4,2.06.6l.06.32-4.25,2.43m-4.61.92V29.36l4.68.57.16.27c-1,1.33-2,2.72-3.08,4-.33.37-1.1.34-1.76.51M36.23,14c-.68.65-1.3,1.22-1.88,1.83a.83.83,0,0,0-.16.6c.09.81.23,1.61.38,2.57-1.54,0-2.92,0-4.29,0-.57,0-1,0-1-.71-1.47,0-1.47,0-1.77.69-1.39,0-2.79,0-4.2,0a.88.88,0,0,0-.66.31,5,5,0,0,0-.3,1.15h5.25a1.33,1.33,0,0,1,.07.27,20,20,0,0,1-1.76,7.48c-.07.15-.44.27-.66.25-1.42-.14-2.84-.32-4.26-.5-.33,0-.56,0-.67.4-.52,2.06-1.08,4.11-1.62,6.13a1.68,1.68,0,0,1-1.91-.67c-.2-.29-.45-.54-.67-.81-.82-1-.82-1-2-.59a1.13,1.13,0,0,0-.19.13l.69,1.09c-.12,0-.2.05-.25,0a5.33,5.33,0,0,0-4-.56,1.72,1.72,0,0,1-.49,0L8,32.84a17.51,17.51,0,0,0,22.78.44A17.16,17.16,0,0,0,37,22.09,16.37,16.37,0,0,0,36.23,14"/><path class="cls-3" d="M15.51,30.6a1.13,1.13,0,0,1,.87.06c.63.33,1.21.75,1.88,1.17l3.09-12.16-12.16,6,2.34,1.43a7.54,7.54,0,0,1-1.68,1.13C7.36,29,5.29,28,3.3,26.41c0,.23,0,.32.06.4A7.26,7.26,0,0,0,9.81,32a12.77,12.77,0,0,0,5.7-1.35"/><path class="cls-3" d="M29.58,17.06A12.93,12.93,0,0,0,35,13.64a2.13,2.13,0,0,0,.65-2.12,7.52,7.52,0,0,0-4.6-5.84c2.66,4.17.92,7.77-1.48,11.37"/></g></svg>