<svg id="Layer_1" data-name="Layer 1" xmlns="http://www.w3.org/2000/svg" xmlns:xlink="http://www.w3.org/1999/xlink" viewBox="0 0 18.86 778.16"><defs><style>.cls-1,.cls-5{fill:none;}.cls-2{clip-path:url(#clip-path);}.cls-3{font-size:18px;fill:#fff;font-family:HelveticaNeueLTStd-Lt, Helvetica Neue LT Std;}.cls-4{letter-spacing:1em;}.cls-5{stroke:#fff;stroke-width:2.53px;}</style><clipPath id="clip-path"><rect class="cls-1" width="18.86" height="778.16"/></clipPath></defs><title>About_us_with_line</title><g class="cls-2"><text class="cls-3" transform="translate(15.86 775.16) rotate(-90)"><tspan class="cls-4">ABOUT U</tspan><tspan x="202.36" y="0">S</tspan></text><path class="cls-5" d="M3.57,527.39l11.71,11.72M3.57,520.6l11.71,11.71M3.57,513.81l11.71,11.71M3.57,507l11.71,11.72M3.57,500.23l11.71,11.71M3.57,493.43l11.71,11.71M3.57,486.64l11.71,11.72M3.57,479.85l11.71,11.71M3.57,473.06l11.71,11.71M3.57,466.27,15.29,478M3.57,459.48l11.71,11.71M3.57,452.68,15.29,464.4M3.57,445.89l11.71,11.71M3.57,439.1l11.71,11.71M3.57,432.31,15.29,444M3.57,425.52l11.71,11.71M3.57,418.73l11.71,11.71M3.57,411.93l11.71,11.71M3.57,405.14l11.71,11.71M3.57,398.35l11.71,11.71M3.57,391.56l11.71,11.71M3.57,384.77l11.71,11.71M3.57,378l11.71,11.71M3.57,371.18,15.29,382.9M3.57,364.39l11.71,11.71M3.57,357.6l11.71,11.71M3.57,350.81l11.71,11.71M3.57,344l11.71,11.71M3.57,337.23l11.71,11.71M3.57,330.43l11.71,11.71M3.57,323.64l11.71,11.71M3.57,316.85l11.71,11.71M3.57,310.06l11.71,11.71M3.57,303.27,15.29,315M3.57,296.48l11.71,11.71M3.57,289.68,15.29,301.4M3.57,282.89l11.71,11.71M3.57,276.1l11.71,11.71M3.57,269.31,15.29,281M3.57,262.52l11.71,11.71M3.57,255.73l11.71,11.71M3.57,248.93l11.71,11.71M3.57,242.14l11.71,11.72M3.57,235.35l11.71,11.72M3.57,228.56l11.71,11.71M3.57,221.77l11.71,11.72M3.57,215l11.71,11.72M3.57,208.18,15.29,219.9M3.57,201.39l11.71,11.72M3.57,194.6l11.71,11.72M3.57,187.81l11.71,11.71M3.57,181l11.71,11.72M3.57,174.23l11.71,11.72M3.57,167.43l11.71,11.71M3.57,160.64l11.71,11.72M3.57,153.85l11.71,11.72M3.57,147.06l11.71,11.71M3.57,140.27,15.29,152M3.57,133.48l11.71,11.72M3.57,126.68,15.29,138.4M3.57,119.89l11.71,11.72M3.57,113.1l11.71,11.72M3.57,106.31,15.29,118M3.57,99.52l11.71,11.72M3.57,92.73l11.71,11.72M3.57,85.93,15.29,97.65M3.57,79.14,15.29,90.86M3.57,72.35,15.29,84.07M3.57,65.56,15.29,77.27M3.57,58.77,15.29,70.48M3.57,52,15.29,63.69M3.57,45.18,15.29,56.9M3.57,38.39,15.29,50.11M3.57,31.6,15.29,43.32M3.57,24.81,15.29,36.52M3.57,18,15.29,29.73M3.57,11.23,15.29,22.94M3.57,4.43,15.29,16.15M3.57-2.36,15.29,9.36M3.57-9.15,15.29,2.57M3.57-15.94,15.29-4.23M3.57-22.73,15.29-11M3.57-29.52,15.29-17.81M3.57-36.32,15.29-24.6M3.57-43.11,15.29-31.39"/></g></svg>