<svg id="Layer_1" data-name="Layer 1" xmlns="http://www.w3.org/2000/svg" xmlns:xlink="http://www.w3.org/1999/xlink" viewBox="0 0 43 43"><defs><style>.cls-1,.cls-4{fill:none;}.cls-2{clip-path:url(#clip-path);}.cls-3{fill:#fff;}.cls-4{stroke:#fff;stroke-width:0.75px;}</style><clipPath id="clip-path"><rect class="cls-1" x="0.76" y="0.76" width="41.48" height="41.48"/></clipPath></defs><title>Instagram_Icon</title><g class="cls-2"><path class="cls-3" d="M28,16.07a1.16,1.16,0,0,1-1.09-1.14,1.09,1.09,0,0,1,1.09-1A1,1,0,0,1,29.1,15a1.09,1.09,0,0,1-1.1,1.1M21.53,27a5.45,5.45,0,1,1,5.41-5.45A5.46,5.46,0,0,1,21.53,27m9.75-9.75a5.42,5.42,0,0,0-5.36-5.49q-4.44-.05-8.88,0a5.26,5.26,0,0,0-5.25,4.64,50.31,50.31,0,0,0,0,5.15H11.7c0,1.45,0,2.9,0,4.35a5.43,5.43,0,0,0,5.41,5.44q4.38,0,8.76,0a5.42,5.42,0,0,0,5.41-5.39q.05-4.35,0-8.7"/><path class="cls-3" d="M21.51,18.25a3.24,3.24,0,1,0,3.23,3.31,3.22,3.22,0,0,0-3.23-3.31"/><circle class="cls-4" cx="21.5" cy="21.5" r="20.36"/></g></svg>