<svg id="Layer_1" data-name="Layer 1" xmlns="http://www.w3.org/2000/svg" xmlns:xlink="http://www.w3.org/1999/xlink" viewBox="0 0 752 451"><defs><style>.cls-1{fill:none;}.cls-2{clip-path:url(#clip-path);}.cls-3{fill:#fff;}.cls-4{opacity:0.7;}.cls-5{clip-path:url(#clip-path-3);}.cls-6{fill:#231f20;}.cls-7{clip-path:url(#clip-path-4);}.cls-8{clip-path:url(#clip-path-5);}</style><clipPath id="clip-path"><rect class="cls-1" x="0.98" y="0.78" width="750.04" height="449.43"/></clipPath><clipPath id="clip-path-3"><rect class="cls-1" x="-8.02" y="116.12" width="768.04" height="94.94"/></clipPath><clipPath id="clip-path-4"><rect class="cls-1" x="-8.02" y="238.46" width="648" height="94.94"/></clipPath><clipPath id="clip-path-5"><rect class="cls-1" x="-8.02" y="360.81" width="429.09" height="90.41"/></clipPath></defs><title>Menu_text</title><g class="cls-2"><g class="cls-2"><path class="cls-3" d="M412,65.54c.6,17.29,15.62,22.18,30.29,22.18,14,0,29.7-5.49,29.7-22.06,0-5.13-3.22-14.19-15.74-16.7-9.3-2-22.9-3.1-22.9-8.95,0-4.29,5.37-4.65,8.71-4.65a12,12,0,0,1,6.44,1.55,5.83,5.83,0,0,1,2.62,5.37H469.8c-.72-16.1-14.91-20-28.5-20-12.17,0-28.27,4.05-28.27,19,0,16.7,16,17.05,28.74,20.27,3.58.83,9.9,1.79,9.9,6.56s-5.6,6.56-9.54,6.56a12.69,12.69,0,0,1-7.51-2.15,8.32,8.32,0,0,1-3.34-6.92ZM407.9,24H387.63V57.19c0,11-6.68,13.83-11.09,13.83-6.44,0-10-2.86-10-11.09V24H346.24V61.25c0,16.22,5.13,26.48,22.9,26.48,7.16,0,15-3.93,18.84-10.26h.24v8.47H407.9Zm-96.24,0H299.14V5.31H278.86V24H268.6V37.16h10.26V64.71c0,16.82,4.41,21.83,21.71,21.83,3.7,0,7.39-.48,11.09-.6V71c-1.79,0-3.58.24-5.25.24-4.41,0-7.27-1.07-7.27-6V37.16h12.52Zm-45,0H246.42V57.19c0,11-6.68,13.83-11.09,13.83-6.44,0-10-2.86-10-11.09V24H205V61.25c0,16.22,5.13,26.48,22.9,26.48,7.16,0,15-3.93,18.84-10.26H247v8.47H266.7ZM135.27,55c0,18.61,13.36,32.68,32.56,32.68S200.51,73.65,200.51,55,187,22.25,167.83,22.25,135.27,36.44,135.27,55m20.27,0c0-7.87,2.86-17.29,12.28-17.29s12.4,9.42,12.4,17.29-3,17.17-12.4,17.17S155.54,62.92,155.54,55M101,37.75c8.94,0,12,8.71,12,16.58,0,8.47-3.1,17.89-12.16,17.89s-12.28-7-12.28-17.89c0-12.76,6.92-16.58,12.4-16.58m-32,48.18H88.4V78.78h.24a19.78,19.78,0,0,0,17.05,8.95c19.44,0,27.67-16.7,27.67-34.11,0-16.1-8.59-31.37-26.12-31.37-7.63,0-13.48,2.86-17.65,8.59h-.24V.78H69.08ZM22.45,43.12c1-5.25,4.53-7.75,10.14-7.75,4.17,0,9.78,1.79,9.78,6.44,0,3.82-1.91,5-5.37,5.72C22.93,50.4,1,48.85,1,69c0,12.76,9.3,18.72,21.11,18.72,7.39,0,15.15-2.15,20.39-7.63a24.18,24.18,0,0,0,1.19,5.84H64.07C61.69,81,61.69,75.32,61.69,70.07V43c0-17.53-14.19-20.75-28.86-20.75-7,0-14.19,1.19-19.68,4.29S3.84,35,3.49,43.12Zm-1.19,25c0-4.89,3.82-6.8,8.35-7.87S39.27,58.74,42.13,57c.48,12.76-2.74,18.25-12.4,18.25-4.53,0-8.47-2-8.47-7"/><g class="cls-4"><g class="cls-5"><path class="cls-6" d="M707.73,208.28H728V177.63c0-7.75,5.25-14.67,15.27-14.67a28.43,28.43,0,0,1,7.75,1.19V145.66a21.64,21.64,0,0,0-4.77-.48c-8.71,0-15.62,4.18-18.6,12h-.24V146.38H707.73Zm-4.89-26c1-21-10.14-37.69-32.32-37.69-18.25,0-33.39,13.6-33.39,32.56,0,20.75,13.72,32.92,33.87,32.92,13.83,0,27.07-6.2,30.77-20.51h-19c-1.91,4.53-6.68,6.8-11.57,6.8-8.59,0-13.48-5.6-13.83-14.07ZM657.4,170.95c1.19-7.51,6-12.64,13.12-12.64,6.8,0,11.69,5.72,12,12.64Zm-51,37.33h20.28V159.5h12.17V146.38H626.63v-2.74c0-5.61,2.86-6.2,7.51-6.2a43.69,43.69,0,0,1,5.49.36V123.48c-3.22-.12-6.56-.36-9.78-.36-17.29,0-23.5,5.49-23.5,23.26h-9.78V159.5h9.78Zm-36,0h20.28V159.5h12.16V146.38H590.61v-2.74c0-5.61,2.86-6.2,7.51-6.2a43.69,43.69,0,0,1,5.49.36V123.48c-3.22-.12-6.56-.36-9.78-.36-17.29,0-23.5,5.49-23.5,23.26h-9.78V159.5h9.78ZM496,177.39c0,18.6,13.36,32.68,32.56,32.68s32.68-14.07,32.68-32.68-13.48-32.8-32.68-32.8S496,158.78,496,177.39m20.27,0c0-7.87,2.86-17.29,12.28-17.29s12.4,9.42,12.4,17.29-3,17.17-12.4,17.17-12.28-9.3-12.28-17.17m-53.07,4.89c1-21-10.14-37.69-32.32-37.69-18.25,0-33.39,13.6-33.39,32.56,0,20.75,13.71,32.92,33.87,32.92,13.83,0,27.07-6.2,30.77-20.51h-19c-1.91,4.53-6.68,6.8-11.57,6.8-8.59,0-13.48-5.6-13.83-14.07ZM417.8,170.95c1.19-7.51,6-12.64,13.12-12.64,6.8,0,11.69,5.72,12,12.64Zm-18.13-24.57H379l-10.14,40h-.24l-9.06-40H340.28l-8.83,40.07h-.24l-10.38-40.07H300.33l19.32,61.9h20.51l9.66-41.15h.24l9.78,41.15h20.51Zm-127.25,0H259.9V127.66H239.62v18.72H229.37V159.5h10.26V187c0,16.82,4.41,21.82,21.71,21.82,3.7,0,7.39-.48,11.09-.6V193.37c-1.79,0-3.58.24-5.25.24-4.41,0-7.27-1.07-7.27-6V159.5h12.52Zm-84,19.08c1-5.25,4.53-7.75,10.14-7.75,4.17,0,9.78,1.79,9.78,6.44,0,3.82-1.91,5-5.37,5.73-14.07,2.86-36,1.31-36,21.47,0,12.76,9.3,18.73,21.11,18.73,7.39,0,15.15-2.15,20.39-7.63a24.19,24.19,0,0,0,1.19,5.84h20.39c-2.39-4.89-2.39-10.62-2.39-15.86V165.34c0-17.53-14.19-20.75-28.86-20.75-7,0-14.19,1.19-19.68,4.29s-9.3,8.47-9.66,16.58Zm-1.19,25c0-4.89,3.82-6.8,8.35-7.87s9.66-1.55,12.52-3.34c.48,12.76-2.74,18.25-12.4,18.25-4.53,0-8.47-2-8.47-7m-86.11,17.77h20.27V174.53c0-6.8,3.34-13.24,11-13.24,11.09,0,10.14,8.59,10.14,17.05v29.93h20.28V168.56c0-8.95-1.67-24-22.3-24-7.39,0-15.74,3.94-18.84,10.26h-.24V123.12H101.16Zm-.83-61.9H79.69l-10.14,40h-.24l-9.06-40H40.94l-8.83,40.07h-.24L21.5,146.38H1l19.32,61.9H40.82l9.66-41.15h.24l9.78,41.15H81Z"/></g></g><g class="cls-4"><g class="cls-7"><path class="cls-6" d="M630.92,304.62c1-21-10.14-37.69-32.32-37.69-18.25,0-33.39,13.6-33.39,32.56,0,20.75,13.72,32.92,33.87,32.92,13.84,0,27.07-6.2,30.77-20.51h-19c-1.91,4.53-6.68,6.8-11.57,6.8-8.59,0-13.48-5.6-13.84-14.07Zm-45.44-11.33c1.19-7.51,6-12.64,13.12-12.64,6.8,0,11.69,5.72,12,12.64Zm-59.27,37.33h20.27V300c0-7.75,5.25-14.67,15.27-14.67a28.43,28.43,0,0,1,7.75,1.19V268a21.63,21.63,0,0,0-4.77-.48c-8.71,0-15.62,4.18-18.61,12h-.24V268.72H526.21ZM478.86,287.8c1-5.25,4.53-7.75,10.14-7.75,4.17,0,9.78,1.79,9.78,6.44,0,3.82-1.91,5-5.37,5.73-14.07,2.86-36,1.31-36,21.47,0,12.76,9.3,18.72,21.11,18.72,7.39,0,15.15-2.15,20.39-7.63a24.19,24.19,0,0,0,1.19,5.84h20.39c-2.39-4.89-2.39-10.61-2.39-15.86V287.68c0-17.53-14.19-20.75-28.86-20.75-7,0-14.19,1.19-19.68,4.29s-9.3,8.47-9.66,16.58Zm-1.19,25c0-4.89,3.82-6.8,8.35-7.87s9.66-1.55,12.52-3.34c.48,12.76-2.74,18.25-12.4,18.25-4.53,0-8.47-2-8.47-7M425,304.62c1-21-10.14-37.69-32.32-37.69-18.25,0-33.39,13.6-33.39,32.56,0,20.75,13.72,32.92,33.87,32.92,13.83,0,27.07-6.2,30.77-20.51h-19c-1.91,4.53-6.68,6.8-11.57,6.8-8.59,0-13.48-5.6-13.83-14.07Zm-45.44-11.33c1.19-7.51,6-12.64,13.12-12.64,6.8,0,11.69,5.72,12,12.64Zm-18.13-24.57H340.76l-10.14,40h-.24l-9.06-40H302l-8.82,40.07h-.24l-10.38-40.07H262l19.32,61.9h20.51l9.66-41.15h.24l9.78,41.15h20.51Zm-194,31c0,18.6,13.36,32.68,32.56,32.68s32.68-14.07,32.68-32.68-13.48-32.8-32.68-32.8-32.56,14.19-32.56,32.8m20.27,0c0-7.87,2.86-17.29,12.28-17.29s12.4,9.42,12.4,17.29-3,17.17-12.4,17.17-12.28-9.3-12.28-17.17m-86.46,30.89h20.27V296.87c0-6.8,3.34-13.24,11-13.24,11.09,0,10.14,8.59,10.14,17.06v29.93h20.28V290.9c0-8.95-1.67-24-22.3-24-7.39,0-15.74,3.94-18.84,10.26h-.24V245.47H101.16Zm-.83-61.9H79.69l-10.14,40h-.24l-9.06-40H40.94l-8.83,40.07h-.24L21.5,268.72H1l19.32,61.9H40.82l9.66-41.15h.24l9.78,41.15H81Z"/></g></g><g class="cls-4"><g class="cls-8"><path class="cls-6" d="M412.08,386.53H399.55V367.81H379.28v18.72H369v13.12h10.26V427.2C379.28,444,383.69,449,401,449c3.7,0,7.39-.48,11.09-.6V433.52c-1.79,0-3.58.24-5.25.24-4.41,0-7.27-1.07-7.27-6V399.65h12.52ZM370,409.19c-1.43-16.34-15.15-24.45-30.53-24.45-19.92,0-32.44,14.07-32.44,33.75,0,19,13.84,31.72,32.44,31.72,16.46,0,29.34-9.54,31.13-26.12H350.89c-1,6.56-4.53,10.61-11.57,10.61-8.59,0-12-8.23-12-16.22,0-8.59,1.79-18.25,13.12-18.25,5.13,0,9.78,3.7,9.9,8.94Zm-106.62-3.58c1-5.25,4.53-7.75,10.14-7.75,4.18,0,9.78,1.79,9.78,6.44,0,3.82-1.91,5-5.37,5.73-14.07,2.86-36,1.31-36,21.47,0,12.76,9.3,18.73,21.11,18.73,7.39,0,15.15-2.15,20.39-7.63a24.24,24.24,0,0,0,1.19,5.84H305c-2.38-4.89-2.38-10.61-2.38-15.86V405.49c0-17.53-14.19-20.75-28.86-20.75-7,0-14.19,1.19-19.68,4.29s-9.3,8.47-9.66,16.58Zm-1.19,25c0-4.89,3.82-6.8,8.35-7.87s9.66-1.55,12.52-3.34c.48,12.76-2.74,18.25-12.4,18.25-4.53,0-8.47-2-8.47-7m-20-44.13H229.61V367.81H209.33v18.72H199.07v13.12h10.26V427.2C209.33,444,213.74,449,231,449c3.7,0,7.39-.48,11.09-.6V433.52c-1.79,0-3.58.24-5.25.24-4.41,0-7.27-1.07-7.27-6V399.65h12.52Zm-106.5,61.9H155.9V414.68c0-6.8,3.34-13.24,11-13.24C178,401.44,177,410,177,418.49v29.93h20.28V408.71c0-8.94-1.67-24-22.3-24-7.39,0-15.74,3.94-19.44,10.26h-.24v-8.47H135.63ZM65.74,417.54c0,18.61,13.36,32.68,32.56,32.68S131,436.14,131,417.54s-13.48-32.8-32.68-32.8-32.56,14.19-32.56,32.8m20.28,0c0-7.87,2.86-17.29,12.28-17.29s12.4,9.42,12.4,17.29-3,17.17-12.4,17.17S86,425.41,86,417.54M64,409.19c-1.43-16.34-15.15-24.45-30.53-24.45C13.5,384.74,1,398.81,1,418.49c0,19,13.83,31.72,32.44,31.72,16.46,0,29.34-9.54,31.13-26.12H44.87c-1,6.56-4.53,10.61-11.57,10.61-8.59,0-12-8.23-12-16.22,0-8.59,1.79-18.25,13.12-18.25,5.13,0,9.78,3.7,9.9,8.94Z"/></g></g></g></g></svg>