<svg id="Layer_1" data-name="Layer 1" xmlns="http://www.w3.org/2000/svg" xmlns:xlink="http://www.w3.org/1999/xlink" viewBox="0 0 18.86 780.16"><defs><style>.cls-1,.cls-5{fill:none;}.cls-2{clip-path:url(#clip-path);}.cls-3{font-size:18px;fill:#fff;font-family:HelveticaNeueLTStd-Lt, Helvetica Neue LT Std;letter-spacing:1em;}.cls-4{letter-spacing:0em;}.cls-5{stroke:#fff;stroke-width:2.53px;}</style><clipPath id="clip-path"><rect class="cls-1" width="18.86" height="780.16"/></clipPath></defs><title>Who_we_are_with_line</title><g class="cls-2"><text class="cls-3" transform="translate(15.86 775.16) rotate(-90)">WHO WE AR<tspan class="cls-4" x="264.69" y="0">E</tspan></text><path class="cls-5" d="M3.57,463.39l11.71,11.72M3.57,456.62l11.71,11.72M3.57,449.84l11.71,11.72M3.57,443.07l11.71,11.71M3.57,436.29,15.29,448M3.57,429.51l11.71,11.71M3.57,422.74l11.71,11.71M3.57,416l11.71,11.71M3.57,409.19,15.29,420.9M3.57,402.41l11.71,11.71M3.57,395.64l11.71,11.71M3.57,388.86l11.71,11.72M3.57,382.08,15.29,393.8M3.57,375.31,15.29,387M3.57,368.53l11.71,11.71M3.57,361.76l11.71,11.71M3.57,355,15.29,366.7M3.57,348.21l11.71,11.71M3.57,341.43l11.71,11.71M3.57,334.66l11.71,11.71M3.57,327.88l11.71,11.71M3.57,321.1l11.71,11.71M3.57,314.33,15.29,326M3.57,307.55l11.71,11.71M3.57,300.78l11.71,11.72M3.57,294l11.71,11.71M3.57,287.23l11.71,11.71M3.57,280.45l11.71,11.71M3.57,273.67l11.71,11.71M3.57,266.9l11.71,11.71M3.57,260.12l11.71,11.71M3.57,253.35l11.71,11.72M3.57,246.57l11.71,11.72M3.57,239.8l11.71,11.72M3.57,233l11.71,11.72M3.57,226.25,15.29,238M3.57,219.47l11.71,11.71M3.57,212.69l11.71,11.71M3.57,205.92l11.71,11.71M3.57,199.14l11.71,11.72M3.57,192.37l11.71,11.72M3.57,185.59l11.71,11.71M3.57,178.82l11.71,11.71M3.57,172l11.71,11.71M3.57,165.26,15.29,177M3.57,158.49,15.29,170.2M3.57,151.71l11.71,11.72M3.57,144.94l11.71,11.71M3.57,138.16l11.71,11.71M3.57,131.39,15.29,143.1M3.57,124.61l11.71,11.72M3.57,117.83l11.71,11.72M3.57,111.06l11.71,11.71M3.57,104.28,15.29,116M3.57,97.51l11.71,11.71M3.57,90.73l11.71,11.71M3.57,84,15.29,95.67M3.57,77.18,15.29,88.9M3.57,70.41,15.29,82.12M3.57,63.63,15.29,75.34M3.57,56.85,15.29,68.57M3.57,50.08,15.29,61.79M3.57,43.3,15.29,55M3.57,36.53,15.29,48.24M3.57,29.75,15.29,41.47M3.57,23,15.29,34.69M3.57,16.2,15.29,27.91M3.57,9.42,15.29,21.14M3.57,2.65,15.29,14.36M3.57-4.13,15.29,7.59M3.57-10.9,15.29.81M3.57-17.68,15.29-6M3.57-24.45,15.29-12.74M3.57-31.23,15.29-19.51M3.57-38,15.29-26.29M3.57-44.78,15.29-33.07M3.57-51.56,15.29-39.84M3.57-58.33,15.29-46.62M3.57-65.11,15.29-53.39"/></g></svg>