<svg id="Layer_1" data-name="Layer 1" xmlns="http://www.w3.org/2000/svg" xmlns:xlink="http://www.w3.org/1999/xlink" viewBox="0 0 518.83 485.6"><defs><style>.cls-1{fill:url(#linear-gradient);}.cls-2{fill:url(#linear-gradient-2);}.cls-3{fill:url(#linear-gradient-3);}.cls-4{fill:url(#linear-gradient-4);}.cls-5{fill:url(#linear-gradient-5);}.cls-6{fill:url(#linear-gradient-6);}.cls-7{fill:url(#linear-gradient-7);}.cls-8{fill:url(#linear-gradient-8);}.cls-9{fill:url(#linear-gradient-9);}.cls-10{fill:url(#linear-gradient-10);}.cls-11{fill:url(#linear-gradient-11);}.cls-12,.cls-16{fill:none;}.cls-13{clip-path:url(#clip-path);}.cls-14{opacity:0.35;}.cls-15{clip-path:url(#clip-path-3);}.cls-16{stroke:#fff;stroke-width:1.01px;}.cls-17{clip-path:url(#clip-path-4);}.cls-18{clip-path:url(#clip-path-5);}.cls-19{clip-path:url(#clip-path-6);}.cls-20{opacity:0.5;}.cls-21{clip-path:url(#clip-path-7);}.cls-22{opacity:0.4;}.cls-23{clip-path:url(#clip-path-8);}.cls-24{clip-path:url(#clip-path-9);}.cls-25{opacity:0.2;}.cls-26{clip-path:url(#clip-path-10);}.cls-27{opacity:0.1;}.cls-28{clip-path:url(#clip-path-11);}.cls-29{clip-path:url(#clip-path-12);}.cls-30{clip-path:url(#clip-path-13);}.cls-31{clip-path:url(#clip-path-14);}.cls-32{clip-path:url(#clip-path-15);}.cls-33{clip-path:url(#clip-path-16);}.cls-34{clip-path:url(#clip-path-17);}.cls-35{clip-path:url(#clip-path-18);}.cls-36{clip-path:url(#clip-path-19);}.cls-37{clip-path:url(#clip-path-20);}.cls-38{clip-path:url(#clip-path-21);}.cls-39{clip-path:url(#clip-path-22);}.cls-40{clip-path:url(#clip-path-23);}.cls-41{clip-path:url(#clip-path-24);}.cls-42{clip-path:url(#clip-path-25);}.cls-43{clip-path:url(#clip-path-26);}.cls-44{clip-path:url(#clip-path-27);}.cls-45{clip-path:url(#clip-path-28);}.cls-46{opacity:0.05;}.cls-47{clip-path:url(#clip-path-29);}.cls-48{opacity:0.15;}.cls-49{clip-path:url(#clip-path-30);}.cls-50{clip-path:url(#clip-path-31);}.cls-51{clip-path:url(#clip-path-32);}.cls-52{clip-path:url(#clip-path-33);}.cls-53{clip-path:url(#clip-path-34);}.cls-54{opacity:0.3;}.cls-55{clip-path:url(#clip-path-35);}.cls-56{clip-path:url(#clip-path-36);}.cls-57{clip-path:url(#clip-path-37);}.cls-58{clip-path:url(#clip-path-38);}.cls-59{clip-path:url(#clip-path-39);}.cls-60{clip-path:url(#clip-path-40);}.cls-61{clip-path:url(#clip-path-41);}.cls-62{clip-path:url(#clip-path-42);}.cls-63{clip-path:url(#clip-path-43);}.cls-64{clip-path:url(#clip-path-44);}.cls-65{clip-path:url(#clip-path-45);}.cls-66{clip-path:url(#clip-path-46);}.cls-67{clip-path:url(#clip-path-47);}.cls-68{clip-path:url(#clip-path-48);}.cls-69{clip-path:url(#clip-path-49);}.cls-70{clip-path:url(#clip-path-50);}.cls-71{clip-path:url(#clip-path-51);}.cls-72{clip-path:url(#clip-path-52);}.cls-73{clip-path:url(#clip-path-53);}.cls-74{clip-path:url(#clip-path-54);}.cls-75{clip-path:url(#clip-path-55);}.cls-76{clip-path:url(#clip-path-56);}.cls-77{opacity:0.25;}.cls-78{clip-path:url(#clip-path-57);}.cls-79{clip-path:url(#clip-path-58);}.cls-80{clip-path:url(#clip-path-59);}.cls-81{clip-path:url(#clip-path-60);}.cls-82{clip-path:url(#clip-path-61);}.cls-83{clip-path:url(#clip-path-62);}.cls-84{clip-path:url(#clip-path-63);}.cls-85{clip-path:url(#clip-path-64);}.cls-86{clip-path:url(#clip-path-65);}.cls-87{mask:url(#mask);}.cls-88{clip-path:url(#clip-path-67);}.cls-89{mask:url(#mask-2);}.cls-90{clip-path:url(#clip-path-69);}.cls-91{clip-path:url(#clip-path-70);}.cls-92{clip-path:url(#clip-path-71);}.cls-93{clip-path:url(#clip-path-72);}.cls-94{clip-path:url(#clip-path-73);}.cls-95{clip-path:url(#clip-path-74);}.cls-96{clip-path:url(#clip-path-75);}.cls-97{clip-path:url(#clip-path-76);}.cls-98{clip-path:url(#clip-path-77);}.cls-99{clip-path:url(#clip-path-78);}.cls-100{clip-path:url(#clip-path-79);}.cls-101{clip-path:url(#clip-path-80);}.cls-102{clip-path:url(#clip-path-81);}.cls-103{clip-path:url(#clip-path-82);}.cls-104{clip-path:url(#clip-path-83);}.cls-105{mask:url(#mask-3);}.cls-106{clip-path:url(#clip-path-85);}.cls-107{mask:url(#mask-4);}.cls-108{clip-path:url(#clip-path-87);}.cls-109{clip-path:url(#clip-path-88);}.cls-110{clip-path:url(#clip-path-89);}.cls-111{clip-path:url(#clip-path-90);}.cls-112{clip-path:url(#clip-path-91);}.cls-113{clip-path:url(#clip-path-92);}.cls-114{clip-path:url(#clip-path-93);}.cls-115{clip-path:url(#clip-path-94);}.cls-116{mask:url(#mask-5);}.cls-117{clip-path:url(#clip-path-96);}.cls-118{mask:url(#mask-6);}.cls-119{clip-path:url(#clip-path-98);}.cls-120{mask:url(#mask-7);}.cls-121{clip-path:url(#clip-path-100);}.cls-122{mask:url(#mask-8);}.cls-123{clip-path:url(#clip-path-102);}.cls-124{clip-path:url(#clip-path-103);}.cls-125{clip-path:url(#clip-path-104);}.cls-126{clip-path:url(#clip-path-105);}.cls-127{mask:url(#mask-9);}.cls-128{clip-path:url(#clip-path-107);}.cls-129{clip-path:url(#clip-path-108);}.cls-130{clip-path:url(#clip-path-109);}.cls-131{clip-path:url(#clip-path-110);}.cls-132{clip-path:url(#clip-path-111);}.cls-133{clip-path:url(#clip-path-112);}.cls-134{clip-path:url(#clip-path-113);}.cls-135{clip-path:url(#clip-path-114);}.cls-136{clip-path:url(#clip-path-115);}.cls-137{clip-path:url(#clip-path-116);}.cls-138{clip-path:url(#clip-path-117);}.cls-139{clip-path:url(#clip-path-118);}.cls-140{mask:url(#mask-10);}.cls-141{clip-path:url(#clip-path-120);}.cls-142{mask:url(#mask-11);}.cls-143{fill:#fff;}.cls-144{filter:url(#luminosity-noclip-11);}.cls-145{filter:url(#luminosity-noclip-10);}.cls-146{filter:url(#luminosity-noclip-9);}.cls-147{filter:url(#luminosity-noclip-8);}.cls-148{filter:url(#luminosity-noclip-7);}.cls-149{filter:url(#luminosity-noclip-6);}.cls-150{filter:url(#luminosity-noclip-5);}.cls-151{filter:url(#luminosity-noclip-4);}.cls-152{filter:url(#luminosity-noclip-3);}.cls-153{filter:url(#luminosity-noclip-2);}.cls-154{filter:url(#luminosity-noclip);}</style><linearGradient id="linear-gradient" x1="781.42" y1="2311.85" x2="782.42" y2="2311.85" gradientTransform="matrix(69.3, 0, 0, -69.3, -53952.85, 160256.7)" gradientUnits="userSpaceOnUse"><stop offset="0" stop-color="#fff"/><stop offset="1"/></linearGradient><linearGradient id="linear-gradient-2" x1="788.77" y1="2308.97" x2="789.77" y2="2308.97" gradientTransform="matrix(68.8, 0, 0, -68.8, -54141.23, 158906.69)" xlink:href="#linear-gradient"/><linearGradient id="linear-gradient-3" x1="765.57" y1="2299.34" x2="766.57" y2="2299.34" gradientTransform="matrix(0, 114.24, 114.24, 0, -262240.16, -87126.1)" xlink:href="#linear-gradient"/><linearGradient id="linear-gradient-4" x1="755.03" y1="2300.33" x2="756.03" y2="2300.33" gradientTransform="matrix(0, 78.84, 78.84, 0, -180992.39, -59476.39)" xlink:href="#linear-gradient"/><linearGradient id="linear-gradient-5" x1="773.28" y1="2266.5" x2="774.28" y2="2266.5" gradientTransform="matrix(-108.83, 0, 0, 108.83, 84288.62, -246547.37)" xlink:href="#linear-gradient"/><linearGradient id="linear-gradient-6" x1="765.86" y1="2262.1" x2="766.86" y2="2262.1" gradientTransform="matrix(-82.04, 0, 0, 82.04, 62923.62, -185383.27)" xlink:href="#linear-gradient"/><linearGradient id="linear-gradient-7" x1="791.98" y1="2278.03" x2="792.98" y2="2278.03" gradientTransform="matrix(0, -103.49, -103.49, 0, 235780.48, 82256.71)" xlink:href="#linear-gradient"/><linearGradient id="linear-gradient-8" x1="794.03" y1="2219.84" x2="795.03" y2="2219.84" gradientTransform="matrix(-29, 0, 0, 29, 23098.51, -64086.41)" xlink:href="#linear-gradient"/><linearGradient id="linear-gradient-9" x1="750.24" y1="2279.5" x2="751.24" y2="2279.5" gradientTransform="matrix(0, 80.04, 80.04, 0, -182377.83, -59758.45)" xlink:href="#linear-gradient"/><linearGradient id="linear-gradient-10" x1="760.79" y1="2285" x2="761.79" y2="2285" gradientTransform="matrix(0, 146.04, 146.04, 0, -333603.01, -110789.01)" xlink:href="#linear-gradient"/><linearGradient id="linear-gradient-11" x1="758.3" y1="2289.74" x2="759.3" y2="2289.74" gradientTransform="matrix(0, 117.03, 117.03, 0, -267562.78, -88378.71)" xlink:href="#linear-gradient"/><clipPath id="clip-path"><rect class="cls-12" width="518.84" height="485.6"/></clipPath><clipPath id="clip-path-3"><rect class="cls-12" x="163.54" y="59.68" width="72.18" height="70.08"/></clipPath><clipPath id="clip-path-4"><rect class="cls-12" x="168.91" y="59.76" width="66.87" height="93.29"/></clipPath><clipPath id="clip-path-5"><rect class="cls-12" x="169.31" y="68.99" width="112.34" height="84.49"/></clipPath><clipPath id="clip-path-6"><rect class="cls-12" x="169.74" y="77.48" width="195.76" height="76.36"/></clipPath><clipPath id="clip-path-7"><rect class="cls-12" x="287.15" y="77.77" width="78.64" height="157.78"/></clipPath><clipPath id="clip-path-8"><rect class="cls-12" x="162.85" y="120.7" width="24.63" height="33.36"/></clipPath><clipPath id="clip-path-9"><rect class="cls-12" x="168.56" y="145.7" width="78.36" height="112.2"/></clipPath><clipPath id="clip-path-10"><rect class="cls-12" x="162.83" y="120.86" width="84.66" height="136.16"/></clipPath><clipPath id="clip-path-11"><rect class="cls-12" x="140.2" y="109.22" width="40.52" height="20.32"/></clipPath><clipPath id="clip-path-12"><rect class="cls-12" x="168" y="144.38" width="43.25" height="93.74"/></clipPath><clipPath id="clip-path-13"><rect class="cls-12" x="168.29" y="144.65" width="69.81" height="170.85"/></clipPath><clipPath id="clip-path-14"><rect class="cls-12" x="191.95" y="228.93" width="54.21" height="29.49"/></clipPath><clipPath id="clip-path-15"><rect class="cls-12" x="228.3" y="226.04" width="77.78" height="31.23"/></clipPath><clipPath id="clip-path-16"><rect class="cls-12" x="228.33" y="193.18" width="194" height="65.52"/></clipPath><clipPath id="clip-path-17"><rect class="cls-12" x="286.34" y="193.17" width="137.11" height="42.44"/></clipPath><clipPath id="clip-path-18"><rect class="cls-12" x="287.27" y="226.95" width="103.77" height="68.25"/></clipPath><clipPath id="clip-path-19"><rect class="cls-12" x="286.3" y="226.93" width="45.43" height="70.62"/></clipPath><clipPath id="clip-path-20"><rect class="cls-12" x="227.98" y="248.62" width="104.13" height="49.19"/></clipPath><clipPath id="clip-path-21"><rect class="cls-12" x="227.07" y="249.22" width="67.96" height="39.71"/></clipPath><clipPath id="clip-path-22"><rect class="cls-12" x="285.97" y="227.08" width="19.01" height="102.56"/></clipPath><clipPath id="clip-path-23"><rect class="cls-12" x="277.69" y="225.57" width="28.42" height="63.59"/></clipPath><clipPath id="clip-path-24"><rect class="cls-12" x="277.69" y="280.97" width="27.27" height="49.05"/></clipPath><clipPath id="clip-path-25"><rect class="cls-12" x="287.15" y="154.21" width="145.99" height="175.73"/></clipPath><clipPath id="clip-path-26"><rect class="cls-12" x="313.54" y="193.92" width="109.51" height="102.64"/></clipPath><clipPath id="clip-path-27"><rect class="cls-12" x="313.46" y="289.1" width="68.29" height="93.4"/></clipPath><clipPath id="clip-path-28"><rect class="cls-12" x="286.38" y="322.33" width="204.96" height="44.94"/></clipPath><clipPath id="clip-path-29"><rect class="cls-12" x="372.17" y="286.09" width="117.94" height="80.85"/></clipPath><clipPath id="clip-path-30"><rect class="cls-12" x="285.93" y="286.03" width="105.58" height="45.26"/></clipPath><clipPath id="clip-path-31"><rect class="cls-12" x="313.6" y="286" width="77.68" height="11.06"/></clipPath><clipPath id="clip-path-32"><rect class="cls-12" x="277.26" y="281.05" width="131.84" height="120.37"/></clipPath><clipPath id="clip-path-33"><rect class="cls-12" x="286.48" y="321.79" width="122.55" height="79.68"/></clipPath><clipPath id="clip-path-34"><rect class="cls-12" x="244.86" y="281.23" width="51.23" height="97.71"/></clipPath><clipPath id="clip-path-35"><rect class="cls-12" x="245.24" y="321.6" width="60.19" height="57.5"/></clipPath><clipPath id="clip-path-36"><rect class="cls-12" x="218.85" y="280.95" width="76.68" height="34.63"/></clipPath><clipPath id="clip-path-37"><rect class="cls-12" x="174.43" y="280.91" width="122.1" height="20.95"/></clipPath><clipPath id="clip-path-38"><rect class="cls-12" x="128.15" y="262.86" width="168.67" height="26.14"/></clipPath><clipPath id="clip-path-39"><rect class="cls-12" x="174.01" y="229.84" width="38.39" height="71.38"/></clipPath><clipPath id="clip-path-40"><rect class="cls-12" x="128.13" y="248.29" width="119.56" height="23.85"/></clipPath><clipPath id="clip-path-41"><rect class="cls-12" x="217.99" y="248.47" width="28.99" height="65.83"/></clipPath><clipPath id="clip-path-42"><rect class="cls-12" x="127.36" y="262.91" width="109.85" height="52.05"/></clipPath><clipPath id="clip-path-43"><rect class="cls-12" x="174.63" y="292.87" width="63.71" height="22.73"/></clipPath><clipPath id="clip-path-44"><rect class="cls-12" x="192.87" y="229.81" width="71.51" height="150"/></clipPath><clipPath id="clip-path-45"><rect class="cls-12" x="218.52" y="306.02" width="45.56" height="72.66"/></clipPath><clipPath id="clip-path-46"><rect class="cls-12" x="219.82" y="289.15" width="112.45" height="25.85"/></clipPath><clipPath id="clip-path-47"><rect class="cls-12" x="278.07" y="280.3" width="54.73" height="17.55"/></clipPath><clipPath id="clip-path-48"><rect class="cls-12" x="148.31" y="321.74" width="157.49" height="62.41"/></clipPath><clipPath id="clip-path-49"><rect class="cls-12" x="174.11" y="292.73" width="89.31" height="86.67"/></clipPath><clipPath id="clip-path-50"><rect class="cls-12" x="128.38" y="226.3" width="177.64" height="45.83"/></clipPath><clipPath id="clip-path-51"><rect class="cls-12" x="127.34" y="229.2" width="85.38" height="44.03"/></clipPath><clipPath id="clip-path-52"><rect class="cls-12" x="129.16" y="145.21" width="58.32" height="125.45"/></clipPath><clipPath id="clip-path-53"><rect class="cls-12" x="70.86" y="173.49" width="141.26" height="64.91"/></clipPath><clipPath id="clip-path-54"><rect class="cls-12" x="99.79" y="293.37" width="92.83" height="122.01"/></clipPath><clipPath id="clip-path-55"><rect class="cls-12" x="218.28" y="370.08" width="45.55" height="116.51"/></clipPath><clipPath id="clip-path-56"><rect class="cls-12" x="213.45" y="369.15" width="51.21" height="85.24"/></clipPath><clipPath id="clip-path-57"><rect class="cls-12" x="217.46" y="59.51" width="64.26" height="18.65"/></clipPath><clipPath id="clip-path-58"><rect class="cls-12" x="264.14" y="69.17" width="100.38" height="17.9"/></clipPath><clipPath id="clip-path-59"><rect class="cls-12" x="216.7" y="58.89" width="148.7" height="27.57"/></clipPath><clipPath id="clip-path-60"><rect class="cls-12" x="139.65" y="38.68" width="129.03" height="79.13"/></clipPath><clipPath id="clip-path-61"><rect class="cls-12" x="157" y="59.51" width="78.97" height="16.38"/></clipPath><clipPath id="clip-path-62"><rect class="cls-12" x="157.07" y="67.33" width="25.35" height="61.83"/></clipPath><clipPath id="clip-path-63"><rect class="cls-12" x="140.59" y="66.06" width="34.94" height="50.68"/></clipPath><clipPath id="clip-path-64"><rect class="cls-12" x="124.49" y="66.73" width="50.85" height="31.07"/></clipPath><clipPath id="clip-path-65"><rect class="cls-12" x="124.47" y="-7" width="141.75" height="106.49"/></clipPath><filter id="luminosity-noclip" x="72.76" y="-75.83" width="245.17" height="244.15" filterUnits="userSpaceOnUse" color-interpolation-filters="sRGB"><feFlood flood-color="#fff" result="bg"/><feBlend in="SourceGraphic" in2="bg"/></filter><mask id="mask" x="72.76" y="-75.83" width="245.17" height="244.15" maskUnits="userSpaceOnUse"><g class="cls-154"><rect class="cls-1" x="106.71" y="-39.39" width="177.26" height="171.27" transform="translate(13.09 130.39) rotate(-38.1)"/></g></mask><clipPath id="clip-path-67"><rect class="cls-12" x="123.8" y="14.81" width="73.1" height="84.29"/></clipPath><filter id="luminosity-noclip-2" x="83.76" y="-19.91" width="153.17" height="153.73" filterUnits="userSpaceOnUse" color-interpolation-filters="sRGB"><feFlood flood-color="#fff" result="bg"/><feBlend in="SourceGraphic" in2="bg"/></filter><mask id="mask-2" x="83.76" y="-19.91" width="153.17" height="153.73" maskUnits="userSpaceOnUse"><g class="cls-153"><rect class="cls-2" x="104.78" y="2.64" width="111.14" height="108.64" transform="translate(20.19 153.45) rotate(-54.1)"/></g></mask><clipPath id="clip-path-69"><rect class="cls-12" x="217.06" y="59.98" width="29.92" height="197.13"/></clipPath><clipPath id="clip-path-70"><rect class="cls-12" x="229.21" y="77.96" width="135.96" height="179.69"/></clipPath><clipPath id="clip-path-71"><rect class="cls-12" x="262.84" y="67.59" width="43.56" height="169.04"/></clipPath><clipPath id="clip-path-72"><rect class="cls-12" x="263.29" y="69.01" width="159.79" height="133.64"/></clipPath><clipPath id="clip-path-73"><rect class="cls-12" x="404.19" y="154.11" width="29.04" height="48.81"/></clipPath><clipPath id="clip-path-74"><rect class="cls-12" x="346.38" y="78.48" width="86.74" height="84.09"/></clipPath><clipPath id="clip-path-75"><rect class="cls-12" x="252.57" y="39.54" width="112.08" height="46.88"/></clipPath><clipPath id="clip-path-76"><rect class="cls-12" x="252.09" y="39.18" width="86.47" height="22.42"/></clipPath><clipPath id="clip-path-77"><rect class="cls-12" x="306.6" y="28.71" width="32.87" height="32.93"/></clipPath><clipPath id="clip-path-78"><rect class="cls-12" x="320.7" y="53.59" width="44.68" height="33.02"/></clipPath><clipPath id="clip-path-79"><rect class="cls-12" x="306.65" y="28.5" width="59.28" height="57.78"/></clipPath><clipPath id="clip-path-80"><rect class="cls-12" x="319.9" y="41.46" width="102.63" height="20.85"/></clipPath><clipPath id="clip-path-81"><rect class="cls-12" x="251.84" y="39.17" width="170.63" height="11.29"/></clipPath><clipPath id="clip-path-82"><rect class="cls-12" x="250.39" y="28.61" width="75.25" height="18.99"/></clipPath><clipPath id="clip-path-83"><rect class="cls-12" x="320.23" y="53.85" width="109.89" height="57.12"/></clipPath><filter id="luminosity-noclip-3" x="297.01" y="9.17" width="156.33" height="146.47" filterUnits="userSpaceOnUse" color-interpolation-filters="sRGB"><feFlood flood-color="#fff" result="bg"/><feBlend in="SourceGraphic" in2="bg"/></filter><mask id="mask-3" x="297.01" y="9.17" width="156.33" height="146.47" maskUnits="userSpaceOnUse"><g class="cls-152"><rect class="cls-4" x="324.66" y="20.48" width="101.04" height="123.85" transform="translate(130.39 378.43) rotate(-62.8)"/></g></mask><clipPath id="clip-path-85"><rect class="cls-12" x="15.14" y="88.93" width="128.14" height="62.61"/></clipPath><filter id="luminosity-noclip-4" x="-9.66" y="38.17" width="177.75" height="164.14" filterUnits="userSpaceOnUse" color-interpolation-filters="sRGB"><feFlood flood-color="#fff" result="bg"/><feBlend in="SourceGraphic" in2="bg"/></filter><mask id="mask-4" x="-9.66" y="38.17" width="177.75" height="164.14" maskUnits="userSpaceOnUse"><g class="cls-151"><rect class="cls-5" x="7.9" y="63.86" width="142.62" height="112.76" transform="translate(-44.95 47.33) rotate(-26.2)"/></g></mask><clipPath id="clip-path-87"><rect class="cls-12" x="126.1" y="91.64" width="62.21" height="63.19"/></clipPath><clipPath id="clip-path-88"><rect class="cls-12" x="125.6" y="90.14" width="55.22" height="39.67"/></clipPath><clipPath id="clip-path-89"><rect class="cls-12" x="71.52" y="109.02" width="86.47" height="74.43"/></clipPath><clipPath id="clip-path-90"><rect class="cls-12" x="71.39" y="121.8" width="110.14" height="62.01"/></clipPath><clipPath id="clip-path-91"><rect class="cls-12" x="128.85" y="108.2" width="29.29" height="165.19"/></clipPath><clipPath id="clip-path-92"><rect class="cls-12" x="66.88" y="230.04" width="144.94" height="61.26"/></clipPath><clipPath id="clip-path-93"><rect class="cls-12" x="71.22" y="173.67" width="76.27" height="97.96"/></clipPath><clipPath id="clip-path-94"><rect class="cls-12" x="6.45" y="174.72" width="82.97" height="68.73"/></clipPath><filter id="luminosity-noclip-5" x="-27.88" y="133.28" width="151.62" height="151.61" filterUnits="userSpaceOnUse" color-interpolation-filters="sRGB"><feFlood flood-color="#fff" result="bg"/><feBlend in="SourceGraphic" in2="bg"/></filter><mask id="mask-5" x="-27.88" y="133.28" width="151.62" height="151.61" maskUnits="userSpaceOnUse"><g class="cls-150"><rect class="cls-6" x="-5.8" y="155.58" width="107.46" height="107.01" transform="translate(-131.17 91.04) rotate(-43.7)"/></g></mask><clipPath id="clip-path-96"><rect class="cls-12" x="-9" y="201.31" width="94.73" height="90.11"/></clipPath><filter id="luminosity-noclip-6" x="-53.96" y="154.04" width="184.66" height="184.65" filterUnits="userSpaceOnUse" color-interpolation-filters="sRGB"><feFlood flood-color="#fff" result="bg"/><feBlend in="SourceGraphic" in2="bg"/></filter><mask id="mask-6" x="-53.96" y="154.04" width="184.66" height="184.65" maskUnits="userSpaceOnUse"><g class="cls-149"><rect class="cls-7" x="-27" y="181.1" width="130.73" height="130.53" transform="translate(-158.25 93.03) rotate(-43.2)"/></g></mask><clipPath id="clip-path-98"><rect class="cls-12" x="33.32" y="282" width="51.8" height="12.15"/></clipPath><filter id="luminosity-noclip-7" x="32.01" y="276.44" width="54.41" height="23.27" filterUnits="userSpaceOnUse" color-interpolation-filters="sRGB"><feFlood flood-color="#fff" result="bg"/><feBlend in="SourceGraphic" in2="bg"/></filter><mask id="mask-7" x="32.01" y="276.44" width="54.41" height="23.27" maskUnits="userSpaceOnUse"><g class="cls-148"><rect class="cls-8" x="32.81" y="279.24" width="52.81" height="17.67" transform="translate(-30.77 8.08) rotate(-6.2)"/></g></mask><clipPath id="clip-path-100"><rect class="cls-12" x="66.29" y="282.98" width="34.7" height="91.89"/></clipPath><filter id="luminosity-noclip-8" x="48.34" y="276.2" width="70.61" height="105.45" filterUnits="userSpaceOnUse" color-interpolation-filters="sRGB"><feFlood flood-color="#fff" result="bg"/><feBlend in="SourceGraphic" in2="bg"/></filter><mask id="mask-8" x="48.34" y="276.2" width="70.61" height="105.45" maskUnits="userSpaceOnUse"><g class="cls-147"><rect class="cls-9" x="57.48" y="280.44" width="52.33" height="96.96" transform="translate(-63.9 23.28) rotate(-11.5)"/></g></mask><clipPath id="clip-path-102"><rect class="cls-12" x="65.18" y="318.36" width="53.73" height="96.31"/></clipPath><clipPath id="clip-path-103"><rect class="cls-12" x="66.04" y="292.58" width="127.14" height="34.45"/></clipPath><clipPath id="clip-path-104"><rect class="cls-12" x="65.61" y="306" width="172.85" height="20.43"/></clipPath><clipPath id="clip-path-105"><rect class="cls-12" x="65.19" y="318.33" width="82.62" height="143.51"/></clipPath><filter id="luminosity-noclip-9" x="9.58" y="286.32" width="193.83" height="207.53" filterUnits="userSpaceOnUse" color-interpolation-filters="sRGB"><feFlood flood-color="#fff" result="bg"/><feBlend in="SourceGraphic" in2="bg"/></filter><mask id="mask-9" x="9.58" y="286.32" width="193.83" height="207.53" maskUnits="userSpaceOnUse"><g class="cls-146"><rect class="cls-10" x="38.4" y="307.55" width="136.19" height="165.07" transform="translate(-157.03 83.39) rotate(-25.4)"/></g></mask><clipPath id="clip-path-107"><rect class="cls-12" x="105.37" y="374.92" width="61.68" height="36.56"/></clipPath><clipPath id="clip-path-108"><rect class="cls-12" x="147.55" y="375.57" width="84.72" height="78.45"/></clipPath><clipPath id="clip-path-109"><rect class="cls-12" x="148.08" y="375.39" width="89.33" height="111.08"/></clipPath><clipPath id="clip-path-110"><rect class="cls-12" x="148.47" y="370.56" width="113.74" height="12.44"/></clipPath><clipPath id="clip-path-111"><rect class="cls-12" x="372.78" y="194.11" width="50.16" height="101.69"/></clipPath><clipPath id="clip-path-112"><rect class="cls-12" x="363.39" y="287.59" width="28.36" height="95.53"/></clipPath><clipPath id="clip-path-113"><rect class="cls-12" x="364.39" y="358.56" width="126.13" height="24.99"/></clipPath><clipPath id="clip-path-114"><rect class="cls-12" x="374.06" y="253.44" width="153.65" height="42.16"/></clipPath><clipPath id="clip-path-115"><rect class="cls-12" x="403.64" y="193.5" width="124.19" height="68.3"/></clipPath><clipPath id="clip-path-116"><rect class="cls-12" x="373.21" y="179.91" width="105.57" height="116.05"/></clipPath><clipPath id="clip-path-117"><rect class="cls-12" x="404.9" y="180.31" width="73.67" height="23.26"/></clipPath><clipPath id="clip-path-118"><rect class="cls-12" x="362.94" y="373.58" width="103.89" height="104.66"/></clipPath><filter id="luminosity-noclip-10" x="311.01" y="322.03" width="207.76" height="207.77" filterUnits="userSpaceOnUse" color-interpolation-filters="sRGB"><feFlood flood-color="#fff" result="bg"/><feBlend in="SourceGraphic" in2="bg"/></filter><mask id="mask-10" x="311.01" y="322.03" width="207.76" height="207.77" maskUnits="userSpaceOnUse"><g class="cls-145"><rect class="cls-11" x="341.31" y="352.3" width="147.15" height="147.22" transform="translate(-178.06 381.84) rotate(-41.5)"/></g></mask><clipPath id="clip-path-120"><rect class="cls-12" x="364.62" y="372.85" width="140.17" height="24.43"/></clipPath><filter id="luminosity-noclip-11" x="361.71" y="356.13" width="146" height="57.86" filterUnits="userSpaceOnUse" color-interpolation-filters="sRGB"><feFlood flood-color="#fff" result="bg"/><feBlend in="SourceGraphic" in2="bg"/></filter><mask id="mask-11" x="361.71" y="356.13" width="146" height="57.86" maskUnits="userSpaceOnUse"><g class="cls-144"><rect class="cls-3" x="414.17" y="314.01" width="41.09" height="142.09" transform="matrix(0.12, -0.99, 0.99, 0.12, 0.21, 770.36)"/></g></mask></defs><title>Globe_Onhover</title><g class="cls-13"><g class="cls-13"><g class="cls-14"><g class="cls-15"><line class="cls-16" x1="172.92" y1="128.43" x2="226.34" y2="67.01"/></g></g><g class="cls-14"><g class="cls-17"><line class="cls-16" x1="178.35" y1="151.8" x2="226.34" y2="67.01"/></g></g><g class="cls-14"><g class="cls-18"><line class="cls-16" x1="178.63" y1="152.09" x2="272.33" y2="76.38"/></g></g><g class="cls-14"><g class="cls-19"><line class="cls-16" x1="178.92" y1="152.38" x2="356.32" y2="84.96"/></g></g><g class="cls-20"><g class="cls-21"><line class="cls-16" x1="356.32" y1="84.96" x2="296.62" y2="234.37"/></g></g><g class="cls-22"><g class="cls-23"><line class="cls-16" x1="172.35" y1="127.81" x2="178" y2="152.95"/></g></g><g class="cls-22"><g class="cls-24"><line class="cls-16" x1="178" y1="152.95" x2="237.48" y2="256.65"/></g></g><g class="cls-25"><g class="cls-26"><line class="cls-16" x1="172.28" y1="128.09" x2="238.05" y2="255.79"/></g></g><g class="cls-27"><g class="cls-28"><line class="cls-16" x1="149.43" y1="116.67" x2="171.49" y2="128.09"/></g></g><g class="cls-22"><g class="cls-29"><line class="cls-16" x1="177.49" y1="151.52" x2="201.77" y2="236.98"/></g></g><g class="cls-25"><g class="cls-30"><line class="cls-16" x1="177.77" y1="151.8" x2="228.63" y2="314.36"/></g></g><g class="cls-14"><g class="cls-31"><line class="cls-16" x1="201.2" y1="236.36" x2="236.91" y2="256.98"/></g></g><g class="cls-20"><g class="cls-32"><line class="cls-16" x1="237.48" y1="255.79" x2="296.9" y2="233.51"/></g></g><g class="cls-20"><g class="cls-33"><line class="cls-16" x1="237.48" y1="257.22" x2="413.17" y2="200.66"/></g></g><g class="cls-20"><g class="cls-34"><line class="cls-16" x1="414.32" y1="200.65" x2="295.47" y2="234.13"/></g></g><g class="cls-20"><g class="cls-35"><line class="cls-16" x1="296.55" y1="234.37" x2="381.75" y2="293.79"/></g></g><g class="cls-22"><g class="cls-36"><line class="cls-16" x1="295.76" y1="234.13" x2="322.26" y2="296.36"/></g></g><g class="cls-22"><g class="cls-37"><line class="cls-16" x1="237.2" y1="256.08" x2="322.9" y2="296.36"/></g></g><g class="cls-14"><g class="cls-38"><line class="cls-16" x1="236.34" y1="256.65" x2="285.76" y2="287.5"/></g></g><g class="cls-25"><g class="cls-39"><line class="cls-16" x1="295.47" y1="234.08" x2="295.47" y2="328.64"/></g></g><g class="cls-27"><g class="cls-40"><line class="cls-16" x1="296.62" y1="232.65" x2="287.19" y2="288.07"/></g></g><g class="cls-27"><g class="cls-41"><line class="cls-16" x1="287.19" y1="288.07" x2="295.47" y2="328.92"/></g></g><g class="cls-25"><g class="cls-42"><line class="cls-16" x1="296.55" y1="328.64" x2="423.74" y2="161.52"/></g></g><g class="cls-25"><g class="cls-43"><line class="cls-16" x1="322.9" y1="295.21" x2="413.68" y2="201.27"/></g></g><g class="cls-27"><g class="cls-44"><line class="cls-16" x1="322.9" y1="296.36" x2="372.32" y2="381.25"/></g></g><g class="cls-27"><g class="cls-45"><line class="cls-16" x1="295.47" y1="329.83" x2="482.24" y2="365.78"/></g></g><g class="cls-46"><g class="cls-47"><line class="cls-16" x1="480.82" y1="365.54" x2="381.46" y2="293.5"/></g></g><g class="cls-48"><g class="cls-49"><line class="cls-16" x1="295.12" y1="329.83" x2="382.32" y2="293.5"/></g></g><g class="cls-48"><g class="cls-50"><line class="cls-16" x1="322.61" y1="295.55" x2="382.26" y2="293.5"/></g></g><g class="cls-48"><g class="cls-51"><line class="cls-16" x1="286.62" y1="288.41" x2="399.75" y2="400.06"/></g></g><g class="cls-25"><g class="cls-52"><line class="cls-16" x1="399.75" y1="400.06" x2="295.76" y2="329.21"/></g></g><g class="cls-22"><g class="cls-53"><line class="cls-16" x1="286.62" y1="288.41" x2="254.34" y2="377.78"/></g></g><g class="cls-54"><g class="cls-55"><line class="cls-16" x1="254.62" y1="377.78" x2="296.04" y2="328.92"/></g></g><g class="cls-22"><g class="cls-56"><line class="cls-16" x1="228.05" y1="314.12" x2="286.33" y2="288.41"/></g></g><g class="cls-48"><g class="cls-57"><line class="cls-16" x1="183.49" y1="300.36" x2="287.47" y2="288.41"/></g></g><g class="cls-48"><g class="cls-58"><line class="cls-16" x1="137.21" y1="270.36" x2="287.76" y2="287.5"/></g></g><g class="cls-22"><g class="cls-59"><line class="cls-16" x1="183.49" y1="300.07" x2="202.91" y2="236.98"/></g></g><g class="cls-20"><g class="cls-60"><line class="cls-16" x1="137.21" y1="270.65" x2="238.62" y2="255.79"/></g></g><g class="cls-48"><g class="cls-61"><line class="cls-16" x1="227.48" y1="313.21" x2="237.48" y2="255.55"/></g></g><g class="cls-25"><g class="cls-62"><line class="cls-16" x1="136.57" y1="270.36" x2="227.99" y2="313.5"/></g></g><g class="cls-22"><g class="cls-63"><line class="cls-16" x1="183.77" y1="300.36" x2="229.2" y2="314.12"/></g></g><g class="cls-20"><g class="cls-64"><line class="cls-16" x1="254.91" y1="378.63" x2="202.34" y2="236.98"/></g></g><g class="cls-25"><g class="cls-65"><line class="cls-16" x1="227.99" y1="313.21" x2="254.62" y2="377.49"/></g></g><g class="cls-22"><g class="cls-66"><line class="cls-16" x1="228.91" y1="313.5" x2="323.18" y2="296.64"/></g></g><g class="cls-48"><g class="cls-67"><line class="cls-16" x1="287.19" y1="287.79" x2="323.69" y2="296.36"/></g></g><g class="cls-27"><g class="cls-68"><line class="cls-16" x1="157.49" y1="382.68" x2="296.62" y2="329.21"/></g></g><g class="cls-25"><g class="cls-69"><line class="cls-16" x1="254.05" y1="378.06" x2="183.49" y2="300.07"/></g></g><g class="cls-54"><g class="cls-70"><line class="cls-16" x1="137.49" y1="270.65" x2="296.9" y2="233.79"/></g></g><g class="cls-25"><g class="cls-71"><line class="cls-16" x1="136.57" y1="271.79" x2="203.49" y2="236.65"/></g></g><g class="cls-25"><g class="cls-72"><line class="cls-16" x1="138.64" y1="269.5" x2="178" y2="152.38"/></g></g><g class="cls-27"><g class="cls-73"><line class="cls-16" x1="202.91" y1="236.94" x2="80.07" y2="180.94"/></g></g><g class="cls-25"><g class="cls-74"><line class="cls-16" x1="183.2" y1="300.64" x2="109.21" y2="414.1"/></g></g><g class="cls-27"><g class="cls-75"><line class="cls-16" x1="254.34" y1="377.2" x2="227.77" y2="485.48"/></g></g><g class="cls-27"><g class="cls-76"><line class="cls-16" x1="255.19" y1="376.35" x2="222.91" y2="453.19"/></g></g><g class="cls-77"><g class="cls-78"><line class="cls-16" x1="226.56" y1="67.01" x2="272.62" y2="76.67"/></g></g><g class="cls-77"><g class="cls-79"><line class="cls-16" x1="273.19" y1="76.67" x2="355.47" y2="85.57"/></g></g><g class="cls-77"><g class="cls-80"><line class="cls-16" x1="356.32" y1="84.96" x2="225.77" y2="66.39"/></g></g><g class="cls-48"><g class="cls-81"><line class="cls-16" x1="148.92" y1="116.38" x2="259.41" y2="46.1"/></g></g><g class="cls-48"><g class="cls-82"><line class="cls-16" x1="226.91" y1="67.01" x2="166.06" y2="74.39"/></g></g><g class="cls-27"><g class="cls-83"><line class="cls-16" x1="166.57" y1="74.39" x2="172.92" y2="128.09"/></g></g><g class="cls-27"><g class="cls-84"><line class="cls-16" x1="166.06" y1="73.24" x2="150.06" y2="115.57"/></g></g><g class="cls-46"><g class="cls-85"><line class="cls-16" x1="133.78" y1="96.38" x2="166.06" y2="74.15"/></g></g><g class="cls-27"><g class="cls-86"><g class="cls-87"><g class="cls-86"><line class="cls-16" x1="133.78" y1="98.1" x2="256.91" y2="0.39"/></g></g></g></g><g class="cls-27"><g class="cls-88"><g class="cls-89"><g class="cls-88"><line class="cls-16" x1="133.21" y1="97.81" x2="187.49" y2="22.11"/></g></g></g></g><g class="cls-27"><g class="cls-90"><line class="cls-16" x1="226.56" y1="67.01" x2="237.48" y2="256.08"/></g></g><g class="cls-27"><g class="cls-91"><line class="cls-16" x1="238.62" y1="256.36" x2="355.75" y2="85.24"/></g></g><g class="cls-27"><g class="cls-92"><line class="cls-16" x1="296.9" y1="235.56" x2="272.33" y2="74.67"/></g></g><g class="cls-27"><g class="cls-93"><line class="cls-16" x1="272.62" y1="76.39" x2="413.74" y2="201.27"/></g></g><g class="cls-27"><g class="cls-94"><line class="cls-16" x1="413.68" y1="201.8" x2="423.74" y2="161.23"/></g></g><g class="cls-25"><g class="cls-95"><line class="cls-16" x1="423.74" y1="161.23" x2="355.75" y2="85.81"/></g></g><g class="cls-48"><g class="cls-96"><line class="cls-16" x1="355.47" y1="84.96" x2="261.76" y2="47.01"/></g></g><g class="cls-48"><g class="cls-97"><line class="cls-16" x1="261.19" y1="46.67" x2="329.47" y2="60.1"/></g></g><g class="cls-48"><g class="cls-98"><line class="cls-16" x1="316.04" y1="35.96" x2="330.04" y2="60.39"/></g></g><g class="cls-25"><g class="cls-99"><line class="cls-16" x1="330.04" y1="60.96" x2="356.04" y2="85.24"/></g></g><g class="cls-48"><g class="cls-100"><line class="cls-16" x1="316.04" y1="35.82" x2="356.55" y2="84.96"/></g></g><g class="cls-25"><g class="cls-101"><line class="cls-16" x1="328.97" y1="60.82" x2="413.46" y2="48.96"/></g></g><g class="cls-48"><g class="cls-102"><line class="cls-16" x1="413.46" y1="48.96" x2="260.84" y2="46.67"/></g></g><g class="cls-48"><g class="cls-103"><line class="cls-16" x1="259.48" y1="46.1" x2="316.55" y2="36.1"/></g></g><g class="cls-27"><g class="cls-104"><g class="cls-105"><g class="cls-104"><line class="cls-16" x1="329.47" y1="61.29" x2="420.89" y2="109.52"/></g></g></g></g><g class="cls-46"><g class="cls-106"><g class="cls-107"><g class="cls-106"><line class="cls-16" x1="134.07" y1="96.38" x2="24.37" y2="150.09"/></g></g></g></g><g class="cls-27"><g class="cls-108"><line class="cls-16" x1="135.49" y1="98.95" x2="178.92" y2="153.52"/></g></g><g class="cls-27"><g class="cls-109"><line class="cls-16" x1="134.92" y1="97.53" x2="171.49" y2="128.43"/></g></g><g class="cls-27"><g class="cls-110"><line class="cls-16" x1="148.64" y1="116.38" x2="80.87" y2="182.09"/></g></g><g class="cls-27"><g class="cls-111"><line class="cls-16" x1="80.64" y1="182.37" x2="172.28" y2="129.24"/></g></g><g class="cls-27"><g class="cls-112"><line class="cls-16" x1="148.64" y1="115.24" x2="138.35" y2="272.36"/></g></g><g class="cls-27"><g class="cls-113"><line class="cls-16" x1="76.07" y1="289.83" x2="202.63" y2="237.51"/></g></g><g class="cls-27"><g class="cls-114"><line class="cls-16" x1="138.07" y1="270.36" x2="80.64" y2="180.94"/></g></g><g class="cls-46"><g class="cls-115"><g class="cls-116"><g class="cls-115"><line class="cls-16" x1="80.07" y1="182.09" x2="15.79" y2="242.08"/></g></g></g></g><g class="cls-46"><g class="cls-117"><g class="cls-118"><g class="cls-117"><line class="cls-16" x1="76.36" y1="290.07" x2="0.37" y2="208.65"/></g></g></g></g><g class="cls-46"><g class="cls-119"><g class="cls-120"><g class="cls-119"><line class="cls-16" x1="76.07" y1="289.5" x2="42.36" y2="292.64"/></g></g></g></g><g class="cls-46"><g class="cls-121"><g class="cls-122"><g class="cls-121"><line class="cls-16" x1="75.79" y1="290.07" x2="91.5" y2="373.78"/></g></g></g></g><g class="cls-46"><g class="cls-123"><line class="cls-16" x1="74.64" y1="325.54" x2="109.43" y2="413.48"/></g></g><g class="cls-27"><g class="cls-124"><line class="cls-16" x1="75.15" y1="325.54" x2="184.06" y2="300.07"/></g></g><g class="cls-27"><g class="cls-125"><line class="cls-16" x1="74.64" y1="324.92" x2="229.42" y2="313.5"/></g></g><g class="cls-46"><g class="cls-126"><g class="cls-127"><g class="cls-126"><line class="cls-16" x1="74.64" y1="325.54" x2="138.35" y2="460.62"/></g></g></g></g><g class="cls-27"><g class="cls-128"><line class="cls-16" x1="114.64" y1="410.06" x2="157.78" y2="382.35"/></g></g><g class="cls-46"><g class="cls-129"><line class="cls-16" x1="156.92" y1="382.92" x2="222.91" y2="452.67"/></g></g><g class="cls-46"><g class="cls-130"><line class="cls-16" x1="157.49" y1="382.68" x2="227.99" y2="485.19"/></g></g><g class="cls-46"><g class="cls-131"><line class="cls-16" x1="157.49" y1="381.49" x2="253.19" y2="378.06"/></g></g><g class="cls-27"><g class="cls-132"><line class="cls-16" x1="413.46" y1="201.27" x2="382.26" y2="294.64"/></g></g><g class="cls-46"><g class="cls-133"><line class="cls-16" x1="382.26" y1="294.64" x2="372.89" y2="382.06"/></g></g><g class="cls-48"><g class="cls-134"><line class="cls-16" x1="373.46" y1="382.06" x2="481.45" y2="366.06"/></g></g><g class="cls-27"><g class="cls-135"><line class="cls-16" x1="383.18" y1="294.12" x2="518.59" y2="260.93"/></g></g><g class="cls-27"><g class="cls-136"><line class="cls-16" x1="412.89" y1="200.94" x2="518.59" y2="260.36"/></g></g><g class="cls-27"><g class="cls-137"><line class="cls-16" x1="382.61" y1="294.64" x2="469.39" y2="187.23"/></g></g><g class="cls-27"><g class="cls-138"><line class="cls-16" x1="414.03" y1="202.08" x2="469.45" y2="187.8"/></g></g><g class="cls-46"><g class="cls-139"><g class="cls-140"><g class="cls-139"><line class="cls-16" x1="372.32" y1="380.92" x2="457.45" y2="476.91"/></g></g></g></g><g class="cls-46"><g class="cls-141"><g class="cls-142"><g class="cls-141"><line class="cls-16" x1="373.69" y1="380.35" x2="495.73" y2="395.77"/></g></g></g></g><path class="cls-143" d="M134,101.73a4,4,0,1,0-4-4,4,4,0,0,0,4,4"/><path class="cls-143" d="M166.27,76.09A2.28,2.28,0,1,0,164,73.81a2.28,2.28,0,0,0,2.28,2.28"/><path class="cls-143" d="M226.88,70.5a3.17,3.17,0,1,0-3.17-3.17,3.17,3.17,0,0,0,3.17,3.17"/><path class="cls-143" d="M260.08,50.85a4,4,0,1,0-4-4,4,4,0,0,0,4,4"/><path class="cls-143" d="M80.87,184.37A2.86,2.86,0,1,0,78,181.51a2.86,2.86,0,0,0,2.86,2.86"/><path class="cls-143" d="M149.31,119.3a3.17,3.17,0,1,0-3.17-3.17,3.17,3.17,0,0,0,3.17,3.17"/><path class="cls-143" d="M202.87,240a3.17,3.17,0,1,0-3.17-3.17,3.17,3.17,0,0,0,3.17,3.17"/><path class="cls-143" d="M172.6,132.51a3.81,3.81,0,1,0-3.81-3.81,3.81,3.81,0,0,0,3.81,3.81"/><path class="cls-143" d="M272.59,79.31a3.17,3.17,0,1,0-3.17-3.17,3.17,3.17,0,0,0,3.17,3.17"/><path class="cls-143" d="M329.58,63.67a3,3,0,1,0-3-3,3,3,0,0,0,3,3"/><path class="cls-143" d="M356,87.28A2.28,2.28,0,1,0,353.69,85,2.28,2.28,0,0,0,356,87.28"/><path class="cls-143" d="M178.06,154.65a2.28,2.28,0,1,0-2.28-2.28,2.28,2.28,0,0,0,2.28,2.28"/><path class="cls-143" d="M183.95,303.92a3.17,3.17,0,1,0-3.17-3.17,3.17,3.17,0,0,0,3.17,3.17"/><path class="cls-143" d="M413.2,205a3.17,3.17,0,1,0-3.17-3.17A3.17,3.17,0,0,0,413.2,205"/><path class="cls-143" d="M137.8,274.6a3.81,3.81,0,1,0-3.81-3.81,3.81,3.81,0,0,0,3.81,3.81"/><path class="cls-143" d="M237.41,258.69a2.28,2.28,0,1,0-2.28-2.28,2.28,2.28,0,0,0,2.28,2.28"/><path class="cls-143" d="M296.26,236.43a2.28,2.28,0,1,0-2.28-2.28,2.28,2.28,0,0,0,2.28,2.28"/><path class="cls-143" d="M228,316.42a2.28,2.28,0,1,0-2.28-2.28,2.28,2.28,0,0,0,2.28,2.28"/><path class="cls-143" d="M287,290.71a2.28,2.28,0,1,0-2.28-2.28,2.28,2.28,0,0,0,2.28,2.28"/><path class="cls-143" d="M74.84,328.56a3.17,3.17,0,1,0-3.17-3.17,3.17,3.17,0,0,0,3.17,3.17"/><path class="cls-143" d="M373.21,385.11a3.81,3.81,0,1,0-3.81-3.81,3.81,3.81,0,0,0,3.81,3.81"/><path class="cls-143" d="M254.65,381.68a3.81,3.81,0,1,0-3.81-3.81,3.81,3.81,0,0,0,3.81,3.81"/><path class="cls-143" d="M76,292.14a2.28,2.28,0,1,0-2.28-2.28A2.28,2.28,0,0,0,76,292.14"/><path class="cls-143" d="M157.42,384.62a2.28,2.28,0,1,0-2.28-2.28,2.28,2.28,0,0,0,2.28,2.28"/><path class="cls-143" d="M296,331.26a1.94,1.94,0,1,0-1.94-1.94,1.94,1.94,0,0,0,1.94,1.94"/><path class="cls-143" d="M382,296.35a2.28,2.28,0,1,0-2.28-2.28,2.28,2.28,0,0,0,2.28,2.28"/><path class="cls-143" d="M322,297.72a1.94,1.94,0,1,0-1.94-1.94,1.94,1.94,0,0,0,1.94,1.94"/></g></g></svg>