<svg id="Layer_1" data-name="Layer 1" xmlns="http://www.w3.org/2000/svg" xmlns:xlink="http://www.w3.org/1999/xlink" viewBox="0 0 43 43"><defs><style>.cls-1,.cls-4{fill:none;}.cls-2{clip-path:url(#clip-path);}.cls-3{fill:#fff;}.cls-4{stroke:#fff;stroke-width:0.75px;}</style><clipPath id="clip-path"><rect class="cls-1" x="0.76" y="0.76" width="41.48" height="41.48"/></clipPath></defs><title>Linkdin_Icon</title><g class="cls-2"><path class="cls-3" d="M31.37,24.86c0-.72,0-1.43-.06-2.15a7.9,7.9,0,0,0-.49-2.29,3.64,3.64,0,0,0-2.26-2.2,6.37,6.37,0,0,0-2.25-.32,4.58,4.58,0,0,0-2.18.58,3.91,3.91,0,0,0-1.51,1.45s0,.1-.09.08,0-.08,0-.12c0-.51,0-1,0-1.53,0-.12,0-.15-.15-.15H18.77c-.14,0-.17,0-.17.17q0,3.2,0,6.4t0,6.42c0,.12,0,.16.15.16h3.76c.12,0,.16,0,.16-.15q0-3.22,0-6.44a5.91,5.91,0,0,1,.19-1.63,2.12,2.12,0,0,1,1-1.37,2.68,2.68,0,0,1,1.33-.29A1.83,1.83,0,0,1,27.09,23a6.65,6.65,0,0,1,.18,1.66q0,3.3,0,6.61c0,.11,0,.14.14.14h3.82c.12,0,.15,0,.15-.15q0-3.18,0-6.36"/><path class="cls-3" d="M15.86,18.23H12.1c-.12,0-.15,0-.15.15q0,6.43,0,12.86c0,.12,0,.14.14.14h3.75c.21,0,.18,0,.18-.18V24.8q0-3.21,0-6.42c0-.13,0-.16-.16-.16"/><path class="cls-3" d="M14,11.68a2.37,2.37,0,1,0,2.37,2.39A2.37,2.37,0,0,0,14,11.68"/><circle class="cls-4" cx="21.5" cy="21.5" r="20.36"/></g></svg>