<svg id="Layer_1" data-name="Layer 1" xmlns="http://www.w3.org/2000/svg" xmlns:xlink="http://www.w3.org/1999/xlink" viewBox="0 0 756.19 454.49"><defs><style>.cls-1{fill:none;}.cls-2{clip-path:url(#clip-path);}.cls-3{opacity:0.7;}.cls-4{clip-path:url(#clip-path-3);}.cls-5{fill:#231f20;}.cls-6{fill:#fff;}.cls-7{clip-path:url(#clip-path-4);}.cls-8{clip-path:url(#clip-path-5);}</style><clipPath id="clip-path"><rect class="cls-1" x="3.08" y="2.53" width="750.04" height="449.43"/></clipPath><clipPath id="clip-path-3"><rect class="cls-1" x="-5.92" y="-4.47" width="488.96" height="94.94"/></clipPath><clipPath id="clip-path-4"><rect class="cls-1" x="-5.92" y="240.21" width="648" height="94.94"/></clipPath><clipPath id="clip-path-5"><rect class="cls-1" x="-5.92" y="362.55" width="429.09" height="90.41"/></clipPath></defs><title>Menu_text</title><g class="cls-2"><g class="cls-2"><g class="cls-3"><g class="cls-4"><path class="cls-5" d="M414.05,67.29c.6,17.29,15.62,22.18,30.29,22.18,14,0,29.7-5.49,29.7-22.06,0-5.13-3.22-14.19-15.74-16.7-9.3-2-22.9-3.1-22.9-8.95,0-4.29,5.37-4.65,8.71-4.65a12,12,0,0,1,6.44,1.55A5.83,5.83,0,0,1,453.17,44h18.73c-.72-16.1-14.91-20-28.5-20-12.17,0-28.27,4.05-28.27,19,0,16.7,16,17.05,28.74,20.27,3.58.83,9.9,1.79,9.9,6.56s-5.6,6.56-9.54,6.56a12.69,12.69,0,0,1-7.51-2.15,8.32,8.32,0,0,1-3.34-6.92ZM410,25.78H389.72V58.94c0,11-6.68,13.83-11.09,13.83-6.44,0-10-2.86-10-11.09V25.78H348.34V63c0,16.22,5.13,26.48,22.9,26.48,7.16,0,15-3.93,18.84-10.26h.24v8.47H410Zm-96.24,0H301.23V7.06H281V25.78H270.7V38.9H281V66.45c0,16.82,4.41,21.83,21.71,21.83,3.7,0,7.39-.48,11.09-.6V72.77c-1.79,0-3.58.24-5.25.24-4.41,0-7.27-1.07-7.27-6V38.9h12.52Zm-45,0H248.52V58.94c0,11-6.68,13.83-11.09,13.83-6.44,0-10-2.86-10-11.09V25.78H207.13V63c0,16.22,5.13,26.48,22.9,26.48,7.16,0,15-3.93,18.84-10.26h.24v8.47h19.68Zm-131.43,31c0,18.61,13.36,32.68,32.56,32.68S202.6,75.4,202.6,56.79,189.13,24,169.92,24s-32.56,14.19-32.56,32.8m20.27,0c0-7.87,2.86-17.29,12.28-17.29s12.4,9.42,12.4,17.29S179.35,74,169.92,74s-12.28-9.3-12.28-17.17M103.14,39.5c8.94,0,12,8.71,12,16.58,0,8.47-3.1,17.89-12.16,17.89s-12.28-7-12.28-17.89c0-12.76,6.92-16.58,12.4-16.58m-32,48.18H90.5V80.53h.24a19.78,19.78,0,0,0,17.05,8.95c19.44,0,27.67-16.7,27.67-34.11,0-16.1-8.59-31.37-26.12-31.37-7.63,0-13.48,2.86-17.65,8.59h-.24V2.53H71.17ZM24.54,44.87c1-5.25,4.53-7.75,10.14-7.75,4.17,0,9.78,1.79,9.78,6.44,0,3.82-1.91,5-5.37,5.72-14.07,2.86-36,1.31-36,21.47,0,12.76,9.3,18.72,21.11,18.72,7.39,0,15.15-2.15,20.39-7.63a24.18,24.18,0,0,0,1.19,5.84H66.17c-2.39-4.89-2.39-10.61-2.39-15.86V44.75C63.78,27.22,49.59,24,34.92,24c-7,0-14.19,1.19-19.68,4.29s-9.3,8.47-9.66,16.58Zm-1.19,25c0-4.89,3.82-6.8,8.35-7.87s9.66-1.55,12.52-3.34c.48,12.76-2.74,18.25-12.4,18.25-4.53,0-8.47-2-8.47-7"/></g></g><path class="cls-6" d="M709.82,210H730.1V179.37c0-7.75,5.25-14.67,15.27-14.67a28.43,28.43,0,0,1,7.75,1.19V147.41a21.64,21.64,0,0,0-4.77-.48c-8.71,0-15.62,4.18-18.6,12h-.24V148.13H709.82Zm-4.89-26c1-21-10.14-37.69-32.32-37.69-18.25,0-33.39,13.6-33.39,32.56,0,20.75,13.72,32.92,33.87,32.92,13.83,0,27.07-6.2,30.77-20.51h-19c-1.91,4.53-6.68,6.8-11.57,6.8-8.59,0-13.48-5.6-13.83-14.07Zm-45.44-11.33c1.19-7.51,6-12.64,13.12-12.64,6.8,0,11.69,5.72,12,12.64Zm-51,37.33h20.28V161.25h12.17V148.13H628.72v-2.74c0-5.61,2.86-6.2,7.51-6.2a43.69,43.69,0,0,1,5.49.36V125.23c-3.22-.12-6.56-.36-9.78-.36-17.29,0-23.5,5.49-23.5,23.26h-9.78v13.12h9.78Zm-36,0h20.28V161.25h12.16V148.13H592.71v-2.74c0-5.61,2.86-6.2,7.51-6.2a43.69,43.69,0,0,1,5.49.36V125.23c-3.22-.12-6.56-.36-9.78-.36-17.29,0-23.5,5.49-23.5,23.26h-9.78v13.12h9.78Zm-74.3-30.89c0,18.6,13.36,32.68,32.56,32.68s32.68-14.07,32.68-32.68-13.48-32.8-32.68-32.8-32.56,14.19-32.56,32.8m20.27,0c0-7.87,2.86-17.29,12.28-17.29s12.4,9.42,12.4,17.29-3,17.17-12.4,17.17-12.28-9.3-12.28-17.17M465.34,184c1-21-10.14-37.69-32.32-37.69-18.25,0-33.39,13.6-33.39,32.56,0,20.75,13.71,32.92,33.87,32.92,13.83,0,27.07-6.2,30.77-20.51h-19c-1.91,4.53-6.68,6.8-11.57,6.8-8.59,0-13.48-5.6-13.83-14.07ZM419.9,172.69c1.19-7.51,6-12.64,13.12-12.64,6.8,0,11.69,5.72,12,12.64Zm-18.13-24.57H381.14l-10.14,40h-.24l-9.06-40H342.38l-8.83,40.07h-.24l-10.38-40.07H302.42L321.74,210h20.51l9.66-41.15h.24L361.93,210h20.51Zm-127.25,0H262V129.4H241.72v18.72H231.46v13.12h10.26V188.8c0,16.82,4.41,21.82,21.71,21.82,3.7,0,7.39-.48,11.09-.6V195.12c-1.79,0-3.58.24-5.25.24-4.41,0-7.27-1.07-7.27-6V161.25h12.52Zm-84,19.08c1-5.25,4.53-7.75,10.14-7.75,4.17,0,9.78,1.79,9.78,6.44,0,3.82-1.91,5-5.37,5.73-14.07,2.86-36,1.31-36,21.47,0,12.76,9.3,18.73,21.11,18.73,7.39,0,15.15-2.15,20.39-7.63a24.19,24.19,0,0,0,1.19,5.84h20.39c-2.39-4.89-2.39-10.62-2.39-15.86V167.09c0-17.53-14.19-20.75-28.86-20.75-7,0-14.19,1.19-19.68,4.29s-9.3,8.47-9.66,16.58Zm-1.19,25c0-4.89,3.82-6.8,8.35-7.87s9.66-1.55,12.52-3.34c.48,12.76-2.74,18.25-12.4,18.25-4.53,0-8.47-2-8.47-7M103.26,210h20.27V176.27c0-6.8,3.34-13.24,11-13.24,11.09,0,10.14,8.59,10.14,17.05V210h20.28V170.31c0-8.95-1.67-24-22.3-24-7.39,0-15.74,3.94-18.84,10.26h-.24V124.87H103.26Zm-.83-61.9H81.79l-10.14,40h-.24l-9.06-40H43L34.2,188.2H34L23.59,148.13H3.08L22.4,210H42.91l9.66-41.15h.24L62.59,210H83.1Z"/><g class="cls-3"><g class="cls-7"><path class="cls-5" d="M633,306.37c1-21-10.14-37.69-32.32-37.69-18.25,0-33.39,13.6-33.39,32.56,0,20.75,13.72,32.92,33.87,32.92,13.84,0,27.07-6.2,30.77-20.51H613c-1.91,4.53-6.68,6.8-11.57,6.8-8.59,0-13.48-5.6-13.84-14.07ZM587.58,295c1.19-7.51,6-12.64,13.12-12.64,6.8,0,11.69,5.72,12,12.64ZM528.3,332.37h20.27V301.71c0-7.75,5.25-14.67,15.27-14.67a28.43,28.43,0,0,1,7.75,1.19V269.75a21.63,21.63,0,0,0-4.77-.48c-8.71,0-15.62,4.18-18.61,12H548V270.47H528.3ZM481,289.55c1-5.25,4.53-7.75,10.14-7.75,4.17,0,9.78,1.79,9.78,6.44,0,3.82-1.91,5-5.37,5.73-14.07,2.86-36,1.31-36,21.47,0,12.76,9.3,18.72,21.11,18.72,7.39,0,15.15-2.15,20.39-7.63a24.19,24.19,0,0,0,1.19,5.84h20.39c-2.39-4.89-2.39-10.61-2.39-15.86V289.43c0-17.53-14.19-20.75-28.86-20.75-7,0-14.19,1.19-19.68,4.29s-9.3,8.47-9.66,16.58Zm-1.19,25c0-4.89,3.82-6.8,8.35-7.87s9.66-1.55,12.52-3.34c.48,12.76-2.74,18.25-12.4,18.25-4.53,0-8.47-2-8.47-7m-52.71-8.23c1-21-10.14-37.69-32.32-37.69-18.25,0-33.39,13.6-33.39,32.56,0,20.75,13.72,32.92,33.87,32.92,13.83,0,27.07-6.2,30.77-20.51H407c-1.91,4.53-6.68,6.8-11.57,6.8-8.59,0-13.48-5.6-13.83-14.07ZM381.61,295c1.19-7.51,6-12.64,13.12-12.64,6.8,0,11.69,5.72,12,12.64Zm-18.13-24.57H342.85l-10.14,40h-.24l-9.06-40H304.09l-8.82,40.07H295l-10.38-40.07H264.14l19.32,61.9H304l9.66-41.15h.24l9.78,41.15h20.51Zm-194,31c0,18.6,13.36,32.68,32.56,32.68s32.68-14.07,32.68-32.68-13.48-32.8-32.68-32.8-32.56,14.19-32.56,32.8m20.27,0c0-7.87,2.86-17.29,12.28-17.29s12.4,9.42,12.4,17.29-3,17.17-12.4,17.17-12.28-9.3-12.28-17.17m-86.46,30.89h20.27V298.61c0-6.8,3.34-13.24,11-13.24,11.09,0,10.14,8.59,10.14,17.06v29.93h20.28V292.65c0-8.95-1.67-24-22.3-24-7.39,0-15.74,3.94-18.84,10.26h-.24V247.21H103.26Zm-.83-61.9H81.79l-10.14,40h-.24l-9.06-40H43L34.2,310.54H34L23.59,270.47H3.08l19.32,61.9H42.91l9.66-41.15h.24l9.78,41.15H83.1Z"/></g></g><g class="cls-3"><g class="cls-8"><path class="cls-5" d="M414.17,388.28H401.65V369.55H381.37v18.72H371.12V401.4h10.26v27.55c0,16.82,4.41,21.82,21.71,21.82,3.7,0,7.39-.48,11.09-.6V435.27c-1.79,0-3.58.24-5.25.24-4.41,0-7.27-1.07-7.27-6V401.4h12.52Zm-42.1,22.66c-1.43-16.34-15.15-24.45-30.53-24.45-19.92,0-32.44,14.07-32.44,33.75,0,19,13.84,31.72,32.44,31.72,16.46,0,29.34-9.54,31.13-26.12H353c-1,6.56-4.53,10.61-11.57,10.61-8.59,0-12-8.23-12-16.22,0-8.59,1.79-18.25,13.12-18.25,5.13,0,9.78,3.7,9.9,8.94Zm-106.62-3.58c1-5.25,4.53-7.75,10.14-7.75,4.18,0,9.78,1.79,9.78,6.44,0,3.82-1.91,5-5.37,5.73-14.07,2.86-36,1.31-36,21.47C244,446,253.29,452,265.09,452c7.39,0,15.15-2.15,20.39-7.63a24.24,24.24,0,0,0,1.19,5.84h20.39c-2.38-4.89-2.38-10.61-2.38-15.86V407.24c0-17.53-14.19-20.75-28.86-20.75-7,0-14.19,1.19-19.68,4.29s-9.3,8.47-9.66,16.58Zm-1.19,25c0-4.89,3.82-6.8,8.35-7.87s9.66-1.55,12.52-3.34c.48,12.76-2.74,18.25-12.4,18.25-4.53,0-8.47-2-8.47-7m-20-44.13H231.7V369.55H211.43v18.72H201.17V401.4h10.26v27.55c0,16.82,4.41,21.82,21.71,21.82,3.7,0,7.39-.48,11.09-.6V435.27c-1.79,0-3.58.24-5.25.24-4.41,0-7.27-1.07-7.27-6V401.4h12.52Zm-106.5,61.9H158V416.42c0-6.8,3.34-13.24,11-13.24,11.09,0,10.14,8.59,10.14,17.06v29.93h20.28V410.46c0-8.94-1.67-24-22.3-24-7.39,0-15.74,3.94-19.44,10.26h-.24v-8.47H137.72ZM67.83,419.28c0,18.61,13.36,32.68,32.56,32.68s32.68-14.07,32.68-32.68-13.48-32.8-32.68-32.8-32.56,14.19-32.56,32.8m20.28,0c0-7.87,2.86-17.29,12.28-17.29s12.4,9.42,12.4,17.29-3,17.17-12.4,17.17-12.28-9.3-12.28-17.17M66,410.94c-1.43-16.34-15.15-24.45-30.53-24.45-19.92,0-32.44,14.07-32.44,33.75,0,19,13.83,31.72,32.44,31.72,16.46,0,29.34-9.54,31.13-26.12H47c-1,6.56-4.53,10.61-11.57,10.61-8.59,0-12-8.23-12-16.22,0-8.59,1.79-18.25,13.12-18.25,5.13,0,9.78,3.7,9.9,8.94Z"/></g></g></g></g></svg>