<svg id="Layer_1" data-name="Layer 1" xmlns="http://www.w3.org/2000/svg" xmlns:xlink="http://www.w3.org/1999/xlink" viewBox="0 0 43 43"><defs><style>.cls-1,.cls-4{fill:none;}.cls-2{clip-path:url(#clip-path);}.cls-3{fill:#fff;}.cls-4{stroke:#fff;stroke-width:0.75px;}</style><clipPath id="clip-path"><rect class="cls-1" x="0.76" y="0.76" width="41.48" height="41.48"/></clipPath></defs><title>Twitter_Icon</title><g class="cls-2"><path class="cls-3" d="M33.73,14.63a10.08,10.08,0,0,1-2.66.69,5.18,5.18,0,0,0,1.47-1.54,3.52,3.52,0,0,0,.57-1.18l-.79.4a13.34,13.34,0,0,1-1.92.72c-.18,0-.35.11-.54,0l-.09-.11a4.94,4.94,0,0,0-4.72-1.31,4.66,4.66,0,0,0-2.46,1.42h0c-.08.08-.16.16-.23.24a4.88,4.88,0,0,0-1.17,3.05,3.52,3.52,0,0,0,.08,1.1c0,.19,0,.26-.2.23a2.74,2.74,0,0,0-.61,0,.63.63,0,0,0-.13,0A13.9,13.9,0,0,1,15.94,17a15.32,15.32,0,0,1-3.31-2.15,20.51,20.51,0,0,1-1.69-1.76A4.66,4.66,0,0,0,10.3,15a4.34,4.34,0,0,0,0,1.38,4.64,4.64,0,0,0,.82,2.09h0a4.93,4.93,0,0,0,1.34,1.39,5.45,5.45,0,0,1-2.22-.62A4,4,0,0,0,10.51,21a4.39,4.39,0,0,0,1.28,2,5,5,0,0,0,2.38,1.3,5,5,0,0,1-2,.1c-.07,0-.16-.06-.2,0s0,.14.06.2a3.43,3.43,0,0,0,.62,1.17A4.14,4.14,0,0,0,14,27a3,3,0,0,0,.74.43,5.57,5.57,0,0,0,1.71.44c.06,0,.21,0,.11.12a14.71,14.71,0,0,1-2.11,1.22h0A10.89,10.89,0,0,1,9.69,30a.83.83,0,0,0-.41,0c0,.08.08.09.13.11h0a11.38,11.38,0,0,0,2.34,1.17,13.67,13.67,0,0,0,4.83,1,14.43,14.43,0,0,0,3.27-.26,10.16,10.16,0,0,0,2.57-.78.3.3,0,0,0,.11,0,12.35,12.35,0,0,0,3.08-1.77A7.11,7.11,0,0,0,27,28.12,6.37,6.37,0,0,0,28.05,27,7.48,7.48,0,0,0,29,25.67a6.2,6.2,0,0,0,.67-1.17,9.51,9.51,0,0,0,.72-1.62A8.77,8.77,0,0,0,30.9,21a.79.79,0,0,0,0-.13,15.3,15.3,0,0,0,.34-3.73,9,9,0,0,0,2.43-2.55"/><circle class="cls-4" cx="21.5" cy="21.5" r="20.36"/></g></svg>