<svg id="Layer_1" data-name="Layer 1" xmlns="http://www.w3.org/2000/svg" xmlns:xlink="http://www.w3.org/1999/xlink" viewBox="0 0 1280 800"><defs><style>.cls-1{fill:none;}.cls-2{clip-path:url(#clip-path);}.cls-3{fill:#00adee;}.cls-4{opacity:0.16;}.cls-5{clip-path:url(#clip-path-3);}.cls-6{fill:#fff;}</style><clipPath id="clip-path"><rect class="cls-1" width="1280" height="800"/></clipPath><clipPath id="clip-path-3"><rect class="cls-1" x="-417.86" y="59.34" width="2455.64" height="770.14"/></clipPath></defs><title>bg</title><g class="cls-2"><rect class="cls-3" width="1280" height="800"/><g class="cls-2"><g class="cls-4"><g class="cls-5"><path class="cls-6" d="M1637.89,755.17l-3.74,3.72h-6.75v11.38h-14.08v-3.79l-2.78-2.76a109.61,109.61,0,0,0,16.78-9,6.61,6.61,0,0,0,8.13.32,6.5,6.5,0,0,0,2.43-3.47Zm-32.34-.31v-7.07A93.36,93.36,0,0,0,1661,662.7c0-51.45-42.06-93.3-93.77-93.3s-93.76,41.86-93.76,93.3a93.43,93.43,0,0,0,57.64,86.08l-1.8,6.22a99,99,0,0,1-61.4-91.32c0-54.49,44.55-98.82,99.31-98.82s99.31,44.33,99.31,98.82a99,99,0,0,1-61,91.18m-101.34,1.39a6.61,6.61,0,0,0,3.79-1.11,109.36,109.36,0,0,0,18.54,9.61l-1.47,5.08h-3.55v-6.13h-4.69V765h-1.9v3.36h-9.83v-9.63h-.88Zm27.88-10.72c-1.46-.62-2.86-1.36-4.28-2.06L1539,721.64Zm11.82-40.93L1524.77,742a90.32,90.32,0,0,1-9.18-5.65l31.7-43.42Zm6.11-21.15-37.16,50.89a90.79,90.79,0,0,1-8.22-6.95l45.87-45.64Zm.09,87.81c2.52.4,5.07.69,7.65.91h-7.65Zm15.25-8.81a100.08,100.08,0,0,1-14.3-1.29l1.84-6.38a94,94,0,0,0,12.46,1.12Zm.22-51.53v41.63a90.77,90.77,0,0,1-10.76-.87l1.25-7.85Zm-10.76-137.19a90.75,90.75,0,0,1,10.76-.87v56.76l-1.2,4.15Zm-13.86,3a90,90,0,0,1,10.51-2.45l10.69,67.18,0,.11Zm-13.16,5.24a89.78,89.78,0,0,1,10-4.13L1559,642.86ZM1515.59,589a90.31,90.31,0,0,1,9.18-5.65l31.24,61Zm-10.93,9a90.78,90.78,0,0,1,8.22-6.95l40.39,55.32Zm-9.37,10.56a90.72,90.72,0,0,1,7-8.18l48.61,48.37Zm-7.71,11.83a89.9,89.9,0,0,1,5.68-9.13l55.63,40.22Zm-5.62,12.94a88.79,88.79,0,0,1,4.15-9.91l61.24,31ZM1478.37,647a89.21,89.21,0,0,1,2.46-10.46l65.46,21.16ZM1477,661a89.47,89.47,0,0,1,.88-10.7l67.91,10.7Zm.87,14.07a89.66,89.66,0,0,1-.87-10.7h68.78Zm3,13.79a89,89,0,0,1-2.46-10.46l67.92-10.71ZM1486.1,702a88.81,88.81,0,0,1-4.15-9.91l65.4-21.14Zm64.77-25.32L1502.26,725a90.45,90.45,0,0,1-7-8.18Zm-57.62,37.49a89.87,89.87,0,0,1-5.68-9.13l61.31-31.08ZM1569,572.85a90.75,90.75,0,0,1,10.76.87l-9.42,59.15-1.34-5.11Zm0,144,9.2,35.1c-2.38.29-4.8.44-7.23.53V750l-2,2Zm2,39c2.72-.11,5.42-.3,8.09-.63l1.67,6.39q-4.81.65-9.76.83Zm5.85,16.36c2.18-.19,4.35-.42,6.49-.74l.19.74Zm53.11-44.78a90.79,90.79,0,0,1-8.22,6.95L1583,681.4l-.23-.88Zm9.38-10.56a90.44,90.44,0,0,1-7,8.18l-48.61-48.37ZM1647,705a89.65,89.65,0,0,1-5.68,9.13l-55.63-40.22Zm5.62-12.94a88.83,88.83,0,0,1-4.15,9.91l-61.24-31.05Zm3.57-13.64a89,89,0,0,1-2.46,10.46l-65.46-21.17Zm1.39-14a89.43,89.43,0,0,1-.87,10.7l-67.9-10.7Zm-.87-14.07a89.68,89.68,0,0,1,.87,10.7h-68.78Zm-3-13.79a89,89,0,0,1,2.46,10.46l-67.92,10.7Zm-5.27-13.09a89,89,0,0,1,4.15,9.91l-65.39,21.14Zm-7.16-12.17a89.6,89.6,0,0,1,5.68,9.13l-61.31,31.09Zm-9-10.88a90.58,90.58,0,0,1,7,8.18l-55.59,40.19Zm-10.61-9.33a90.92,90.92,0,0,1,8.22,6.95l-48.61,48.37Zm-11.89-7.67A90.31,90.31,0,0,1,1619,589l-40.41,55.35Zm-37.29,57.86-.06-.23,10.63-66.78a89.93,89.93,0,0,1,10.51,2.45Zm24.28-63.46a90.16,90.16,0,0,1,10,4.13l-31.21,60.94Zm-11.42,112.55,33.6,46a90.61,90.61,0,0,1-9.18,5.65l-22.29-43.54Zm6.11,23.34,15.26,29.8c-2.18,1.06-4.4,2-6.68,2.94Zm9.44,36c1.26-.48,2.52-.94,3.76-1.48v7l-2.09.82Zm-128.78,30.88-2.74,3.48v5L1396,721.72v-2.94c13.25,11.42,51.46,44,76.14,61.79M1396,721.89c10.82,10.58,51,49.59,73.4,68v14.38h-11.21V792.95h-11.31V781.33c8.82,8.92,16.9,16.42,22.52,20.22L1446.89,778v-.86h-.82L1396,724.79Zm0,3.25c2.16,2.53,5.46,6.38,9.57,11.1H1405v60.69h-9V725.15Zm10.14,11.74c5.47,6.27,12.22,13.91,19.38,21.78v17.55H1424V770.9h-10.28V777h-4.94v19.92h-2.68Zm20.51,23c6.3,6.9,12.87,13.92,19.11,20.28v23.12H1432V776.21h-5.39Zm-74.43,12.45h-3.56v4.78H1341v17.71H1152.6V777.15h-6.19v-3.83h-9.69V726.86h215.49Zm-260,23.37h-4V792s-1.18.12-2.61.22V744.61h-.57c2.45-2.82,4.38-5.08,5.63-6.54l1.55,1.1ZM1090.58,738l-50.1,52.12-4.44-2.27-.5-.91c19.72-17,45.79-42.64,54.85-51.65v2.56Zm-.2-3-55.63,50.51-.23-.43h-5.73c25.2-20.06,52.38-44.87,61.6-53.39Zm-48.71,54.78a315.64,315.64,0,0,0,22.61-22.11v10.29h-3.39V786l-2,2v5.84h-2.67v-7.17h-7.47v6.11h-2.94l-1.31-.67Zm23.16-22.7c3-3.2,5.92-6.37,8.68-9.42v34.91H1073V788h-2.14v5.31h-5.49V767.06Zm9.24-10c4-4.38,7.52-8.42,10.44-11.77v47.06c-2,.11-4,.12-4-.29v-4h-3.74v4.52h-2.12V757ZM384.44,591.35l-.44,9.49h-3.5v-9.49ZM381,603.53h2.86l-.37,8H381Zm-25.15,8h-3.45l-.12-8.9h3.56Zm-.29-10.65h-3.29l-.16-12.11h3.45Zm1665.2,227.65V758.92H1997V712.51h-17.6v-35H1931V805.32h-7.92V661.73h-4.4V649.47l-23.34-23.22-21.7,21.59V653h-2.75v59.54h-32.29V744h-7V726.52h-7v-56h-4.4s2.64-20.14,0-20.14H1763v34.15l-4.51,4.48v38.5h-10.88v17a32.39,32.39,0,0,0-.79,4.49h-12v-16.2c-.15-6.86-7.77-9.78-7.77-9.78V709.28h-2.05V723c-6,2.48-6,9.78-6,9.78v13.57H1716V742.4h-2v-6.2l-.73.73-2,2h-2.79v6.42h-4v-3.94h-6v4.38h-1.91v4.38h-7v-5.55h-10.12v7.3h-3.89V741.6l-3.74-3.72V723h-1.69v13.79l-3.3,3.28v25.68l-6.45,6.42h-16.13V761.23l-5.13-5.11V749h-1a6.77,6.77,0,0,0-.52-1.89,110.15,110.15,0,0,0,15.05-15.32,6.61,6.61,0,0,0,8.22-2,6.53,6.53,0,0,0-.7-8.5,108.36,108.36,0,0,0,9.47-19,6.53,6.53,0,0,0,3.9-12.4,108,108,0,0,0,3.08-20.77,6.54,6.54,0,0,0-.16-13.07A107.77,107.77,0,0,0,1673,635.5a6.57,6.57,0,0,0-4.15-12.46l0,0a108.45,108.45,0,0,0-9.59-18.38l.18-.1a6.55,6.55,0,0,0,1.46-9.17,6.62,6.62,0,0,0-9.22-1.45c-.07.05-.12.12-.19.17a110,110,0,0,0-14.74-14.59c.07-.08.15-.14.21-.23a6.55,6.55,0,0,0-1.46-9.17,6.62,6.62,0,0,0-9.22,1.45c-.07.09-.11.19-.17.29a109.39,109.39,0,0,0-18.5-9.44c0-.09.08-.16.11-.25a6.6,6.6,0,0,0-12.55-4.06c0,.07,0,.14,0,.21a109.48,109.48,0,0,0-20.54-3.31s0-.09,0-.14h0c0-.09,0-.18,0-.27a6.59,6.59,0,0,0-13.17.27s0,0,0,0a109.46,109.46,0,0,0-20.63,3.09,6.6,6.6,0,0,0-12.8,1.59,6.49,6.49,0,0,0,0,1.29,6.74,6.74,0,0,0,.23,1.07,108.8,108.8,0,0,0-18.77,9.34,6.61,6.61,0,0,0-8.95-1.15,6.52,6.52,0,0,0-1.71,8.74,110.22,110.22,0,0,0-15.11,14.72,6.59,6.59,0,0,0-8.58,1.82,6.52,6.52,0,0,0,.8,8.58,109,109,0,0,0-10,18.8,6.56,6.56,0,0,0-4.16,12.19,107.73,107.73,0,0,0-3.66,21.25,6.52,6.52,0,0,0-.12,12.63,108.58,108.58,0,0,0,3.27,21.64,6.52,6.52,0,0,0,3.74,11.88,108.68,108.68,0,0,0,10,19.76,6.52,6.52,0,0,0,.06,7.58,6.6,6.6,0,0,0,7.21,2.41A110.44,110.44,0,0,0,1498,747.91a6.53,6.53,0,0,0,2.45,7.1c.12.08.24.14.36.21v2.66h-1.61l-2.35,2.33H1494v7.15h-4.84v4.48H1479l-6.57,8.36L1396,718.5V679.94l-5.07-26.83v10.63l-3.29,13h-6.23l-6.23-26.56L1374.11,633v16.73l-4.89,26.65h-7.39l-3.2-21.6v11.07l-5.78,22.22v22.66h-98.76v-4.87l-2,4.16h-6.94v-2.75H1243v3.19h-4.8l-3.2-3.9v5.49h-97.87v-23l-6.67-19.58V663.2l3.33-.3-3.31-.44-.07-5.46-.31,5.53-3.11.67H1130l-.11,6.47-3,8.22h-5.34l-5.87-28.33-.26-16.56-1,16.38-6.67,28.86H1102l-.69-19.19-1.62,14.06-2.14-2.39V663h2.58v-.62h-2.76V657.1h-.36v5.22h-2.85V663h2.85v7.61l-6.94,18.43h2.14V729.6h-1.87v1.79l-62,52.06v-42.9l-2.42,4v9.19l-4.4-.66V615.86l2.86-2-.22-56.26-1.32,5.47L1021.53,546v13.57h-6.16V525.46l-1.1,10.29h-4.18V518.24l-1.76,6.79-3.74-.22V479.93l-1.32,7.66-3.08.22V474.24H998V466.8h-2.2v-7.44h-2l-1.32-12.48h2.42l-2.42-2.19-1.1-7h2.42l-2.42-2.41v-7.8l-.66,7.69-4,2.41,3.3.33-.55,7.22L986.78,447l2.64-.11-.77,12.48h-1.87V467l-1.48.05v7.61l-1.76.05v13.41H979.9l-1.59-8.76v44.76l-4.56.11-1-5.58v17.73l-1.87-.06-1.7-8.7v33.66l-3.41.33L964,545.65v17.51L962,563l-1.82-5.14v57.2l3.76,3.5-.29,118.13-9,1.24v-9.41l-1.47,9.27-5.72.29v-9l-1.61-.22-.81-12.69L944,729l-2.2.22v7.22l-6.89-.15V711.38l-3.3-3.43-.73-9.63-.66,9.78-2.35,3.28H925.9l.28-70.23h-1.93v-4.87h-1.87V630.8H919l-1.54-14.28-2,14.34h-2.25v3.65h-1.47v28.57H910v-7.33h-3.56l-.92-8.72-.92,7.19-7.15-.15L895.63,647l-1.76,7.22-3.59,0-1.72-7.15L886.65,654v5.66h-1.8v5.25l-1.8,0V657.6h-1.76V645.34h-1.8v-5.44h-1.58v-5.62h-3.59l-2.09-19.41-1.58,19.52h-1.94V640h-1.47v62.46L849,702.33V691.6l-7.3,0v10.69H822V659.5l-1.69,0V645.31l-1.8-.22-.84-14.92-1,17-3.59-.11v-8.94l-1.69,0-1-19.63-1,19.77-1.65.18v13.82H806v14.26l-1.8.15v-1.9h-1.8v-5.4h-1.8v-1.57h-1.94L797.77,638,797,657.78h-1.72v3.58h-6.78l-1.17-12.44-1,12.51h-2.93V659.5l-2.42-1.68V661H779v-1.5h-1.72V643.63h-1.76l-1-14.15-.84,14H772v14.34h-1.87V654h-1.87V638.23h-1.8l-.66-19.48-1,17.55h-1.91v17.84h-1.68v59.14h-3.71v-5.94h-1.73L755,693.57,754,706h-1.84v5.25h-1.62v5.58H746.8l-.93-18.09-1,7.22h-1.65v5.42h-1.71v1.7h-1.84V686.68l-1.07-11.24-.8,10.86H736v-33.9l-1.82,5.23h-1.62V645.47h-2V634.53H729l-1-8.13-1,8.13v10.81h-1.65V656h-3.52v30.37h-3.71l-.8-10.67-1,11v24.76h-1.9v1.7h-1.73L711.77,697l-.85,19.59H696.48v-3.53h-1.73v-3.58H693l-1-10.64-.77,10.7h-1.87v3.56h-1.9v3.8H667.88v-3.94H666V709.5h-1.79l-.8-8.89-.88,8.95h-1.79v3.53h-1.84v3.58H641v-3.58h-1.7V709.5h-1.9l-.88-8.95-1,9h-1.73v3.5H632v3.61h-3.44v1.78h-2V690H625V673.87l-1.73,8.87-2-8.76v15.93h-1.93V673.84l-1.59,8.73-1.82-8.76V690H603.35l-1.14-16.16-.73,16.13h-1.87v-5.18H598L597.11,672l-1,12.77h-1.61v3.39h-2v28.6h-7.08v-5.4h-1.8l-1-8.94-1,9H580v7.08h-1.87V688.25h-1.83l-.73-16.09-.73,16H571V673.76l-3.52,14.38h-7.22V682.7h-1.94l-.59-10.29-.92,10.29H555v7.37h-1.87V680.8h-1.76l-.88-9-1,9.27v8.54h-1.69v18.09h-3.48v-1.57H542V704.3h-1.65V679.23l-1.65,10.54H535L533.46,679v10.94H528l-1-3.72-.84,3.65h-3.48L521.81,679l-1,11h-1.69L518,679.13,517,690v16.24h-3.23v1.49h-2V713h-5.32V700.61l-1.91,12.59H494v-2.08h-6v-1.61h-1.61l-.44-10.65-1.14,10.76h-5.35v-1.79h-2V659.57H476V645.31h-1.65V640h-1.83l-.77-8.87-1.06,9v3.47h-1.8v14.34H467v17.69h-1.8V664.82h-1.65V663h-1.87V648.81l-1.87,10.62h-3.67V639.91h-1.65l-1.76-16-2,14h-1.65v13h-1.83v3.32h-10.6v-8.83h-1.91l-.88-14.37-1.1,14.34v3H431.1v5.8h-5.39v-9l-1.83,9.08v7.26h-1.54v5.11H416.8V638.3H415v-3.65h-2l-.4-10.73-1.1,10.62H410v14.37h-2v46.22h-7.41V682.55h-1.8v-4.74h-3.89v-51h-1.25l-.81-20.65L392,626.81h-2.49v-5.33h-1.61v-9.56H386.3l-1-38.53-.73,15.91h-4V573.76h-1.39s.22-14.23,0-14.23h-3.52V547.2h-1.25v-7.37h-2.27V526.41h-1.91l-1-20.94-2.79,26.27h-1.47v9.7h-2v17.37h-3.59V562h-2v9.19h-1.91v15.18h-3.34l-.18-13.65L350,611.2h-3.59l-1.32-15.4v28h-2.64V754.58l-9.68-9.63H313.41V719.55H307c-.73-35.46-22.15-34.59-22.15-34.59l-2.64-39.4v39c-23.76,0-23.32,35.46-23.32,35.46h-7v22H236v12.61H214.85c1.76-98.07-23.32-99.64-23.32-99.64-24.64,9.81-24.2,103.58-24.2,103.58H163v-5.22h-26V729.22h-13.2V686.76H93.07V794H72V740.39H51.71v88.1H1156v-7.1s71.93-14.78,97.67-15.1,79.85,9.19,90.74,13.13v9.07Z"/><path class="cls-6" d="M960.18,641.84H925.25v48.94H910.6l-21.08-21V457.67l-10-30.36-2.41-31.16-3.61,31.16-14.05,30.76V628.65h-10V613.87H835.32V670.6l-15.66,15.58V528H802.8V494.42l-15.66-15.58h-5.62v-32h-2.81v40.35h-8V685.38H759.84V597.09l-1.61,1.6v41.95l-24.09,24v22H722.5V616.27h-4.42V558.74h-3V492.22l-33.52-33.36V405.73h-2v54.73h-6.42v159.8c0,1.2-6.82,0-6.82,0v57.53H651V654.62H631.36V597.49h-4V523.19l-2.81-2.8V452.07l-16.46-29.76-2.61-34.76s-1.4,34-1.61,34.56-22.58,29.56-22.58,29.56v64.82l-2.11,2.1v58.53h-3.81v58.33h-4.62V682H560.5V641.64l-12.65,12.58v27.17h-3.61v-142l.4-45.34-18.27-18.18-22.08,22V696.37H492.84v-39H481.6v-76.5h-7V485.63h-6.22V379.56h-4V291.87h-8V188.2h-5.22V141.26h-2.61l-3-62.92-2,61.72h-3v45.54h-3.82c.6,0,0,101.07,0,101.07h-2.81V417.12H427.4V517.19h-6v91.09h-5V680H382V497.82h-2.91V453L363,436.89h-5.82v-22h-1.61v22.57h-4.62v-29h-2.21v28h-2.54V477h-4.52v23.37h-7.23v23.37h-7.23V688.2H311.85V663.1h-5.48l-15.75-15.67v-241l-4.07-4V318.78l-5.42,5.39V291.37h-5l-5,4.95h-5.49v13.42l-6.39,6.36v10.65L252,334.06V644.43l-16,15.91v23.37h-9.48V666.18l-13.1-13H196.23V505.74h-4.52V460.8h-7.23c-10.84-25.17-19,0-19,0H154.67v48.54h-7.23v98H113.12v59.32H101.38v55.73H88.27V828.42H970.22V697h-10Z"/><path class="cls-6" d="M-275.79,483.76h-30.53l-.06-34.56c20,7.32,30.59,34.56,30.59,34.56M93.14,828.42v-98.7H80.5V660.81H72.67V592.5l-18.07-18H38.34L18.77,594V730.92H-164l-8.13-8.09h-46.67S-187.5,591.3-256.76,493l15.06-8.39h-21.08s-13.25-27-44.57-39.55l.08-60.67-3.76,37.3-3.55,299h-50.59L-377.5,733h-15.36v92Z"/><path class="cls-6" d="M1348.83,628h-42.91v56.18l-5-4.94V391.59l-51.49-63.82-24.39,56.63V734h-17.16V621.69h-7.23s-3.61-43.15,0-43.15h-18.06V466.19l-21.68-74.6-8.13-79.1v80.9l-41.55,70.11V654.95h-18.52v67l-6.78,6.74V619.89h-21.68v45.84h-22.58v38.65h-6.32v27.86h-13.55V667.53h-11.74V636.07H979.38v92.58H966.73v99.77h392.94V738.54h-10.84Z"/><path class="cls-6" d="M1288.45,741.86c.49-.49,2.3.49,2.8,0a2.15,2.15,0,0,0,0-2.14c-1-1-4.78,1-5.81,0s1.14-5.28,0-6.42a1.74,1.74,0,0,0-1.72,0c-1.26,1.25.78,5.48,0,7.06s-4.37,3.39-5.06,5c-.24.57-.57,2.23,0,2.46,1.84.76,3.91-4.63,5.65-5.62a2.75,2.75,0,0,1,2.2,0,4.27,4.27,0,0,1,1.22,2.25,3.47,3.47,0,0,1,.71-2.62"/><path class="cls-6" d="M1188.13,732.09h-41v35.34h-14.37v4.63h-11.42v-34.5l10.15,10.52,8-5.89-18.18-11.78v-5.89l-12.68-12.62,22.83-24.4-11.41-6.73-15.64,33.65-2.54-2.1-5.07,3.79-27.06-22.72-7.19,8.83,31.29,16-8.88,5.89.42,18.93-9.94,9.89s4.44,6.1,6.13,6.1,0,16.83,0,16.83h-13.11V761.11l-6.34-6.31-10.78,10.73v10.31h-17.55V732.09h-18.6s3.38-36.6,0-36.6H992.8V718.2H973.35v59.74H964.9V788h-4.65V747.65l-17.12-17v16.62h-9.51V729.14h-8v10.94s-6.76,3.79-6.76,0V726.62l-2.33,2.31v18.72H898.1V729.56l-12.05-12V702.64L883.4,700v19l-8.93,8.89V706.84h-2.59v37.86h-2.54V724.93H853.7V703.48h-4.65V683.28l-3-2.94v23.14h-4.65s-.85,19.77,0,19.77H824.53V828.42h363.6s1.69-96.34,0-96.34"/><path class="cls-6" d="M1280.88,754.11l-3-4.88a6.82,6.82,0,0,0,3,4.88"/><path class="cls-6" d="M1280.88,754.11a4.8,4.8,0,0,1-2.43-1.88,6.63,6.63,0,0,1-.74-1.4,6.93,6.93,0,0,1-.38-1.56l-.3-2.65,1.37,2.31a26,26,0,0,1,2.48,5.18m0,0a26,26,0,0,1-3.46-4.59l1.07-.34a7,7,0,0,0,.28,1.31,8.55,8.55,0,0,0,.48,1.29,8.45,8.45,0,0,0,1.64,2.33"/><path class="cls-6" d="M1637.89,755.17l-3.74,3.72h-6.75v11.38h-14.08v-3.79l-2.78-2.76a109.61,109.61,0,0,0,16.78-9,6.61,6.61,0,0,0,8.13.32,6.5,6.5,0,0,0,2.43-3.47Zm-32.34-.31v-7.07A93.36,93.36,0,0,0,1661,662.7c0-51.45-42.06-93.3-93.77-93.3s-93.76,41.86-93.76,93.3a93.43,93.43,0,0,0,57.64,86.08l-1.8,6.22a99,99,0,0,1-61.4-91.32c0-54.49,44.55-98.82,99.31-98.82s99.31,44.33,99.31,98.82a99,99,0,0,1-61,91.18m-101.34,1.39a6.61,6.61,0,0,0,3.79-1.11,109.36,109.36,0,0,0,18.54,9.61l-1.47,5.08h-3.55v-6.13h-4.69V765h-1.9v3.36h-9.83v-9.63h-.88Zm27.88-10.72c-1.46-.62-2.86-1.36-4.28-2.06L1539,721.64Zm11.82-40.93L1524.77,742a90.32,90.32,0,0,1-9.18-5.65l31.7-43.42Zm6.11-21.15-37.16,50.89a90.79,90.79,0,0,1-8.22-6.95l45.87-45.64Zm.09,87.81c2.52.4,5.07.69,7.65.91h-7.65Zm15.25-8.81a100.08,100.08,0,0,1-14.3-1.29l1.84-6.38a94,94,0,0,0,12.46,1.12Zm.22-51.53v41.63a90.77,90.77,0,0,1-10.76-.87l1.25-7.85Zm-10.76-137.19a90.75,90.75,0,0,1,10.76-.87v56.76l-1.2,4.15Zm-13.86,3a90,90,0,0,1,10.51-2.45l10.69,67.18,0,.11Zm-13.16,5.24a89.78,89.78,0,0,1,10-4.13L1559,642.86ZM1515.59,589a90.31,90.31,0,0,1,9.18-5.65l31.24,61Zm-10.93,9a90.78,90.78,0,0,1,8.22-6.95l40.39,55.32Zm-9.37,10.56a90.72,90.72,0,0,1,7-8.18l48.61,48.37Zm-7.71,11.83a89.9,89.9,0,0,1,5.68-9.13l55.63,40.22Zm-5.62,12.94a88.79,88.79,0,0,1,4.15-9.91l61.24,31ZM1478.37,647a89.21,89.21,0,0,1,2.46-10.46l65.46,21.16ZM1477,661a89.47,89.47,0,0,1,.88-10.7l67.91,10.7Zm.87,14.07a89.66,89.66,0,0,1-.87-10.7h68.78Zm3,13.79a89,89,0,0,1-2.46-10.46l67.92-10.71ZM1486.1,702a88.81,88.81,0,0,1-4.15-9.91l65.4-21.14Zm64.77-25.32L1502.26,725a90.45,90.45,0,0,1-7-8.18Zm-57.62,37.49a89.87,89.87,0,0,1-5.68-9.13l61.31-31.08ZM1569,572.85a90.75,90.75,0,0,1,10.76.87l-9.42,59.15-1.34-5.11Zm0,144,9.2,35.1c-2.38.29-4.8.44-7.23.53V750l-2,2Zm2,39c2.72-.11,5.42-.3,8.09-.63l1.67,6.39q-4.81.65-9.76.83Zm5.85,16.36c2.18-.19,4.35-.42,6.49-.74l.19.74Zm53.11-44.78a90.79,90.79,0,0,1-8.22,6.95L1583,681.4l-.23-.88Zm9.38-10.56a90.44,90.44,0,0,1-7,8.18l-48.61-48.37ZM1647,705a89.65,89.65,0,0,1-5.68,9.13l-55.63-40.22Zm5.62-12.94a88.83,88.83,0,0,1-4.15,9.91l-61.24-31.05Zm3.57-13.64a89,89,0,0,1-2.46,10.46l-65.46-21.17Zm1.39-14a89.43,89.43,0,0,1-.87,10.7l-67.9-10.7Zm-.87-14.07a89.68,89.68,0,0,1,.87,10.7h-68.78Zm-3-13.79a89,89,0,0,1,2.46,10.46l-67.92,10.7Zm-5.27-13.09a89,89,0,0,1,4.15,9.91l-65.39,21.14Zm-7.16-12.17a89.6,89.6,0,0,1,5.68,9.13l-61.31,31.09Zm-9-10.88a90.58,90.58,0,0,1,7,8.18l-55.59,40.19Zm-10.61-9.33a90.92,90.92,0,0,1,8.22,6.95l-48.61,48.37Zm-11.89-7.67A90.31,90.31,0,0,1,1619,589l-40.41,55.35Zm-37.29,57.86-.06-.23,10.63-66.78a89.93,89.93,0,0,1,10.51,2.45Zm24.28-63.46a90.16,90.16,0,0,1,10,4.13l-31.21,60.94Zm-11.42,112.55,33.6,46a90.61,90.61,0,0,1-9.18,5.65l-22.29-43.54Zm6.11,23.34,15.26,29.8c-2.18,1.06-4.4,2-6.68,2.94Zm9.44,36c1.26-.48,2.52-.94,3.76-1.48v7l-2.09.82Zm-128.78,30.88-2.74,3.48v5L1396,721.72v-2.94c13.25,11.42,51.46,44,76.14,61.79M1396,721.89c10.82,10.58,51,49.59,73.4,68v14.38h-11.21V792.95h-11.31V781.33c8.82,8.92,16.9,16.42,22.52,20.22L1446.89,778v-.86h-.82L1396,724.79Zm0,3.25c2.16,2.53,5.46,6.38,9.57,11.1H1405v60.69h-9V725.15Zm10.14,11.74c5.47,6.27,12.22,13.91,19.38,21.78v17.55H1424V770.9h-10.28V777h-4.94v19.92h-2.68Zm20.51,23c6.3,6.9,12.87,13.92,19.11,20.28v23.12H1432V776.21h-5.39Zm-74.43,12.45h-3.56v4.78H1341v17.71H1152.6V777.15h-6.19v-3.83h-9.69V726.86h215.49Zm-260,23.37h-4V792s-1.18.12-2.61.22V744.61h-.57c2.45-2.82,4.38-5.08,5.63-6.54l1.55,1.1ZM1090.58,738l-50.1,52.12-4.44-2.27-.5-.91c19.72-17,45.79-42.64,54.85-51.65v2.56Zm-.2-3-55.63,50.51-.23-.43h-5.73c25.2-20.06,52.38-44.87,61.6-53.39Zm-48.71,54.78a315.64,315.64,0,0,0,22.61-22.11v10.29h-3.39V786l-2,2v5.84h-2.67v-7.17h-7.47v6.11h-2.94l-1.31-.67Zm23.16-22.7c3-3.2,5.92-6.37,8.68-9.42v34.91H1073V788h-2.14v5.31h-5.49V767.06Zm9.24-10c4-4.38,7.52-8.42,10.44-11.77v47.06c-2,.11-4,.12-4-.29v-4h-3.74v4.52h-2.12V757ZM384.44,591.35l-.44,9.49h-3.5v-9.49ZM381,603.53h2.86l-.37,8H381Zm-25.15,8h-3.45l-.12-8.9h3.56Zm-.29-10.65h-3.29l-.16-12.11h3.45Zm1665.2,227.65V758.92H1997V712.51h-17.6v-35H1931V805.32h-7.92V661.73h-4.4V649.47l-23.34-23.22-21.7,21.59V653h-2.75v59.54h-32.29V744h-7V726.52h-7v-56h-4.4s2.64-20.14,0-20.14H1763v34.15l-4.51,4.48v38.5h-10.88v17a32.39,32.39,0,0,0-.79,4.49h-12v-16.2c-.15-6.86-7.77-9.78-7.77-9.78V709.28h-2.05V723c-6,2.48-6,9.78-6,9.78v13.57H1716V742.4h-2v-6.2l-.73.73-2,2h-2.79v6.42h-4v-3.94h-6v4.38h-1.91v4.38h-7v-5.55h-10.12v7.3h-3.89V741.6l-3.74-3.72V723h-1.69v13.79l-3.3,3.28v25.68l-6.45,6.42h-16.13V761.23l-5.13-5.11V749h-1a6.77,6.77,0,0,0-.52-1.89,110.15,110.15,0,0,0,15.05-15.32,6.61,6.61,0,0,0,8.22-2,6.53,6.53,0,0,0-.7-8.5,108.36,108.36,0,0,0,9.47-19,6.53,6.53,0,0,0,3.9-12.4,108,108,0,0,0,3.08-20.77,6.54,6.54,0,0,0-.16-13.07A107.77,107.77,0,0,0,1673,635.5a6.57,6.57,0,0,0-4.15-12.46l0,0a108.45,108.45,0,0,0-9.59-18.38l.18-.1a6.55,6.55,0,0,0,1.46-9.17,6.62,6.62,0,0,0-9.22-1.45c-.07.05-.12.12-.19.17a110,110,0,0,0-14.74-14.59c.07-.08.15-.14.21-.23a6.55,6.55,0,0,0-1.46-9.17,6.62,6.62,0,0,0-9.22,1.45c-.07.09-.11.19-.17.29a109.39,109.39,0,0,0-18.5-9.44c0-.09.08-.16.11-.25a6.6,6.6,0,0,0-12.55-4.06c0,.07,0,.14,0,.21a109.48,109.48,0,0,0-20.54-3.31s0-.09,0-.14h0c0-.09,0-.18,0-.27a6.59,6.59,0,0,0-13.17.27s0,0,0,0a109.46,109.46,0,0,0-20.63,3.09,6.6,6.6,0,0,0-12.8,1.59,6.49,6.49,0,0,0,0,1.29,6.74,6.74,0,0,0,.23,1.07,108.8,108.8,0,0,0-18.77,9.34,6.61,6.61,0,0,0-8.95-1.15,6.52,6.52,0,0,0-1.71,8.74,110.22,110.22,0,0,0-15.11,14.72,6.59,6.59,0,0,0-8.58,1.82,6.52,6.52,0,0,0,.8,8.58,109,109,0,0,0-10,18.8,6.56,6.56,0,0,0-4.16,12.19,107.73,107.73,0,0,0-3.66,21.25,6.52,6.52,0,0,0-.12,12.63,108.58,108.58,0,0,0,3.27,21.64,6.52,6.52,0,0,0,3.74,11.88,108.68,108.68,0,0,0,10,19.76,6.52,6.52,0,0,0,.06,7.58,6.6,6.6,0,0,0,7.21,2.41A110.44,110.44,0,0,0,1498,747.91a6.53,6.53,0,0,0,2.45,7.1c.12.08.24.14.36.21v2.66h-1.61l-2.35,2.33H1494v7.15h-4.84v4.48H1479l-6.57,8.36L1396,718.5V679.94l-5.07-26.83v10.63l-3.29,13h-6.23l-6.23-26.56L1374.11,633v16.73l-4.89,26.65h-7.39l-3.2-21.6v11.07l-5.78,22.22v22.66h-98.76v-4.87l-2,4.16h-6.94v-2.75H1243v3.19h-4.8l-3.2-3.9v5.49h-97.87v-23l-6.67-19.58V663.2l3.33-.3-3.31-.44-.07-5.46-.31,5.53-3.11.67H1130l-.11,6.47-3,8.22h-5.34l-5.87-28.33-.26-16.56-1,16.38-6.67,28.86H1102l-.69-19.19-1.62,14.06-2.14-2.39V663h2.58v-.62h-2.76V657.1h-.36v5.22h-2.85V663h2.85v7.61l-6.94,18.43h2.14V729.6h-1.87v1.79l-62,52.06v-42.9l-2.42,4v9.19l-4.4-.66V615.86l2.86-2-.22-56.26-1.32,5.47L1021.53,546v13.57h-6.16V525.46l-1.1,10.29h-4.18V518.24l-1.76,6.79-3.74-.22V479.93l-1.32,7.66-3.08.22V474.24H998V466.8h-2.2v-7.44h-2l-1.32-12.48h2.42l-2.42-2.19-1.1-7h2.42l-2.42-2.41v-7.8l-.66,7.69-4,2.41,3.3.33-.55,7.22L986.78,447l2.64-.11-.77,12.48h-1.87V467l-1.48.05v7.61l-1.76.05v13.41H979.9l-1.59-8.76v44.76l-4.56.11-1-5.58v17.73l-1.87-.06-1.7-8.7v33.66l-3.41.33L964,545.65v17.51L962,563l-1.82-5.14v57.2l3.76,3.5-.29,118.13-9,1.24v-9.41l-1.47,9.27-5.72.29v-9l-1.61-.22-.81-12.69L944,729l-2.2.22v7.22l-6.89-.15V711.38l-3.3-3.43-.73-9.63-.66,9.78-2.35,3.28H925.9l.28-70.23h-1.93v-4.87h-1.87V630.8H919l-1.54-14.28-2,14.34h-2.25v3.65h-1.47v28.57H910v-7.33h-3.56l-.92-8.72-.92,7.19-7.15-.15L895.63,647l-1.76,7.22-3.59,0-1.72-7.15L886.65,654v5.66h-1.8v5.25l-1.8,0V657.6h-1.76V645.34h-1.8v-5.44h-1.58v-5.62h-3.59l-2.09-19.41-1.58,19.52h-1.94V640h-1.47v62.46L849,702.33V691.6l-7.3,0v10.69H822V659.5l-1.69,0V645.31l-1.8-.22-.84-14.92-1,17-3.59-.11v-8.94l-1.69,0-1-19.63-1,19.77-1.65.18v13.82H806v14.26l-1.8.15v-1.9h-1.8v-5.4h-1.8v-1.57h-1.94L797.77,638,797,657.78h-1.72v3.58h-6.78l-1.17-12.44-1,12.51h-2.93V659.5l-2.42-1.68V661H779v-1.5h-1.72V643.63h-1.76l-1-14.15-.84,14H772v14.34h-1.87V654h-1.87V638.23h-1.8l-.66-19.48-1,17.55h-1.91v17.84h-1.68v59.14h-3.71v-5.94h-1.73L755,693.57,754,706h-1.84v5.25h-1.62v5.58H746.8l-.93-18.09-1,7.22h-1.65v5.42h-1.71v1.7h-1.84V686.68l-1.07-11.24-.8,10.86H736v-33.9l-1.82,5.23h-1.62V645.47h-2V634.53H729l-1-8.13-1,8.13v10.81h-1.65V656h-3.52v30.37h-3.71l-.8-10.67-1,11v24.76h-1.9v1.7h-1.73L711.77,697l-.85,19.59H696.48v-3.53h-1.73v-3.58H693l-1-10.64-.77,10.7h-1.87v3.56h-1.9v3.8H667.88v-3.94H666V709.5h-1.79l-.8-8.89-.88,8.95h-1.79v3.53h-1.84v3.58H641v-3.58h-1.7V709.5h-1.9l-.88-8.95-1,9h-1.73v3.5H632v3.61h-3.44v1.78h-2V690H625V673.87l-1.73,8.87-2-8.76v15.93h-1.93V673.84l-1.59,8.73-1.82-8.76V690H603.35l-1.14-16.16-.73,16.13h-1.87v-5.18H598L597.11,672l-1,12.77h-1.61v3.39h-2v28.6h-7.08v-5.4h-1.8l-1-8.94-1,9H580v7.08h-1.87V688.25h-1.83l-.73-16.09-.73,16H571V673.76l-3.52,14.38h-7.22V682.7h-1.94l-.59-10.29-.92,10.29H555v7.37h-1.87V680.8h-1.76l-.88-9-1,9.27v8.54h-1.69v18.09h-3.48v-1.57H542V704.3h-1.65V679.23l-1.65,10.54H535L533.46,679v10.94H528l-1-3.72-.84,3.65h-3.48L521.81,679l-1,11h-1.69L518,679.13,517,690v16.24h-3.23v1.49h-2V713h-5.32V700.61l-1.91,12.59H494v-2.08h-6v-1.61h-1.61l-.44-10.65-1.14,10.76h-5.35v-1.79h-2V659.57H476V645.31h-1.65V640h-1.83l-.77-8.87-1.06,9v3.47h-1.8v14.34H467v17.69h-1.8V664.82h-1.65V663h-1.87V648.81l-1.87,10.62h-3.67V639.91h-1.65l-1.76-16-2,14h-1.65v13h-1.83v3.32h-10.6v-8.83h-1.91l-.88-14.37-1.1,14.34v3H431.1v5.8h-5.39v-9l-1.83,9.08v7.26h-1.54v5.11H416.8V638.3H415v-3.65h-2l-.4-10.73-1.1,10.62H410v14.37h-2v46.22h-7.41V682.55h-1.8v-4.74h-3.89v-51h-1.25l-.81-20.65L392,626.81h-2.49v-5.33h-1.61v-9.56H386.3l-1-38.53-.73,15.91h-4V573.76h-1.39s.22-14.23,0-14.23h-3.52V547.2h-1.25v-7.37h-2.27V526.41h-1.91l-1-20.94-2.79,26.27h-1.47v9.7h-2v17.37h-3.59V562h-2v9.19h-1.91v15.18h-3.34l-.18-13.65L350,611.2h-3.59l-1.32-15.4v28h-2.64V754.58l-9.68-9.63H313.41V719.55H307c-.73-35.46-22.15-34.59-22.15-34.59l-2.64-39.4v39c-23.76,0-23.32,35.46-23.32,35.46h-7v22H236v12.61H214.85c1.76-98.07-23.32-99.64-23.32-99.64-24.64,9.81-24.2,103.58-24.2,103.58H163v-5.22h-26V729.22h-13.2V686.76H93.07V794H72V740.39H51.71v88.1H1156v-7.1s71.93-14.78,97.67-15.1,79.85,9.19,90.74,13.13v9.07Z"/><path class="cls-6" d="M960.18,641.84H925.25v48.94H910.6l-21.08-21V457.67l-10-30.36-2.41-31.16-3.61,31.16-14.05,30.76V628.65h-10V613.87H835.32V670.6l-15.66,15.58V528H802.8V494.42l-15.66-15.58h-5.62v-32h-2.81v40.35h-8V685.38H759.84V597.09l-1.61,1.6v41.95l-24.09,24v22H722.5V616.27h-4.42V558.74h-3V492.22l-33.52-33.36V405.73h-2v54.73h-6.42v159.8c0,1.2-6.82,0-6.82,0v57.53H651V654.62H631.36V597.49h-4V523.19l-2.81-2.8V452.07l-16.46-29.76-2.61-34.76s-1.4,34-1.61,34.56-22.58,29.56-22.58,29.56v64.82l-2.11,2.1v58.53h-3.81v58.33h-4.62V682H560.5V641.64l-12.65,12.58v27.17h-3.61v-142l.4-45.34-18.27-18.18-22.08,22V696.37H492.84v-39H481.6v-76.5h-7V485.63h-6.22V379.56h-4V291.87h-8V188.2h-5.22V141.26h-2.61l-3-62.92-2,61.72h-3v45.54h-3.82c.6,0,0,101.07,0,101.07h-2.81V417.12H427.4V517.19h-6v91.09h-5V680H382V497.82h-2.91V453L363,436.89h-5.82v-22h-1.61v22.57h-4.62v-29h-2.21v28h-2.54V477h-4.52v23.37h-7.23v23.37h-7.23V688.2H311.85V663.1h-5.48l-15.75-15.67v-241l-4.07-4V318.78l-5.42,5.39V291.37h-5l-5,4.95h-5.49v13.42l-6.39,6.36v10.65L252,334.06V644.43l-16,15.91v23.37h-9.48V666.18l-13.1-13H196.23V505.74h-4.52V460.8h-7.23c-10.84-25.17-19,0-19,0H154.67v48.54h-7.23v98H113.12v59.32H101.38v55.73H88.27V828.42H970.22V697h-10Z"/><path class="cls-6" d="M-275.79,483.76h-30.53l-.06-34.56c20,7.32,30.59,34.56,30.59,34.56M93.14,828.42v-98.7H80.5V660.81H72.67V592.5l-18.07-18H38.34L18.77,594V730.92H-164l-8.13-8.09h-46.67S-187.5,591.3-256.76,493l15.06-8.39h-21.08s-13.25-27-44.57-39.55l.08-60.67-3.76,37.3-3.55,299h-50.59L-377.5,733h-15.36v92Z"/><path class="cls-6" d="M1348.83,628h-42.91v56.18l-5-4.94V391.59l-51.49-63.82-24.39,56.63V734h-17.16V621.69h-7.23s-3.61-43.15,0-43.15h-18.06V466.19l-21.68-74.6-8.13-79.1v80.9l-41.55,70.11V654.95h-18.52v67l-6.78,6.74V619.89h-21.68v45.84h-22.58v38.65h-6.32v27.86h-13.55V667.53h-11.74V636.07H979.38v92.58H966.73v99.77h392.94V738.54h-10.84Z"/><path class="cls-6" d="M1288.45,741.86c.49-.49,2.3.49,2.8,0a2.15,2.15,0,0,0,0-2.14c-1-1-4.78,1-5.81,0s1.14-5.28,0-6.42a1.74,1.74,0,0,0-1.72,0c-1.26,1.25.78,5.48,0,7.06s-4.37,3.39-5.06,5c-.24.57-.57,2.23,0,2.46,1.84.76,3.91-4.63,5.65-5.62a2.75,2.75,0,0,1,2.2,0,4.27,4.27,0,0,1,1.22,2.25,3.47,3.47,0,0,1,.71-2.62"/><path class="cls-6" d="M1188.13,732.09h-41v35.34h-14.37v4.63h-11.42v-34.5l10.15,10.52,8-5.89-18.18-11.78v-5.89l-12.68-12.62,22.83-24.4-11.41-6.73-15.64,33.65-2.54-2.1-5.07,3.79-27.06-22.72-7.19,8.83,31.29,16-8.88,5.89.42,18.93-9.94,9.89s4.44,6.1,6.13,6.1,0,16.83,0,16.83h-13.11V761.11l-6.34-6.31-10.78,10.73v10.31h-17.55V732.09h-18.6s3.38-36.6,0-36.6H992.8V718.2H973.35v59.74H964.9V788h-4.65V747.65l-17.12-17v16.62h-9.51V729.14h-8v10.94s-6.76,3.79-6.76,0V726.62l-2.33,2.31v18.72H898.1V729.56l-12.05-12V702.64L883.4,700v19l-8.93,8.89V706.84h-2.59v37.86h-2.54V724.93H853.7V703.48h-4.65V683.28l-3-2.94v23.14h-4.65s-.85,19.77,0,19.77H824.53V828.42h363.6s1.69-96.34,0-96.34"/><path class="cls-6" d="M1280.88,754.11l-3-4.88a6.82,6.82,0,0,0,3,4.88"/><path class="cls-6" d="M1280.88,754.11a4.8,4.8,0,0,1-2.43-1.88,6.63,6.63,0,0,1-.74-1.4,6.93,6.93,0,0,1-.38-1.56l-.3-2.65,1.37,2.31a26,26,0,0,1,2.48,5.18m0,0a26,26,0,0,1-3.46-4.59l1.07-.34a7,7,0,0,0,.28,1.31,8.55,8.55,0,0,0,.48,1.29,8.45,8.45,0,0,0,1.64,2.33"/></g></g></g></g></svg>