<svg id="Layer_1" data-name="Layer 1" xmlns="http://www.w3.org/2000/svg" xmlns:xlink="http://www.w3.org/1999/xlink" viewBox="0 0 173 102"><defs><style>.cls-1{fill:none;}.cls-2{clip-path:url(#clip-path);}.cls-3{fill:#fff;}</style><clipPath id="clip-path"><rect class="cls-1" x="2.42" y="2.61" width="168.15" height="96.79"/></clipPath></defs><title>Advertising_that_get_results</title><g class="cls-2"><path class="cls-3" d="M139.15,82.24a8.66,8.66,0,0,1,5.72,11.11,8.33,8.33,0,0,1-4.34,5.1,8.64,8.64,0,0,1-6.67.49,8.27,8.27,0,0,1-5.1-4.28,8.91,8.91,0,0,1,3.72-11.87,8.66,8.66,0,0,1,6.67-.56m-.69-7.65,14-61.28A30.92,30.92,0,0,1,153.2,10c1-3.25,2.47-5.38,4.41-6.49s4.27-1.17,7-.27a8.05,8.05,0,0,1,5.1,4.08,8.4,8.4,0,0,1,.35,6.63c-.28.83-.82,2.13-1.66,3.93L143.9,76.3Z"/><path class="cls-3" d="M126.77,76.93v.41a1.44,1.44,0,0,1-.22.83.76.76,0,0,1-.68.27,1,1,0,0,1-.69-.21,1.48,1.48,0,0,1-.21-.83c0-.34.07-.75.07-1.24s.14-.83.14-1a9.17,9.17,0,0,0-.14-1.3A5.56,5.56,0,0,0,125,73a1.42,1.42,0,0,1,.28-.76.89.89,0,0,1,.7-.28.72.72,0,0,1,.68.28,4.44,4.44,0,0,1,.14,1.1v.42a2.54,2.54,0,0,0,1.17,2.14,6.2,6.2,0,0,0,3.22.76,3.56,3.56,0,0,0,2.35-.69,2.15,2.15,0,0,0,.82-1.79,2.09,2.09,0,0,0-.2-.9,2.86,2.86,0,0,0-.82-.68,4.12,4.12,0,0,0-1.66-.35c-1-.14-1.65-.28-2.2-.35a5.64,5.64,0,0,1-3-1.44,3.36,3.36,0,0,1-1-2.62,3.51,3.51,0,0,1,1.38-3,5.64,5.64,0,0,1,3.78-1.11,6.16,6.16,0,0,1,2,.28,3.92,3.92,0,0,1,1.66,1v-.34a1.08,1.08,0,0,1,.21-.69.63.63,0,0,1,.54-.22.5.5,0,0,1,.48.28.84.84,0,0,1,.2.62v.21c-.07.89-.14,1.86-.14,3v.83a1.05,1.05,0,0,1-.2.69.67.67,0,0,1-.62.28.68.68,0,0,1-.62-.28,2,2,0,0,1-.14-.83v-.34a2.63,2.63,0,0,0-.9-2,4,4,0,0,0-2.48-.69,3.79,3.79,0,0,0-2.33.62,2,2,0,0,0-.83,1.73,2.42,2.42,0,0,0,.14.75,1.88,1.88,0,0,0,.48.56,5.19,5.19,0,0,0,2.69.76c.54.07,1,.07,1.3.14a7.43,7.43,0,0,1,3.37,1.24,3.22,3.22,0,0,1,1,2.57A4.24,4.24,0,0,1,135,77.2,5.82,5.82,0,0,1,131,78.44a7.14,7.14,0,0,1-2.49-.34,5.49,5.49,0,0,1-1.78-1.17M114.44,64.16a.55.55,0,0,0,.35-.07.53.53,0,0,0,.13-.35V61.05a1.16,1.16,0,0,1,.21-.69,1.38,1.38,0,0,1,.77-.2,1,1,0,0,1,.76.27.68.68,0,0,1,.27.62v2.62c0,.21,0,.35.07.42s.13.07.34.07h2.83a1.1,1.1,0,0,1,.82.27c.21.14.26.34.26.69a.69.69,0,0,1-.34.7c-.13.21-.48.28-.89.28h-2.69a.5.5,0,0,0-.34.13,1.48,1.48,0,0,0-.07.63v6a6.88,6.88,0,0,0,.41,3,1.66,1.66,0,0,0,1.52.62,1.78,1.78,0,0,0,1.44-.62,2.55,2.55,0,0,0,.49-1.72v-.76a6,6,0,0,0-.08-.7,1.83,1.83,0,0,1,.29-1,.86.86,0,0,1,.69-.34c.48,0,.75.14.9.41a2.94,2.94,0,0,1,.27,1.52,6.16,6.16,0,0,1-1,3.86,3.83,3.83,0,0,1-3.16,1.31,3.76,3.76,0,0,1-3-1,5.28,5.28,0,0,1-.89-3.52v-7c0-.34,0-.55-.07-.63s-.21-.13-.34-.13h-1a.85.85,0,0,1-.75-.28.91.91,0,0,1-.21-.7,1.21,1.21,0,0,1,.21-.75,1.25,1.25,0,0,1,.75-.21ZM107,74.79v-11a6.37,6.37,0,0,0-.28-2.27,1.28,1.28,0,0,0-1.18-.49h-1c-.35,0-.56,0-.69-.14a.81.81,0,0,1-.21-.62,1.28,1.28,0,0,1,.27-.69,1.49,1.49,0,0,1,.83-.2,2.11,2.11,0,0,1,.41.06h.9c.62,0,1.24,0,1.93-.06h.21a1,1,0,0,1,.76.2,1.52,1.52,0,0,1,.2,1V74.79a3.39,3.39,0,0,0,.29,1.66,1.34,1.34,0,0,0,1.1.35,2.15,2.15,0,0,1,.41-.07h.34a1.73,1.73,0,0,1,.9.21,1.2,1.2,0,0,1,.28.69.73.73,0,0,1-.28.69c-.13.14-.48.14-.82.14-.14,0-.48,0-1.17-.06a17.18,17.18,0,0,0-1.85-.07c-1,0-2.07.07-3.1.14h-.42a2.69,2.69,0,0,1-.9-.14.94.94,0,0,1-.27-.69,1,1,0,0,1,.35-.69,1.45,1.45,0,0,1,.89-.21h.35a2.48,2.48,0,0,1,.41.07,1.39,1.39,0,0,0,1.11-.35c.21-.21.28-.76.28-1.66M81.39,64.5a5,5,0,0,0-.28-2.21c-.13-.28-.47-.42-1-.42H78.65a2.09,2.09,0,0,1-1.24-.27,1.08,1.08,0,0,1-.34-.9,1.14,1.14,0,0,1,.34-.83,2.38,2.38,0,0,1,1.1-.21,9.85,9.85,0,0,1,1.17.07c.62,0,1.16.06,1.65.06.21,0,.55-.06,1-.06a5,5,0,0,1,.89-.07c.48,0,.75.07.89.28s.21.69.21,1.66v8.14c0,2.35.34,4,1.1,5a4.45,4.45,0,0,0,3.72,1.45,4.87,4.87,0,0,0,4.34-2.07c.9-1.33,1.3-3.52,1.3-6.49V64.5a6.19,6.19,0,0,0-.21-2.14,1.07,1.07,0,0,0-1-.48H92.2A1.89,1.89,0,0,1,91,61.61c-.2-.14-.27-.48-.27-.9a1.12,1.12,0,0,1,.27-.83,1.91,1.91,0,0,1,1-.21,9.09,9.09,0,0,1,1.17.07c.62,0,1.11.06,1.45.06s.69-.06,1-.06a4.34,4.34,0,0,1,.76-.07c.48,0,.76.07.89.28a3.35,3.35,0,0,1,.21,1.66V72a10,10,0,0,0,.35,3.24c.2.41.69.62,1.44.62h1.24a1.36,1.36,0,0,1,1,.28,1.1,1.1,0,0,1,.28.76,1.33,1.33,0,0,1-.36,1,1.66,1.66,0,0,1-1,.35c-.14,0-.48-.07-.89-.07a7,7,0,0,0-1.1-.07,9.13,9.13,0,0,0-1.24.07c-.49,0-.83.07-1,.07a1.38,1.38,0,0,1-1-.35,2.33,2.33,0,0,1-.2-1.24V75.2a9,9,0,0,1-2.89,2.55,7.8,7.8,0,0,1-3.45.68c-2.54,0-4.4-.62-5.57-1.86s-1.72-3.32-1.72-6.15ZM69.55,77.06v.34a1.45,1.45,0,0,1-.21.83.93.93,0,0,1-.61.21c-.35,0-.56-.06-.62-.21a1.1,1.1,0,0,1-.21-.76A8.28,8.28,0,0,1,68,76.3a5.11,5.11,0,0,0,.07-.89c0-.35-.07-.76-.07-1.17a5.36,5.36,0,0,1-.07-.83.82.82,0,0,1,.28-.62.69.69,0,0,1,.63-.28.56.56,0,0,1,.54.28,1.63,1.63,0,0,1,.21,1v.41a2.22,2.22,0,0,0,1.1,1.93,5,5,0,0,0,2.9.69,3.54,3.54,0,0,0,2.13-.56,2,2,0,0,0,.83-1.73,2.17,2.17,0,0,0-.27-.83,3.7,3.7,0,0,0-.69-.62A4.48,4.48,0,0,0,74,72.71c-.83-.06-1.51-.2-2-.27a6,6,0,0,1-2.82-1.31A3.82,3.82,0,0,1,69.55,66a5.28,5.28,0,0,1,3.44-1,5.91,5.91,0,0,1,1.93.35,4.61,4.61,0,0,1,1.51.83V66a.66.66,0,0,1-.07-.21.78.78,0,0,1,.21-.55.71.71,0,0,1,.48-.27.69.69,0,0,1,.48.27.77.77,0,0,1,.21.55V66c-.07.83-.14,1.73-.14,2.76v.76a.85.85,0,0,1-.21.62.68.68,0,0,1-.55.21c-.28,0-.48-.07-.55-.21s-.14-.42-.14-.76V69a2.1,2.1,0,0,0-.89-1.8A3.68,3.68,0,0,0,73,66.58a3,3,0,0,0-2.07.55,1.67,1.67,0,0,0-.75,1.53,1.48,1.48,0,0,0,.13.76.75.75,0,0,0,.42.48,4.48,4.48,0,0,0,2.49.69,9.67,9.67,0,0,0,1.16.14,6,6,0,0,1,3.1,1.17,3,3,0,0,1,1,2.35,3.83,3.83,0,0,1-1.38,3,5.18,5.18,0,0,1-3.65,1.17,5.39,5.39,0,0,1-2.2-.34,3.43,3.43,0,0,1-1.65-1M56.48,70.23H63.7v-.14a3.34,3.34,0,0,0-1-2.56,3.76,3.76,0,0,0-5,0,4.39,4.39,0,0,0-1.17,2.69m-.14,1.66V72a5.24,5.24,0,0,0,1.1,3.52,3.51,3.51,0,0,0,2.82,1.24,3.62,3.62,0,0,0,1.8-.35,4.45,4.45,0,0,0,1.3-1.24,3.63,3.63,0,0,0,.49-1c.27-.68.62-1.1,1-1.1a.95.95,0,0,1,.9,1,3.07,3.07,0,0,1-.34,1.1,5.89,5.89,0,0,1-.84,1.38A4.39,4.39,0,0,1,62.73,78a6.12,6.12,0,0,1-2.61.48,5.46,5.46,0,0,1-4.27-1.79,7.22,7.22,0,0,1-1.59-5,7.24,7.24,0,0,1,1.59-5,5.46,5.46,0,0,1,4.27-1.79,5.53,5.53,0,0,1,4.12,1.51,5.62,5.62,0,0,1,1.59,4.21,1.4,1.4,0,0,1-.28,1,1.48,1.48,0,0,1-1,.21H56.34ZM45.8,74.79A3.24,3.24,0,0,0,46,76.24a.94.94,0,0,0,.83.35,1,1,0,0,1,.41-.08h.63a1.6,1.6,0,0,1,.89.21.87.87,0,0,1,.28.62.7.7,0,0,1-.28.55,1.43,1.43,0,0,1-.82.21s-.41,0-1.17-.07S45.25,78,44.56,78s-1.17.07-1.78.07a9.57,9.57,0,0,1-1,.07c-.34,0-.61,0-.75-.13a.86.86,0,0,1-.21-.63.68.68,0,0,1,.28-.62,1.14,1.14,0,0,1,.76-.21h.34a3.37,3.37,0,0,1,.35.08c.55,0,.89-.14,1-.35a3,3,0,0,0,.21-1.45V69.34a5.93,5.93,0,0,0-.21-2.14,1.4,1.4,0,0,0-1-.34h-.77a1.09,1.09,0,0,1-.75-.21.54.54,0,0,1-.21-.49.68.68,0,0,1,.28-.62,1.11,1.11,0,0,1,.76-.21h.41c.28,0,.48.07.69.07.55,0,1-.07,1.58-.07h.2c.35,0,.55,0,.69.14a1.58,1.58,0,0,1,.21.9l-.07.76a4.14,4.14,0,0,1,1.37-1.65,4,4,0,0,1,2-.55,3.61,3.61,0,0,1,2.68,1,3.44,3.44,0,0,1,1,2.55,2.81,2.81,0,0,1-.55,1.8,2,2,0,0,1-1.52.62c-.48,0-.82-.07-1-.34a1.17,1.17,0,0,1-.42-1,.79.79,0,0,1,.22-.55,1.28,1.28,0,0,1,.62-.41h.13a.56.56,0,0,0,.48-.63A1.31,1.31,0,0,0,50,67a2.34,2.34,0,0,0-3.52.83,10.58,10.58,0,0,0-.69,4.62ZM121.67,55.4V56a2,2,0,0,1-.42,1.31,1.26,1.26,0,0,1-1,.42c-.55,0-.9-.07-1.11-.34a2.25,2.25,0,0,1-.27-1.31,10.46,10.46,0,0,1,.13-1.94c.07-.83.07-1.31.07-1.58,0-.63,0-1.32-.07-2.08a6.66,6.66,0,0,1-.13-1.31,1.55,1.55,0,0,1,.41-1.1,1.28,1.28,0,0,1,1.09-.49,1.06,1.06,0,0,1,1,.49,3.41,3.41,0,0,1,.34,1.65v.62a3.74,3.74,0,0,0,1.79,3.31,8.9,8.9,0,0,0,5,1.24,5.61,5.61,0,0,0,3.65-1A3.28,3.28,0,0,0,133.44,51a2.45,2.45,0,0,0-.41-1.38,3,3,0,0,0-1.17-1.1,9.31,9.31,0,0,0-2.68-.63c-1.44-.14-2.55-.34-3.38-.47A10.24,10.24,0,0,1,121,45.25a5.67,5.67,0,0,1-1.45-4.08,5.67,5.67,0,0,1,2.14-4.69,9.18,9.18,0,0,1,5.92-1.72,9.34,9.34,0,0,1,3.17.48,7.14,7.14,0,0,1,2.61,1.45v-.21c0-.13-.06-.2-.06-.41a1.49,1.49,0,0,1,.34-1,.94.94,0,0,1,.83-.34,1,1,0,0,1,.82.41,1.53,1.53,0,0,1,.34,1v.28a33,33,0,0,0-.27,4.76v1.25a1.43,1.43,0,0,1-.35,1.1,1.28,1.28,0,0,1-1,.35,1.11,1.11,0,0,1-.9-.35,2.26,2.26,0,0,1-.27-1.31v-.55a3.76,3.76,0,0,0-1.45-3.11,6.1,6.1,0,0,0-3.85-1.1,6.22,6.22,0,0,0-3.65,1,3.14,3.14,0,0,0-1,3.86,1.59,1.59,0,0,0,.76.9,8.42,8.42,0,0,0,4.19,1.17,13.27,13.27,0,0,1,2.07.28c2.41.35,4.14,1,5.16,1.93a4.76,4.76,0,0,1,1.66,3.93,6.44,6.44,0,0,1-2.34,5.25,8.76,8.76,0,0,1-6.12,2,11.15,11.15,0,0,1-3.86-.62,5.94,5.94,0,0,1-2.75-1.72m-19.34-20a1,1,0,0,0,.54-.14,1.3,1.3,0,0,0,.13-.55V30.41a1.37,1.37,0,0,1,.42-1,2.15,2.15,0,0,1,2.34,0,1.35,1.35,0,0,1,.41,1v4.14a1.27,1.27,0,0,0,.14.68.89.89,0,0,0,.56.14h4.4a2.06,2.06,0,0,1,1.24.34,1.31,1.31,0,0,1,.48,1.1,1.36,1.36,0,0,1-.48,1.11,2.26,2.26,0,0,1-1.44.42h-4.2a.56.56,0,0,0-.56.27,2.56,2.56,0,0,0-.14,1v9.31c0,2.55.28,4.07.69,4.76a2.48,2.48,0,0,0,2.34,1,2.92,2.92,0,0,0,2.27-1,4.78,4.78,0,0,0,.75-2.83v-1.1a7.44,7.44,0,0,1-.07-1.11,2.51,2.51,0,0,1,.42-1.58,1.24,1.24,0,0,1,1.1-.56,1.51,1.51,0,0,1,1.37.69,4.94,4.94,0,0,1,.41,2.35,9.74,9.74,0,0,1-1.66,6.06,6,6,0,0,1-5,2.08c-2.13,0-3.64-.55-4.61-1.65s-1.38-2.9-1.38-5.52v-11c0-.55,0-.9-.14-1a.53.53,0,0,0-.49-.2H100.6A1.66,1.66,0,0,1,99.44,38a1.49,1.49,0,0,1-.35-1.18,1.33,1.33,0,0,1,.35-1.1,1.64,1.64,0,0,1,1.23-.34ZM82.15,43.73H94.41v-.28a5.64,5.64,0,0,0-1.65-4.27,6.5,6.5,0,0,0-8.68,0,6.93,6.93,0,0,0-1.92,4.55m-.27,2.83v.14a9,9,0,0,0,1.86,5.93,6.57,6.57,0,0,0,7.84,1.52,6.23,6.23,0,0,0,2.27-2.07,7.4,7.4,0,0,0,.83-1.79c.49-1.18,1-1.79,1.72-1.79a1.45,1.45,0,0,1,1.1.48,1.48,1.48,0,0,1,.42,1.11A5.21,5.21,0,0,1,97.36,52,13.71,13.71,0,0,1,96,54.36a8.66,8.66,0,0,1-3.16,2.56,11.17,11.17,0,0,1-4.48.83,9.11,9.11,0,0,1-7.3-3.11,12.61,12.61,0,0,1-2.69-8.48,12.55,12.55,0,0,1,2.69-8.42,9.09,9.09,0,0,1,7.3-3.1,9.12,9.12,0,0,1,9.7,9.79,2.6,2.6,0,0,1-.41,1.73,2.46,2.46,0,0,1-1.71.41h-14ZM70.52,36.08a6.1,6.1,0,0,1,2.34,2.42,6.62,6.62,0,0,1,.82,3.31A6.48,6.48,0,0,1,71.48,47a8.82,8.82,0,0,1-6,1.86,11.33,11.33,0,0,1-4.67-1,2.49,2.49,0,0,0-.76-.27A1.32,1.32,0,0,0,59,48a1.9,1.9,0,0,0-.42,1.24,2.08,2.08,0,0,0,1,1.8,4.61,4.61,0,0,0,2.61.62c.34,0,.89,0,1.79-.07h2c3.31,0,5.85.55,7.58,1.66a5.69,5.69,0,0,1,2.61,5,5.55,5.55,0,0,1-2.88,4.83,14.18,14.18,0,0,1-7.72,1.86,14.07,14.07,0,0,1-7.78-1.86A5.32,5.32,0,0,1,55,58.23a4.55,4.55,0,0,1,1-2.9,6,6,0,0,1,2.62-2.07,6.06,6.06,0,0,1-2.34-1.59,3.52,3.52,0,0,1-.76-2.35,4.12,4.12,0,0,1,.81-2.55,4.9,4.9,0,0,1,2.49-1.58,5.93,5.93,0,0,1-.69-1.66,8.1,8.1,0,0,1-.21-1.73,6.14,6.14,0,0,1,2.14-5A8.73,8.73,0,0,1,65.91,35h1a5.06,5.06,0,0,0,1,.14V35a3.63,3.63,0,0,1,1.38-2.83A5.2,5.2,0,0,1,72.79,31a5.29,5.29,0,0,1,3.31,1.11A3.73,3.73,0,0,1,77.33,35a2.46,2.46,0,0,1-.56,1.66,1.87,1.87,0,0,1-1.51.63A1.85,1.85,0,0,1,74,36.83a1.57,1.57,0,0,1-.49-1.24,1.93,1.93,0,0,1,.34-.9l.35-.48c0-.21-.2-.35-.48-.55a2.4,2.4,0,0,0-1-.22,2.08,2.08,0,0,0-1.58.62,2,2,0,0,0-.55,1.58v.42ZM58.33,58a3,3,0,0,0,1.93,2.76,11,11,0,0,0,5.3,1,11,11,0,0,0,5.23-1,3,3,0,0,0,2-2.76,3,3,0,0,0-1.92-2.76,11.54,11.54,0,0,0-5.31-1,11.18,11.18,0,0,0-5.23,1,3.09,3.09,0,0,0-2,2.76m2.75-16.14a3.7,3.7,0,0,0,1.32,3,5.4,5.4,0,0,0,6.74,0,3.71,3.71,0,0,0,1.31-3,3.63,3.63,0,0,0-1.31-3,5.41,5.41,0,0,0-6.74,0,3.7,3.7,0,0,0-1.32,3M52.55,29.58a.26.26,0,0,0,.21-.07c0-.07.06-.13.06-.2V27.66a.53.53,0,0,1,.13-.35.51.51,0,0,1,.41-.14.59.59,0,0,1,.48.14.38.38,0,0,1,.22.35v1.86a.22.22,0,0,0,.19.07H56a1,1,0,0,1,.49.14c.13.07.13.21.13.42a.6.6,0,0,1-.13.41.76.76,0,0,1-.55.14H54.26c-.07,0-.14.07-.19.14v3.93a5.14,5.14,0,0,0,.19,1.86,1.24,1.24,0,0,0,.9.35,1.19,1.19,0,0,0,.9-.35,1.77,1.77,0,0,0,.28-1.1V34.7c0-.28,0-.48.14-.63a.41.41,0,0,1,.41-.21c.27,0,.48.07.55.28a2.43,2.43,0,0,1,.14.9A3.51,3.51,0,0,1,57,37.32a2.31,2.31,0,0,1-1.93.83,2.19,2.19,0,0,1-1.72-.63,3.3,3.3,0,0,1-.54-2.14V31.17c0-.21,0-.34-.07-.34a.15.15,0,0,0-.14-.14h-.69c-.2,0-.34,0-.41-.14s-.14-.21-.14-.41,0-.34.14-.42.27-.14.47-.14Zm-5.16,6.84a3.92,3.92,0,0,1-1.66,1.31,6,6,0,0,1-2.27.42,4.31,4.31,0,0,1-2.82-.83,3.24,3.24,0,0,1-.9-2.48,2.93,2.93,0,0,1,.83-2.21,5.77,5.77,0,0,1,2.82-1,.64.64,0,0,0,.35-.07c2.2-.28,3.24-.9,3.24-1.86a1.74,1.74,0,0,0-.63-1.38,2.53,2.53,0,0,0-1.72-.48,4.21,4.21,0,0,0-1.65.27c-.41.21-.69.49-.69.69s.14.2.28.42a.81.81,0,0,1,.28.62,1.16,1.16,0,0,1-.34.76,1.52,1.52,0,0,1-.84.28,1.24,1.24,0,0,1-1-.42,1.78,1.78,0,0,1-.34-1.11,2.34,2.34,0,0,1,1.24-2.07,5.58,5.58,0,0,1,3.24-.83,4.54,4.54,0,0,1,3,.89,4,4,0,0,1,.89,3v5.11a2.71,2.71,0,0,0,.14,1,.58.58,0,0,0,.56.27.66.66,0,0,0,.61-.27,1.51,1.51,0,0,0,.21-.9V34.34c0-.27,0-.55.14-.68a.52.52,0,0,1,.48-.22c.27,0,.41.07.48.22a1.06,1.06,0,0,1,.2.75v1.66A1.84,1.84,0,0,1,51,37.59a2.52,2.52,0,0,1-1.65.55,1.91,1.91,0,0,1-1.38-.42,1.74,1.74,0,0,1-.55-1.31m-.28-2.63V32.07a7.27,7.27,0,0,1-3,.83,5.71,5.71,0,0,0-2.2.69,1.83,1.83,0,0,0,0,2.62,2.64,2.64,0,0,0,1.51.48,4.13,4.13,0,0,0,2.69-.83,2.48,2.48,0,0,0,1-2.07M29.83,29.24a3.53,3.53,0,0,0-.2-1.58,1.06,1.06,0,0,0-.75-.21h-.57a.83.83,0,0,1-.48-.14.52.52,0,0,1-.14-.35,1,1,0,0,1,.14-.42,1.3,1.3,0,0,1,.56-.13h.28a1.66,1.66,0,0,0,.55.06,7,7,0,0,0,1.16-.06h.14a1,1,0,0,1,.47.13c.07.07.07.28.07.63v3.59a4.06,4.06,0,0,1,1.24-1,3.88,3.88,0,0,1,4.06.55A4.19,4.19,0,0,1,37.12,33v2.69a2.15,2.15,0,0,0,.14,1,.92.92,0,0,0,.69.21h.21a.32.32,0,0,0,.21-.07.76.76,0,0,1,.55.22c.13.06.13.2.13.41s0,.27-.13.35-.28.13-.49.13a4.33,4.33,0,0,1-.69-.07H35.34a5.38,5.38,0,0,1-.76.07.6.6,0,0,1-.42-.13.38.38,0,0,1-.2-.35.62.62,0,0,1,.2-.48.78.78,0,0,1,.49-.15,2.69,2.69,0,0,0,.34.07h.27a.44.44,0,0,0,.42-.21c.14-.07.14-.41.14-1V33.31a3.53,3.53,0,0,0-.49-2.2,2.08,2.08,0,0,0-1.73-.62,2.19,2.19,0,0,0-1.92.9,5.32,5.32,0,0,0-.62,2.9v1.45a2,2,0,0,0,.14,1c.07.14.21.21.48.21h.21a3.41,3.41,0,0,0,.35-.07,1,1,0,0,1,.55.15,1,1,0,0,1,.14.48.53.53,0,0,1-.14.35,1,1,0,0,1-.48.13,4.71,4.71,0,0,1-.69-.07H29.22a4.28,4.28,0,0,1-.69.07c-.28,0-.41,0-.56-.13a.56.56,0,0,1-.14-.35A.41.41,0,0,1,28,37a.53.53,0,0,1,.49-.22c.06,0,.14.07.27.07H29a1.6,1.6,0,0,0,.69-.13,3,3,0,0,0,.14-1Zm-7.57.34a.23.23,0,0,0,.2-.07c0-.07.08-.13.08-.2V27.66c0-.14,0-.28.14-.35s.28-.14.42-.14a.59.59,0,0,1,.48.14.58.58,0,0,1,.13.35v1.58c0,.14,0,.27.07.27s.07.07.21.07H25.7a.59.59,0,0,1,.41.14.41.41,0,0,1,.21.42.4.4,0,0,1-.21.41c-.13.14-.27.14-.55.14H24c-.07,0-.14.07-.21.14s-.07.2-.07.34v3.59A3.64,3.64,0,0,0,24,36.62a1.09,1.09,0,0,0,.9.35,1.14,1.14,0,0,0,.82-.35,1.39,1.39,0,0,0,.34-1.1V35.1A2.53,2.53,0,0,0,26,34.7a.87.87,0,0,1,.2-.63.44.44,0,0,1,.42-.21.56.56,0,0,1,.55.28,2.45,2.45,0,0,1,.13.9,3.52,3.52,0,0,1-.61,2.28,2.42,2.42,0,0,1-1.94.83A2.31,2.31,0,0,1,23,37.52a3.33,3.33,0,0,1-.49-2.14V31.17c0-.21,0-.34-.06-.34s-.14-.14-.2-.14h-.63a.61.61,0,0,1-.49-.14.63.63,0,0,1-.13-.41.43.43,0,0,1,.21-.42c.08-.14.21-.14.41-.14ZM133.52,13.23a4,4,0,0,1,1.3,1.31,4.25,4.25,0,0,1,.42,1.86,3.61,3.61,0,0,1-1.18,2.83,5.07,5.07,0,0,1-3.37,1,7.4,7.4,0,0,1-2.62-.55.67.67,0,0,0-.42-.14.72.72,0,0,0-.54.27,1.21,1.21,0,0,0-.21.7,1.07,1.07,0,0,0,.48,1,2.82,2.82,0,0,0,1.45.34h1c.48,0,.82-.07,1.1-.07a7.68,7.68,0,0,1,4.2,1,3.06,3.06,0,0,1,1.44,2.76A3.16,3.16,0,0,1,135,28.2a8,8,0,0,1-4.26,1,7.79,7.79,0,0,1-4.34-1,3,3,0,0,1-1-4.34,3.38,3.38,0,0,1,1.44-1.1,3.16,3.16,0,0,1-1.31-.9,2.12,2.12,0,0,1-.41-1.31,1.86,1.86,0,0,1,.48-1.37,2.46,2.46,0,0,1,1.38-.9,3.81,3.81,0,0,1-.43-.9,5.09,5.09,0,0,1-.12-1,3.38,3.38,0,0,1,1.23-2.75,4.68,4.68,0,0,1,3.25-1h.62c.21,0,.34.06.55.06v-.06a2.06,2.06,0,0,1,.76-1.59,3.07,3.07,0,0,1,1.93-.62,2.6,2.6,0,0,1,1.79.62,2.09,2.09,0,0,1,.75,1.59,1.26,1.26,0,0,1-.34.89,1.11,1.11,0,0,1-.83.35,1.21,1.21,0,0,1-.75-.2,1.29,1.29,0,0,1-.29-.69.8.8,0,0,1,.22-.48,1,1,0,0,1,.2-.27c0-.14-.13-.21-.27-.28a.79.79,0,0,0-.55-.13,1,1,0,0,0-.9.34,1.2,1.2,0,0,0-.35.9l.08.06Zm-6.83,12.15a1.75,1.75,0,0,0,1.1,1.59,6.65,6.65,0,0,0,3,.55,6,6,0,0,0,2.88-.62,1.67,1.67,0,0,0,1.1-1.52,1.72,1.72,0,0,0-1.1-1.51,5.59,5.59,0,0,0-2.88-.56,6.09,6.09,0,0,0-3,.56,1.85,1.85,0,0,0-1.1,1.51m1.59-9a2.05,2.05,0,0,0,.68,1.66,2.85,2.85,0,0,0,3.72,0,1.92,1.92,0,0,0,.76-1.66,2.08,2.08,0,0,0-.76-1.65,3.07,3.07,0,0,0-3.72,0,2.24,2.24,0,0,0-.68,1.65m-9.23,1.87a4.83,4.83,0,0,0-.75-3.18,2.73,2.73,0,0,0-2.41-1,3.13,3.13,0,0,0-2.83,1.31,8.16,8.16,0,0,0-.9,4.21v2.48a2,2,0,0,0,.21,1c.07.21.35.27.69.27a1.31,1.31,0,0,0,.35-.06h.48a.89.89,0,0,1,.68.21.67.67,0,0,1,.28.62.78.78,0,0,1-.21.55,1,1,0,0,1-.7.21,9.52,9.52,0,0,0-1-.14c-.62,0-1.24-.07-1.86-.07s-1,.07-1.58.07-1,.14-1,.14a1.13,1.13,0,0,1-.75-.21.68.68,0,0,1-.21-.55.92.92,0,0,1,.27-.62,1.15,1.15,0,0,1,.77-.21h.34a.81.81,0,0,0,.35.06c.41,0,.75-.06.89-.27s.28-.55.28-1.24V16c0-.7-.06-1.18-.28-1.38s-.48-.35-.89-.35h-.77a2,2,0,0,1-.75-.14.61.61,0,0,1-.21-.48.89.89,0,0,1,.27-.62,1.25,1.25,0,0,1,.77-.21h.41a2.05,2.05,0,0,0,.61.06,12.45,12.45,0,0,0,1.52-.06h.2c.35,0,.56.06.63.21s.2.34.2.76v1a5.86,5.86,0,0,1,1.8-1.66,4.82,4.82,0,0,1,2.27-.48,4.68,4.68,0,0,1,3.65,1.24,5.75,5.75,0,0,1,1.1,4v3.87c0,.83.07,1.31.28,1.45s.41.27.89.27a.66.66,0,0,0,.34-.06h.34a1.31,1.31,0,0,1,.75.21.84.84,0,0,1,.29.62.7.7,0,0,1-.29.55,1.11,1.11,0,0,1-.75.21c-.06,0-.4-.07-1-.14s-1.16-.07-1.64-.07-1.25.07-1.86.07-1,.14-1,.14a.85.85,0,0,1-.62-.21.81.81,0,0,1-.28-.55.84.84,0,0,1,.28-.62.88.88,0,0,1,.68-.21h.48a1.26,1.26,0,0,0,.4.06c.35,0,.56-.06.69-.27a5.33,5.33,0,0,0,.14-1.39ZM101.43,10.4a1.09,1.09,0,0,1,.42-.89,1.21,1.21,0,0,1,1-.42,1.09,1.09,0,0,1,.89.42,1,1,0,0,1,.34.89,1.22,1.22,0,0,1-.34,1,1.15,1.15,0,0,1-.89.34,1.19,1.19,0,0,1-1-.34,1.27,1.27,0,0,1-.42-1m.76,11.32v-4.9a6.58,6.58,0,0,0-.2-2.14,1.13,1.13,0,0,0-1-.42h-.9c-.27,0-.48,0-.61-.14a.81.81,0,0,1-.14-.54.61.61,0,0,1,.27-.55.75.75,0,0,1,.54-.21h.56a4.66,4.66,0,0,0,.9.06,11.17,11.17,0,0,0,1.44-.06h.21a1.44,1.44,0,0,1,.68.13c.14.14.14.42.14.9v7.87a2.26,2.26,0,0,0,.28,1.45c.14.21.41.27.9.27h.41a.44.44,0,0,1,.27-.06,1.22,1.22,0,0,1,.76.21.87.87,0,0,1,.28.62.56.56,0,0,1-.28.55,1,1,0,0,1-.7.21c-.13,0-.48-.07-1-.14s-1.1-.07-1.59-.07c-.89,0-1.78.07-2.68.13a2.28,2.28,0,0,0-.42.07,1.26,1.26,0,0,1-.75-.21.83.83,0,0,1,.06-1.17,1.08,1.08,0,0,1,.75-.21.82.82,0,0,1,.35.06H101c.48,0,.84-.06,1-.27a3.14,3.14,0,0,0,.2-1.45M89.45,23.93v.34a1.19,1.19,0,0,1-.21.76.66.66,0,0,1-.55.21.84.84,0,0,1-.62-.21,1.66,1.66,0,0,1-.14-.69A6.78,6.78,0,0,1,88,23.24c0-.41.07-.76.07-.9,0-.34-.07-.69-.07-1.1a4.86,4.86,0,0,1-.06-.76,1,1,0,0,1,.22-.63,1,1,0,0,1,.62-.27.73.73,0,0,1,.55.27,1.83,1.83,0,0,1,.14,1v.34a2,2,0,0,0,1,1.79,4.79,4.79,0,0,0,2.75.69,3.09,3.09,0,0,0,2.06-.55,1.84,1.84,0,0,0,.76-1.58,1.19,1.19,0,0,0-.27-.76,2.7,2.7,0,0,0-.62-.62,5.71,5.71,0,0,0-1.52-.35,10.67,10.67,0,0,1-1.86-.28,5.34,5.34,0,0,1-2.68-1.18,3.12,3.12,0,0,1-.83-2.28,3.11,3.11,0,0,1,1.24-2.62,5.06,5.06,0,0,1,3.24-1,4.89,4.89,0,0,1,1.78.28,4.74,4.74,0,0,1,1.45.83v-.35a.79.79,0,0,1,.13-.55.67.67,0,0,1,.48-.21.51.51,0,0,1,.42.21,1,1,0,0,1,.21.55v.21c-.07.76-.14,1.65-.14,2.62v.7a.83.83,0,0,1-.21.62.53.53,0,0,1-.48.2.66.66,0,0,1-.55-.2,1.92,1.92,0,0,1-.14-.76v-.27a2,2,0,0,0-.81-1.73A3.3,3.3,0,0,0,92.76,14a3,3,0,0,0-2,.55,1.66,1.66,0,0,0-.7,1.46,1.13,1.13,0,0,0,.14.68,1.34,1.34,0,0,0,.34.48,4.41,4.41,0,0,0,2.35.61c.56.07.89.14,1.17.14A5.61,5.61,0,0,1,97,19a2.73,2.73,0,0,1,.89,2.21,3.58,3.58,0,0,1-1.31,2.9,4.87,4.87,0,0,1-3.36,1.1A5.08,5.08,0,0,1,91,24.89a4,4,0,0,1-1.59-1M81.12,10.4a1.1,1.1,0,0,1,.42-.89,1.22,1.22,0,0,1,1-.42,1.21,1.21,0,0,1,.9.42,1,1,0,0,1,.35.89,1.2,1.2,0,0,1-.35,1,1.17,1.17,0,0,1-.9.34,1.2,1.2,0,0,1-1-.34,1.27,1.27,0,0,1-.42-1m.76,11.32v-4.9a6.73,6.73,0,0,0-.21-2.14,1.2,1.2,0,0,0-1-.42h-.91c-.27,0-.49,0-.61-.14a.82.82,0,0,1-.15-.54.78.78,0,0,1,.21-.55,1,1,0,0,1,.63-.21h.55a4.67,4.67,0,0,0,.89.06,11.25,11.25,0,0,0,1.44-.06h.21a1.46,1.46,0,0,1,.69.13,2,2,0,0,1,.15.9v7.87c0,.76.06,1.24.27,1.45s.4.27.89.27h.34a.82.82,0,0,1,.34-.06,1.21,1.21,0,0,1,.76.21.88.88,0,0,1,.27.62.72.72,0,0,1-.27.55.93.93,0,0,1-.69.21c-.13,0-.49-.07-1-.14s-1.1-.07-1.59-.07c-.89,0-1.78.07-2.68.13a2.54,2.54,0,0,0-.42.07,1.13,1.13,0,0,1-.75-.21.84.84,0,0,1,.06-1.17,1.13,1.13,0,0,1,.77-.21.8.8,0,0,1,.34.06h.34c.48,0,.82-.06,1-.27a3.21,3.21,0,0,0,.21-1.45m-11.29-8.9c.14,0,.2,0,.28-.07s.07-.13.07-.28V10.13a.7.7,0,0,1,.28-.55.77.77,0,0,1,.61-.22.82.82,0,0,1,.63.22.6.6,0,0,1,.27.55V12.4c0,.21,0,.27.07.35s.14.07.28.07h2.49a1,1,0,0,1,.69.21.89.89,0,0,1,.27.62.9.9,0,0,1-.27.62,1.51,1.51,0,0,1-.83.2H73.06a.36.36,0,0,0-.28.15c0,.14-.07.28-.07.55v5.17A6.55,6.55,0,0,0,73.06,23a1.44,1.44,0,0,0,1.31.63A1.51,1.51,0,0,0,75.61,23a2.36,2.36,0,0,0,.48-1.58v-.62A2.31,2.31,0,0,1,76,20.2a1.39,1.39,0,0,1,.22-.83.71.71,0,0,1,.61-.35.93.93,0,0,1,.83.41,3,3,0,0,1,.2,1.31,5.2,5.2,0,0,1-1,3.32,3.32,3.32,0,0,1-2.69,1.17,3,3,0,0,1-2.54-.89,4.65,4.65,0,0,1-.82-3.11V15.17c0-.28,0-.49-.07-.55a.34.34,0,0,0-.27-.15h-.9a.91.91,0,0,1-.69-.2,1.37,1.37,0,0,1-.13-.62A.86.86,0,0,1,69,13a.84.84,0,0,1,.63-.21Zm-8.67,8.9a2.72,2.72,0,0,0,.2,1.38.81.81,0,0,0,.76.34,1,1,0,0,0,.34-.06h.62a1.2,1.2,0,0,1,.83.21.7.7,0,0,1,.28.62.65.65,0,0,1-.28.55A1.09,1.09,0,0,1,64,25c-.07,0-.48-.07-1.17-.14s-1.44-.07-2.07-.07-1.09.07-1.71.07-.9.14-1,.14a1,1,0,0,1-.69-.21.69.69,0,0,1-.21-.55.67.67,0,0,1,.28-.62.89.89,0,0,1,.69-.21h.34a.79.79,0,0,0,.34.06c.48,0,.83-.06,1-.27A3.14,3.14,0,0,0,60,21.72V16.61a4,4,0,0,0-.28-2,1,1,0,0,0-.9-.35h-.76a1.47,1.47,0,0,1-.69-.14.62.62,0,0,1-.21-.48.66.66,0,0,1,.28-.62.88.88,0,0,1,.69-.21h.41a2,2,0,0,0,.61.06,11.85,11.85,0,0,0,1.52-.06h.2c.35,0,.56.06.62.21a1.12,1.12,0,0,1,.21.76l-.08.68A5.74,5.74,0,0,1,62.95,13a4.41,4.41,0,0,1,1.92-.48,3.4,3.4,0,0,1,2.49,1,3.36,3.36,0,0,1,1,2.42,2.4,2.4,0,0,1-.48,1.65,1.77,1.77,0,0,1-1.44.62,1.29,1.29,0,0,1-1-.35,1,1,0,0,1-.35-.9,1.45,1.45,0,0,1,.13-.54,1.31,1.31,0,0,1,.56-.34c.07,0,.14-.08.2-.08a.52.52,0,0,0,.48-.55,1.42,1.42,0,0,0-.54-1,2.35,2.35,0,0,0-1.32-.48,2.25,2.25,0,0,0-2.06,1.24,10.92,10.92,0,0,0-.61,4.41ZM47.11,17.43h6.81V17.3A3.08,3.08,0,0,0,53,15a3.2,3.2,0,0,0-2.4-1,3.16,3.16,0,0,0-2.34,1,3.7,3.7,0,0,0-1.1,2.48M47,19v.07a5.05,5.05,0,0,0,1,3.32,3.11,3.11,0,0,0,2.61,1.24,3.39,3.39,0,0,0,1.73-.41,2.88,2.88,0,0,0,1.23-1.17,3.48,3.48,0,0,0,.49-1c.26-.69.53-1,1-1a.79.79,0,0,1,.55.2.87.87,0,0,1,.27.62,3.87,3.87,0,0,1-.27,1.11,9.86,9.86,0,0,1-.82,1.31A4.39,4.39,0,0,1,53,24.76a5.51,5.51,0,0,1-2.48.48,5.05,5.05,0,0,1-4.07-1.73A7.24,7.24,0,0,1,45,18.82a7.26,7.26,0,0,1,1.51-4.7,5.36,5.36,0,0,1,9.44,3.72,1.68,1.68,0,0,1-.21,1,1.62,1.62,0,0,1-1,.21H47Zm-8.06,5.11a1.73,1.73,0,0,1-.55.75,2,2,0,0,1-1,.21,1.4,1.4,0,0,1-.82-.21,1.28,1.28,0,0,1-.55-.75l-3.92-9.87a.24.24,0,0,0-.08-.21c-.34-.89-.82-1.31-1.37-1.31h-.41a1.83,1.83,0,0,1-.62.07,1.8,1.8,0,0,1-.9-.21.71.71,0,0,1-.27-.62.72.72,0,0,1,.35-.7,1.54,1.54,0,0,1,.89-.27c.21,0,.69.06,1.44.14a11.93,11.93,0,0,0,2.06.14,6.44,6.44,0,0,0,1.59-.14l1-.14a1,1,0,0,1,1,.9,1,1,0,0,1-.28.69,1,1,0,0,1-.68.21,1.31,1.31,0,0,1-.49-.07h-.54a.64.64,0,0,0-.42.21.59.59,0,0,0-.14.49v.21c0,.07.07.14.07.28l3.17,8.83,3.23-8.83c0-.14.07-.21.07-.28v-.21a1,1,0,0,0-.14-.49.6.6,0,0,0-.41-.21H39.6a1.25,1.25,0,0,1-.48.07,1.08,1.08,0,0,1-.69-.21,1.1,1.1,0,0,1-.2-.69.88.88,0,0,1,.2-.62.9.9,0,0,1,.69-.27l1,.14a6.42,6.42,0,0,0,1.58.14,11.88,11.88,0,0,0,2.07-.14C44.5,11.09,45,11,45.18,11a2,2,0,0,1,1,.27.86.86,0,0,1,.34.7.75.75,0,0,1-.34.62,1.61,1.61,0,0,1-.9.21,1.79,1.79,0,0,1-.62-.07h-.34c-.62,0-1.17.48-1.51,1.45v.07ZM25.7,12.33v-.55a3.49,3.49,0,0,0-.27-1.66,1.63,1.63,0,0,0-1.18-.35H23.5a1.5,1.5,0,0,1-.69-.14.84.84,0,0,1-.27-.55.74.74,0,0,1,.27-.56,1.28,1.28,0,0,1,.76-.2H24c.27,0,.48.07.75.07.55,0,1.1-.07,1.73-.07h.21c.34,0,.55,0,.69.14a1.27,1.27,0,0,1,.2.83V21.78a3,3,0,0,0,.2,1.46,1.53,1.53,0,0,0,1,.2h.63a1.1,1.1,0,0,1,.76.21.68.68,0,0,1,.27.62.79.79,0,0,1-.21.55,2.34,2.34,0,0,1-.76.14,3.76,3.76,0,0,1-.75-.07c-.36,0-.7-.06-.9-.06s-.41.06-.76.06a3.63,3.63,0,0,1-.83.07.62.62,0,0,1-.41-.14c-.13-.13-.13-.35-.13-.76v-.28a4.41,4.41,0,0,1-1.59,1,4.88,4.88,0,0,1-2,.34,5.37,5.37,0,0,1-4.13-1.66A6.29,6.29,0,0,1,16.4,19a7.32,7.32,0,0,1,1.45-4.83,4.85,4.85,0,0,1,4-1.79,4.55,4.55,0,0,1,2.21.48,4,4,0,0,1,1.66,1.45Zm0,7.39V18.2a4.42,4.42,0,0,0-1-3,3,3,0,0,0-2.53-1.11,3.37,3.37,0,0,0-2.76,1.24,5.6,5.6,0,0,0-1,3.52,5.31,5.31,0,0,0,1,3.52,3.54,3.54,0,0,0,2.9,1.25,3.17,3.17,0,0,0,2.54-.9,4.34,4.34,0,0,0,.82-3M10.83,23.38A5.07,5.07,0,0,1,9,24.76a6,6,0,0,1-2.55.48,4.6,4.6,0,0,1-3-1,3.42,3.42,0,0,1-1-2.63,3,3,0,0,1,1-2.41,6,6,0,0,1,3.09-1.18A.78.78,0,0,0,6.84,18c2.4-.35,3.58-1,3.58-2a1.72,1.72,0,0,0-.68-1.53,2.8,2.8,0,0,0-1.92-.54A4.77,4.77,0,0,0,6,14.26c-.49.2-.77.49-.77.69s.15.21.28.42a1.28,1.28,0,0,1,.35.69,1,1,0,0,1-.41.83,1.15,1.15,0,0,1-.83.35,1.29,1.29,0,0,1-1.1-.48,1.61,1.61,0,0,1-.34-1.18A2.51,2.51,0,0,1,4.5,13.3,6.57,6.57,0,0,1,8,12.4a4.38,4.38,0,0,1,3.3,1,4.23,4.23,0,0,1,1,3.24v5.59a2.27,2.27,0,0,0,.14,1.11.89.89,0,0,0,.63.27.75.75,0,0,0,.61-.35,1.68,1.68,0,0,0,.21-1V21.1a1.08,1.08,0,0,1,.2-.76c.07-.14.27-.2.55-.2a.81.81,0,0,1,.55.2,2,2,0,0,1,.14.83V23a2,2,0,0,1-.69,1.66,2.47,2.47,0,0,1-1.79.62,2.11,2.11,0,0,1-1.52-.48,1.94,1.94,0,0,1-.55-1.38m-.28-2.9V18.61a8.75,8.75,0,0,1-3.3.9,5.94,5.94,0,0,0-2.43.75,1.71,1.71,0,0,0-.61,1.45,1.59,1.59,0,0,0,.69,1.38,2.54,2.54,0,0,0,1.65.55,4.85,4.85,0,0,0,2.89-.89,2.82,2.82,0,0,0,1.1-2.28"/></g></svg>