<svg id="Layer_1" data-name="Layer 1" xmlns="http://www.w3.org/2000/svg" xmlns:xlink="http://www.w3.org/1999/xlink" viewBox="0 0 482.62 175"><defs><style>.cls-1{fill:none;}.cls-2{font-size:68.63px;font-family:AmerTypewriterITCbyBT-Bold, AmerType Md BT;font-weight:700;}.cls-2,.cls-4{fill:#231f20;}.cls-3{clip-path:url(#clip-path);}</style><clipPath id="clip-path"><rect class="cls-1" x="4" y="5.2" width="475.04" height="165.8"/></clipPath></defs><title>Events</title><text class="cls-2" transform="translate(406.72 114.61)"> </text><g class="cls-3"><path class="cls-4" d="M468.84,167.58a10.2,10.2,0,1,0-10.2-10.2,10.2,10.2,0,0,0,10.2,10.2"/><path class="cls-4" d="M412.4,170a18.72,18.72,0,0,0,6.42,1q7.14,0,11.13-3.13a10.51,10.51,0,0,0,4-8.76q0-4.42-2.24-6.72t-8.08-3.5l-3.75-.7q-6.53-1.14-6.54-3.49a2.43,2.43,0,0,1,1.16-2.08,5.23,5.23,0,0,1,3-.81,6.94,6.94,0,0,1,3,.57,8.16,8.16,0,0,1,2.4,2q.34.4.91,1.14a5.07,5.07,0,0,0,4.1,2.31,3.05,3.05,0,0,0,3.4-3.39q0-.6-.17-2a20.81,20.81,0,0,1-.17-2.28,9.32,9.32,0,0,1,.17-1.61,9.44,9.44,0,0,0,.17-1.21,2.76,2.76,0,0,0-.69-2.11,3.59,3.59,0,0,0-2.42-.64,4.66,4.66,0,0,0-2.83.67,2.55,2.55,0,0,0-.86,2.15v.2a7.69,7.69,0,0,0-3.6-2.26,17.42,17.42,0,0,0-5.58-.82q-6.23,0-9.92,2.92a9.37,9.37,0,0,0-3.69,7.74,8.83,8.83,0,0,0,2.6,6.7q2.6,2.48,8.39,3.72,1.61.5,4.26,1.14,5.36,1.24,5.36,3.52a2.39,2.39,0,0,1-1.44,2.18,8.72,8.72,0,0,1-4.05.77,9.32,9.32,0,0,1-4.14-.92,6.41,6.41,0,0,1-2.8-2.43,5.46,5.46,0,0,1-.51-1.21,3.9,3.9,0,0,0-3.95-2.92,5,5,0,0,0-3.2.85,3.1,3.1,0,0,0-1.05,2.56q0,.67.17,2.33t.17,2.63a13.6,13.6,0,0,1-.17,2,13.81,13.81,0,0,0-.17,1.39,3.39,3.39,0,0,0,.82,2.51,3.59,3.59,0,0,0,2.59.8,4.07,4.07,0,0,0,2.76-.84,4.2,4.2,0,0,0,1.23-2.61A7.11,7.11,0,0,0,412.4,170M369,152.82q0-4.53,1.34-6.56a5.52,5.52,0,0,1,8-.62,5.76,5.76,0,0,1,1.31,4v10.76a2.76,2.76,0,0,1-.22,1.36,1.54,1.54,0,0,1-1,.5,3.12,3.12,0,0,0-2.21,1.11,5.42,5.42,0,0,0-.43,2.52,4.87,4.87,0,0,0,.94,3.29,3.65,3.65,0,0,0,2.88,1.06q.57,0,3.47-.27t5.24-.27a29.22,29.22,0,0,1,3.79.27q2,.27,2.41.27a3.32,3.32,0,0,0,2.73-1.17,5.17,5.17,0,0,0,1-3.34,4.74,4.74,0,0,0-.8-2.86,2.47,2.47,0,0,0-2.08-1.1,6.13,6.13,0,0,0-1.59.27,6,6,0,0,1-1.29.27,2.25,2.25,0,0,1-1.61-.4,3.14,3.14,0,0,1-.37-1.9V148.92a32.2,32.2,0,0,0-.49-6.57,8.57,8.57,0,0,0-1.66-3.56,10.09,10.09,0,0,0-4.05-3.08,14.51,14.51,0,0,0-5.7-1,14,14,0,0,0-7.1,1.73,12.31,12.31,0,0,0-4.76,5.14v-3.28a6.44,6.44,0,0,0-.39-2.67,1.43,1.43,0,0,0-1.39-.75,15,15,0,0,0-2.08.27,15.51,15.51,0,0,1-2.58.27,30.66,30.66,0,0,1-3.92-.27q-2.08-.27-2.35-.27a3.25,3.25,0,0,0-2.71,1.25,5.69,5.69,0,0,0-1,3.57,4.58,4.58,0,0,0,.82,2.88,2.71,2.71,0,0,0,2.26,1.05,6.55,6.55,0,0,0,1.58-.27,6.51,6.51,0,0,1,1.44-.27,1.94,1.94,0,0,1,1.32.32,2.43,2.43,0,0,1,.32,1.56v15.19a3.37,3.37,0,0,1-.32,1.83,1.55,1.55,0,0,1-1.26.4,6.53,6.53,0,0,1-1.37-.27,6.71,6.71,0,0,0-1.64-.27,2.75,2.75,0,0,0-2.28,1.12,4.73,4.73,0,0,0-.87,3,4.89,4.89,0,0,0,.94,3.34,3.94,3.94,0,0,0,3,1q.67,0,2.8-.27a29.36,29.36,0,0,1,3.57-.27q1.21,0,4,.27t4.34.27a5.2,5.2,0,0,0,3.57-1,4.15,4.15,0,0,0,1.16-3.24,3.33,3.33,0,0,0-3.05-3.63l-.43-.07a1.42,1.42,0,0,1-1-.6,3.93,3.93,0,0,1-.23-1.66ZM316,166q4.86,5,13.07,5,8.44,0,13.32-4.91t4.88-13.35q0-8.38-4.89-13.32t-13.24-4.94q-8.28,0-13.14,5t-4.86,13.3q0,8.31,4.86,13.29m7.81-20.69a6.29,6.29,0,0,1,5.39-2.55,6.18,6.18,0,0,1,5.3,2.63,12.27,12.27,0,0,1,1.91,7.32q0,4.79-1.86,7.37a6.18,6.18,0,0,1-5.35,2.58,6.27,6.27,0,0,1-5.38-2.58q-1.89-2.58-1.89-7.37t1.88-7.41M288.49,160.2a2.82,2.82,0,0,1-.37,1.72,1.8,1.8,0,0,1-1.41.44,8.75,8.75,0,0,1-1.61-.27,9,9,0,0,0-1.91-.27,3.45,3.45,0,0,0-2.7,1.09,4.27,4.27,0,0,0-1,3,4.47,4.47,0,0,0,1.11,3.33A4.74,4.74,0,0,0,284,170.3q.27,0,3.32-.27t5.87-.27q5,0,9.89.46l1.11.08a4.74,4.74,0,0,0,3.42-1.08,4.47,4.47,0,0,0,1.11-3.33,4.24,4.24,0,0,0-1-3,3.44,3.44,0,0,0-2.68-1.11,8.65,8.65,0,0,0-1.91.27,8.34,8.34,0,0,1-1.54.27,2.13,2.13,0,0,1-1.48-.37,2.36,2.36,0,0,1-.37-1.58v-22a5,5,0,0,0-.5-2.57,1.8,1.8,0,0,0-1.64-.78,7.82,7.82,0,0,0-1.42.27,7.79,7.79,0,0,1-1.79.27q-3.15,0-6.62-.27T284,135a4.47,4.47,0,0,0-3.27,1.23,4.42,4.42,0,0,0-1.26,3.31,3.92,3.92,0,0,0,1,2.82,3.45,3.45,0,0,0,2.61,1.05,8.51,8.51,0,0,0,1.59-.27,8.72,8.72,0,0,1,1.86-.27,2,2,0,0,1,1.51.43,2.83,2.83,0,0,1,.4,1.82Zm.6-28.14a6.62,6.62,0,0,0,9.21,0,6,6,0,0,0,1.91-4.47,6.08,6.08,0,0,0-1.89-4.51,6.33,6.33,0,0,0-4.61-1.86,6.45,6.45,0,0,0-4.66,1.81,6,6,0,0,0-1.88,4.49,6.11,6.11,0,0,0,1.91,4.52m-35.82,24.16a38.61,38.61,0,0,0,.5,7.56,9.07,9.07,0,0,0,1.71,3.7,8.64,8.64,0,0,0,3.49,2.65,12.59,12.59,0,0,0,4.89.87q6.06,0,9.2-3t3.13-8.88a10.25,10.25,0,0,0-1-5.16,3.37,3.37,0,0,0-3.08-1.74,3.63,3.63,0,0,0-2.73.87,4.37,4.37,0,0,0-.82,3q0,.57,0,1.44c0,.58,0,1,0,1.17a4.72,4.72,0,0,1-.62,2.73,2.3,2.3,0,0,1-2,.85,2.05,2.05,0,0,1-1.84-.75,6.1,6.1,0,0,1-.5-3V144.83a1.4,1.4,0,0,1,.44-1.16,2.45,2.45,0,0,1,1.51-.35h4.26q3.82,0,4.76-.87t.94-3.32a3.81,3.81,0,0,0-.8-2.75,4.34,4.34,0,0,0-3.05-.8h-6.6a1.49,1.49,0,0,1-1.12-.47,1.62,1.62,0,0,1-.45-1.17V129q0-2.61-.85-3.25a6,6,0,0,0-3.34-.64,7.85,7.85,0,0,0-4.37,1,3.35,3.35,0,0,0-1.46,3v5a3.69,3.69,0,0,1-.17,1.29c-.11.28-.28.42-.5.42L249,136q-2.41.17-3,1.09a6.09,6.09,0,0,0-.6,3.17,4,4,0,0,0,.64,2.55,2.69,2.69,0,0,0,2.18.77h3.69a1.14,1.14,0,0,1,1.06.52,3.47,3.47,0,0,1,.32,1.73v10.42Zm-20,13.74a8.67,8.67,0,0,0,4.41,1,7.68,7.68,0,0,0,4.83-1.36,4.48,4.48,0,0,0,1.74-3.74,3.75,3.75,0,0,0-.69-2.38,2.57,2.57,0,0,0-1.89-1,6,6,0,0,0-.7,0q-2.61-.13-2.61-1.81V146.77a19.8,19.8,0,0,0-.67-6.13,7.17,7.17,0,0,0-2.28-3.15,12.76,12.76,0,0,0-4.94-2.28,31,31,0,0,0-7.29-.74q-7.17,0-10.93,2a6.44,6.44,0,0,0-3.75,5.93,4.82,4.82,0,0,0,1.66,3.8,6.39,6.39,0,0,0,4.37,1.46,8.11,8.11,0,0,0,4.21-1,2.83,2.83,0,0,0,1.69-2.35q0-.2-.07-.85t-.07-1.06a1.44,1.44,0,0,1,.74-1.36,5.05,5.05,0,0,1,2.38-.42,4.32,4.32,0,0,1,3.07,1.11,3.71,3.71,0,0,1,1.19,2.85q0,3.25-8.41,4.56l-1.37.2q-7,1.07-9.69,3.52t-2.65,7.37a9.85,9.85,0,0,0,3.35,7.77,13.06,13.06,0,0,0,8.95,2.95,23.51,23.51,0,0,0,7.27-1,15.56,15.56,0,0,0,5.43-3.15,6.65,6.65,0,0,0,2.73,3.08m-5.85-13a6.75,6.75,0,0,1-1.57,4.88,6.29,6.29,0,0,1-4.72,1.63,4.32,4.32,0,0,1-3-1.06,3.57,3.57,0,0,1-1.16-2.77q0-2.81,4.22-3.53a23.18,23.18,0,0,0,6.27-1.76Zm-29.62-11.48a5,5,0,0,1,1-2.07,2.09,2.09,0,0,1,1.56-.59,2.42,2.42,0,0,1,.85.27,2.43,2.43,0,0,0,1,.27,3.13,3.13,0,0,0,2.46-1.08,4.12,4.12,0,0,0,1-2.83,4.85,4.85,0,0,0-1-3.26,3.47,3.47,0,0,0-2.78-1.17l-3.07.27q-3,.27-5.92.27a25.55,25.55,0,0,1-3.5-.27Q187.38,135,187,135a3.07,3.07,0,0,0-2.38,1.09,4,4,0,0,0-1,2.73,5,5,0,0,0,.6,2.64,3.14,3.14,0,0,0,1.88,1.35,2.1,2.1,0,0,1,1.29.53,1.48,1.48,0,0,1,.49,1.11,2.76,2.76,0,0,1,0,.36,1.69,1.69,0,0,1-.05.22l-3.38,9.91q-.2.6-.79,2.87t-1.05,3.93q-.5-1.72-1.06-4t-.72-2.78L177.43,145a.6.6,0,0,1-.05-.17,2.89,2.89,0,0,1,0-.38,1.43,1.43,0,0,1,.43-1.06,1.89,1.89,0,0,1,1.21-.5,3,3,0,0,0,1.94-1.31,5,5,0,0,0,.67-2.73,4,4,0,0,0-1-2.8,3.23,3.23,0,0,0-2.51-1.07q-.33,0-2.26.27a25.57,25.57,0,0,1-3.5.27q-2.91,0-5.88-.27l-3-.27a3.47,3.47,0,0,0-2.78,1.17,4.84,4.84,0,0,0-1,3.26,4.16,4.16,0,0,0,.94,2.83,3.12,3.12,0,0,0,2.48,1.08,2.45,2.45,0,0,0,1-.27,2.41,2.41,0,0,1,.85-.27,2.08,2.08,0,0,1,1.49.56,5.21,5.21,0,0,1,1.09,2.1l7.77,22.11a5.56,5.56,0,0,0,1.73,2.71,5,5,0,0,0,2.93.74h5.5a4.82,4.82,0,0,0,2.88-.74,5.63,5.63,0,0,0,1.71-2.71ZM140.66,160.2a2.81,2.81,0,0,1-.37,1.72,1.79,1.79,0,0,1-1.41.44,8.75,8.75,0,0,1-1.61-.27,9,9,0,0,0-1.91-.27,3.45,3.45,0,0,0-2.7,1.09,4.27,4.27,0,0,0-1,3,4.47,4.47,0,0,0,1.1,3.33,4.74,4.74,0,0,0,3.42,1.08q.27,0,3.32-.27t5.87-.27q5,0,9.89.46l1.11.08a4.74,4.74,0,0,0,3.42-1.08,4.47,4.47,0,0,0,1.11-3.33,4.24,4.24,0,0,0-1-3,3.44,3.44,0,0,0-2.68-1.11,8.65,8.65,0,0,0-1.91.27,8.34,8.34,0,0,1-1.54.27,2.12,2.12,0,0,1-1.47-.37,2.35,2.35,0,0,1-.37-1.58v-22a4.94,4.94,0,0,0-.5-2.57,1.8,1.8,0,0,0-1.64-.78,7.83,7.83,0,0,0-1.42.27,7.8,7.8,0,0,1-1.79.27q-3.15,0-6.62-.27t-3.74-.27a4.47,4.47,0,0,0-3.27,1.23,4.42,4.42,0,0,0-1.26,3.31,3.92,3.92,0,0,0,1,2.82,3.45,3.45,0,0,0,2.61,1.05,8.51,8.51,0,0,0,1.59-.27,8.7,8.7,0,0,1,1.86-.27,2,2,0,0,1,1.51.43,2.83,2.83,0,0,1,.4,1.82Zm.6-28.14a6.62,6.62,0,0,0,9.22,0,6,6,0,0,0,1.91-4.47,6.08,6.08,0,0,0-1.89-4.51,6.33,6.33,0,0,0-4.61-1.86,6.45,6.45,0,0,0-4.66,1.81,6,6,0,0,0-1.88,4.49,6.11,6.11,0,0,0,1.91,4.52m-35.83,24.16a38.69,38.69,0,0,0,.5,7.56,9.08,9.08,0,0,0,1.71,3.7,8.65,8.65,0,0,0,3.49,2.65A12.59,12.59,0,0,0,116,171q6.07,0,9.2-3t3.13-8.88a10.26,10.26,0,0,0-1-5.16,3.37,3.37,0,0,0-3.08-1.74,3.63,3.63,0,0,0-2.73.87,4.37,4.37,0,0,0-.82,3q0,.57,0,1.44c0,.58,0,1,0,1.17a4.72,4.72,0,0,1-.62,2.73,2.3,2.3,0,0,1-2,.85,2.06,2.06,0,0,1-1.84-.75,6.11,6.11,0,0,1-.5-3V144.83a1.4,1.4,0,0,1,.43-1.16,2.45,2.45,0,0,1,1.51-.35H122q3.82,0,4.76-.87t.94-3.32a3.81,3.81,0,0,0-.81-2.75,4.34,4.34,0,0,0-3-.8h-6.6a1.5,1.5,0,0,1-1.12-.47,1.63,1.63,0,0,1-.45-1.17V129q0-2.61-.85-3.25a6,6,0,0,0-3.33-.64,7.86,7.86,0,0,0-4.37,1,3.35,3.35,0,0,0-1.46,3v5a3.71,3.71,0,0,1-.17,1.29c-.11.28-.28.42-.5.42l-3.79.2q-2.41.17-3,1.09a6.09,6.09,0,0,0-.6,3.17,4,4,0,0,0,.64,2.55,2.68,2.68,0,0,0,2.18.77h3.69a1.14,1.14,0,0,1,1.06.52,3.47,3.47,0,0,1,.32,1.73v10.42ZM68.91,166a16.5,16.5,0,0,0,12.53,5,17.85,17.85,0,0,0,10.69-3,9,9,0,0,0,4.19-7.57,5,5,0,0,0-1.41-3.7,5,5,0,0,0-3.69-1.42,4.24,4.24,0,0,0-2.73.82,7.2,7.2,0,0,0-1.86,3.23,4.8,4.8,0,0,1-4.79,3.42,5.86,5.86,0,0,1-5.06-2.7,12.62,12.62,0,0,1-1.88-7.32q0-4.86,1.88-7.41a6.29,6.29,0,0,1,5.39-2.55,6,6,0,0,1,2.13.32q.82.32.82.79a4.57,4.57,0,0,1-.27,1.24,4.62,4.62,0,0,0-.27,1.31,3.34,3.34,0,0,0,1.56,2.86,7.08,7.08,0,0,0,4.14,1.09,5.58,5.58,0,0,0,4.14-1.64,5.71,5.71,0,0,0,1.63-4.19,8.7,8.7,0,0,0-3.8-7.37q-3.8-2.78-10.2-2.78-8.18,0-13.05,5t-4.88,13.34q0,8.18,4.79,13.22m-54.32-8.81a12.85,12.85,0,0,1-1.49,3.39,1.81,1.81,0,0,1-1.46.71A10.13,10.13,0,0,1,9.56,161a10.06,10.06,0,0,0-1.64-.27A3.6,3.6,0,0,0,5.11,162,4.65,4.65,0,0,0,4,165.16,5.13,5.13,0,0,0,5.34,169a5.17,5.17,0,0,0,3.82,1.34q.64,0,3.62-.27t5.36-.27q2.45,0,5.26.19t3.18.19a7.64,7.64,0,0,0,4.86-1.3,4.74,4.74,0,0,0,1.61-3.93,4.56,4.56,0,0,0-1-3.06,3.26,3.26,0,0,0-2.61-1.14,1.35,1.35,0,0,0-1,.49l-.07,0A2.16,2.16,0,0,1,27,160.8a1.54,1.54,0,0,1-.54-1.25,2.94,2.94,0,0,1,0-.5c0-.13.06-.27.1-.43l1.31-3.67q1-.09,2.51-.18,2.75-.22,3.58-.22,1.84,0,6.17.31l.84.09.9,3.7a4,4,0,0,1,.1.47,3.48,3.48,0,0,1,0,.5,1.47,1.47,0,0,1-.54,1.18,2.22,2.22,0,0,1-1.47.45l-.07-.09a1.3,1.3,0,0,0-.94-.45,3.34,3.34,0,0,0-2.66,1.14,4.51,4.51,0,0,0-1,3.06A4.71,4.71,0,0,0,37,168.82a7.72,7.72,0,0,0,4.89,1.31q.37,0,3.15-.19t5.23-.19q2.38,0,5.38.27t3.6.27a5.18,5.18,0,0,0,3.8-1.34,5.09,5.09,0,0,0,1.36-3.79A4.6,4.6,0,0,0,63.3,162a3.62,3.62,0,0,0-2.8-1.24,9.82,9.82,0,0,0-1.71.27,10,10,0,0,1-2,.27,1.88,1.88,0,0,1-1.51-.73,11.81,11.81,0,0,1-1.44-3.38L44.08,127.9q-1.07-3.18-2.5-4.07t-7.39-.89q-5.9,0-7.37,1t-2.51,4Zm15.65-10.51,4-13.67,4,13.67Z"/><path class="cls-4" d="M368.88,101.47a6,6,0,0,1-4.79,2,5.83,5.83,0,0,1-5.09-2.55q-1.78-2.55-1.78-7.27,0-5,1.73-7.52a5.91,5.91,0,0,1,5.21-2.5A6.1,6.1,0,0,1,369,85.42a7.87,7.87,0,0,1,1.63,5.38V96a8.08,8.08,0,0,1-1.71,5.49m-2.81-25.21a13.6,13.6,0,0,0-15.29,3.89q-3.92,4.81-3.92,12.79,0,8.75,3.87,13.71a14,14,0,0,0,16.1,3.87,15.27,15.27,0,0,0,4.66-3.5v2.38a1.38,1.38,0,0,0,.45,1.16,2.4,2.4,0,0,0,1.46.35,18.07,18.07,0,0,0,2.26-.27,18.76,18.76,0,0,1,2.83-.27,30.16,30.16,0,0,1,3.82.27q2.08.27,2.41.27a3.73,3.73,0,0,0,3-1.24,5.16,5.16,0,0,0,1.07-3.48,4.32,4.32,0,0,0-.87-2.84,3,3,0,0,0-2.41-1.05,7.59,7.59,0,0,0-1.69.27,7.53,7.53,0,0,1-1.56.27,2,2,0,0,1-1.41-.38,2.66,2.66,0,0,1-.37-1.72V67.27a4.88,4.88,0,0,0-.42-2.45,1.74,1.74,0,0,0-1.56-.63,16.32,16.32,0,0,0-2.21.27,16.48,16.48,0,0,1-2.61.27q-1.57,0-4.24-.27t-3.7-.27a5.94,5.94,0,0,0-3.9,1,4.29,4.29,0,0,0-1.19,3.4,4,4,0,0,0,1,3,4,4,0,0,0,2.93,1,10.82,10.82,0,0,0,2-.27,10.65,10.65,0,0,1,1.9-.27,1.9,1.9,0,0,1,1.42.38,3.22,3.22,0,0,1,.33,1.84v4.85a13.17,13.17,0,0,0-4.18-2.87M314.73,93.43q0-4.53,1.34-6.56a5.52,5.52,0,0,1,8-.62,5.75,5.75,0,0,1,1.31,4v10.76a2.77,2.77,0,0,1-.22,1.36,1.54,1.54,0,0,1-1,.5A3.12,3.12,0,0,0,322,104a5.4,5.4,0,0,0-.44,2.52,4.88,4.88,0,0,0,.94,3.29,3.65,3.65,0,0,0,2.88,1.06q.57,0,3.47-.27t5.24-.27a29.37,29.37,0,0,1,3.79.27q2,.27,2.41.27a3.32,3.32,0,0,0,2.73-1.17,5.18,5.18,0,0,0,1-3.34,4.73,4.73,0,0,0-.8-2.86,2.47,2.47,0,0,0-2.08-1.1,6.1,6.1,0,0,0-1.59.27,6,6,0,0,1-1.29.27,2.26,2.26,0,0,1-1.61-.4,3.14,3.14,0,0,1-.37-1.9V89.53a32.19,32.19,0,0,0-.49-6.57,8.58,8.58,0,0,0-1.66-3.56A10.09,10.09,0,0,0,330,76.32a14.52,14.52,0,0,0-5.7-1,13.94,13.94,0,0,0-7.1,1.73,12.31,12.31,0,0,0-4.76,5.14V78.87a6.44,6.44,0,0,0-.39-2.67,1.43,1.43,0,0,0-1.39-.75,15,15,0,0,0-2.08.27A15.51,15.51,0,0,1,306,76a30.66,30.66,0,0,1-3.92-.27q-2.08-.27-2.35-.27A3.24,3.24,0,0,0,297,76.7a5.68,5.68,0,0,0-1,3.57,4.57,4.57,0,0,0,.82,2.88,2.71,2.71,0,0,0,2.26,1.05,6.54,6.54,0,0,0,1.58-.27,6.45,6.45,0,0,1,1.44-.27,2,2,0,0,1,1.32.32,2.43,2.43,0,0,1,.32,1.55v15.2a3.37,3.37,0,0,1-.32,1.83,1.55,1.55,0,0,1-1.26.4,6.53,6.53,0,0,1-1.37-.27,6.66,6.66,0,0,0-1.64-.27,2.75,2.75,0,0,0-2.28,1.12,4.72,4.72,0,0,0-.87,3,4.9,4.9,0,0,0,.94,3.34,4,4,0,0,0,3,1q.67,0,2.8-.27a29.54,29.54,0,0,1,3.57-.27q1.21,0,4,.27t4.34.27a5.2,5.2,0,0,0,3.57-1,4.15,4.15,0,0,0,1.16-3.24,3.33,3.33,0,0,0-3-3.63l-.44-.07a1.42,1.42,0,0,1-1-.6,3.91,3.91,0,0,1-.23-1.66Zm-32.26,17.14a8.65,8.65,0,0,0,4.41,1,7.67,7.67,0,0,0,4.83-1.36,4.47,4.47,0,0,0,1.74-3.74,3.75,3.75,0,0,0-.69-2.38,2.57,2.57,0,0,0-1.89-1,6,6,0,0,0-.7,0q-2.61-.13-2.61-1.81V87.38a19.79,19.79,0,0,0-.67-6.13,7.17,7.17,0,0,0-2.28-3.15,12.76,12.76,0,0,0-4.94-2.28,31,31,0,0,0-7.29-.74q-7.17,0-10.92,2a6.44,6.44,0,0,0-3.75,5.93,4.82,4.82,0,0,0,1.66,3.8,6.38,6.38,0,0,0,4.37,1.46,8.11,8.11,0,0,0,4.21-1A2.83,2.83,0,0,0,269.62,85c0-.13,0-.42-.07-.86s-.07-.79-.07-1.06a1.44,1.44,0,0,1,.74-1.36,5.05,5.05,0,0,1,2.38-.42,4.33,4.33,0,0,1,3.07,1.11,3.72,3.72,0,0,1,1.19,2.85q0,3.25-8.41,4.56l-1.37.2q-7,1.07-9.68,3.52t-2.65,7.37a9.85,9.85,0,0,0,3.35,7.77,13.06,13.06,0,0,0,8.95,2.95,23.47,23.47,0,0,0,7.27-1,15.53,15.53,0,0,0,5.43-3.15,6.64,6.64,0,0,0,2.73,3.08m-5.85-13a6.76,6.76,0,0,1-1.58,4.88,6.3,6.3,0,0,1-4.73,1.63,4.33,4.33,0,0,1-3-1.06,3.57,3.57,0,0,1-1.16-2.76q0-2.82,4.22-3.54a23.19,23.19,0,0,0,6.27-1.76Zm-52.41,5a1.29,1.29,0,0,1-1.14.44,7.74,7.74,0,0,1-1.57-.27,7.82,7.82,0,0,0-1.71-.27,2.84,2.84,0,0,0-2.35,1.09,4.65,4.65,0,0,0-.87,3,4.84,4.84,0,0,0,1,3.37,4,4,0,0,0,3.08,1q.33,0,3-.27t5.09-.27q4.52,0,9.58.44c.85.07,1.39.1,1.61.1a4.66,4.66,0,0,0,3.39-1.06,4.55,4.55,0,0,0,1.07-3.35,4.24,4.24,0,0,0-1-3,3.44,3.44,0,0,0-2.68-1.11,8.72,8.72,0,0,0-1.89.27,8.6,8.6,0,0,1-1.56.27,2.11,2.11,0,0,1-1.47-.37,2.39,2.39,0,0,1-.37-1.6V93.54a12.65,12.65,0,0,1,1.64-7,6.07,6.07,0,0,1,4.73-2.81,10.38,10.38,0,0,0-.38,1.11,3.71,3.71,0,0,0-.15,1,4.85,4.85,0,0,0,1.49,3.75,5.68,5.68,0,0,0,4,1.37,5.81,5.81,0,0,0,4.37-1.64,6.23,6.23,0,0,0,1.59-4.52,9.19,9.19,0,0,0-2.58-6.9,9.75,9.75,0,0,0-7.1-2.51,10.39,10.39,0,0,0-6.18,1.78,12.71,12.71,0,0,0-4.11,5.53V79a6.41,6.41,0,0,0-.37-2.65,1.32,1.32,0,0,0-1.27-.7,4.48,4.48,0,0,0-1.12.27,4.56,4.56,0,0,1-1.36.27,47.48,47.48,0,0,1-4.83-.27q-2.61-.27-3-.27a4.15,4.15,0,0,0-3.12,1.17,5.11,5.11,0,0,0-.29,6,2.49,2.49,0,0,0,2,1.13,8.1,8.1,0,0,0,1.53-.27,8.21,8.21,0,0,1,1.83-.27,1.81,1.81,0,0,1,1.32.39,2.65,2.65,0,0,1,.39,1.73v15.2a3.37,3.37,0,0,1-.3,1.73m-38.37-10q0-1.34.7-1.62A12,12,0,0,1,190,90.6q4.36,0,6.54,1.37a4.55,4.55,0,0,1,2.18,4.12,4.89,4.89,0,0,1-1.83,4.22q-1.83,1.34-5.75,1.34a15.11,15.11,0,0,1-4.39-.37,1.44,1.44,0,0,1-.87-1.47Zm-11.76,7.14V100a2.94,2.94,0,0,1-.35,1.82,2,2,0,0,1-1.42.36,7.84,7.84,0,0,1-1.51-.27,8,8,0,0,0-1.78-.27,3.37,3.37,0,0,0-2.7,1.2,4.8,4.8,0,0,0-1,3.22,5.1,5.1,0,0,0,1.14,3.63,4.6,4.6,0,0,0,3.49,1.2q.47,0,3.38-.27t5.4-.27q2.31,0,7.21.21t7.47.21q8.88,0,13.47-3.51t4.59-10.34a10.55,10.55,0,0,0-2.78-7.72q-2.78-2.84-8.28-3.55,4.79-.47,7.15-2.84a9.06,9.06,0,0,0,2.36-6.68q0-5.55-3.6-8.55t-10.24-3q-2.55,0-6.58.27t-5.51.27q-6.67,0-13-.48l-1.24-.06a4,4,0,0,0-3.22,1.28,5.53,5.53,0,0,0-1.11,3.72,4.82,4.82,0,0,0,.92,3.1,3,3,0,0,0,2.46,1.16,7.31,7.31,0,0,0,1.76-.33,7.32,7.32,0,0,1,1.79-.33,1.78,1.78,0,0,1,1.39.44,4.06,4.06,0,0,1,.39,2.26Zm12.47-26a8.36,8.36,0,0,1,3-.33q3.85,0,5.56,1.12A4,4,0,0,1,196.8,78a3.73,3.73,0,0,1-2,3.5q-2,1.12-6.42,1.12a5.65,5.65,0,0,1-2.06-.23q-.45-.23-.45-1.34v-6a1.4,1.4,0,0,1,.7-1.41m-64.41,27.84a6,6,0,0,1-4.79,2,5.83,5.83,0,0,1-5.09-2.55q-1.78-2.55-1.78-7.27,0-5,1.73-7.52a5.91,5.91,0,0,1,5.21-2.5,6.1,6.1,0,0,1,4.81,1.83,7.87,7.87,0,0,1,1.63,5.38V96a8.08,8.08,0,0,1-1.71,5.49m-2.81-25.21A13.6,13.6,0,0,0,104,80.16q-3.92,4.81-3.92,12.79,0,8.75,3.87,13.71a14,14,0,0,0,16.1,3.87,15.26,15.26,0,0,0,4.66-3.5v2.38a1.38,1.38,0,0,0,.45,1.16,2.4,2.4,0,0,0,1.46.35,18.07,18.07,0,0,0,2.26-.27,18.76,18.76,0,0,1,2.83-.27,30.18,30.18,0,0,1,3.82.27q2.08.27,2.41.27a3.73,3.73,0,0,0,3-1.24,5.15,5.15,0,0,0,1.07-3.48,4.31,4.31,0,0,0-.87-2.84,3,3,0,0,0-2.41-1.05,7.6,7.6,0,0,0-1.69.27,7.53,7.53,0,0,1-1.56.27,2,2,0,0,1-1.41-.38,2.66,2.66,0,0,1-.37-1.72V67.27a4.89,4.89,0,0,0-.42-2.45,1.74,1.74,0,0,0-1.56-.63,16.34,16.34,0,0,0-2.21.27,16.47,16.47,0,0,1-2.61.27q-1.58,0-4.24-.27t-3.7-.27a5.94,5.94,0,0,0-3.9,1,4.29,4.29,0,0,0-1.19,3.4,4,4,0,0,0,1,3,4,4,0,0,0,2.92,1,10.81,10.81,0,0,0,2-.27,10.66,10.66,0,0,1,1.9-.27,1.9,1.9,0,0,1,1.42.38,3.22,3.22,0,0,1,.33,1.84v4.85a13.16,13.16,0,0,0-4.18-2.87M68,93.43q0-4.53,1.34-6.56a5.53,5.53,0,0,1,8-.62,5.76,5.76,0,0,1,1.31,4v10.76a2.77,2.77,0,0,1-.22,1.36,1.54,1.54,0,0,1-1,.5A3.12,3.12,0,0,0,75.21,104a5.4,5.4,0,0,0-.44,2.52,4.88,4.88,0,0,0,.94,3.29,3.65,3.65,0,0,0,2.88,1.06q.57,0,3.47-.27t5.24-.27a29.4,29.4,0,0,1,3.79.27q2,.27,2.41.27a3.32,3.32,0,0,0,2.73-1.17,5.17,5.17,0,0,0,1-3.34,4.74,4.74,0,0,0-.8-2.86,2.47,2.47,0,0,0-2.08-1.1,6.1,6.1,0,0,0-1.59.27,6,6,0,0,1-1.29.27,2.26,2.26,0,0,1-1.61-.4,3.14,3.14,0,0,1-.37-1.9V89.53A32.27,32.27,0,0,0,89,83a8.57,8.57,0,0,0-1.66-3.56,10.08,10.08,0,0,0-4.06-3.08,14.51,14.51,0,0,0-5.7-1A14,14,0,0,0,70.45,77a12.31,12.31,0,0,0-4.76,5.14V78.87a6.42,6.42,0,0,0-.39-2.67,1.42,1.42,0,0,0-1.39-.75,15,15,0,0,0-2.08.27,15.52,15.52,0,0,1-2.58.27,30.66,30.66,0,0,1-3.92-.27q-2.08-.27-2.35-.27a3.25,3.25,0,0,0-2.71,1.25,5.69,5.69,0,0,0-1,3.57,4.57,4.57,0,0,0,.82,2.88,2.71,2.71,0,0,0,2.26,1.05A6.54,6.54,0,0,0,54,83.93a6.46,6.46,0,0,1,1.44-.27,1.94,1.94,0,0,1,1.32.32A2.43,2.43,0,0,1,57,85.53v15.2a3.37,3.37,0,0,1-.32,1.83,1.55,1.55,0,0,1-1.26.4,6.54,6.54,0,0,1-1.37-.27,6.66,6.66,0,0,0-1.64-.27,2.75,2.75,0,0,0-2.28,1.12,4.72,4.72,0,0,0-.87,3,4.9,4.9,0,0,0,.94,3.34,4,4,0,0,0,3,1q.67,0,2.8-.27a29.57,29.57,0,0,1,3.57-.27q1.21,0,4,.27t4.34.27a5.2,5.2,0,0,0,3.57-1,4.15,4.15,0,0,0,1.16-3.24,3.33,3.33,0,0,0-3-3.63l-.44-.07a1.42,1.42,0,0,1-1-.6,3.91,3.91,0,0,1-.23-1.66ZM35.72,110.57a8.66,8.66,0,0,0,4.41,1A7.68,7.68,0,0,0,45,110.25a4.48,4.48,0,0,0,1.74-3.74,3.74,3.74,0,0,0-.69-2.38,2.57,2.57,0,0,0-1.89-1,6,6,0,0,0-.7,0q-2.61-.13-2.61-1.81V87.38a19.83,19.83,0,0,0-.67-6.13,7.17,7.17,0,0,0-2.28-3.15,12.76,12.76,0,0,0-4.94-2.28,31,31,0,0,0-7.29-.74q-7.17,0-10.92,2a6.44,6.44,0,0,0-3.75,5.93,4.82,4.82,0,0,0,1.66,3.8A6.38,6.38,0,0,0,17,88.32a8.12,8.12,0,0,0,4.21-1A2.83,2.83,0,0,0,22.87,85c0-.13,0-.42-.07-.86s-.07-.79-.07-1.06a1.44,1.44,0,0,1,.74-1.36,5.06,5.06,0,0,1,2.38-.42,4.33,4.33,0,0,1,3.07,1.11,3.72,3.72,0,0,1,1.19,2.85q0,3.25-8.41,4.56l-1.37.2q-7,1.07-9.68,3.52T8,100.88a9.85,9.85,0,0,0,3.35,7.77,13.05,13.05,0,0,0,8.95,2.95,23.48,23.48,0,0,0,7.27-1A15.55,15.55,0,0,0,33,107.49a6.64,6.64,0,0,0,2.73,3.08m-5.85-13a6.75,6.75,0,0,1-1.58,4.88A6.3,6.3,0,0,1,23.57,104a4.33,4.33,0,0,1-3-1.06,3.57,3.57,0,0,1-1.16-2.76q0-2.82,4.22-3.54a23.19,23.19,0,0,0,6.27-1.76Z"/><path class="cls-4" d="M236.79,51.26a18.75,18.75,0,0,0,6.42,1q7.14,0,11.13-3.13a10.51,10.51,0,0,0,4-8.76q0-4.42-2.25-6.72T248,30.1l-3.75-.7q-6.54-1.14-6.54-3.49a2.43,2.43,0,0,1,1.16-2.08,5.24,5.24,0,0,1,3-.8,7,7,0,0,1,3,.57,8.16,8.16,0,0,1,2.4,2q.34.4.91,1.14a5.07,5.07,0,0,0,4.1,2.31,3.42,3.42,0,0,0,2.52-.87,3.39,3.39,0,0,0,.88-2.51,20.39,20.39,0,0,0-.17-2,20.76,20.76,0,0,1-.17-2.28,9.33,9.33,0,0,1,.17-1.61,9.22,9.22,0,0,0,.17-1.21,2.76,2.76,0,0,0-.69-2.11,3.58,3.58,0,0,0-2.42-.64,4.66,4.66,0,0,0-2.83.67,2.55,2.55,0,0,0-.86,2.14v.2a7.67,7.67,0,0,0-3.6-2.26,17.39,17.39,0,0,0-5.58-.82q-6.23,0-9.92,2.91a9.38,9.38,0,0,0-3.69,7.74,8.83,8.83,0,0,0,2.6,6.7q2.6,2.48,8.39,3.72,1.61.5,4.26,1.14,5.36,1.24,5.36,3.52a2.39,2.39,0,0,1-1.44,2.18,8.71,8.71,0,0,1-4.05.77,9.32,9.32,0,0,1-4.14-.92,6.42,6.42,0,0,1-2.8-2.43,5.49,5.49,0,0,1-.51-1.21,3.9,3.9,0,0,0-3.95-2.91,5,5,0,0,0-3.2.85,3.11,3.11,0,0,0-1.06,2.56q0,.67.17,2.33t.17,2.63a13.58,13.58,0,0,1-.17,2,13.81,13.81,0,0,0-.17,1.39,3.39,3.39,0,0,0,.82,2.51,3.59,3.59,0,0,0,2.59.81,4.08,4.08,0,0,0,2.76-.84,4.2,4.2,0,0,0,1.23-2.61,7.11,7.11,0,0,0,3.74,2.76M198,37.44a38.67,38.67,0,0,0,.5,7.56,9.08,9.08,0,0,0,1.71,3.7,8.64,8.64,0,0,0,3.49,2.65,12.61,12.61,0,0,0,4.89.87q6.07,0,9.2-3t3.13-8.88a10.26,10.26,0,0,0-1-5.16,3.37,3.37,0,0,0-3.08-1.74,3.63,3.63,0,0,0-2.73.87,4.37,4.37,0,0,0-.82,3q0,.57,0,1.44t0,1.17a4.72,4.72,0,0,1-.62,2.73,2.3,2.3,0,0,1-2,.86,2.06,2.06,0,0,1-1.84-.75,6.11,6.11,0,0,1-.5-3V26a1.4,1.4,0,0,1,.44-1.16,2.45,2.45,0,0,1,1.51-.35h4.26q3.82,0,4.76-.87t.94-3.32a3.81,3.81,0,0,0-.8-2.75,4.34,4.34,0,0,0-3.05-.8h-6.6a1.49,1.49,0,0,1-1.12-.47,1.62,1.62,0,0,1-.45-1.17V10.26q0-2.61-.85-3.25A6,6,0,0,0,204,6.37a7.84,7.84,0,0,0-4.37,1,3.34,3.34,0,0,0-1.46,3v5a3.72,3.72,0,0,1-.17,1.29q-.17.42-.5.42l-3.79.2q-2.41.17-3,1.09a6.09,6.09,0,0,0-.6,3.17,4,4,0,0,0,.64,2.55,2.68,2.68,0,0,0,2.18.77h3.69a1.14,1.14,0,0,1,1.06.52A3.47,3.47,0,0,1,198,27V37.44ZM160.77,34q0-4.53,1.34-6.57a5.53,5.53,0,0,1,8-.62,5.76,5.76,0,0,1,1.31,4V41.67a2.76,2.76,0,0,1-.22,1.35,1.53,1.53,0,0,1-1,.5A3.12,3.12,0,0,0,168,44.63a5.41,5.41,0,0,0-.43,2.52,4.88,4.88,0,0,0,.94,3.29,3.65,3.65,0,0,0,2.88,1.06q.57,0,3.47-.27t5.24-.27a29.21,29.21,0,0,1,3.79.27q2,.27,2.41.27A3.32,3.32,0,0,0,189,50.34,5.16,5.16,0,0,0,190,47a4.74,4.74,0,0,0-.8-2.86,2.47,2.47,0,0,0-2.08-1.1,6.11,6.11,0,0,0-1.59.27,6,6,0,0,1-1.29.27,2.25,2.25,0,0,1-1.61-.4,3.13,3.13,0,0,1-.37-1.9V30.14a32.2,32.2,0,0,0-.49-6.57A8.57,8.57,0,0,0,180.11,20a10.08,10.08,0,0,0-4.05-3.08,14.51,14.51,0,0,0-5.7-1,14,14,0,0,0-7.1,1.73,12.31,12.31,0,0,0-4.76,5.15V19.47a6.42,6.42,0,0,0-.39-2.67,1.42,1.42,0,0,0-1.39-.75,15.13,15.13,0,0,0-2.08.27,15.51,15.51,0,0,1-2.58.27,30.66,30.66,0,0,1-3.92-.27q-2.08-.27-2.35-.27a3.25,3.25,0,0,0-2.71,1.25,5.7,5.7,0,0,0-1,3.57,4.57,4.57,0,0,0,.82,2.88,2.71,2.71,0,0,0,2.26,1.05,6.53,6.53,0,0,0,1.57-.27,6.46,6.46,0,0,1,1.44-.27,2,2,0,0,1,1.32.32,2.43,2.43,0,0,1,.32,1.55v15.2a3.37,3.37,0,0,1-.32,1.83,1.55,1.55,0,0,1-1.26.4,6.52,6.52,0,0,1-1.37-.27,6.67,6.67,0,0,0-1.64-.27A2.75,2.75,0,0,0,143,44.15a4.72,4.72,0,0,0-.87,3,4.89,4.89,0,0,0,.94,3.34,3.94,3.94,0,0,0,3,1q.67,0,2.8-.27a29.34,29.34,0,0,1,3.57-.27q1.21,0,4,.27t4.34.27a5.2,5.2,0,0,0,3.57-1,4.16,4.16,0,0,0,1.16-3.24,3.33,3.33,0,0,0-3.05-3.63l-.43-.07a1.42,1.42,0,0,1-1-.6,3.93,3.93,0,0,1-.23-1.66Zm-24,1.49a2.19,2.19,0,0,0,1.94-.87,5.06,5.06,0,0,0,.6-2.82q0-7.57-4.56-11.86t-12.6-4.29q-8.31,0-13.15,4.94T104.2,34q0,8.51,4.94,13.39t13.59,4.88q7.14,0,11.65-2.83t4.51-7.05a4.19,4.19,0,0,0-1.49-3.43,6.35,6.35,0,0,0-4.14-1.22,5.85,5.85,0,0,0-3.1.8,4.33,4.33,0,0,0-1.86,2.21,5.17,5.17,0,0,1-1.84,2.7,5.57,5.57,0,0,1-3.15.79q-3.75,0-5.58-2.14t-1.83-6.5Zm-20.51-6.2A6.29,6.29,0,0,1,118,25a5.72,5.72,0,0,1,4.26-1.63,5.64,5.64,0,0,1,4.27,1.56A6.22,6.22,0,0,1,128,29.36ZM95.92,26.65a5,5,0,0,1,1-2.07A2.09,2.09,0,0,1,98.5,24a2.4,2.4,0,0,1,.85.27,2.44,2.44,0,0,0,1,.27,3.13,3.13,0,0,0,2.46-1.08,4.12,4.12,0,0,0,1-2.83,4.85,4.85,0,0,0-1-3.26,3.47,3.47,0,0,0-2.78-1.17l-3.07.27q-3,.27-5.91.27a25.55,25.55,0,0,1-3.5-.27q-1.93-.27-2.33-.27a3.07,3.07,0,0,0-2.38,1.09,4,4,0,0,0-1,2.73,5,5,0,0,0,.6,2.64A3.15,3.15,0,0,0,84.26,24a2.1,2.1,0,0,1,1.29.53A1.47,1.47,0,0,1,86,25.64,2.82,2.82,0,0,1,86,26a1.73,1.73,0,0,1-.05.22l-3.38,9.91q-.2.6-.79,2.87t-1.06,3.93q-.5-1.72-1.06-4T79,36.17l-3.39-9.94a.65.65,0,0,1,0-.17,2.86,2.86,0,0,1,0-.38A1.44,1.44,0,0,1,76,24.61a1.89,1.89,0,0,1,1.21-.5A3,3,0,0,0,79.1,22.8a5,5,0,0,0,.67-2.73,4,4,0,0,0-1-2.8,3.24,3.24,0,0,0-2.51-1.07q-.33,0-2.26.27a25.57,25.57,0,0,1-3.5.27q-2.92,0-5.88-.27l-3-.27a3.47,3.47,0,0,0-2.78,1.17,4.85,4.85,0,0,0-1,3.26,4.16,4.16,0,0,0,.94,2.83,3.12,3.12,0,0,0,2.48,1.08,2.44,2.44,0,0,0,1-.27A2.4,2.4,0,0,1,63,24a2.08,2.08,0,0,1,1.49.56,5.2,5.2,0,0,1,1.09,2.1L73.4,48.76a5.55,5.55,0,0,0,1.73,2.72,5,5,0,0,0,2.93.74h5.5a4.82,4.82,0,0,0,2.88-.74,5.63,5.63,0,0,0,1.71-2.72ZM16.73,42.23a2.17,2.17,0,0,1-1.48.36,11,11,0,0,1-2-.27,11,11,0,0,0-2-.27,4,4,0,0,0-3.08,1.28A4.8,4.8,0,0,0,7,46.72,4.76,4.76,0,0,0,8.27,50.3,5.14,5.14,0,0,0,12,51.51l1-.06Q20.27,51,29.1,51q9.77,0,19.44.45,1.71.09,2.08.09a5.21,5.21,0,0,0,3.66-1.11A4.5,4.5,0,0,0,55.47,47a23.44,23.44,0,0,0-.17-2.43q-.17-1.52-.17-2.12,0-1.62.17-4.11T55.47,35A5.76,5.76,0,0,0,54,30.73a5.62,5.62,0,0,0-4.18-1.5,5.42,5.42,0,0,0-3.54,1.16,3.5,3.5,0,0,0-1.42,2.8A16.79,16.79,0,0,0,45,35.12a16.89,16.89,0,0,1,.17,2q0,3.25-1.42,4.37t-8,1.12q-3.89,0-5.36-.86a3.19,3.19,0,0,1-1.48-3V31c.76-.16,1.26-.25,1.49-.29a4.09,4.09,0,0,1,.55-.05,4.18,4.18,0,0,1,2.3.55,1.7,1.7,0,0,1,.85,1.49A8.16,8.16,0,0,1,34,34.05a8.14,8.14,0,0,0-.17,1.34,2.51,2.51,0,0,0,.93,2.06,4,4,0,0,0,2.58.75,4.74,4.74,0,0,0,3.13-.92,3.28,3.28,0,0,0,1.1-2.66q0-.3-.17-2.6t-.17-4.24q0-2.14.17-4.76t.17-3.15a3.55,3.55,0,0,0-1.07-2.82,4.66,4.66,0,0,0-3.16-.94,3.93,3.93,0,0,0-2.58.77A2.59,2.59,0,0,0,33.79,19,7.85,7.85,0,0,0,34,20.33a7.89,7.89,0,0,1,.17,1.32,1.67,1.67,0,0,1-.84,1.47,4.26,4.26,0,0,1-2.31.54,7.43,7.43,0,0,1-1-.07,10.43,10.43,0,0,1-1.09-.2V17q0-2.18,1.26-2.87t5-.69h1q5.86,0,7.19,1t1.32,4a14.09,14.09,0,0,1-.17,1.83,13.93,13.93,0,0,0-.17,1.76,3.41,3.41,0,0,0,1.32,2.71,5.09,5.09,0,0,0,3.38,1.11,5.34,5.34,0,0,0,3.94-1.4A5.28,5.28,0,0,0,54.5,20.6q0-1-.17-3.17t-.17-3.34q0-.93.17-2.52t.17-2.26a3.91,3.91,0,0,0-1.16-3.09,5.11,5.11,0,0,0-3.47-1q-14.43.54-21.6.54-8.61,0-15.51-.48l-.87-.06A5.1,5.1,0,0,0,8.27,6.38,4.45,4.45,0,0,0,7,9.78a4.1,4.1,0,0,0,1.16,3.06,4.14,4.14,0,0,0,3,1.14,11.44,11.44,0,0,0,2.11-.27,11.31,11.31,0,0,1,1.94-.27,1.8,1.8,0,0,1,1.43.49,4.26,4.26,0,0,1,.42,2.4V40.18a3.4,3.4,0,0,1-.37,2.05"/></g></svg>