<svg id="Layer_1" data-name="Layer 1" xmlns="http://www.w3.org/2000/svg" xmlns:xlink="http://www.w3.org/1999/xlink" viewBox="0 0 949.91 166.09"><defs><style>.cls-1{fill:none;}.cls-2{clip-path:url(#clip-path);}.cls-3{opacity:0.7;}.cls-4{clip-path:url(#clip-path-3);}.cls-5{fill:#00559f;}</style><clipPath id="clip-path"><rect class="cls-1" width="949.91" height="166.09"/></clipPath><clipPath id="clip-path-3"><rect class="cls-1" x="-9" y="-7" width="967.91" height="174.09"/></clipPath></defs><title>Landmarks</title><g class="cls-2"><g class="cls-2"><g class="cls-3"><g class="cls-4"><path class="cls-5" d="M413.19,157.09h-.8v-2.78h.8ZM383.08,156H379v-1.71h4.06Zm-31.45-3.52-1.49,1v-2.2l1.49.76ZM184,122.07l-.1,2.26h-.47v-2.26Zm-.57,2.9h.44l-.09,1.91h-.35ZM27.72,96.47H20.49l0-8.22c4.73,1.74,7.24,8.22,7.24,8.22m412.8,69.62-17-13.76v-9.18l-1.2-6.38v2.53l-.78,3.1H420.1l-1.47-6.32-.25-4.09v4l-1.16,6.34h-1.75l-.76-5.14v2.63l-1.37,5.29v5.39h-1V130.79H402.22v13.37L401,143V74.54L388.86,59.35l-5.77,13.47v78H379V129.29h-1.71s-.86-10.27,0-10.27H373V92.29L367.9,74.54,366,55.72V75l-9.84,16.68V137.2h-4.38v6.46l-.62,1.66h.51v5.52l-1.49-1.26V128.86H345v10.91h-5.35V149h-1.5v6.63h-.37v0H335V140.2h-.07V127.9l.68-.47L335.51,114l-.31,1.3-.31-4.06v3.23h-1.46v-8.12l-.26,2.45h-1v-4.17l-.42,1.61-.89-.05V95.56l-.31,1.82-.73.05V94.2h-.52V92.43h-.52V90.66h-.47l-.31-3h.57l-.57-.52-.26-1.67h.57l-.57-.57V83.08l-.16,1.83-.94.57.78.08-.13,1.72-.65.44.63,0-.18,3h-.44v1.81h-.35V94.3h-.42V97.5H325l-.38-2.08v10.65l-1.08,0-.25-1.33V109h-.44l-.4-2.07v8l-.81.08-.42-3.79v4.17l-.46,0-.43-1.22v13.61l.89.83,0,18.66h-.85V134.08h-8.05v-.16h-.46v-1.16h-.44v-1.3h-.81l-.36-3.4-.47,3.41h-.53v.87h-.35v6.8h-.41v-1.75h-.84l-.22-2.07L307.2,137l-1.69,0-.43-1.68-.42,1.72h-.85l-.18-.75v-46L301.25,83l-.57-7.42L299.83,83l-3.33,7.32v40.59h-2.38v-3.52H290.8v13.5l-3.14,3.14v-5.78h-.4v-3.37l-.17,0V107h-4V99l-3.71-3.71h-1.33v-7.6h-.67v9.6h-1.9v40.59h-.14V137h-.44v-3.75h-.43l-.16-4.64-.23,4.18h-.45V137h-.4v7.44h-.32v-21l-.38.38v10l-5.26,5.26V136.6l-.43,1.24h-.38v-2.89H266v-2.6h-.38l-.23-1.93-.24,1.93v2.57h-.39v2.53h-.68V128h-1V114.31h-.71V98.48l-7.94-7.94V77.9h-.47v13h-1.52v38c0,.28-1.62,0-1.62,0v13.69h-3.61v-5.51h-4.66V123.53h-1V105.85l-.67-.67V88.93L237,81.85l-.62-8.27S236,81.66,236,81.8s-5.35,7-5.35,7v15.42l-.5.5v13.93h-.9v13.88h-1.09v9.35l-.42,1.73h-2V134l-3,3v6.46h-.86V109.7l.1-10.79-4.33-4.32-5.23,5.23v47.25h-2.71v-9.27H207v-18.2h-1.66V96.91h-1.47V71.68h-1V50.81h-1.9V26.14h-1.24V15h-.62l-.71-15L198,14.69h-.71V25.52h-.9c.14,0,0,24.05,0,24.05h-.67v31h-1.52v23.81h-1.43V126.1H191.6v7.14h-.33v-.87h-.48l-.1-2.55-.26,2.53h-.35v3.42h-.48v7.39h-2.18v-.52h-.92V130.51h-.29L186,125.6l-.19,4.91h-.59v-1.27h-.38V127h-.38l-.24-9.17-.17,3.78h-.59V99.81h-.69V89.14L179,85.32h-1.38V80.09h-.38v5.37h-1.09V78.57h-.52v6.66H175v9.63h-1.07v5.56H172.2V106h-1.71v39.14h-3.64v-6h-1.3l-3.73-3.73V78.07l-1-1V57.21l-1.28,1.28V50.69h-1.18l-1.18,1.18h-1.3v3.19l-1.51,1.51v2.53l-1.74,1.74V134.7l-3.79,3.79V144h-2.25v-4.17l-3.1-3.1h-4.06V101.7h-1.07V91H136.7c-2.57-6-4.49,0-4.49,0h-2.57v11.55h-1.71v23.31H119.8V140H117v4.79h-2v8.47h-1.14V155h-1.84V138.6h-1.85V122.34l-4.28-4.28H102.1l-4.63,4.63v32.58H54.19l-1.93-1.93H41.21s7.41-31.3-9-54.68l3.56-2h-5a21.44,21.44,0,0,0-10.55-9.41l0-14.44-.89,8.88-.84,71.15h-12l-2.92,2.92H0v10.31H423.55V153.91c.51.6,1.29,1.52,2.27,2.64h-.13v9.54H426V156.7c1.29,1.49,2.89,3.31,4.59,5.18v4.18h-.35V164.8h-2.43v1.29h4.33v0h-1.28v-3.88c1.2,1.32,2.44,2.65,3.65,3.91h.77l-11.67-12.27v-.69c2,2,8.46,8.27,13.67,13h.42l-14.1-13v-.7c2.9,2.52,10.86,9.34,16.67,13.7Zm485.24-12.36h-3v-1.29h3Zm0-1.29h-3V151h2l.94.62Zm0-1.7L924,149.66h1.73Zm0-1.08H924l-.11-.07.2-.31.2-.32h1.44Zm0-2.29h-.42l.42-.66Zm0-2-1.29,2h-.29l0-6.69.55.26c.33.16.66.34,1,.51Zm-1.58,3.6v.11l-.37-.11Zm-.06-8.38-.75,1.21,0,5.51-.59,0v-4.6l.56-.9v-1.51l.31.09.45.21m-.79-.37-1.39,2.19h-1.86l0-3.71c1.08.5,2.16,1,3.23,1.52M920,138.76l-.3.47v-.56Zm-.58.93-.37.59v2.11h-1.33l1.32-2.11v-1.8l.38.11Zm-.32-1.46-2.65,4.15H916l-.09-5.54q1.6.68,3.17,1.39m3.8,10.72h.5v.31l-.5-.31m-.1.76.61.4v.25l.11-.17,1.29.85h-2Zm0,1.32h0Zm-7-13.86-.17.25v-.3Zm-.46.66-.57.82.09,3.72h-2.65l2.56-3.72,0-1.81.61.18Zm-.45-1.41-.06.08-2.87,4.1v1.78h-.19v-1.5l.19-.28,0-5.33c1,.38,1.94.75,2.9,1.15m-3.07-.74,0,.05v-.07Zm-.91,6.56-.08,0,.08-.11Zm0-5.55-.21.23,0,5.46h-.05l-.4-.2c-.95-.44-1.91-.86-2.87-1.27v-.32l.07-.08,3.23-3.59v-1.68l.22.08Zm-.06-1.87-3.21,3.5v1.74l-.24-.09v-1.37l.25-.27,0-4.62v-.06c.66.23,1.33.46,2,.7.4.15.79.32,1.2.47m-3.34-.68-.11.14v-.18Zm-.27-.1h-.7v1.32l-.26.33v4.74c-.94-.39-1.88-.76-2.83-1.13v-.05l2.81-3.55v-2Zm-.78-.82,0,.05-2.81,3.5v2l-.14,0V137l.15-.19v-4.48c.95.3,1.89.6,2.84.92m-3.38-.67h-.77v1.35l-.16.17v4.73c-1.1-.4-2.2-.78-3.31-1.14l3.29-3.59V132.2Zm-.88-.71-3.17,3.42v1.93l-.18-.07v-1.65l.19-.2V131c.94.26,1.88.51,2.81.79l.35.11m-4.13,25H852.29v-4.65l18.6.1,18.37.08,8.86,0Zm0-4.44q-13.61,0-27.23-.1l-18.6-.1v-.89l18.6-.1q13.61-.09,27.23-.1Zm0-1.3-8.86,0-18.37.08-18.6.1v-.49l18.6.1,18.37.08,8.86,0Zm0-.09q-13.61,0-27.23-.1l-18.6-.1v-.9h2.28V150h1.15v-.12l3.58,0v.49h1.43v-.49l4,0v.51h1.72v-.52h2.75v.54h1.72v-.55h3.31v.56h2v-.57h2.26v.58h2v-.59h3v.6h2v-.61h3.25v.63h1.72v-.63h2.4v.64h1.43v-.64h3.48v.65h.38Zm-3.86-14.72v-.12l3.28-3.17v-1.82l.2.09v1.54l-.2.19v4.23c-1.09-.34-2.19-.64-3.3-.94M897.74,149v.75h-3.48v-.77Zm-3.48-2.34V136.4c1.11.31,2.21.63,3.3,1v1.75l.18-.19v7.75Zm3.54-16,0,0-3.43,3.27v1.86l-.08,0V134l.08-.08v-4.1c1.15.25,2.3.51,3.44.81m-7.37,4.76V135l2.31-2.77V130l.09,0v2.09l-.09.11v3.61c-.77-.19-1.55-.35-2.32-.52m2.4,13.57v.78h-2.4v-.79Zm-2.4-2.4V135.45c.78.17,1.55.34,2.32.53v1.64l.07-.07v9Zm2.51-17h0l-2.46,2.91,0,2.21-.07,0v-2.14l0,0,0-2.56V129c.84.14,1.67.31,2.51.47m-4.22,20.22h-3.25v-.84l3,0h.3Zm0-3.23h-.27l-3,0V134.53c1.09.16,2.18.32,3.25.53Zm0-11.52c-1.08-.21-2.17-.36-3.25-.51v-.65l3.25-2.92Zm-.16-6.21-3.09,2.76v-3.18c1,.11,2.07.27,3.09.42M880.48,134v-.19l3-3v3.46c-1-.11-2-.19-3-.25m3,14.92v.87h-3v-.91l3,0m-3-2.51V134c1,.06,2,.16,3,.27v12.16l-3,0m3-18.16-.07.07h0l-3,3v-2.53h-.71a5.52,5.52,0,0,0-.28-.72c1.34,0,2.69.08,4,.19m-4-.19a7.09,7.09,0,0,1,.27.72h-.56c.08-.24.15-.48.26-.72h0m-1,21.75h-2.26v-1l2.26,0Zm0-3.43-2.26,0V133.88c.75,0,1.51,0,2.26,0Zm0-12.45c-.75,0-1.51,0-2.26,0V131l2.26,2.84Zm-2.37-5.39h-.65l.64-.22Zm-1.79-.36v.36h-.11v2.61l-3-2.79,3.12-.18m-2.92,20.63,2.81,0v1H870.9v-1h.49m-.49-2.56v-9.55l.07.08v-2.57c1.08-.11,2.16-.18,3.24-.24v12.33l-2.78,0h-.52m3.31-12.65v.36c-1.08,0-2.16.12-3.24.22v-3.57l-.06-.06v-1.79h-.49l.55-.24v2.09Zm-5,16.23h-2.75v-1.1l2.75,0Zm0-3.61-2.75,0v-9.77l.09.08v-1.69c.82-.13,1.63-.25,2.45-.36l.21.24Zm0-12-.07,0v-2.51l-2.58-3,2.58-.22v3.26l.06.07Zm-2.67-2.67,2.43,2.85c-.81.1-1.62.21-2.43.34v-3.18l-.08-.1V129l.08,0Zm-1.8,18.29-4,0v-1.21l4,.05Zm0-3.69-4,0v-8.65l.25.25v-1.84q1.86-.43,3.74-.78Zm0-11.12q-1.88.34-3.74.76v-3.9l-.24-.2V130l.24-.12v2l3.74,3.09Zm0-.61-.09,0v-2l-3.75-3.12q1.88-.24,3.75-.44v3.56l.09.07Zm-5.42,15.45-3.58,0v-1.31l3.58.05Zm0-3.78-3.58,0V139l.4.4v-2.26c1.05-.3,2.12-.57,3.18-.84Zm-3.47-9.73-.11,0v-.16Zm3.47-.16c-1.06.26-2.13.53-3.18.82v-4.23l-.4-.4V130.6l.4-.16v2.35l3.18,3.21Zm0-.94-.25.1V133l-3-3c.77-.13,1.54-.27,2.32-.38l.64-.08V133l.25.25Zm-4.73,14.63h-2.28v-1.3H850.1v-.11l4.29.06h.18Zm0-3.85h-.15l-4.32,0v-4.94l.41.52v-2.63q1.93-.68,3.88-1.29l.06.06.11.11Zm0-9.17-.4.17v-2.35L850.52,131c1.22-.25,2.44-.49,3.66-.7v4.36l.4.4Zm0-5.64-.11-.12.11,0Zm-4.06,2.55,3.78,3.78q-1.9.56-3.78,1.19v-5l-.4-.4V131.6l.4-.17ZM849,148.6h-4v-.2l.91,0,3.07,0Zm0-2.61-3,0H845v-3.1l.56.63v-2.67c1.11-.44,2.23-.87,3.36-1.29l.06.08Zm0-7.38-.41.14v-2.83l-3-3.8c1-.24,2-.47,3-.68v4.48l.41.52Zm0-6.37-.12-.12.12,0Zm-3.42,3,3.22,4.09q-1.62.56-3.22,1.17v-5.26l-.56-.71V133h-.86v.44l-.35-.44,1.76-.61Zm-1.48,3.59.06.07v1.76l-.06,0Zm0,3,.06.07V146h-.06Zm0,6.56h.06v.22h-.06Zm.92-8.5.31.35-.31.12Zm5.13-2,.2.25-.2.07Zm48.78,0c1.12.39,2.23.78,3.33,1.21v1.82l.14-.17v6.08l-3.47-.07Zm0,11.11h3.47v.27a28.5,28.5,0,0,1-3.47-.05Zm7.62-9.33.07-.08v.1Zm-3,0c.95.39,1.89.78,2.83,1.19v1.05l.24-.26v5.32l-1.14,0-1.94,0Zm0,9.39h3.07V149c-.87.05-2,.11-3.07.16Zm3.93-7.7c.81.37,1.62.74,2.42,1.12h-1.49v4.53l-.93,0Zm0,7.71h0ZM843.56,132.6v1.71H840l-.57-.63.14,0c1.32-.37,2.65-.71,4-1m-4.06,1.51v.2H839Zm-2,.2h-.17l.17,0Zm-5.87,20.81h-4.35s-.07-1.41-.13-3.1h.69l.36.63V152l3.43,0Zm0-3.06-3.43,0v-.59l3.43,0Zm0-.66-3.43,0v-.79l3.43,0Zm0-.73-3.43,0v-.59l3.43,0Zm0-.66-3.43,0v-1l1.7-.92,1.73,0Zm-3.43-2h.36l-.36.18Zm3.43-2.15H828.2v-5.22l-.84-1.26V137.7l.84-.26v3.24l3.42,5.11Zm0-3.67-3.36-5c1.11-.39,2.24-.77,3.36-1.14v6.14Zm-4.52,8.51.4.7h-.38c0-.23,0-.47,0-.7m0-2h0c0-.26,0-.5,0-.72h0Zm0-9.76-.68-1,.68-.2Zm-.84,6.29.35.61h-.35v-.61l-3.46-6c1.15-.44,2.3-.87,3.45-1.29Zm-3.41-5.69-.09,3.49,1.6,2.81h-1.67l.07-2.81-1.73-3Zm4.58,9.07h0V148h.45l.18.31-.59.31m-.29,2.78h.38l.33.59h-.69c0-.19,0-.38,0-.58M820.88,140l-.14,5.93h-1.46l-2.44-4.27c1.34-.56,2.69-1.12,4-1.66m-4,1.94v3.59l.23.4h-.23v-.4l-1.78-3.12Zm-1.81,10,1.64,2.75-.1.06-1.61.44v-3.25Zm0,0H815v-.13l-.14-.24H815v.24Zm-.08-.36h-.14l-.62-1H815Zm0-1h-.76l-.21-.35h1Zm0-.36h-1l-.23-.38V147.7l1.19,0Zm0-4.26h-1.18v-3l1.18-.51Zm-1.18,7.49,1.32,2.23-.45.27h-.87ZM820,152v.73l-.34.19c-.95.54-1.87,1.14-2.81,1.69v-2.64Zm0-.45V152l-3.15,0v-.4Zm-.25-.94.25.44v.49l-3.15,0v-1Zm-2.89-.42v-2.37l1.32,0,1.32,2.31Zm2.64,0,.25.44-2.89,0v-.4Zm-2.65,5.77v-.13c1.05-.67,2.09-1.37,3.15-2v2.15ZM808,162.2l-.57,1.07h-1.73c.55-.41,1.13-.8,1.69-1.2l.6.1m-2.53-.43c-.44.3-.88.59-1.32.89V161.6l1.31.16m-1.32,1.59v.76l-.75-.74Zm-215.39-.52H571.48v-.89h-5.62v-2c1-3.37,3.83-8.37,11.4-8.37,10.82,0,11.54,11.28,11.54,11.28m-6.17-17.89H572a67,67,0,0,0,3-12.14h4.79a83.75,83.75,0,0,0,2.87,12.14m-3.83-18.42h-2.66c.64-6.47,1.81-19.06,1.81-19.06-.43,7.45.85,19.06.85,19.06m-98,34.52-.89.89h-1.6v2.71H475v-.9l-.66-.66a25.89,25.89,0,0,0,4-2.15,1.55,1.55,0,0,0,2.5-.75Zm-7.66-.07v-1.68a22.18,22.18,0,1,0-17.61.24l-.43,1.48a23.51,23.51,0,1,1,18,0m-24,.33a1.57,1.57,0,0,0,.9-.26,25.82,25.82,0,0,0,4.39,2.29l-.35,1.21h-.84v-1.46h-1.11v.31h-.45v.8h-2.33V161.9h-.21Zm6.6-2.55c-.35-.15-.68-.33-1-.49l2.65-5.2Zm2.8-9.74-4.54,8.9a21.31,21.31,0,0,1-2.17-1.35l7.51-10.33Zm1.45-5-8.8,12.11a21.8,21.8,0,0,1-1.95-1.65l10.86-10.86Zm0,20.89c.6.09,1.2.16,1.81.22H460Zm3.61-2.1a23.6,23.6,0,0,1-3.39-.31l.44-1.52a22.23,22.23,0,0,0,2.95.27Zm.05-12.26v9.9a21.37,21.37,0,0,1-2.55-.21l.3-1.87Zm-2.55-32.65a21.37,21.37,0,0,1,2.55-.21v13.5l-.28,1Zm-3.28.7a21.17,21.17,0,0,1,2.49-.58l2.53,16v0Zm-3.12,1.25a21.12,21.12,0,0,1,2.36-1l5,15.48Zm-2.9,1.69a21.32,21.32,0,0,1,2.17-1.35l7.4,14.52Zm-2.59,2.13a21.47,21.47,0,0,1,1.95-1.65l9.56,13.16Zm-2.22,2.51a21.47,21.47,0,0,1,1.65-1.95l11.51,11.51ZM445.23,129a21.31,21.31,0,0,1,1.35-2.17l13.17,9.57Zm-1.33,3.08a21.33,21.33,0,0,1,1-2.36l14.5,7.39Zm-.85,3.25a21.4,21.4,0,0,1,.58-2.49l15.5,5Zm-.33,3.34a21.35,21.35,0,0,1,.21-2.55L459,138.65Zm.21,3.35a21.38,21.38,0,0,1-.21-2.55H459Zm.7,3.28a21.35,21.35,0,0,1-.58-2.49l16.08-2.55Zm1.25,3.11a21.33,21.33,0,0,1-1-2.36l15.48-5Zm15.34-6-11.51,11.51a21.61,21.61,0,0,1-1.65-1.95Zm-13.64,8.92a21.51,21.51,0,0,1-1.35-2.17l14.52-7.4Zm17.93-33.62a21.37,21.37,0,0,1,2.55.21L464.82,132l-.32-1.22Zm0,34.25,2.18,8.35c-.56.07-1.14.1-1.71.13v-.58l-.47.47Zm.47,9.28c.65,0,1.29-.07,1.92-.15l.4,1.52c-.76.1-1.53.17-2.31.2Zm1.39,3.89c.52,0,1-.1,1.54-.18l0,.18Zm12.58-10.66A21.8,21.8,0,0,1,477,156.1l-9.15-12.6-.06-.21Zm2.22-2.51a21.62,21.62,0,0,1-1.65,1.95L468,142.37Zm1.83-2.81a21.38,21.38,0,0,1-1.35,2.17l-13.17-9.57Zm1.33-3.08a21.4,21.4,0,0,1-1,2.36L468.83,141Zm.85-3.25a21.14,21.14,0,0,1-.58,2.49l-15.5-5Zm.33-3.34a21.39,21.39,0,0,1-.21,2.55l-16.08-2.55Zm-.21-3.35a21.37,21.37,0,0,1,.21,2.55H469.2Zm-.7-3.28a21.39,21.39,0,0,1,.58,2.49l-16.08,2.55Zm-1.25-3.12a21.33,21.33,0,0,1,1,2.36l-15.48,5Zm-1.69-2.89A21.49,21.49,0,0,1,483,129l-14.52,7.4Zm-2.13-2.59a21.47,21.47,0,0,1,1.65,1.95L468,135.73ZM477,122a21.61,21.61,0,0,1,1.95,1.65l-11.51,11.51Zm-2.82-1.83a21.31,21.31,0,0,1,2.17,1.35l-9.57,13.17Zm-8.83,13.77,0-.06L467.84,118a21.2,21.2,0,0,1,2.49.58Zm5.75-15.1a21,21,0,0,1,2.36,1l-7.39,14.5Zm-2.7,26.78,8,11a21.48,21.48,0,0,1-2.17,1.35l-5.28-10.36Zm1.45,5.55,3.61,7.09c-.52.25-1,.49-1.58.7Zm2.23,8.57c.3-.12.6-.22.89-.35v1.66l-.5.2Zm477.84,6.34V123.9H939.58v12.43h-1.71V131H925.76v9.52l-.68-.32-.85-.37v-1.11l-.56.87c-1.19-.54-2.39-1-3.59-1.55v-1.4l-.7,1.1c-1.15-.48-2.31-1-3.47-1.42l0-1.34-.74,1.05q-1.57-.61-3.15-1.19v-1.3l-.89,1c-.45-.16-.89-.35-1.34-.51-.7-.24-1.4-.47-2.1-.7v-1.62l-1,1.28c-1-.32-2-.63-3-.93v-1.75l-1.27,1.37c-1.1-.31-2.2-.6-3.31-.89v-1.44l-1.18,1.13c-1.18-.29-2.37-.55-3.55-.8v-1.88L893,129.43c-.86-.17-1.72-.32-2.58-.46l0-1.83L889,128.37l-.38.34c-1.05-.15-2.11-.3-3.17-.4v0h-.13v-1.89l-1.49,1.5-.29.29c-1.35-.1-2.71-.15-4.06-.17v0h0v0c-.62,0-1.24,0-1.87,0,.62,0,1.24,0,1.86,0a7.43,7.43,0,0,0-.29.72h-.7V131l-2.29-2.91,1.41-.06-1.42.05-.26-.33-1.59-2v2.42l-3.16.16-.5-.46-1.53-1.42v2l-2.63.21-.21-.24-1.65-1.94v2.35q-1.93.19-3.85.43l-.16-.13-1.57-1.31v1.65l-.66.08c-.81.11-1.62.24-2.43.36l-.13-.13-1.65-1.67v2.07c-1.29.21-2.58.44-3.86.68l-.1-.1-1.67-1.67v2.09c-1.07.21-2.14.44-3.21.68l0,0-1.76-2.24v2.67c-1.36.32-2.73.64-4.08,1l-.35.09-1.62-1.83v2.26l-2,.56h-2.84l-.91-1.16v1.16h-.13v1.11q-1.9.57-3.78,1.18l-1.61-2.4v2.92q-2,.65-3.9,1.34l-1.37-2.4-.07,2.9c-1.54.55-3.07,1.16-4.6,1.74l-1.36-2.39v2.9l-1.18.46V131h-8.54v-5.44h-1.71V122.2h-1.09v-9.94c0-1.09-2.49,0-2.49,0s.47,9.17,0,9.63-10.41,0-10.41,0V114H784.1v-3.11H779v-2H761.83v4.75h-8.15c-.23,0,0,7.47,0,7.47h-3.09v2.11h-1.36v2h-6.64V131h-2.41v1.51h-4.75V118h-13v23.77h-2.26v-55l-6.72-2.87-17,2V124.6h-3.4v11.32h-2.57V120H680.34V85.36h-1.66V79.48h-2V76.16H657.17v3.4h-1.66v6.11h-1V116.3H653v-4.23H642.91v-3.55h-4.72v47.21l-1.2-2.49-5.43-3.19h-6.71v-3.51h-4.47v-4.15h-2.55v3.51l-5.43,4.15h-2.87v-6.39h-8.3V162h-4.09S581.33,140.72,579.89,78l2.62-4.64h-1.84l-1.92-5.83-.64-8.78-.8,8.94-2.16,5.59H573l3.59,4.87s-1.14,45-13.1,72.78h-1.81v-8.33H557V126.12l-8.74,8.74v4h-.91V135.9l-5.53-5.53-1.3,1.3-5.92-5.92V150.9H532V116.78h-1.44v-3.35l-2.87-2.87v-9.34l-1.92,9.58h-2.63v8.14h-1.44v17.17H510.44V143h-10v11.28a3.2,3.2,0,0,0-.42,1.45V159h-.7V158h-.47v-1.48l-.17.17-.47.47h-.66v1.53h-.94v-.94h-1.42v1h-.45v1h-1.67v-1.32h-2.4v1.74h-.92v-2.45l-.89-.89V153.4h-.4v3.28l-.78.78v6.11l-1.53,1.53h-3.82v-2.6l-1.21-1.21v-1.7h-.24a1.6,1.6,0,0,0-.12-.45,26.08,26.08,0,0,0,3.56-3.65A1.56,1.56,0,0,0,486.1,153a25.81,25.81,0,0,0,2.24-4.51,1.55,1.55,0,0,0,.92-2.95,25.78,25.78,0,0,0,.73-4.94,1.56,1.56,0,0,0,0-3.11,25.77,25.77,0,0,0-.81-4.88,1.56,1.56,0,0,0-1-3h0a25.82,25.82,0,0,0-2.27-4.37l0,0a1.56,1.56,0,1,0-1.84-2.53l0,0a26.21,26.21,0,0,0-3.49-3.47l0-.05a1.56,1.56,0,1,0-2.53-1.84l0,.07a25.8,25.8,0,0,0-4.38-2.25l0-.06a1.56,1.56,0,0,0-3-1s0,0,0,0a25.81,25.81,0,0,0-4.86-.79s0,0,0,0,0,0,0-.06a1.56,1.56,0,0,0-3.09-.25,1.63,1.63,0,0,0,0,.32h0a25.85,25.85,0,0,0-4.88.74,1.56,1.56,0,0,0-3,.38,1.5,1.5,0,0,0,0,.31,1.55,1.55,0,0,0,.05.26,25.66,25.66,0,0,0-4.45,2.22,1.56,1.56,0,0,0-2.52,1.81,26.19,26.19,0,0,0-3.58,3.5,1.55,1.55,0,0,0-1.84,2.48,25.94,25.94,0,0,0-2.36,4.47,1.56,1.56,0,0,0-1,2.9,25.78,25.78,0,0,0-.87,5.05,1.55,1.55,0,0,0,0,3,25.93,25.93,0,0,0,.77,5.15,1.55,1.55,0,0,0,.89,2.82,25.93,25.93,0,0,0,2.37,4.7,1.55,1.55,0,0,0,1.72,2.38,26.19,26.19,0,0,0,3.73,3.75,1.56,1.56,0,0,0,.58,1.69l.08.05v.63H448l-.55.56h-.7V164H445.6V165h-2.39l-.84,1.07H716.81c-.42-1.19-.81-2.31-1.11-3.25,0,0,12.06-2.19,18.27,1.19l-1.37-9.13s11.69.55,17.17,4.39c0,0-3-12.06-4.75-15.44a41.59,41.59,0,0,1,32.48,22.25h4.36a39,39,0,0,1,20.71-4.63v2.33l-1.48,1.07h1.48v.08h.81l3.24-.05-.64,1.22Z"/></g></g></g></g></svg>