<svg id="Layer_1" data-name="Layer 1" xmlns="http://www.w3.org/2000/svg" xmlns:xlink="http://www.w3.org/1999/xlink" viewBox="0 0 531.62 175"><defs><style>.cls-1{fill:none;}.cls-2{clip-path:url(#clip-path);}.cls-3{fill:#231f20;}</style><clipPath id="clip-path"><rect class="cls-1" x="5" y="6.02" width="518.87" height="159.98"/></clipPath></defs><title>PR</title><g class="cls-2"><path class="cls-3" d="M311.63,74.36q7.32,7.71,19.15,7.71,9.93,0,16.34-4.61t6.4-11.57a7.7,7.7,0,0,0-2.15-5.66,7.57,7.57,0,0,0-5.63-2.18,6.47,6.47,0,0,0-4.17,1.26q-1.56,1.26-2.84,4.94A7.7,7.7,0,0,1,336,68.11a7.62,7.62,0,0,1-4.56,1.36,9,9,0,0,1-7.73-4.12q-2.87-4.12-2.87-11.19,0-7.42,2.87-11.32A9.62,9.62,0,0,1,331.91,39a9.14,9.14,0,0,1,3.25.49q1.25.49,1.25,1.2a7,7,0,0,1-.41,1.89,7.08,7.08,0,0,0-.41,2A5.11,5.11,0,0,0,338,48.91a10.83,10.83,0,0,0,6.32,1.66,8.52,8.52,0,0,0,6.32-2.51,8.72,8.72,0,0,0,2.48-6.4A13.29,13.29,0,0,0,347.3,30.4q-5.81-4.25-15.59-4.25-12.49,0-19.95,7.63t-7.45,20.38q0,12.5,7.32,20.2m-41.89-8.79a4.3,4.3,0,0,1-.56,2.62,2.74,2.74,0,0,1-2.15.67,13.34,13.34,0,0,1-2.46-.41,13.78,13.78,0,0,0-2.92-.41,5.27,5.27,0,0,0-4.12,1.67A6.52,6.52,0,0,0,256,74.25q0,3.45,1.69,5.09T262.93,81q.41,0,5.07-.41t9-.41q7.63,0,15.11.7,1.38.12,1.69.12,3.53,0,5.22-1.64t1.69-5.09a6.48,6.48,0,0,0-1.54-4.52A5.26,5.26,0,0,0,295,68a13.23,13.23,0,0,0-2.92.41,12.7,12.7,0,0,1-2.36.41,3.25,3.25,0,0,1-2.25-.57,3.6,3.6,0,0,1-.56-2.42V32.24a7.56,7.56,0,0,0-.77-3.92,2.75,2.75,0,0,0-2.51-1.2,12,12,0,0,0-2.18.41,12,12,0,0,1-2.74.41q-4.81,0-10.11-.41t-5.71-.41a6.83,6.83,0,0,0-5,1.88A6.75,6.75,0,0,0,256,34.06a6,6,0,0,0,1.54,4.3,5.27,5.27,0,0,0,4,1.61,13,13,0,0,0,2.43-.41,13.26,13.26,0,0,1,2.84-.41,3.12,3.12,0,0,1,2.3.66,4.32,4.32,0,0,1,.61,2.78Zm.92-43a10.11,10.11,0,0,0,14.08,0,9.2,9.2,0,0,0,2.92-6.84,9.3,9.3,0,0,0-2.89-6.89,9.67,9.67,0,0,0-7-2.84,9.85,9.85,0,0,0-7.12,2.76,9.15,9.15,0,0,0-2.87,6.86,9.34,9.34,0,0,0,2.92,6.91m-45.78,43a4.45,4.45,0,0,1-.54,2.71,2.68,2.68,0,0,1-2,.59,14,14,0,0,1-2.61-.41,14.36,14.36,0,0,0-2.92-.41,5.07,5.07,0,0,0-4,1.67,6.6,6.6,0,0,0-1.49,4.54q0,3.5,1.61,5.12a6.79,6.79,0,0,0,5,1.62q.46,0,2.25-.18,6.5-.65,12.34-.64a133.32,133.32,0,0,1,13.88.7q1,.12,1.23.12a5.65,5.65,0,0,0,4.46-1.62q1.43-1.62,1.43-5.12a7.13,7.13,0,0,0-1.33-4.52,4.27,4.27,0,0,0-3.53-1.7,10.75,10.75,0,0,0-2.51.41,10.46,10.46,0,0,1-2.3.41,2,2,0,0,1-1.64-.59,4.79,4.79,0,0,1-.46-2.61v-50q0-3.71-.72-4.88a2.7,2.7,0,0,0-2.51-1.17,12.19,12.19,0,0,0-2.25.41,12.39,12.39,0,0,1-2.82.41q-4.61,0-9.73-.41T218,9.61a6.5,6.5,0,0,0-4.86,1.88,6.91,6.91,0,0,0-1.84,5.05,6.17,6.17,0,0,0,1.46,4.3,5,5,0,0,0,3.92,1.61,13.42,13.42,0,0,0,2.46-.41,13.6,13.6,0,0,1,2.87-.41,3.11,3.11,0,0,1,2.25.63,4.35,4.35,0,0,1,.61,2.82ZM170.5,50.37q0-5.48,2.51-8.29t7.37-2.82q5.33,0,8,3.82T191,54.57q0,7.22-2.74,11.11a8.93,8.93,0,0,1-7.76,3.89,9.35,9.35,0,0,1-7.35-2.94q-2.64-2.94-2.64-8.27Zm5.32,29.87a20.34,20.34,0,0,0,8.76,1.83q10.29,0,16.21-7.66t5.91-21.07q0-12.34-6-19.82A19.18,19.18,0,0,0,185,26,18.93,18.93,0,0,0,176.37,28,11.13,11.13,0,0,0,171,33.06V14.32a7,7,0,0,0-.7-3.72,2.85,2.85,0,0,0-2.5-1,24.1,24.1,0,0,0-3.29.41,24.74,24.74,0,0,1-4,.41Q158,10.43,154,10t-5.66-.41q-4.22,0-6,1.54t-1.77,5.18A6.38,6.38,0,0,0,142,20.69a4.77,4.77,0,0,0,3.76,1.67,16.78,16.78,0,0,0,3-.41,16.83,16.83,0,0,1,3-.41,5.5,5.5,0,0,1,2.77.46,2.38,2.38,0,0,1,.72,2V76.63q0,3,1,3.78t5.76.79q4.61,0,5.71-.79t1.1-3.78v-2a19.07,19.07,0,0,0,6.86,5.59M117.76,54.61q0,6.89-2,9.93t-6.48,3a7.24,7.24,0,0,1-5.63-2.19,8.8,8.8,0,0,1-2-6.16V31.94q0-3.05-.72-4.09a3.16,3.16,0,0,0-2.76-1,38,38,0,0,0-4,.41,38.63,38.63,0,0,1-5,.41,56.78,56.78,0,0,1-6.79-.41l-3.51-.41a5.2,5.2,0,0,0-4.22,2A8.09,8.09,0,0,0,73,34.07a6.69,6.69,0,0,0,1.33,4.39,4.41,4.41,0,0,0,3.58,1.61,9.59,9.59,0,0,0,2.46-.41,9.36,9.36,0,0,1,2-.41,2.61,2.61,0,0,1,2.07.65A4.79,4.79,0,0,1,85,42.69v17.8a49.39,49.39,0,0,0,.72,10.05,13.08,13.08,0,0,0,2.46,5.27,16.09,16.09,0,0,0,6,4.73,19.1,19.1,0,0,0,8,1.63,23,23,0,0,0,11.47-2.91,14.74,14.74,0,0,0,6.91-7.35v6.87a2,2,0,0,0,.69,1.7,3.79,3.79,0,0,0,2.23.51,29.43,29.43,0,0,0,3.46-.41,29.54,29.54,0,0,1,4.38-.41,45.92,45.92,0,0,1,5.84.41q3.17.41,3.74.41a5.71,5.71,0,0,0,4.56-1.89,7.88,7.88,0,0,0,1.64-5.32,6.43,6.43,0,0,0-1.38-4.34A4.74,4.74,0,0,0,142,67.83a10.71,10.71,0,0,0-2.51.41,10.51,10.51,0,0,1-2.3.41,3.37,3.37,0,0,1-2-.51,1.74,1.74,0,0,1-.67-1.47V31.94a7.69,7.69,0,0,0-.74-4A3.08,3.08,0,0,0,131,26.81q-.72,0-4.1.41a50.78,50.78,0,0,1-6,.41,41.44,41.44,0,0,1-5.53-.41q-3-.41-3.64-.41a5.15,5.15,0,0,0-4.1,1.94,7.46,7.46,0,0,0-1.64,5,6.45,6.45,0,0,0,1.61,4.64A5.9,5.9,0,0,0,112,40.08a5.78,5.78,0,0,0,1.61-.41,5.84,5.84,0,0,1,1.82-.41,2.2,2.2,0,0,1,1.82.62,5.2,5.2,0,0,1,.49,2.81ZM37.52,24.34q1.13-.59,5.27-.6,5.22,0,7.94,2.51t2.71,7.37a7.57,7.57,0,0,1-3.64,6.78q-3.64,2.33-10.6,2.33a3.56,3.56,0,0,1-2.2-.51,2.82,2.82,0,0,1-.61-2.18v-13q0-2.16,1.13-2.76M18.42,63.79v.56q0,2.15-.56,2.69a3.17,3.17,0,0,1-2.15.54,11.94,11.94,0,0,1-2.3-.41,12.16,12.16,0,0,0-2.71-.41A5.14,5.14,0,0,0,6.56,68.6a7.43,7.43,0,0,0-1.56,5A8.13,8.13,0,0,0,6.69,79a5.72,5.72,0,0,0,4.61,2l1-.08a160.14,160.14,0,0,1,16.33-.74q7,0,14.39.7,1.59.12,2,.12A7.58,7.58,0,0,0,50.52,79a7.16,7.16,0,0,0,2-5.38,6.44,6.44,0,0,0-6.91-6.91,21,21,0,0,0-3.66.41,20.75,20.75,0,0,1-2.95.41A2.8,2.8,0,0,1,37,67a2.8,2.8,0,0,1-.59-2V57.18a.94.94,0,0,1,.43-.85,2.44,2.44,0,0,1,1.31-.28q.26,0,1.28.1t1.79.1q9.58,0,14.11-1a20.21,20.21,0,0,0,7.81-3.54,20.63,20.63,0,0,0,6.15-7.76,24.14,24.14,0,0,0,2.15-10.25q0-11-6.45-17.22T47.2,10.22q-1.84,0-8.19.41T28,11q-7.73,0-15-.71-1.18-.11-1.43-.11a6.09,6.09,0,0,0-4.86,2A8.39,8.39,0,0,0,5,17.9a7.17,7.17,0,0,0,1.56,4.86,5.19,5.19,0,0,0,4.12,1.8,13,13,0,0,0,2.87-.41,13.24,13.24,0,0,1,2.25-.41,3.18,3.18,0,0,1,2.1.49q.51.49.51,2.61V63.79Z"/><path class="cls-3" d="M440.63,138.22q0-6.92,2-10t6.55-3.11a7.28,7.28,0,0,1,5.63,2.16,8.79,8.79,0,0,1,2,6.19v16.45a4.24,4.24,0,0,1-.33,2.07,2.36,2.36,0,0,1-1.46.76q-2.71.52-3.38,1.7a8.26,8.26,0,0,0-.67,3.85,7.46,7.46,0,0,0,1.43,5,5.57,5.57,0,0,0,4.4,1.63q.87,0,5.3-.41t8-.41a44.74,44.74,0,0,1,5.79.41q3.12.41,3.69.41a5.07,5.07,0,0,0,4.17-1.79,7.9,7.9,0,0,0,1.46-5.11,7.24,7.24,0,0,0-1.23-4.37,3.77,3.77,0,0,0-3.18-1.69,9.33,9.33,0,0,0-2.43.41,9.1,9.1,0,0,1-2,.41,3.45,3.45,0,0,1-2.46-.61q-.56-.61-.56-2.9v-17a49.19,49.19,0,0,0-.74-10,13.1,13.1,0,0,0-2.53-5.44,15.43,15.43,0,0,0-6.2-4.7,22.17,22.17,0,0,0-8.71-1.58,21.31,21.31,0,0,0-10.86,2.64,18.8,18.8,0,0,0-7.27,7.86v-5a9.83,9.83,0,0,0-.59-4.08,2.18,2.18,0,0,0-2.12-1.14,23,23,0,0,0-3.18.41,23.66,23.66,0,0,1-3.94.41,46.75,46.75,0,0,1-6-.41q-3.18-.41-3.58-.41a5,5,0,0,0-4.15,1.91,8.7,8.7,0,0,0-1.49,5.45,7,7,0,0,0,1.26,4.4,4.14,4.14,0,0,0,3.46,1.61,10,10,0,0,0,2.41-.41,9.9,9.9,0,0,1,2.2-.41,3,3,0,0,1,2,.49,3.72,3.72,0,0,1,.49,2.37v23.22a5.15,5.15,0,0,1-.49,2.8,2.37,2.37,0,0,1-1.92.61,10,10,0,0,1-2.1-.41,10.2,10.2,0,0,0-2.51-.41,4.2,4.2,0,0,0-3.48,1.71,7.22,7.22,0,0,0-1.33,4.56q0,3.53,1.43,5.11t4.66,1.58q1,0,4.28-.41a45,45,0,0,1,5.45-.41q1.84,0,6.07.41t6.63.41q3.69,0,5.45-1.6a6.35,6.35,0,0,0,1.77-4.95q0-4.71-4.66-5.55l-.67-.1a2.17,2.17,0,0,1-1.54-.92,6,6,0,0,1-.36-2.54Zm-81,20.17q7.42,7.6,20,7.6,12.9,0,20.36-7.5t7.45-20.41q0-12.8-7.48-20.35t-20.23-7.55q-12.65,0-20.07,7.58t-7.42,20.33q0,12.7,7.42,20.3m11.93-31.62a9.62,9.62,0,0,1,8.25-3.89,9.44,9.44,0,0,1,8.09,4q2.92,4,2.92,11.19,0,7.32-2.84,11.27a9.45,9.45,0,0,1-8.17,3.94,9.59,9.59,0,0,1-8.22-3.94q-2.89-3.94-2.89-11.27t2.87-11.32M317.63,149.5a4.28,4.28,0,0,1-.56,2.62,2.74,2.74,0,0,1-2.15.67,13.34,13.34,0,0,1-2.46-.41,13.74,13.74,0,0,0-2.92-.41,5.27,5.27,0,0,0-4.12,1.67,6.52,6.52,0,0,0-1.51,4.54q0,3.45,1.69,5.09t5.22,1.65q.41,0,5.07-.41t9-.41q7.63,0,15.11.7,1.38.12,1.69.12,3.53,0,5.22-1.65t1.69-5.09a6.48,6.48,0,0,0-1.54-4.52,5.26,5.26,0,0,0-4.1-1.7,13.17,13.17,0,0,0-2.92.41,12.72,12.72,0,0,1-2.36.41,3.24,3.24,0,0,1-2.25-.57,3.59,3.59,0,0,1-.56-2.42V116.17a7.55,7.55,0,0,0-.77-3.92,2.75,2.75,0,0,0-2.51-1.2,12,12,0,0,0-2.18.41,11.9,11.9,0,0,1-2.74.41q-4.81,0-10.11-.41t-5.71-.41a6.83,6.83,0,0,0-5,1.88,6.76,6.76,0,0,0-1.92,5.06,6,6,0,0,0,1.54,4.3,5.27,5.27,0,0,0,4,1.61,13,13,0,0,0,2.43-.41,13.26,13.26,0,0,1,2.84-.41,3.11,3.11,0,0,1,2.3.66,4.32,4.32,0,0,1,.61,2.78Zm.92-43a10.11,10.11,0,0,0,14.08,0,9.2,9.2,0,0,0,2.92-6.84,9.3,9.3,0,0,0-2.89-6.89,9.67,9.67,0,0,0-7-2.84,9.85,9.85,0,0,0-7.12,2.76,9.15,9.15,0,0,0-2.87,6.86,9.34,9.34,0,0,0,2.92,6.91m-54.74,36.92a59.1,59.1,0,0,0,.77,11.55,13.87,13.87,0,0,0,2.61,5.66,13.21,13.21,0,0,0,5.33,4A19.25,19.25,0,0,0,280,166q9.27,0,14.06-4.61t4.79-13.57q0-5.22-1.59-7.89a5.15,5.15,0,0,0-4.71-2.66q-2.92,0-4.17,1.33t-1.26,4.61q0,.87.05,2.2t.05,1.79a7.2,7.2,0,0,1-.95,4.17,3.51,3.51,0,0,1-3,1.31,3.14,3.14,0,0,1-2.82-1.15q-.77-1.15-.77-4.63V126a2.14,2.14,0,0,1,.67-1.77,3.74,3.74,0,0,1,2.3-.54h6.5q5.84,0,7.27-1.33t1.43-5.07q0-3-1.23-4.2t-4.66-1.23H281.84a2.28,2.28,0,0,1-1.72-.72,2.48,2.48,0,0,1-.69-1.79v-7.48q0-4-1.31-5t-5.09-1q-4.46,0-6.68,1.51a5.11,5.11,0,0,0-2.23,4.53v7.58a5.66,5.66,0,0,1-.26,2q-.26.64-.77.64l-5.79.31q-3.69.26-4.61,1.67t-.92,4.84a6.14,6.14,0,0,0,1,3.89,4.1,4.1,0,0,0,3.33,1.18h5.63a1.74,1.74,0,0,1,1.61.79,5.3,5.3,0,0,1,.49,2.64v15.93Zm-30.6,21A13.25,13.25,0,0,0,240,166a11.72,11.72,0,0,0,7.37-2.07,6.84,6.84,0,0,0,2.66-5.71,5.73,5.73,0,0,0-1-3.64A3.92,3.92,0,0,0,246,153.1,9.09,9.09,0,0,0,245,153q-4-.2-4-2.77V129q0-6.55-1-9.37a11,11,0,0,0-3.48-4.81,19.48,19.48,0,0,0-7.55-3.48,47.34,47.34,0,0,0-11.14-1.13q-11,0-16.69,3.12t-5.73,9.06a7.37,7.37,0,0,0,2.53,5.81,9.75,9.75,0,0,0,6.68,2.23,12.4,12.4,0,0,0,6.43-1.54q2.59-1.54,2.59-3.58,0-.31-.1-1.31c-.07-.67-.1-1.2-.1-1.61a2.2,2.2,0,0,1,1.13-2.07,7.72,7.72,0,0,1,3.64-.64,6.61,6.61,0,0,1,4.69,1.69,5.68,5.68,0,0,1,1.82,4.35q0,5-12.85,7l-2.1.31q-10.75,1.64-14.8,5.38t-4,11.27A15.06,15.06,0,0,0,196,161.49q5.12,4.51,13.67,4.51a35.88,35.88,0,0,0,11.11-1.49,23.78,23.78,0,0,0,8.3-4.81,10.16,10.16,0,0,0,4.17,4.71m-8.93-19.92q0,5-2.41,7.45t-7.22,2.48a6.6,6.6,0,0,1-4.63-1.61,5.45,5.45,0,0,1-1.77-4.22q0-4.3,6.45-5.4a35.46,35.46,0,0,0,9.58-2.69Zm-65.19,5a4.45,4.45,0,0,1-.54,2.71,2.68,2.68,0,0,1-2,.59,14,14,0,0,1-2.61-.41A14.3,14.3,0,0,0,151,152a5.07,5.07,0,0,0-4,1.67,6.59,6.59,0,0,0-1.49,4.54q0,3.5,1.61,5.12t5,1.62q.46,0,2.25-.17,6.5-.65,12.34-.65a133.06,133.06,0,0,1,13.88.7q1,.12,1.23.12a5.65,5.65,0,0,0,4.46-1.62q1.43-1.62,1.43-5.12a7.12,7.12,0,0,0-1.33-4.52,4.27,4.27,0,0,0-3.53-1.7,10.7,10.7,0,0,0-2.51.41,10.48,10.48,0,0,1-2.3.41,2,2,0,0,1-1.64-.59,4.8,4.8,0,0,1-.46-2.61v-50q0-3.71-.72-4.88a2.71,2.71,0,0,0-2.51-1.17,12.24,12.24,0,0,0-2.25.41,12.34,12.34,0,0,1-2.82.41q-4.61,0-9.73-.41t-5.68-.41a6.5,6.5,0,0,0-4.87,1.88,6.91,6.91,0,0,0-1.84,5.05,6.17,6.17,0,0,0,1.46,4.3,5,5,0,0,0,3.92,1.61,13.38,13.38,0,0,0,2.46-.41,13.59,13.59,0,0,1,2.87-.41,3.11,3.11,0,0,1,2.25.63,4.35,4.35,0,0,1,.62,2.82Zm-20.79-9a3.35,3.35,0,0,0,3-1.33,7.74,7.74,0,0,0,.92-4.3q0-11.57-7-18.13T116,110.18q-12.7,0-20.1,7.55t-7.4,20.35q0,13,7.55,20.46T116.8,166q10.91,0,17.79-4.33t6.89-10.78a6.41,6.41,0,0,0-2.28-5.25,9.7,9.7,0,0,0-6.32-1.87,8.94,8.94,0,0,0-4.74,1.23,6.62,6.62,0,0,0-2.84,3.38,7.91,7.91,0,0,1-2.82,4.12,8.51,8.51,0,0,1-4.81,1.2q-5.74,0-8.53-3.28t-2.79-9.93ZM107,131a9.61,9.61,0,0,1,2.61-6.68,8.74,8.74,0,0,1,6.5-2.48,8.61,8.61,0,0,1,6.53,2.38q2.28,2.38,2.28,6.84ZM19.56,147.64v.56a4.86,4.86,0,0,1-.49,2.73,2.3,2.3,0,0,1-1.82.58,12,12,0,0,1-2.3-.41,12.17,12.17,0,0,0-2.71-.41,5.74,5.74,0,0,0-4.51,1.77,7.29,7.29,0,0,0-1.59,5q0,3.74,1.72,5.59a6.63,6.63,0,0,0,5.1,1.84q.26,0,1.38-.12,7-.7,14.49-.7a119.07,119.07,0,0,1,14.08.76l1,.06A5.69,5.69,0,0,0,48.59,163a8.63,8.63,0,0,0,1.59-5.61,8.09,8.09,0,0,0-1.33-4.88,4.22,4.22,0,0,0-3.58-1.82,11.57,11.57,0,0,0-2.33.41,11.65,11.65,0,0,1-2.59.41,3.2,3.2,0,0,1-2.23-.58,3.72,3.72,0,0,1-.59-2.53v-7.32q0-3.2.87-4.19t4.45-1q7.17,0,9.73,2.13t2.56,8q0,.57-.05,2.65T55,152.18q0,6.32,2.71,9.53t8.09,3.21a12.27,12.27,0,0,0,2.59-.41A12.21,12.21,0,0,1,71,164.1a25.25,25.25,0,0,1,3.94.41,24.78,24.78,0,0,0,3.38.41q4.76,0,7.12-1.95t2.36-5.9a6.65,6.65,0,0,0-1.56-4.73,5.65,5.65,0,0,0-4.33-1.66,14.29,14.29,0,0,0-3.2.41,18,18,0,0,1-2,.41,2.1,2.1,0,0,1-1.95-1,6.89,6.89,0,0,1-.61-3.38q0-.61.05-2.2t.05-2.51q0-1.33-.1-2.51t-.31-2.3a11.2,11.2,0,0,0-4-6.73q-3-2.33-9.22-3.46,7.83-1.26,11.32-4.69t3.48-9.88q0-8.77-5.86-13.56T52.94,94.46q-3.74,0-10.75.41t-10.45.41q-9.63,0-17.82-.72-1.13-.09-1.38-.1a5.92,5.92,0,0,0-4.69,2,7.9,7.9,0,0,0-1.72,5.4,6.45,6.45,0,0,0,1.56,4.62A5.67,5.67,0,0,0,12,108.08a25.12,25.12,0,0,0,2.82-.21q1.74-.2,2.41-.2a2.67,2.67,0,0,1,1.84.46,3.77,3.77,0,0,1,.46,2.35v37.15Zm19.1-39.45a14.15,14.15,0,0,1,4.81-.51q6.25,0,9.11,1.92t2.87,6.07a6.18,6.18,0,0,1-3.28,5.79q-3.28,1.84-10.45,1.84a10,10,0,0,1-3.46-.36q-.74-.36-.74-2.25v-10.4a2.07,2.07,0,0,1,1.13-2.1"/><path class="cls-3" d="M514,164.31a9.89,9.89,0,1,0-9.89-9.89,9.89,9.89,0,0,0,9.89,9.89"/></g></svg>