<svg id="Layer_1" data-name="Layer 1" xmlns="http://www.w3.org/2000/svg" xmlns:xlink="http://www.w3.org/1999/xlink" viewBox="0 0 18.86 782.33"><defs><style>.cls-1,.cls-6{fill:none;}.cls-2{clip-path:url(#clip-path);}.cls-3{font-size:18px;fill:#fff;font-family:HelveticaNeueLTStd-Lt, Helvetica Neue LT Std;}.cls-4{letter-spacing:1em;}.cls-5{letter-spacing:0.93em;}.cls-6{stroke:#fff;stroke-width:2.53px;}</style><clipPath id="clip-path"><rect class="cls-1" y="1.08" width="18.86" height="780.16"/></clipPath></defs><title>what_we_offer_with_line</title><g class="cls-2"><text class="cls-3" transform="translate(15.86 776.24) rotate(-90)"><tspan class="cls-4">WH</tspan><tspan class="cls-5" x="65" y="0">A</tspan><tspan class="cls-4" x="93.11" y="0">T WE OFFE</tspan><tspan x="345.47" y="0">R</tspan></text><path class="cls-6" d="M3.57,389.4l11.71,11.71M3.57,382.6l11.71,11.71M3.57,375.8l11.71,11.71M3.57,369l11.71,11.71M3.57,362.21l11.71,11.71M3.57,355.41l11.71,11.71M3.57,348.62l11.71,11.71M3.57,341.82l11.71,11.72M3.57,335l11.71,11.71M3.57,328.22l11.71,11.72M3.57,321.43l11.71,11.71M3.57,314.63l11.71,11.71M3.57,307.83l11.71,11.71M3.57,301l11.71,11.71M3.57,294.24,15.29,306M3.57,287.44l11.71,11.71M3.57,280.64l11.71,11.71M3.57,273.85l11.71,11.71M3.57,267l11.71,11.71M3.57,260.25,15.29,272M3.57,253.45l11.71,11.72M3.57,246.66l11.71,11.71M3.57,239.86l11.71,11.72M3.57,233.06l11.71,11.72M3.57,226.27,15.29,238M3.57,219.47l11.71,11.72M3.57,212.67l11.71,11.71M3.57,205.88l11.71,11.72M3.57,199.08l11.71,11.71M3.57,192.28,15.29,204M3.57,185.48,15.29,197.2M3.57,178.69,15.29,190.4M3.57,171.89,15.29,183.6M3.57,165.09l11.71,11.72M3.57,158.3,15.29,170M3.57,151.5l11.71,11.71M3.57,144.7l11.71,11.71M3.57,137.9l11.71,11.71M3.57,131.11l11.71,11.71M3.57,124.31,15.29,136M3.57,117.51l11.71,11.71M3.57,110.72l11.71,11.71M3.57,103.92l11.71,11.72M3.57,97.12l11.71,11.71M3.57,90.32,15.29,102M3.57,83.53,15.29,95.24M3.57,76.73,15.29,88.44M3.57,69.93,15.29,81.65M3.57,63.14,15.29,74.85M3.57,56.34,15.29,68.05M3.57,49.54,15.29,61.26M3.57,42.74,15.29,54.46M3.57,35.95,15.29,47.66M3.57,29.15,15.29,40.86M3.57,22.35,15.29,34.07M3.57,15.56,15.29,27.27M3.57,8.76,15.29,20.47M3.57,2,15.29,13.68M3.57-4.84,15.29,6.88M3.57-11.63,15.29.08M3.57-18.43,15.29-6.72M3.57-25.23,15.29-13.51M3.57-32,15.29-20.31"/></g></svg>