<svg id="Layer_1" data-name="Layer 1" xmlns="http://www.w3.org/2000/svg" xmlns:xlink="http://www.w3.org/1999/xlink" viewBox="0 0 244 332"><defs><style>.cls-1{fill:none;}.cls-2{fill:#d71921;}.cls-3{clip-path:url(#clip-path);}.cls-4{fill:#2e3191;}.cls-5{fill:#fff;}</style><clipPath id="clip-path"><rect class="cls-1" x="10" y="9.8" width="226.77" height="310.2"/></clipPath></defs><title>logo</title><rect class="cls-2" x="10" y="9.8" width="225.95" height="9.17"/><g class="cls-3"><path class="cls-2" d="M10.17,58.7H236V299.47c-9.73-2.82-26.5-5.69-35,2.72-2.32-3-7.13-2.08-10.64-3-1.44-1.64-4.31-1-6.37-1.41l-3.5-2.32c-1.53-1-7.55-3.1-8.44-.37l-4.56,1.14-5,.55-10.78,3-5.73,1.13-6.09-1.69-3.15.68c-2.67-3-9.29-6-13.71-4.63-2.74.22-6.37,1.64-9.51-2.47V290.4l-1.64-.64-4.3-4-2.09-4.65c-3.23-.64-6.34-1.28-9.73.13l-4.29-1.9-7.14-3.15c-4.13.41-7.77,3-11,4.69-3-1-9.19-3.37-13.87-2.36l-11.68-9.43c-5.73,3.73-11.83,11.11-20,14.35l-8.83.4-8.69-.64Z"/><path class="cls-4" d="M10.35,39.16a22,22,0,0,1,1-6.06,16.73,16.73,0,0,1,3.26-4.51,11.09,11.09,0,0,1,4.91-2.89,19.29,19.29,0,0,1,6.09-1A16.29,16.29,0,0,1,32.77,26a13.88,13.88,0,0,1,5.09,3.72,10.65,10.65,0,0,1,2.32,5.21h-7C32.27,31.69,29.68,30,25.9,30c-2.72,0-4.9.78-6.36,2.6S17.36,37,17.36,39.91v.28a11.3,11.3,0,0,0,2.18,6.48,7.42,7.42,0,0,0,6,2.59c4,0,6.72-1.68,7.64-5.19h7a11.92,11.92,0,0,1-4.69,7.53c-2.31,1.9-5.81,2.67-9.86,2.67-4.51,0-8.27-1-11-3.32-2.87-2.58-4.28-6.24-4.28-11ZM45.41,53.64V25.43h6.85V36.19H65.78V25.43h6.86V53.64H65.78V41.24H52.26v12.4Zm31.49,0L88.73,25.43H97L109,53.64h-7.78l-2.09-5.56H86.63l-2.46,5.56ZM92.78,31.9,88.46,43.17h8.71Zm20.5,21.74V25.43h7.26l13.39,19.83V25.43h6.58V53.64h-7.16l-13.49-19.9v19.9Zm34,0V25.43h7.28l13.24,19.83h.12V25.43h6.6V53.64h-7.28l-13.45-19.9v19.9Zm34.23,0V25.43h24.7v5.08H188.42v5.94h16.22v5H188.42v7.24H207v4.93Zm31.28,0V25.43h6.92V48.49h16.59v5.14Z"/><path class="cls-5" d="M88.17,90.77s1.27-.41,1.55-.26V91h-.9a1.2,1.2,0,0,1-.9.41,2.7,2.7,0,0,1,.25-.64"/><path class="cls-5" d="M52.91,110.27H51.73l-.23.27c0,.36.23,1.14.23,1.28.68,0,1.31-.14,1.86-.14,0-.51-.54-.91-.68-1.41"/><path class="cls-5" d="M126,163.54v.79l.13.13c.21,0,.64.14.77.14v-.51l-.27-.41Z"/><path class="cls-5" d="M165.87,156.11c0,.86,0,1.15-.68,1.69-.37,0-.92.37-1.27.37,0-.27-.14-.5-.14-.77a6.79,6.79,0,0,1,2.1-1.29"/><path class="cls-5" d="M138.59,183.42c0,.54-.27,1.16,0,1.53a2,2,0,0,0,.5-1.53Z"/><path class="cls-5" d="M124,161.53v1.29h.49v-.93a3.13,3.13,0,0,0-.49-.36"/><path class="cls-5" d="M113.56,177.81c0,.26-.24.82-.24,1a1.19,1.19,0,0,0-.91.63v.91l.09.15h.91Z"/><path class="cls-5" d="M119.51,170.19a3.55,3.55,0,0,0-.64.77,14,14,0,0,0,0,2.32l.13.24h.63c.26-.78.79-2.19-.12-3.33"/><path class="cls-5" d="M116.46,178.34V180h.9a1.7,1.7,0,0,0,.42-1.15,8.56,8.56,0,0,0-1.32-.51"/><path class="cls-5" d="M109.63,196a3,3,0,0,1-.68,1.55,2.51,2.51,0,0,0,.15,1s.26-.26.39-.26c0-.65.42-1.56.14-2.34"/><path class="cls-5" d="M111,193.43a5.57,5.57,0,0,1,1.68-4.23V188l-.28-.29h-.65c-.63.51-.63,2.2-1.53,2.6l-.13,3.87a.79.79,0,0,0,.63.37c.13-.37.13-.77.28-1.15"/><path class="cls-5" d="M120.54,186.78c.49,0,.91-.09,1.18-.09,0-.27.22-.78.22-1.05-.22,0-.49-.14-.75-.14a1,1,0,0,1-.66.27Z"/><path class="cls-5" d="M145.77,108.73c-.55,1-1.19,2.45-2.37,3a4,4,0,0,1-.76,2.54c0,.82-.28,1.6-.28,2.32h.77c0-1.77,1.73-3.09,1.73-4.65.23-.21.23-.21.23-.78a3.73,3.73,0,0,0,1.18-2.32c-.15,0-.27-.14-.5-.14"/><path class="cls-5" d="M129.41,95.2a13,13,0,0,0-3.27-.28,6,6,0,0,1-.35.5,15.18,15.18,0,0,0,4.12.14v-.28Z"/><path class="cls-5" d="M181.2,84.11c-.79,0-2,.27-2.74.27V85h2.74a5.26,5.26,0,0,1,1.4-.45c-.65-.19-1.4-.19-1.4-.46"/><path class="cls-5" d="M130.6,94.32c.36.51,2.19,1.42,2.19,0a5.92,5.92,0,0,0-2.19,0"/><path class="cls-5" d="M111.51,92.45h1.3c.27.28.92,1.42.51,1.92l-.24.27h-1a11.75,11.75,0,0,0-.54-2.19"/><path class="cls-5" d="M116.27,91.59h2.09v1.68h-1.56c0-.91,0-1.13-.54-1.68"/><path class="cls-5" d="M83.6,125.55a7,7,0,0,1-.55,2.23c.26,0,.55.23.77.23,0-.78.67-1.28.67-2.19-.4,0-.67-.26-.89-.26"/><path class="cls-5" d="M74.37,123.68A20.54,20.54,0,0,0,78.54,121a10.31,10.31,0,0,0-1.3-.28c-.63.51-1.15,1.27-2,1.27a2.92,2.92,0,0,1-.9,1.7"/><path class="cls-5" d="M93.63,116.38h3.64v-1.13L97,115c-.65-.29-1.46.27-2,.27,0,.36-.25.63-1.42,1.13"/><path class="cls-5" d="M151.73,85.48h-1.32a1.77,1.77,0,0,1-1.17.51,4.07,4.07,0,0,0,2.5-.51"/><path class="cls-5" d="M136.37,84.11c0,.43.81.91.81,1.19.24-.5.24-1.42-.81-1.19"/><path class="cls-5" d="M129.91,85.48a13,13,0,0,0,1.4,1.69l.56-.49v-1.2c-.77,0-1.47-.27-2,0"/><path class="cls-5" d="M75.05,92.64l2.48.91c0-1.18-1.18-.91-2.48-.91"/><path class="cls-5" d="M78.13,108.23c-.78.27-3.92,2-3.92,3.13a7,7,0,0,0,2.23,0c0-.27.5-.89.5-1.17.63,0,1.42-.51,1.69-.51a2.55,2.55,0,0,0-.51-1.45"/><path class="cls-5" d="M125.63,99.25c0,.26,0,1.69.69,1.69h1l.45-.27v-.56c0-.36-.92-.36-2.1-.86"/><path class="cls-5" d="M112.69,105.54h2.63v-1c-1.32,0-2.63.77-2.63,1"/><path class="cls-5" d="M102.63,113.84a5.11,5.11,0,0,1,2.72-.92c0-1.56-2.17,0-2.72.64,0,.28.27.54,0,.28"/><path class="cls-5" d="M159,161c-.41.85-3.28,2.17-3.28,3.59-.36.13-.13.13-.49.4,0,.78-.51,1.93-.28,2.7.64,0,1.18-.91,1.46-.91a1.06,1.06,0,0,1,.64-1c0-.55,2-2.74,2.46-3.24,0-.68.53-1.53-.51-1.53"/><path class="cls-5" d="M75.57,122.66a1.52,1.52,0,0,0-1.43,1.42Z"/><path class="cls-5" d="M76.41,110.47c.67,0,1.46-.69,2.09-.69a2.61,2.61,0,0,0-2.09.69"/><path class="cls-5" d="M137.93,88.72c-1.48-.63-7.15,1.42-9.33,1.42,5.81,0,13.57-.77,18.64-2.82a4.48,4.48,0,0,0-3,.77c-1.4,0-3.51-.77-4.29-.77Z"/><path class="cls-5" d="M116.27,88.72c-1.4-.63-7.14,1.42-9.36,1.42,5.86,0,13.63-.77,18.73-2.82-.64,0-2.22,0-3,.77-1.41,0-3.49-.77-4.27-.77Z"/><path class="cls-5" d="M140.28,137.08c2.09-4.24,2.09-10.08,6.37-14.36-3.51.77-7,9.48-9.83,12.3l1.41,1.42c-.76,0-1.41.64-2.22.64,0,2.1-.62,2.86-1.4,5,.78-1.46,4.28-2.86,5.68-5"/><path class="cls-5" d="M186,142.16c0,.65-1.44,2.06-1.44,2.06a3.62,3.62,0,0,1-1.43-2.7c-.68,0-1.46-.75-2.09-.75a39,39,0,0,0,5-5.7c.64,0,2,1.45,2,1.45,0,1.42-1.4,4.25-2,5.64"/><path class="cls-5" d="M146.78,202.91l-1.41,1.46c0,.65.72,2.06.72,2.83a14.88,14.88,0,0,1-4.27,2.86c-.78-2.19,2.08-8.51,4.27-10.61l1.33,1.41a2.6,2.6,0,0,0-.65,2.05"/><path class="cls-5" d="M143,213.8c0,1.41-.64,5.71-1.4,6.34l-.65.76a7,7,0,0,1-2.22.77c-1.41-.77-2.06-2.94-2.06-4.37,1.43-1.46,2.06-4.92,3.51-7,2.18,0,2.82-.77,4.28,0,0,.65-1.46,2.09-1.46,3.5"/><path class="cls-5" d="M149.68,197.86c-.68.64-1.45,2.05-2.09,2.81-1.41-2.81,2.74-9.14,4.91-11.47.69,2.33-1.41,7.23-2.82,8.66"/><path class="cls-5" d="M123.41,241.94c1.45-1.39,1.45-3.49,3.5-4.85,0-3.79,6.64-15.32,10.14-13.86-.64.79-1.41,2.19-2,3,.63,5.06-5.86,13.73-4.45,17.17-.78.69-1.41,2.88-2.82,2.1,0,2.19-2.23,5.19-2.23,6.61-.64,0-1.4.63-2.09.63,0,5,.69,14.49-2.81,18.1,0,1.42.76,2.19-.71,3.64,0,0-1.39-1.45-1.39-2.22-.77,0-2.19.77-3.78.77-1.4-1.56-.63-2.19-.63-3.61,0,0-1.47,1.42-1.47,2.05.07.79.7,1.56.7,2.24l-1.41,1.5c-.68,0-2.09-.73-2.87-.73,0-6.46,9.45-21.75,13-25.38,0-2.18,1.4-5,1.4-7.12"/><path class="cls-5" d="M129.51,143.68c0-.14.13-.51.13-.79h.27v-.54h.23c.82-1.27.68-4.37,2.23-5.27,0-.64.26-1.69.26-2.33,1.68-1.65,1.54-5.69,3.51-7.1,0-.15.23-.92.23-1.05h.4a20.92,20.92,0,0,1,2.58-3.88v-1.27l-.76-.14c-.77.63-.92,2.83-1.82,3.09a9.91,9.91,0,0,1-2,3.52v.63c-.22.21-.89.78-1.17.78,0,.9-.77,2.09-1,2.86-1,3.1-2.36,6.06-4.67,8.25h-.54v-1.82a6.13,6.13,0,0,0,1-2.6c.26-.37,2.24-3.1,2.24-3.73.5-.1,1.54-1.7,1.68-2.19,2.57-6.34,4.53-12.82,8.17-18.88l.28-.13c0-1,1.93-2,1.93-3.09.25-.28,1.3-2.33,1-3l-.14-.12a22.53,22.53,0,0,0-4.28.49l-8.25,2.46c-1.6.37-4.69,1.55-6.65,1.91a27.74,27.74,0,0,1-6.64,2c-1.32.27-4.41.27-5.44,1.27,0,2.6-1.05,2.87-2.46,4.14l-5.2-.24a11.87,11.87,0,0,0-.27,1.42c-2.44,0-9.08,1.06-10.78,2.75v1c-1.8,0-4.26-.27-6,.63v2.73a2.13,2.13,0,0,1-1.45.78c-1.55,1.7-2.18,4.37-4.64,5.29-.26.78-.26.27-.53,1H80a1.2,1.2,0,0,1-.63,1.13v1.05a1.49,1.49,0,0,0-.54,1.18c-.49,0-.73.23-1.28.23-.63-.5-1.41-1.15-1.41-1.92h-1v2.19H73.94v-2.19c-.77,0-2-1.15-2.72-1.15-.27-.8-1-2.22-1.68-2.22,0-.51-.26-.77-.26-1.27.26,0,.91-.55,1.18-.55-1.68-3.33-3.65-3.33-6.88-3.33a66.47,66.47,0,0,0-6-5.48h-.64c-.75-.63-1.27-1.91-2.45-2.18,0-.28-.55-.92-.55-1.15a21.12,21.12,0,0,1-3.86,0l-.28-.25v-1.05c-.22-.36-.76-.63-1-.92,0-1,.56-2.18.56-3.23l-.78-.92H46.82c0-.77-.23-2.17-.23-3,.49,0,.49-.51,1-1.15v-2.23c-.76,0-1.26-.76-1.77-1.27V101.8l.24-.27h1c-.26-1.69-2.17-1.32-3.21-2.45a2.36,2.36,0,0,1,1.95-2c0-.24.51-.73.51-1,1.26-.22,2.23-1.91,3-2.69h3.22c0-.36.41-1.18.41-1.68a15.75,15.75,0,0,0,3.24-.23c0-3.64,7.9.73,9.07,1s4,0,4.93-.77A31,31,0,0,0,78.64,90c2-.51,6.37-1.41,7.63-2.69,9.64,0,17.55-3.38,27.14-3.38,3.91-3,11.31.24,14.82-3.24l25.31-.48c1.54-1.46,4.36-2.87,6.18-4.16,3.9,0,8.08-.89,12.09-.89.27-.28.64-.56.64-1.06,1.33,0,3.51.28,3.76-1.18a48.16,48.16,0,0,1,8.6-.51l.51.51c0,.91-.28,2-.28,2.46.28.42.56.9.77,1.18.56,0,.79.27,1.18.54,0,1.42-.9,4.12.51,4.88l.27,3.11.28.28h1l1.14,1c0,1.4-.28,2.82-.28,4.14a7.34,7.34,0,0,0,2,1.9l.26,2.47.28.28h1c1.41,2.81,3,4.36,3,7.74,1.18,1.05,1.18,2.73,1.18,4.37-.26,0-.51.28-.76.28v2.46a2.7,2.7,0,0,0-1.41.76c0,2.62,1.41,10-1.44,11.27-.53.41-1.55.63-1.55,1.68-2.23.51-5.19,1.4-6.09,3.88-1.33.28-2.73,4.15-2.73,5.46-2.22,1.42-2.72,7-4.95,7-.77,2.18-2.72,4.64-2.72,7.1-1.7,0-2.74,3.51-3.88,3.73,0,2.88-3.78,8-4.95,10.49,0,.27-.77.91-1,1.14v1.54c-.22,0-.51.43-.51.68,0,3.52-4.13,7.89-5.45,11.21-.41.82-1.46,2.74-2.23,3,0-2.46.77-6.61,2.77-8a6.65,6.65,0,0,1,2.2-4,16.3,16.3,0,0,1,1.31-6.34c-.83-.27-2.24-.27-3-1.19,0-.78-.27-3,1-3,1.74-2.46,2.49-7.12,5-8.79,0-.78,1.17-1.41,1.17-2.2,1.29,0,2.46-2.22,3.22-2.95,0-2.46.29-6.61-.48-8.58-.77.78-1.45,2.2-2.23,2.47,0,3-3.23,5.41-3.23,8.8-.91,1-3.4,4.42-3.4,5.46-.73,0-1,.65-1.27,1.15-2,0-3,3.87-3,5.13-2.82,1.47-6.09,8-7.07,11-.29.51-.71.28-.71,1.14-.27,0-.5.27-.77.27,0,.51-.27,1.05-.27,1.54-.22.42-.77.42-1,.65l-.36.27c-.26.21-.26,1.29-.26,2a3.7,3.7,0,0,1-1.55.77l-.29-.27c0-.29.29-.78.29-1.18-.29,0-.92.4-1.18.4a6.55,6.55,0,0,1-2.19,3c0,4.92-2.73,8.78-6,12-4.4,0-2.94,5.83-4.4,8a12.1,12.1,0,0,0-1,3.65,8,8,0,0,0-2.25,5.65,3.86,3.86,0,0,0-1.17,2.45c-1,.27-1,2.46-2.72,2.88,0,.77-.24,1.76-.24,2.68-2,2-2.71,5.69-4.67,8.16a43.9,43.9,0,0,1-3.29,16c-.27.5-.49.27-.49,1-1.69.5-2.86,1.42-4.95,1.42,0-1.42.55-3.61,1.59-3.92,0-.74.5-1.41.5-1.92.41,0,.65-.5.65-.77.75-.55,1-1.7,1.59-1.7v-1l.63-.58c0-2.24.22-4.7,1.55-6v-1.18c2.23-2.19,1.45-9.79,2.23-12.94.49-2.19.76-4.09,2.69-5.42,0-.91,3-5.57,3.67-6.35,2.44-4.37,4.9-10.46,7.9-14.2h.51a12.47,12.47,0,0,1,2.22-5.07c0-3.73,3.9-6.61,3.9-10.07-1.45-.9-3.9,5.2-4.46,6.84-1.4,3.91-6.08,3.49-7.64,7.16-.62,0-.89.22-1.43.22a.68.68,0,0,0-.79-.76v-1.19l.55-.49v-1h-1l-.41-.42c-.22-.53.41-1.26.41-1.82.5-.39,2.71-4.08,1.28-4.76h-.51c-.27,0-.27.68-.27.89-.5.29-1.4,1.7-2.18,1.7,0,1.27-.54,3.73-.54,5.43h1l.55.49c0,1.47,0,3.15-1,4.15,0,1.19,0,2.74-.82,3.14,0,1.28-1.14,1.28-1.91,2.19a10,10,0,0,1,0-2.85h-1.18c-1.8,1.94-6.72,6.33-6.72,9.29-.69.68-.69,1.17-1.2,1.17v1c-1,.43-1.94,3.11-2.22,4.15-1,3.6-3.22,6.84-4.41,10.47v1.15l-.5.5c0,1.33,0,3.77-1.05,4.69,0,.78-.63,1.7-.63,2.46-1.59,1.64-1.81,5.43-2.73,7.4a17.1,17.1,0,0,0-.5,1.85c-.27,0-.53.27-.81.27,0,.65-.23,1.46-.23,2-.68.51-.68,1.18-1.18,1.69h-1a6.85,6.85,0,0,0-.27-2.45l-.92.77v1.18c-.22,0-.76.51-1,.51,0,.55-.24,2.46,0,2.73h.54c.27.23,0,2.19,0,2.7-1.31.4-2.23,5.32-3.26,6.33a8.84,8.84,0,0,1-2.18,5.57v1h-.51c-1.45-1.27.51-8.28.51-9.84.5-.64.5-1.14,1-1.68,0-2.68,2.17-4.38,2.17-7.11,2-.5,2.73-7.11,5-7.74a1.43,1.43,0,0,1,.5-1v-1.19c2.22-2.13,5-11.21,5.74-14.35.49-1.76-2,2-2.46,1.32s1.77-1.15,1.41-3c-.91-4.28,2.1-10.36,3.13-13.08C108,194,111,188.56,111,184.83l-.78-.93c-.78,4.16-5.2,8-5.2,12.13-1.45,1.33-1.73,5.46-2.23,7.38-.54,2.19-3.22,4.42-3.22,6.62-.68.26-1.18,1.17-1.45,1.4H97l-.22-.22c-.7-1.46,1.27-5.83,2-6.62,0-2.83,2.51-6.1,3.37-8.56.81-2.18,1.94-6.7,3.68-8.38,0-3.75,4.63-8.16,4.63-11.39.55,0,.42,4,1.06,3.49l1.31-3a9.49,9.49,0,0,0,1.4-2.73h1.55l.63-.49c.27-.69,0-3.09,0-3.91.83-.77,1.32-1.91,2.24-2.68,0-3.1,0-6.07,2.08-8.31l1.2-.49c1-1.19.22-3.37.73-4.37,1.17-2.45,4.17-5.33,6.11-7.24V145l.51-.5Z"/><path class="cls-4" d="M11.18,320V309.67H16a3.25,3.25,0,0,1,2.45.9,3.56,3.56,0,0,1,.77,2.37,3.72,3.72,0,0,1-.77,2.42,3.52,3.52,0,0,1-2.58,1.06H13.28V320Zm2.1-5.56h2.06a3,3,0,0,0,1.42-.21A2.94,2.94,0,0,0,17,313a2.14,2.14,0,0,0-.28-1.12,2.24,2.24,0,0,0-1.54-.42H13.28ZM28.16,320V309.67H33.5a3.75,3.75,0,0,1,2.5.82,3.32,3.32,0,0,1,.77,2.18,2.48,2.48,0,0,1-.4,1.41,2.65,2.65,0,0,1-1.29,1c.65.22,1,.36,1.15.78a5.47,5.47,0,0,1,.25,1.55v1a1.9,1.9,0,0,0,.17,1.05.39.39,0,0,0,.39.36V320h-2.5c0-.13-.12-.37-.12-.49v-.64c0-.27-.15-.5-.15-.78v-.62a2.09,2.09,0,0,0-.22-1c-.27-.29-.63-.36-1.32-.36H30.4V320Zm2.24-5.64H33a1.37,1.37,0,0,0,1.54-1.55c0-.4,0-.64-.27-.89a1.35,1.35,0,0,0-1.13-.42H30.4Zm15.54-4.69H48V320h-2.1ZM60,320l-2.45-7.32-1-3h2.31L61,317.19v.36l2.17-7.34.14-.53h2.31L63.09,317l-1,3Zm12.47,0,3.77-10.33h2.58L82.6,320H80.09l-.63-2H75.55l-.79,2Zm5-8-1.41,4.29h2.72Zm15,8v-8.5H89.17v-1.82h8.6v1.82H94.63V320Zm13.86,0V309.67h7.78v1.82h-5.54v2.18h5v1.82h-5v2.72h5.81V320Zm30.13,0V309.67h2.05v8.55h5.24V320Zm16.11-10.33h2V320h-2ZM163.82,320V309.67h3.24l2,8.28,1.83-8.28H174V320h-2v-8.65h-.14l-2,8.65h-2l-2-8.65V320Zm19.46-10.33h2.08V320h-2.08ZM196.91,320v-8.5h-3.23v-1.82h8.56v1.82h-3.11V320Zm13.87,0V309.67h7.81v1.82H213v2.18h5v1.82h-5v2.72h5.8V320Zm21.82,0h-4.68V309.67h4.68a3.41,3.41,0,0,1,3.13,1.32,6.21,6.21,0,0,1,1,3.45,6.94,6.94,0,0,1-1,4A3.23,3.23,0,0,1,232.6,320M230,318.37h2.21a2.18,2.18,0,0,0,1.83-1,8.13,8.13,0,0,0,.63-2.61,19.12,19.12,0,0,0-.63-2.47,2,2,0,0,0-1.83-.76H230Z"/></g></svg>